<svg width="107" height="90" viewBox="0 0 107 90" fill="none" xmlns="http://www.w3.org/2000/svg">
<path d="M88.9434 31.7435C88.4656 32.3127 88.6444 32.7291 89.4799 32.9927C89.0909 33.2926 88.8974 33.2467 88.449 33.3365C87.9718 33.4301 87.8798 32.6374 87.3452 33.006C87.418 33.4817 88.0619 33.3575 88.1903 33.7701C88.0657 34.0184 87.6805 33.7204 87.5886 34.0432C88.1424 34.8627 89.3362 34.366 89.9341 35.1835C89.6849 35.26 89.4569 35.3306 89.0238 35.4643C89.6792 35.7852 90.2157 35.9552 90.6335 36.2799C91.1087 36.6486 90.8289 37.2617 90.1985 37.3152C90.3116 38.0659 91.8024 37.6667 91.4076 38.7994C90.6641 38.7019 89.8804 38.5988 88.9319 38.4746C89.5125 38.7363 90.0069 38.8452 90.3269 39.1413C90.5703 39.3667 91.3732 39.6398 90.6143 40.2128C90.4802 40.3141 90.4476 40.4898 90.5377 40.6426C90.6565 40.8432 90.8788 40.7935 91.0551 40.7839C92.5459 40.6999 94.0348 40.5948 95.5257 40.5127C97.783 40.3886 100.042 40.2931 102.298 40.1498C102.782 40.1192 102.984 40.4382 103.016 40.7324C103.055 41.0724 102.627 40.9902 102.416 40.9941C101.37 41.0093 100.728 42.1554 100.077 41.9147C100.962 41.5805 102.273 42.2375 103.597 42.0828C104.308 41.9988 104.323 42.6157 104.693 42.929C104.275 43.0168 103.702 42.8545 103.53 42.9576C102.692 43.46 101.717 43.0264 100.939 43.4619C100.74 43.5727 100.642 43.6338 100.416 43.609C100.033 43.567 99.4233 43.29 99.6552 44.1648C99.7318 44.4513 99.4291 44.394 99.2604 44.4112C98.9289 44.4437 98.5763 44.3539 98.2295 44.585C98.4288 44.904 98.6856 44.8181 98.9193 44.8085C99.4406 44.7837 99.9311 44.7455 100.13 45.4274C100.238 45.7941 100.611 45.8896 101 45.8438C101.443 45.7922 101.897 45.8056 102.334 45.7234C103.045 45.5897 103.465 45.861 103.668 46.5524C103.39 46.7988 103.024 46.7396 102.696 46.8046C102.445 46.8542 102.185 46.858 102.208 47.2401C102.229 47.5724 102.359 47.8895 102.687 47.8055C103.421 47.6202 103.89 48.3231 104.568 48.2677C104.67 48.2601 104.877 48.3899 104.875 48.4511C104.844 49.3775 105.58 49.047 106.092 49.1884C105.532 49.3106 105.141 49.4099 105.093 50.1511C105.063 50.6419 104.35 50.9609 103.79 51.1481C102.915 51.4404 102.039 51.7383 101.161 52.0249C100.874 52.1184 100.613 52.1929 100.744 52.5979C100.849 52.9245 101.027 53.0506 101.37 52.9684C102.05 52.808 102.79 52.8386 103.396 52.4489C104.068 52.0153 104.754 52.1146 105.5 52.1414C106.113 52.1624 105.923 52.8137 106.349 52.8538C106.287 53.3027 105.877 53.3409 105.578 53.4058C104.584 53.6236 103.576 53.7745 102.574 53.956C102.397 53.9884 102.225 54.0438 101.955 54.1126C102.671 54.9301 103.133 55.7992 104.264 56.0208C104.996 56.164 105.944 57.6119 105.829 58.2995C105.699 59.0731 105.072 59.5506 104.407 59.8677C103.375 60.3605 102.3 60.7674 101.244 61.2124C100.983 61.3232 100.673 61.3671 100.517 61.6345C100.374 61.8809 100.184 62.1942 100.316 62.4387C100.466 62.7157 100.776 62.4941 101.004 62.4272C102.181 62.0834 103.444 62.0662 104.499 61.2563C105.08 60.8113 105.864 61.2697 106.557 61.2602C106.515 61.6746 106.736 61.9745 106.998 62.2534C106.743 62.4368 106.512 62.7061 106.228 62.7844C105.341 63.0289 104.436 63.218 103.532 63.4014C99.3447 64.2495 95.3034 65.6591 91.149 66.6237C89.66 66.9694 88.1807 67.3763 86.6515 67.5272C86.4637 67.5463 86.2395 67.5654 86.1035 67.6743C85.8793 67.8557 86.0479 68.2511 85.7643 68.4345C85.9234 68.614 86.1226 68.509 86.2989 68.4975C88.7996 68.3428 91.3023 68.1881 93.801 68.0143C94.1134 67.9932 94.4813 67.957 94.7208 67.787C95.8112 67.0076 96.798 66.9389 97.6699 68.1403C97.3518 68.4326 96.7885 68.5835 96.9935 69.3895C97.1411 69.9721 96.273 70.0332 95.8476 70.293C95.6253 70.4286 95.2804 70.3408 95.014 70.4267C94.786 70.4993 94.1613 70.165 94.4296 70.9023C94.443 70.9386 94.0444 71.1449 93.7627 71.143C93.0345 71.1411 92.3485 71.3569 91.6798 71.6606C92.3428 71.6301 92.9885 71.949 93.6535 71.6664C93.9869 71.525 94.2303 71.7046 94.2724 72.0388C94.3203 72.4056 93.9946 72.4552 93.7531 72.4285C92.0247 72.2298 90.5243 73.1409 88.8916 73.4141C87.9201 73.5764 87.1766 74.3348 86.4139 74.8619C85.268 75.6565 84.0186 76.05 82.7654 76.5046C82.3572 76.6536 81.928 76.7415 81.3244 76.9096C81.9931 76.1875 82.9091 76.2506 83.5338 75.5916C82.1713 75.6833 80.9833 75.88 79.96 76.6975C78.9655 77.4902 77.7352 77.7424 76.5261 77.7557C75.614 77.7653 74.8072 77.7023 74.1844 78.5236C74.0618 78.684 73.6191 78.7471 73.3949 78.6649C72.1111 78.1951 71.1913 79.215 69.9265 79.2685C70.304 79.6907 70.647 79.385 70.946 79.6181C70.6183 79.9562 69.9898 79.8053 69.7732 80.3019C69.7483 80.3611 69.4915 80.3974 69.413 80.342C68.1463 79.45 67.2419 80.8291 66.0845 80.9074C64.2257 81.0354 62.3631 81.6179 60.5139 81.979C58.5479 82.361 56.578 82.8652 54.5621 83.0104C54.3398 83.0257 54.1175 83.0238 53.8971 83.0486C53.5216 83.0925 52.7723 81.9656 52.8049 83.3982C52.8068 83.5242 52.3201 83.6255 52.0307 83.528C52.0001 83.2377 52.3296 83.3065 52.3833 83.1193C52.3431 83.0811 52.2971 83.0047 52.2645 83.0104C51.6628 83.0983 51.1569 83.4631 50.5322 82.6991C50.1758 82.2617 49.0989 82.1547 48.3343 82.7411C48.0507 82.9588 47.6751 83.0906 47.1903 82.8939C46.3644 82.5577 45.3794 82.6456 44.6072 82.8901C42.7369 83.4803 42.185 83.593 40.447 83.2434C39.3969 83.0314 38.3142 83.062 37.1626 83.4994C38.0613 83.9349 38.9657 83.5872 40.0024 83.8642C38.0364 84.1316 36.2773 84.1431 34.5239 83.954C34.11 83.9081 33.6999 83.8088 33.2994 83.9177C31.8277 84.315 30.5726 83.19 29.1354 83.3485C28.9725 83.3657 28.8441 83.2205 28.825 83.0448C28.802 82.8309 28.894 82.678 29.1182 82.6246C29.4075 82.5558 29.7812 82.6551 29.9249 82.1566C29.419 82.0152 28.6219 82.1795 28.6947 81.2646C28.6947 81.2589 28.4705 81.234 28.3517 81.2187C27.2901 81.0774 26.2476 80.7603 25.1266 80.8768C25.3815 80.6629 25.8605 80.7145 25.6689 80.1376C25.5942 79.9141 26.056 79.7021 26.3415 79.7709C26.9988 79.9294 27.3859 79.3125 27.4568 79.0489C27.5603 78.6516 27.0505 78.388 26.5523 78.323C25.828 78.2275 26.1729 77.4845 26.2955 77.4062C27.1789 76.837 26.4718 76.5906 26.125 76.2487C25.9717 76.0978 25.8548 75.9106 25.6804 75.689C26.7439 75.2764 27.8017 75.179 28.869 75.0568C28.7694 75.328 28.4705 75.2612 28.1888 75.5973C29.9057 75.4942 31.4541 75.9583 33.0618 75.8456L31.2778 76.1761L31.2931 76.3098C32.8702 76.1092 34.4472 75.9087 36.0243 75.7062C35.4015 76.1627 34.6599 76.1322 33.9528 76.3709C34.0602 76.6269 34.3495 76.4378 34.4779 76.5906C34.3533 76.7319 34.0851 76.6555 34.0237 76.8981C34.0544 76.9325 34.0927 77.007 34.1234 77.0032C35.9342 76.772 37.7125 76.5123 39.2934 75.4331C39.8185 75.0759 40.5792 74.9651 41.2806 74.883C39.9124 74.8218 38.5538 74.7703 37.0514 74.5773C37.4902 74.1113 37.8332 74.3424 38.1398 74.3634C38.3813 74.3806 38.4522 74.3443 38.4656 74.0807C38.4829 73.7541 38.2855 73.9279 38.1705 73.9012C37.6876 73.7923 37.1971 73.8267 36.7601 74.0158C35.6794 74.4857 34.9359 74.5449 33.811 74.2087C33.148 74.01 32.4754 73.9604 31.822 74.4303C33.3837 74.6175 34.9474 74.8046 36.5091 74.9899C33.6903 75.1427 30.9386 74.7588 27.9857 74.0406C28.8767 73.7082 29.5742 73.6834 30.3081 73.7541C29.6739 73.2556 28.892 73.3224 28.0776 73.1639C28.7062 72.7169 29.373 72.7494 30.0092 72.7226C30.2756 72.7112 30.4806 72.6883 30.4442 72.3998C30.4174 72.1878 30.2947 71.9815 29.9843 72.0503C29.3903 72.184 28.6813 72.0828 28.2501 71.8841C27.4204 71.5002 26.7133 72.0694 25.8567 71.8344C26.1652 71.6931 26.3971 71.588 26.6577 71.4696C26.2016 70.9692 25.6229 71.5174 25.1343 71.1392C26.7094 71.0475 28.1581 70.4668 29.672 70.0581C28.7828 70.2338 28.2693 69.2329 27.3801 69.3723C27.2153 69.3972 27.0774 69.2329 27.1732 69.0476C27.3035 68.7974 27.2958 68.4517 27.7653 68.4574C28.4475 68.465 29.1565 68.5185 29.9383 68.148C29.007 67.382 27.7864 67.5482 26.9624 66.8357C26.6194 66.6294 28.0393 66.8606 27.0774 66.3868C26.8532 66.2761 26.6922 65.7852 26.8551 65.6725C27.7059 65.0861 26.8915 64.9371 26.6079 64.8282C25.9755 64.5856 25.7781 63.9037 25.0078 63.6631C25.9429 63.2543 26.8991 62.92 27.4702 63.2276C28.2942 63.6707 28.9649 63.3804 29.7026 63.3555C29.9575 63.3479 30.2947 63.3307 30.3273 63.0327C30.3676 62.6545 29.9651 62.7825 29.7582 62.6908C29.0722 62.3928 28.2482 62.7195 27.4759 62.2114C28.2865 62.0108 28.9764 61.8848 29.7026 62.0605C29.0837 61.7377 28.3574 61.8275 27.748 61.4989C28.3248 61.3289 28.9016 61.1494 29.5129 61.2525C29.7026 61.285 29.8425 61.2583 29.8444 61.0558C29.8444 60.8419 29.7256 60.6871 29.4822 60.7234C28.1639 60.9259 26.88 60.202 25.5539 60.6508C26.7318 59.9734 27.764 59.7353 28.6506 59.9365C28.4475 59.1801 27.9972 58.7159 27.2153 58.7197C26.7037 58.7236 26.5657 58.4619 26.5082 58.0397C27.2211 57.8239 27.9607 57.9729 28.6832 57.8831C28.9572 57.8487 29.2657 57.8564 29.2063 57.419C29.1776 57.1974 29.2945 57.0255 28.9725 56.8249C28.6889 56.6492 27.9435 56.1239 28.9917 55.8107C28.7981 55.484 27.9742 55.8107 28.2252 55.1841C28.5145 54.464 29.1507 55.3771 29.647 54.974C29.3558 54.8422 29.3884 54.3895 28.9074 54.3953C28.7177 54.3953 28.7368 53.4097 28.9629 53.3657C29.762 53.211 30.1529 52.2082 31.1034 52.384C31.3755 52.4336 31.3851 52.1681 31.3602 51.9847C31.2759 51.3678 31.2471 50.7413 31.1896 50.1377C31.1475 49.6926 30.3465 49.3545 29.7544 49.6296C29.3654 49.8111 29.191 49.6009 28.8633 49.4539C29.3864 48.8732 30.0169 49.3545 30.5573 49.2132C30.998 49.0967 31.3314 48.9572 31.2452 48.5561C31.1379 48.0538 32.0347 47.836 31.5288 47.2802C31.479 47.2248 31.6821 47.0758 31.8067 47.1025C32.8242 47.3241 33.7095 46.7167 34.7136 46.6556C33.7497 46.1418 32.692 46.4302 31.7166 46.1991C31.5173 46.1513 31.3276 46.2449 31.2069 46.4015C31.0593 46.5945 30.9846 47.135 30.7815 46.4149C30.7412 46.2736 30.3982 46.1532 30.4998 46.6212C30.5496 46.8504 30.2047 46.7262 30.2104 46.625C30.2219 46.3461 29.8866 46.2525 29.8712 46.0023C30.3503 45.7234 30.793 46.0501 31.2184 45.9527C31.4426 45.9011 31.8258 46.0482 31.8546 45.7521C31.8795 45.4961 31.8929 45.0664 31.3774 45.0568C31.7051 44.6863 32.0462 44.9136 32.303 44.9995C33.1193 45.2727 33.9433 45.2211 34.7634 45.1428C35.2042 45.1008 35.6296 44.8582 35.6679 45.6012C35.6794 45.8323 35.9515 45.8495 36.1949 45.8839C36.9671 45.9928 37.6991 45.6833 38.4618 45.7196C38.5959 45.7254 38.7799 45.6108 38.8699 45.4961C39.4812 44.7168 39.8568 44.6271 40.7479 45.1179C41.1713 45.351 41.5987 45.605 41.6121 44.8085C41.6217 44.2049 42.3977 44.415 42.484 43.8802C42.2559 43.7121 41.34 44.3749 41.7481 43.3492C40.9376 43.2556 41.2997 42.7513 41.3764 42.3292C41.4473 41.9357 41.1503 42.0083 40.8992 41.9472C39.6422 41.6397 38.5844 42.3789 37.4308 42.5909C36.2485 42.8086 35.1026 43.2327 33.9433 43.5765C33.721 43.6434 33.514 43.6987 33.3013 43.567C33.7555 43.2652 32.9353 42.7838 33.4546 42.4935C33.5102 42.4629 33.5811 42.4438 33.6194 42.398C33.8705 42.1019 34.6676 42.3025 34.499 41.7657C34.3323 41.2347 33.7267 41.6435 33.3301 41.6779C32.3969 41.76 31.479 41.6435 30.5611 41.5518C30.061 41.5021 29.8042 40.6311 29.8674 40.1307C29.9766 39.2731 30.8543 38.4231 29.9421 37.512C29.7199 37.2904 29.7697 36.9256 29.9077 36.6047C30.6052 34.9658 31.5154 33.4721 33.1576 32.6431C33.6846 32.3776 33.6884 31.9173 33.9088 31.5525C34.2135 31.0482 33.9471 30.6643 33.3876 30.4924C33.3282 30.4733 33.2093 30.4522 33.286 30.3052C33.9414 29.0674 34.4204 27.7361 35.8231 27.0313C37.9885 25.9425 40.1557 24.8652 42.4131 23.9808C48.6715 21.5302 55.0105 19.2973 61.3398 17.0338C62.5777 16.5907 63.8425 16.7626 65.065 16.4914C65.8622 16.3156 66.8011 16.4608 67.3875 15.6738C68.1138 16.5487 68.6791 15.8056 69.3574 15.4847C69.0087 15.3186 68.75 15.0282 68.3974 15.3377C69.0182 14.9155 69.7445 14.7436 70.4573 14.7589C71.0744 14.7723 71.678 15.0874 72.3027 15.1677C72.9427 15.2498 73.2206 15.7369 73.6287 16.1342C73.3911 16.4073 73.0251 16.2755 72.7626 16.4875C74.3607 16.732 75.773 15.9775 77.3386 15.6032C77.5915 15.7178 76.8212 16.0177 77.3002 16.0788C78.6569 16.2564 80.0232 16.5066 81.309 15.7197C81.698 15.4809 82.1637 15.3644 82.7194 15.1409C81.1519 14.8028 79.7109 15.5592 78.2699 15.1696C80.3356 14.6691 82.3649 14.0006 84.5245 14.0694C84.8273 14.0789 85.1339 14.0846 85.1607 14.4667C85.1875 14.8525 84.8656 14.8468 84.6222 14.8047C83.7791 14.6596 84.2275 15.4981 83.8615 15.7197C84.352 15.3625 85.0112 15.7426 85.4539 15.3205C85.6168 15.1658 85.9981 15.1753 85.565 14.7398C85.1837 14.3559 85.8984 14.2107 86.0901 14.268C86.8776 14.503 87.6921 14.1209 88.5026 14.5354C89.1676 14.8754 89.9053 14.1018 90.6948 14.3349C90.9324 14.4055 91.3118 14.4189 91.2908 14.6252C91.1834 15.7159 92.0343 15.2746 92.5152 15.4179C92.5631 15.8018 92.1205 15.6356 92.0438 15.8629C92.086 15.8973 92.1262 15.9584 92.1703 15.9623C92.3294 15.9699 92.5018 15.9164 92.6455 15.9623C92.9771 16.0692 93.4715 15.9088 93.5922 16.3863C93.7301 16.9364 92.9981 16.6002 92.9138 16.9689C94.2456 17.2611 94.3203 17.3681 94.0214 18.6956C94.6097 18.2735 95.0964 17.7578 95.8476 17.9545C95.8974 18.3652 95.5007 18.22 95.3321 18.348C95.1673 18.4721 95.0179 18.5906 95.0792 18.8064C95.3685 19.813 95.3781 19.8302 94.2839 20.1377C94.0233 20.2103 93.8087 20.472 93.4753 20.3689C93.4274 19.962 94.0176 19.7003 93.734 19.2553C93.5903 19.2152 93.4868 19.2686 93.4197 19.3947C93.2223 19.7672 92.3945 19.3508 92.5689 19.7882C92.7433 20.2256 93.0154 21.024 94.0272 20.6592C93.4005 21.3678 92.7279 21.0049 92.0898 21.1329C92.4999 21.7881 93.3373 21.3755 93.7033 21.9619C93.9141 22.3 94.1383 22.6209 94.7228 22.512C95.2689 22.4107 95.2018 22.9704 95.0466 23.2493C94.7285 23.8223 95.2363 23.6714 95.6215 23.8758C92.2316 25.1231 88.7517 25.2912 85.1492 26.0227C86.3334 26.464 87.372 25.7114 88.4011 26.3264C88.0638 26.5671 87.5253 26.6607 87.8971 27.2204C88.106 27.5336 88.127 27.9328 87.4908 28.2938C88.7709 28.3492 89.7386 28.5823 90.8481 28.842C89.9609 29.4934 89.1388 29.3119 88.3838 28.9853C87.2686 28.5039 87.0539 28.525 86.3967 29.5984C86.2415 29.8544 86.0307 29.862 85.7566 29.8639C85.3715 29.8658 85.2278 30.2612 84.8924 30.4427C85.1703 30.7426 85.5037 30.7235 85.5861 30.5286C85.8467 29.9117 86.4177 30.584 86.709 30.2135C86.7128 30.2097 86.8776 30.2937 86.9141 30.3644C86.9466 30.4293 86.9026 30.607 86.9006 30.607C85.8889 30.5458 86.0728 31.5085 85.7011 31.9918C85.6704 32.0319 85.6129 32.0548 85.5459 32.1007C86.0173 32.3662 86.5097 31.8466 86.939 32.2573C87.1555 31.6919 86.5864 31.499 86.5366 31.0157C87.4525 31.0291 88.3685 30.8648 88.9855 31.7778L88.951 31.7454L88.9434 31.7435ZM60.4315 19.1158C61.3053 19.2495 62.0412 18.8408 62.7751 18.4798C63.8846 17.9354 65.0209 17.8743 66.1688 18.2601C66.9525 18.5218 67.7516 18.7338 68.4702 18.2658C69.0911 17.8628 69.7694 17.5878 70.396 17.2115C70.5167 17.1389 70.7601 17.0243 70.5838 16.7282C69.9725 16.839 69.3363 16.9364 68.6656 16.5926C69.0163 16.4589 69.3018 16.35 69.7943 16.1628C69.0374 16.1533 68.5238 16.3233 67.9854 16.3118C67.0713 16.2927 66.2224 16.7435 65.3122 16.8772C64.8025 16.9517 64.0417 17.3624 63.4305 17.6871C62.4474 18.2104 61.2076 18.2028 60.4296 19.1388C60.3261 18.7109 60.0636 18.814 59.7762 18.9306C59.1706 19.177 58.5594 19.4081 57.9481 19.6449C58.2758 20.0365 58.6437 19.9563 59.0059 19.7939C59.4868 19.5781 59.9582 19.3412 60.4335 19.112L60.4315 19.1158ZM91.3636 70.6425C89.3726 70.5088 88.4375 70.6827 87.7476 71.3397C89.1906 72.2585 90.1717 70.8966 91.3636 70.6425ZM35.2846 48.4969C36.2715 49.5341 37.2641 48.4224 38.1858 48.7433C38.205 48.7509 38.3391 48.5542 38.3468 48.4492C38.3583 48.2658 38.2088 48.1359 38.0459 48.1588C37.1549 48.2868 36.2274 48.1455 35.2846 48.495V48.4969ZM102.242 42.6921C101.464 41.8937 100.805 42.0503 100.186 42.6386C100.816 42.7743 101.472 42.4476 102.242 42.6921Z" fill="#D1E3FF"/>
<path d="M42.3933 33.8532C42.3933 31.2014 42.3933 28.5519 42.3933 25.9001C42.3933 24.8514 42.3643 23.8004 42.403 22.7517C42.4756 20.8579 43.4709 19.8916 45.3742 19.8117C45.6163 19.802 45.8585 19.8093 46.1006 19.8093C59.8232 19.8093 73.5434 19.8093 87.2661 19.8093C90.2009 19.8093 91 20.6084 91 23.5388C91 33.5893 91 43.6397 91 53.6902C91 56.1822 90.1404 57.0589 87.6777 57.0589C75.006 57.0589 62.3319 57.0589 49.6602 57.0589H48.1274C49.0766 58.3279 50.1469 59.2167 51.1373 60.1733C53.0915 62.0575 55.2563 63.651 57.6076 65.0169C58.6585 65.6272 59.3462 65.5618 60.0339 64.5398C60.6853 63.5711 61.4384 62.6702 62.1769 61.762C63.5499 60.074 65.0464 59.8149 66.8359 60.9919C69.9015 63.0092 72.9526 65.0435 75.9916 67.0972C77.8271 68.3372 78.137 69.8411 77.011 71.781C76.5655 72.5487 76.0303 73.2704 75.6647 74.072C73.8147 78.1067 70.3882 78.9567 66.417 78.6976C61.4263 78.3707 57.0773 76.2976 53.0648 73.5053C44.7228 67.7002 37.6641 60.6286 32.4773 51.8278C30.3682 48.2532 29.0049 44.3977 29 40.1572C28.9952 36.6189 30.143 33.7782 33.5355 32.1604C34.5138 31.693 35.3903 31.0222 36.3493 30.5087C37.8506 29.7023 39.4028 30.0656 40.4198 31.4387C41.0155 32.2452 41.5579 33.0904 42.1245 33.9162C42.2141 33.8944 42.3037 33.875 42.3957 33.8532H42.3933ZM66.6882 21.9259C59.707 21.9259 52.7283 21.9404 45.7471 21.909C44.8075 21.9041 44.471 22.1802 44.4855 23.1489C44.5339 26.2948 44.6356 29.4504 44.4661 32.5891C44.2966 35.7447 44.6695 38.5854 46.8295 41.1211C48.0572 42.5644 47.6116 44.2331 46.0934 45.4706C45.0618 46.311 44.0157 47.1344 42.943 47.9239C42.2165 48.4591 42.1463 49.05 42.5628 49.8056C43.42 51.3628 44.3765 52.8498 45.4735 54.2496C45.9069 54.8042 46.3912 55.0318 47.1152 55.0318C60.5521 55.01 73.9866 55.0028 87.4235 55.0391C88.6027 55.0415 88.9272 54.6637 88.9248 53.5134C88.886 43.5065 88.903 33.4972 88.9006 23.4904C88.9006 21.9283 88.8933 21.9259 87.2661 21.9259C80.406 21.9259 73.5483 21.9259 66.6882 21.9259ZM67.233 76.6415C67.5962 76.6415 67.9595 76.656 68.3227 76.6391C70.6449 76.5228 72.5458 75.7454 73.5919 73.4617C74.0084 72.5511 74.5895 71.7132 75.1416 70.8704C75.7131 70.001 75.6453 69.3446 74.7251 68.744C71.7225 66.78 68.7343 64.7965 65.768 62.7767C64.9011 62.1858 64.3103 62.3578 63.7291 63.1449C62.9615 64.1814 62.1721 65.2058 61.3585 66.206C60.1501 67.6906 58.7239 68.0223 57.0773 67.0706C50.1542 63.0746 44.6816 57.5989 40.6813 50.6799C39.6909 48.9677 40.0517 47.5654 41.6233 46.3279C42.6355 45.5287 43.6452 44.7223 44.6792 43.9521C45.4565 43.3733 45.4952 42.7582 44.9746 41.9832C42.9696 39.0068 40.9695 36.0304 39.0056 33.0274C38.4075 32.1144 37.7731 32.0151 36.8917 32.5915C35.9473 33.2066 34.9884 33.8121 33.9883 34.3279C32.0971 35.3015 31.344 36.8974 31.1697 38.9293C30.8476 42.6758 31.7775 46.156 33.5403 49.3891C38.8942 59.207 46.6261 66.809 55.9222 72.8684C59.3341 75.0916 63.0802 76.5495 67.2354 76.6464L67.233 76.6415Z" fill="#00070E"/>
<path d="M66.7127 40.0855C65.8943 40.0443 65.1775 39.7925 64.5552 39.3202C58.9373 35.0603 53.3218 30.7979 47.7088 26.5331C47.2148 26.1578 46.699 25.7339 47.1083 25.034C47.6652 24.0847 48.3578 24.4116 49.0334 24.9226C51.3774 26.7002 53.719 28.4778 56.063 30.2554C59.0802 32.544 62.0949 34.835 65.1121 37.1236C66.611 38.2595 66.8289 38.2619 68.3666 37.0946C73.5656 33.1495 78.7597 29.1971 83.9683 25.2641C84.6294 24.7652 85.4188 23.7989 86.2082 24.8815C86.971 25.9301 85.8668 26.4217 85.1912 26.9376C79.8687 30.9868 74.5342 35.0215 69.2141 39.0708C68.4562 39.6472 67.6523 40.0564 66.7151 40.0879L66.7127 40.0855Z" fill="#00070E"/>
<path d="M74.7758 39.1382C75.2311 39.1261 75.5337 39.3949 75.8122 39.6927C79.1733 43.2864 82.5319 46.8849 85.8929 50.4786C86.4087 51.0307 86.7574 51.6579 86.0697 52.2537C85.4619 52.7792 84.8783 52.4595 84.3867 51.9292C81.0596 48.3597 77.7252 44.7951 74.3981 41.2232C74.0397 40.8381 73.6595 40.4337 73.8774 39.838C74.0276 39.4312 74.3472 39.1963 74.7782 39.1357L74.7758 39.1382Z" fill="#00070E"/>
<path d="M48.1031 52.4919C47.3718 52.5209 46.919 51.9325 47.1103 51.2084C47.2096 50.8379 47.4784 50.5909 47.7254 50.3269C50.9435 46.8761 54.1641 43.4277 57.3871 39.9818C57.5784 39.7759 57.7721 39.5628 57.9973 39.4006C58.3969 39.1124 58.8231 39.0906 59.2202 39.42C59.6585 39.7832 59.7045 40.2506 59.4672 40.7276C59.3461 40.9722 59.1258 41.1732 58.9345 41.3791C55.6897 44.8589 52.44 48.3364 49.1904 51.8138C48.8901 52.1359 48.614 52.504 48.1031 52.4943V52.4919Z" fill="#00070E"/>
<path d="M15.0623 4.48008H19.6223V31.0801H14.3783V10.0281L9.36234 11.4341L8.07034 6.95008L15.0623 4.48008Z" fill="#FF5C4E"/>
</svg>
