<svg width="133" height="92" viewBox="0 0 133 92" fill="none" xmlns="http://www.w3.org/2000/svg">
<path d="M114.943 31.7435C114.466 32.3127 114.644 32.7291 115.48 32.9927C115.091 33.2926 114.897 33.2467 114.449 33.3365C113.972 33.4301 113.88 32.6374 113.345 33.006C113.418 33.4817 114.062 33.3575 114.19 33.7701C114.066 34.0184 113.681 33.7204 113.589 34.0432C114.142 34.8627 115.336 34.366 115.934 35.1835C115.685 35.26 115.457 35.3306 115.024 35.4643C115.679 35.7852 116.216 35.9552 116.633 36.2799C117.109 36.6486 116.829 37.2617 116.198 37.3152C116.312 38.0659 117.802 37.6667 117.408 38.7994C116.664 38.7019 115.88 38.5988 114.932 38.4746C115.512 38.7363 116.007 38.8452 116.327 39.1413C116.57 39.3667 117.373 39.6398 116.614 40.2128C116.48 40.3141 116.448 40.4898 116.538 40.6426C116.656 40.8432 116.879 40.7935 117.055 40.7839C118.546 40.6999 120.035 40.5948 121.526 40.5127C123.783 40.3886 126.042 40.2931 128.298 40.1498C128.782 40.1192 128.984 40.4382 129.016 40.7324C129.055 41.0724 128.627 40.9902 128.416 40.9941C127.37 41.0093 126.728 42.1554 126.077 41.9147C126.962 41.5805 128.273 42.2375 129.597 42.0828C130.308 41.9988 130.323 42.6157 130.693 42.929C130.275 43.0168 129.702 42.8545 129.53 42.9576C128.692 43.46 127.717 43.0264 126.939 43.4619C126.74 43.5727 126.642 43.6338 126.416 43.609C126.033 43.567 125.423 43.29 125.655 44.1648C125.732 44.4513 125.429 44.394 125.26 44.4112C124.929 44.4437 124.576 44.3539 124.229 44.585C124.429 44.904 124.686 44.8181 124.919 44.8085C125.441 44.7837 125.931 44.7455 126.13 45.4274C126.238 45.7941 126.611 45.8896 127 45.8438C127.443 45.7922 127.897 45.8056 128.334 45.7234C129.045 45.5897 129.465 45.861 129.668 46.5524C129.39 46.7988 129.024 46.7396 128.696 46.8046C128.445 46.8542 128.185 46.858 128.208 47.2401C128.229 47.5724 128.359 47.8895 128.687 47.8055C129.421 47.6202 129.89 48.3231 130.568 48.2677C130.67 48.2601 130.877 48.3899 130.875 48.4511C130.844 49.3775 131.58 49.047 132.092 49.1884C131.532 49.3106 131.141 49.4099 131.093 50.1511C131.063 50.6419 130.35 50.9609 129.79 51.1481C128.915 51.4404 128.039 51.7383 127.161 52.0249C126.874 52.1184 126.613 52.1929 126.744 52.5979C126.849 52.9245 127.027 53.0506 127.37 52.9684C128.05 52.808 128.79 52.8386 129.396 52.4489C130.068 52.0153 130.754 52.1146 131.5 52.1414C132.113 52.1624 131.923 52.8137 132.349 52.8538C132.287 53.3027 131.877 53.3409 131.578 53.4058C130.584 53.6236 129.576 53.7745 128.574 53.956C128.397 53.9884 128.225 54.0438 127.955 54.1126C128.671 54.9301 129.133 55.7992 130.264 56.0208C130.996 56.164 131.944 57.6119 131.829 58.2995C131.699 59.0731 131.072 59.5506 130.407 59.8677C129.375 60.3605 128.3 60.7674 127.244 61.2124C126.983 61.3232 126.673 61.3671 126.517 61.6345C126.374 61.8809 126.184 62.1942 126.316 62.4387C126.466 62.7157 126.776 62.4941 127.004 62.4272C128.181 62.0834 129.444 62.0662 130.499 61.2563C131.08 60.8113 131.864 61.2697 132.557 61.2602C132.515 61.6746 132.736 61.9745 132.998 62.2534C132.743 62.4368 132.512 62.7061 132.228 62.7844C131.341 63.0289 130.436 63.218 129.532 63.4014C125.345 64.2495 121.303 65.6591 117.149 66.6237C115.66 66.9694 114.181 67.3763 112.652 67.5272C112.464 67.5463 112.24 67.5654 112.103 67.6743C111.879 67.8557 112.048 68.2511 111.764 68.4345C111.923 68.614 112.123 68.509 112.299 68.4975C114.8 68.3428 117.302 68.1881 119.801 68.0143C120.113 67.9932 120.481 67.957 120.721 67.787C121.811 67.0076 122.798 66.9389 123.67 68.1403C123.352 68.4326 122.788 68.5835 122.994 69.3895C123.141 69.9721 122.273 70.0332 121.848 70.293C121.625 70.4286 121.28 70.3408 121.014 70.4267C120.786 70.4993 120.161 70.165 120.43 70.9023C120.443 70.9386 120.044 71.1449 119.763 71.143C119.035 71.1411 118.349 71.3569 117.68 71.6606C118.343 71.6301 118.989 71.949 119.653 71.6664C119.987 71.525 120.23 71.7046 120.272 72.0388C120.32 72.4056 119.995 72.4552 119.753 72.4285C118.025 72.2298 116.524 73.1409 114.892 73.4141C113.92 73.5764 113.177 74.3348 112.414 74.8619C111.268 75.6565 110.019 76.05 108.765 76.5046C108.357 76.6536 107.928 76.7415 107.324 76.9096C107.993 76.1875 108.909 76.2506 109.534 75.5916C108.171 75.6833 106.983 75.88 105.96 76.6975C104.965 77.4902 103.735 77.7424 102.526 77.7557C101.614 77.7653 100.807 77.7023 100.184 78.5236C100.062 78.684 99.6191 78.7471 99.3949 78.6649C98.1111 78.1951 97.1913 79.215 95.9265 79.2685C96.304 79.6907 96.647 79.385 96.946 79.6181C96.6183 79.9562 95.9898 79.8053 95.7732 80.3019C95.7483 80.3611 95.4915 80.3974 95.413 80.342C94.1463 79.45 93.2419 80.8291 92.0845 80.9074C90.2257 81.0354 88.3631 81.6179 86.5139 81.979C84.5479 82.361 82.578 82.8652 80.5621 83.0104C80.3398 83.0257 80.1175 83.0238 79.8971 83.0486C79.5216 83.0925 78.7723 81.9656 78.8049 83.3982C78.8068 83.5242 78.3201 83.6255 78.0307 83.528C78.0001 83.2377 78.3296 83.3065 78.3833 83.1193C78.3431 83.0811 78.2971 83.0047 78.2645 83.0104C77.6628 83.0983 77.1569 83.4631 76.5322 82.6991C76.1758 82.2617 75.0989 82.1547 74.3343 82.7411C74.0507 82.9588 73.6751 83.0906 73.1903 82.8939C72.3644 82.5577 71.3794 82.6456 70.6072 82.8901C68.7369 83.4803 68.185 83.593 66.447 83.2434C65.3969 83.0314 64.3142 83.062 63.1626 83.4994C64.0613 83.9349 64.9657 83.5872 66.0024 83.8642C64.0364 84.1316 62.2773 84.1431 60.5239 83.954C60.11 83.9081 59.6999 83.8088 59.2994 83.9177C57.8277 84.315 56.5726 83.19 55.1354 83.3485C54.9725 83.3657 54.8441 83.2205 54.825 83.0448C54.802 82.8309 54.894 82.678 55.1182 82.6246C55.4075 82.5558 55.7812 82.6551 55.9249 82.1566C55.419 82.0152 54.6219 82.1795 54.6947 81.2646C54.6947 81.2589 54.4705 81.234 54.3517 81.2187C53.2901 81.0774 52.2476 80.7603 51.1266 80.8768C51.3815 80.6629 51.8605 80.7145 51.6689 80.1376C51.5942 79.9141 52.056 79.7021 52.3415 79.7709C52.9988 79.9294 53.3859 79.3125 53.4568 79.0489C53.5603 78.6516 53.0505 78.388 52.5523 78.323C51.828 78.2275 52.1729 77.4845 52.2955 77.4062C53.1789 76.837 52.4718 76.5906 52.125 76.2487C51.9717 76.0978 51.8548 75.9106 51.6804 75.689C52.7439 75.2764 53.8017 75.179 54.869 75.0568C54.7694 75.328 54.4705 75.2612 54.1888 75.5973C55.9057 75.4942 57.4541 75.9583 59.0618 75.8456L57.2778 76.1761L57.2931 76.3098C58.8702 76.1092 60.4472 75.9087 62.0243 75.7062C61.4015 76.1627 60.6599 76.1322 59.9528 76.3709C60.0602 76.6269 60.3495 76.4378 60.4779 76.5906C60.3533 76.7319 60.0851 76.6555 60.0237 76.8981C60.0544 76.9325 60.0927 77.007 60.1234 77.0032C61.9342 76.772 63.7125 76.5123 65.2934 75.4331C65.8185 75.0759 66.5792 74.9651 67.2806 74.883C65.9124 74.8218 64.5538 74.7703 63.0514 74.5773C63.4902 74.1113 63.8332 74.3424 64.1398 74.3634C64.3813 74.3806 64.4522 74.3443 64.4656 74.0807C64.4829 73.7541 64.2855 73.9279 64.1705 73.9012C63.6876 73.7923 63.1971 73.8267 62.7601 74.0158C61.6794 74.4857 60.9359 74.5449 59.811 74.2087C59.148 74.01 58.4754 73.9604 57.822 74.4303C59.3837 74.6175 60.9474 74.8046 62.5091 74.9899C59.6903 75.1427 56.9386 74.7588 53.9857 74.0406C54.8767 73.7082 55.5742 73.6834 56.3081 73.7541C55.6739 73.2556 54.892 73.3224 54.0776 73.1639C54.7062 72.7169 55.373 72.7494 56.0092 72.7226C56.2756 72.7112 56.4806 72.6883 56.4442 72.3998C56.4174 72.1878 56.2947 71.9815 55.9843 72.0503C55.3903 72.184 54.6813 72.0828 54.2501 71.8841C53.4204 71.5002 52.7133 72.0694 51.8567 71.8344C52.1652 71.6931 52.3971 71.588 52.6577 71.4696C52.2016 70.9692 51.6229 71.5174 51.1343 71.1392C52.7094 71.0475 54.1581 70.4668 55.672 70.0581C54.7828 70.2338 54.2693 69.2329 53.3801 69.3723C53.2153 69.3972 53.0774 69.2329 53.1732 69.0476C53.3035 68.7974 53.2958 68.4517 53.7653 68.4574C54.4475 68.465 55.1565 68.5185 55.9383 68.148C55.007 67.382 53.7864 67.5482 52.9624 66.8357C52.6194 66.6294 54.0393 66.8606 53.0774 66.3868C52.8532 66.2761 52.6922 65.7852 52.8551 65.6725C53.7059 65.0861 52.8915 64.9371 52.6079 64.8282C51.9755 64.5856 51.7781 63.9037 51.0078 63.6631C51.9429 63.2543 52.8991 62.92 53.4702 63.2276C54.2942 63.6707 54.9649 63.3804 55.7026 63.3555C55.9575 63.3479 56.2947 63.3307 56.3273 63.0327C56.3676 62.6545 55.9651 62.7825 55.7582 62.6908C55.0722 62.3928 54.2482 62.7195 53.4759 62.2114C54.2865 62.0108 54.9764 61.8848 55.7026 62.0605C55.0837 61.7377 54.3574 61.8275 53.748 61.4989C54.3248 61.3289 54.9016 61.1494 55.5129 61.2525C55.7026 61.285 55.8425 61.2583 55.8444 61.0558C55.8444 60.8419 55.7256 60.6871 55.4822 60.7234C54.1639 60.9259 52.88 60.202 51.5539 60.6508C52.7318 59.9734 53.764 59.7353 54.6506 59.9365C54.4475 59.1801 53.9972 58.7159 53.2153 58.7197C52.7037 58.7236 52.5657 58.4619 52.5082 58.0397C53.2211 57.8239 53.9607 57.9729 54.6832 57.8831C54.9572 57.8487 55.2657 57.8564 55.2063 57.419C55.1776 57.1974 55.2945 57.0255 54.9725 56.8249C54.6889 56.6492 53.9435 56.1239 54.9917 55.8107C54.7981 55.484 53.9742 55.8107 54.2252 55.1841C54.5145 54.464 55.1507 55.3771 55.647 54.974C55.3558 54.8422 55.3884 54.3895 54.9074 54.3953C54.7177 54.3953 54.7368 53.4097 54.9629 53.3657C55.762 53.211 56.1529 52.2082 57.1034 52.384C57.3755 52.4336 57.3851 52.1681 57.3602 51.9847C57.2759 51.3678 57.2471 50.7413 57.1896 50.1377C57.1475 49.6926 56.3465 49.3545 55.7544 49.6296C55.3654 49.8111 55.191 49.6009 54.8633 49.4539C55.3864 48.8732 56.0169 49.3545 56.5573 49.2132C56.998 49.0967 57.3314 48.9572 57.2452 48.5561C57.1379 48.0538 58.0347 47.836 57.5288 47.2802C57.479 47.2248 57.6821 47.0758 57.8067 47.1025C58.8242 47.3241 59.7095 46.7167 60.7136 46.6556C59.7497 46.1418 58.692 46.4302 57.7166 46.1991C57.5173 46.1513 57.3276 46.2449 57.2069 46.4015C57.0593 46.5945 56.9846 47.135 56.7815 46.4149C56.7412 46.2736 56.3982 46.1532 56.4998 46.6212C56.5496 46.8504 56.2047 46.7262 56.2104 46.625C56.2219 46.3461 55.8866 46.2525 55.8712 46.0023C56.3503 45.7234 56.793 46.0501 57.2184 45.9527C57.4426 45.9011 57.8258 46.0482 57.8546 45.7521C57.8795 45.4961 57.8929 45.0664 57.3774 45.0568C57.7051 44.6863 58.0462 44.9136 58.303 44.9995C59.1193 45.2727 59.9433 45.2211 60.7634 45.1428C61.2042 45.1008 61.6296 44.8582 61.6679 45.6012C61.6794 45.8323 61.9515 45.8495 62.1949 45.8839C62.9671 45.9928 63.6991 45.6833 64.4618 45.7196C64.5959 45.7254 64.7799 45.6108 64.8699 45.4961C65.4812 44.7168 65.8568 44.6271 66.7479 45.1179C67.1713 45.351 67.5987 45.605 67.6121 44.8085C67.6217 44.2049 68.3977 44.415 68.484 43.8802C68.2559 43.7121 67.34 44.3749 67.7481 43.3492C66.9376 43.2556 67.2997 42.7513 67.3764 42.3292C67.4473 41.9357 67.1503 42.0083 66.8992 41.9472C65.6422 41.6397 64.5844 42.3789 63.4308 42.5909C62.2485 42.8086 61.1026 43.2327 59.9433 43.5765C59.721 43.6434 59.514 43.6987 59.3013 43.567C59.7555 43.2652 58.9353 42.7838 59.4546 42.4935C59.5102 42.4629 59.5811 42.4438 59.6194 42.398C59.8705 42.1019 60.6676 42.3025 60.499 41.7657C60.3323 41.2347 59.7267 41.6435 59.3301 41.6779C58.3969 41.76 57.479 41.6435 56.5611 41.5518C56.061 41.5021 55.8042 40.6311 55.8674 40.1307C55.9766 39.2731 56.8543 38.4231 55.9421 37.512C55.7199 37.2904 55.7697 36.9256 55.9077 36.6047C56.6052 34.9658 57.5154 33.4721 59.1576 32.6431C59.6846 32.3776 59.6884 31.9173 59.9088 31.5525C60.2135 31.0482 59.9471 30.6643 59.3876 30.4924C59.3282 30.4733 59.2093 30.4522 59.286 30.3052C59.9414 29.0674 60.4204 27.7361 61.8231 27.0313C63.9885 25.9425 66.1557 24.8652 68.4131 23.9808C74.6715 21.5302 81.0105 19.2973 87.3398 17.0338C88.5777 16.5907 89.8425 16.7626 91.065 16.4914C91.8622 16.3156 92.8011 16.4608 93.3875 15.6738C94.1138 16.5487 94.6791 15.8056 95.3574 15.4847C95.0087 15.3186 94.75 15.0282 94.3974 15.3377C95.0182 14.9155 95.7445 14.7436 96.4573 14.7589C97.0744 14.7723 97.678 15.0874 98.3027 15.1677C98.9427 15.2498 99.2206 15.7369 99.6287 16.1342C99.3911 16.4073 99.0251 16.2755 98.7626 16.4875C100.361 16.732 101.773 15.9775 103.339 15.6032C103.592 15.7178 102.821 16.0177 103.3 16.0788C104.657 16.2564 106.023 16.5066 107.309 15.7197C107.698 15.4809 108.164 15.3644 108.719 15.1409C107.152 14.8028 105.711 15.5592 104.27 15.1696C106.336 14.6691 108.365 14.0006 110.524 14.0694C110.827 14.0789 111.134 14.0846 111.161 14.4667C111.188 14.8525 110.866 14.8468 110.622 14.8047C109.779 14.6596 110.227 15.4981 109.861 15.7197C110.352 15.3625 111.011 15.7426 111.454 15.3205C111.617 15.1658 111.998 15.1753 111.565 14.7398C111.184 14.3559 111.898 14.2107 112.09 14.268C112.878 14.503 113.692 14.1209 114.503 14.5354C115.168 14.8754 115.905 14.1018 116.695 14.3349C116.932 14.4055 117.312 14.4189 117.291 14.6252C117.183 15.7159 118.034 15.2746 118.515 15.4179C118.563 15.8018 118.12 15.6356 118.044 15.8629C118.086 15.8973 118.126 15.9584 118.17 15.9623C118.329 15.9699 118.502 15.9164 118.646 15.9623C118.977 16.0692 119.471 15.9088 119.592 16.3863C119.73 16.9364 118.998 16.6002 118.914 16.9689C120.246 17.2611 120.32 17.3681 120.021 18.6956C120.61 18.2735 121.096 17.7578 121.848 17.9545C121.897 18.3652 121.501 18.22 121.332 18.348C121.167 18.4721 121.018 18.5906 121.079 18.8064C121.369 19.813 121.378 19.8302 120.284 20.1377C120.023 20.2103 119.809 20.472 119.475 20.3689C119.427 19.962 120.018 19.7003 119.734 19.2553C119.59 19.2152 119.487 19.2686 119.42 19.3947C119.222 19.7672 118.395 19.3508 118.569 19.7882C118.743 20.2256 119.015 21.024 120.027 20.6592C119.401 21.3678 118.728 21.0049 118.09 21.1329C118.5 21.7881 119.337 21.3755 119.703 21.9619C119.914 22.3 120.138 22.6209 120.723 22.512C121.269 22.4107 121.202 22.9704 121.047 23.2493C120.729 23.8223 121.236 23.6714 121.621 23.8758C118.232 25.1231 114.752 25.2912 111.149 26.0227C112.333 26.464 113.372 25.7114 114.401 26.3264C114.064 26.5671 113.525 26.6607 113.897 27.2204C114.106 27.5336 114.127 27.9328 113.491 28.2938C114.771 28.3492 115.739 28.5823 116.848 28.842C115.961 29.4934 115.139 29.3119 114.384 28.9853C113.269 28.5039 113.054 28.525 112.397 29.5984C112.241 29.8544 112.031 29.862 111.757 29.8639C111.371 29.8658 111.228 30.2612 110.892 30.4427C111.17 30.7426 111.504 30.7235 111.586 30.5286C111.847 29.9117 112.418 30.584 112.709 30.2135C112.713 30.2097 112.878 30.2937 112.914 30.3644C112.947 30.4293 112.903 30.607 112.901 30.607C111.889 30.5458 112.073 31.5085 111.701 31.9918C111.67 32.0319 111.613 32.0548 111.546 32.1007C112.017 32.3662 112.51 31.8466 112.939 32.2573C113.156 31.6919 112.586 31.499 112.537 31.0157C113.453 31.0291 114.368 30.8648 114.986 31.7778L114.951 31.7454L114.943 31.7435ZM86.4315 19.1158C87.3053 19.2495 88.0412 18.8408 88.7751 18.4798C89.8846 17.9354 91.0209 17.8743 92.1688 18.2601C92.9525 18.5218 93.7516 18.7338 94.4702 18.2658C95.0911 17.8628 95.7694 17.5878 96.396 17.2115C96.5167 17.1389 96.7601 17.0243 96.5838 16.7282C95.9725 16.839 95.3363 16.9364 94.6656 16.5926C95.0163 16.4589 95.3018 16.35 95.7943 16.1628C95.0374 16.1533 94.5238 16.3233 93.9854 16.3118C93.0713 16.2927 92.2224 16.7435 91.3122 16.8772C90.8025 16.9517 90.0417 17.3624 89.4305 17.6871C88.4474 18.2104 87.2076 18.2028 86.4296 19.1388C86.3261 18.7109 86.0636 18.814 85.7762 18.9306C85.1706 19.177 84.5594 19.4081 83.9481 19.6449C84.2758 20.0365 84.6437 19.9563 85.0059 19.7939C85.4868 19.5781 85.9582 19.3412 86.4335 19.112L86.4315 19.1158ZM117.364 70.6425C115.373 70.5088 114.437 70.6827 113.748 71.3397C115.191 72.2585 116.172 70.8966 117.364 70.6425ZM61.2846 48.4969C62.2715 49.5341 63.2641 48.4224 64.1858 48.7433C64.205 48.7509 64.3391 48.5542 64.3468 48.4492C64.3583 48.2658 64.2088 48.1359 64.0459 48.1588C63.1549 48.2868 62.2274 48.1455 61.2846 48.495V48.4969ZM128.242 42.6921C127.464 41.8937 126.805 42.0503 126.186 42.6386C126.816 42.7743 127.472 42.4476 128.242 42.6921Z" fill="#D1E3FF"/>
<path d="M105.892 52.8625C105.428 51.3864 105.912 50.302 107.344 49.6093C109.512 48.5647 111.71 47.5785 113.841 46.4645C114.786 45.97 114.981 46.47 115.368 47.1284C115.847 47.9452 115.491 48.2119 114.797 48.5286C112.861 49.4093 110.963 50.3788 109.021 51.2567C108.255 51.6012 108.001 51.8874 108.444 52.7625C110.682 57.1713 112.858 61.6107 115.014 66.0613C115.39 66.8364 115.744 66.9142 116.491 66.5391C118.436 65.5668 120.45 64.7361 122.384 63.7388C123.348 63.2415 123.443 63.911 123.752 64.4555C124.092 65.0556 124.187 65.4612 123.379 65.8307C120.852 66.9836 118.358 68.206 115.864 69.4311C114.895 69.9062 114.159 69.8173 113.744 68.7394C113.437 67.9421 113.05 67.8643 112.482 68.5116C112.086 68.9644 111.651 69.3811 111.236 69.8173C110.648 70.4368 110.453 70.973 111.058 71.8203C111.905 73.0121 111.707 74.4762 110.776 75.5485C109.807 76.6653 108.586 77.1071 107.16 76.5848C106.569 76.3681 106.21 76.3625 106.031 77.0237C106.009 77.1098 105.948 77.1876 105.909 77.271C105.115 78.8656 103.011 78.2767 102.186 79.2434C101.167 80.438 100.37 81.5604 98.6841 81.4854C98.0795 81.4604 97.9179 81.7771 97.6783 82.1993C96.5888 84.1107 94.7694 84.5996 92.8358 83.5301C92.5516 83.3745 92.2702 83.2106 91.9999 83.0356C90.9439 82.3494 90.0718 81.6048 88.7929 82.9994C87.7871 84.1024 85.7113 83.6884 84.5829 82.3271C83.9058 81.5104 83.2176 80.9436 82.1978 80.7019C81.8579 80.6214 81.4985 80.3852 81.27 80.1158C80.7072 79.4518 80.0552 79.3351 79.2082 79.3629C77.9154 79.4046 76.9067 78.7045 76.2269 77.6238C75.9399 77.1682 75.678 76.9015 75.1013 76.7737C72.6243 76.232 71.6017 74.3623 72.5463 72.0203C72.889 71.1702 72.2816 71.0091 71.8859 70.7813C71.4736 70.5424 71.1225 69.6145 70.4371 70.4201C69.8575 71.1008 69.2557 70.9563 68.587 70.5674C66.266 69.2172 63.959 67.8365 61.5907 66.5725C60.6768 66.0863 61.0279 65.6835 61.3316 65.0667C61.6994 64.3139 62.056 64.1666 62.8111 64.6278C64.6277 65.7362 66.514 66.7336 68.339 67.8309C68.9715 68.2115 69.2585 68.106 69.6179 67.4809C72.1395 63.1165 74.6833 58.766 77.2522 54.4293C77.6423 53.7709 77.6061 53.432 76.8872 53.0458C75.0121 52.0402 73.201 50.9095 71.3203 49.9093C70.5708 49.5121 70.5708 49.1315 70.9887 48.5231C71.3426 48.0063 71.5014 47.3451 72.4153 47.898C74.753 49.3093 77.1464 50.6316 79.5175 51.9874C80.0274 52.2791 80.5707 52.6708 80.3506 53.2736C79.7654 54.8738 81.2366 54.6432 81.9025 55.1044C82.6659 55.635 83.2009 55.3044 83.7581 54.6321C87.2354 50.415 92.2228 48.637 97.9541 51.1539C100.439 52.2457 103.075 52.9875 105.895 52.8736L105.892 52.8625ZM83.4544 65.3862C80.2893 65.4084 79.1525 63.9638 79.902 61.4218C80.097 60.7606 80.3561 60.1106 80.6375 59.4799C81.5598 57.413 81.557 57.4436 79.5481 56.4824C79.002 56.2212 78.7596 56.274 78.4643 56.7879C76.4414 60.3189 74.4019 63.8416 72.3429 67.3531C72.0336 67.8782 72.0949 68.2365 72.6298 68.4421C73.2679 68.6866 73.58 69.8562 74.5301 69.1811C76.4554 67.8171 77.5532 67.8143 79.3475 69.3533C79.771 69.7173 80.1249 69.9062 80.6877 69.8367C82.1895 69.6506 83.2956 70.4118 84.1204 71.5397C84.4798 72.0315 84.8225 72.2315 85.4048 72.387C86.7534 72.7454 87.8985 73.5011 88.166 74.9957C88.2775 75.6208 88.609 75.8125 89.0966 76.0292C90.473 76.6403 91.3953 77.5932 91.2504 79.2295C91.2114 79.6574 91.3897 79.9185 91.7491 80.1241C92.5516 80.5853 93.3484 81.0603 94.1369 81.5465C94.7444 81.9215 95.2514 81.7187 95.5719 81.202C95.8951 80.6825 95.8226 80.1185 95.2542 79.7463C94.6747 79.3657 94.1007 78.9517 93.4738 78.6684C92.5627 78.26 92.7271 77.796 93.1311 77.0765C93.549 76.3347 93.8695 76.2014 94.6022 76.6987C95.7474 77.4793 96.9734 78.1461 98.1659 78.8601C98.8485 79.2684 99.5005 79.3462 99.9435 78.5461C100.37 77.7738 99.8432 77.3488 99.2609 76.9848C98.7092 76.6431 98.177 76.257 97.5891 75.9903C96.7644 75.618 96.795 75.1985 97.238 74.5012C97.6421 73.8622 97.9235 73.4844 98.7148 74.0261C99.7429 74.7318 100.852 75.3235 101.922 75.9708C102.646 76.4098 103.454 77.0071 104.056 75.9486C104.661 74.8846 103.666 74.5095 102.975 74.0817C102.267 73.6428 101.565 73.1733 100.804 72.8399C99.8404 72.4176 100.133 71.9287 100.487 71.248C100.888 70.4757 101.25 70.4479 101.958 70.8952C103.797 72.0592 105.689 73.1371 107.558 74.2567C108.155 74.6151 108.723 74.6568 109.135 74.0234C109.553 73.3788 109.425 72.7899 108.779 72.3426C108.55 72.1842 108.313 72.037 108.079 71.8898C102.54 68.4282 96.9901 64.9862 91.4733 61.4857C90.6541 60.9662 90.2501 60.9218 89.5981 61.7663C87.9487 63.9027 85.7754 65.2279 83.4544 65.3834V65.3862ZM100.484 64.4611C102.939 66.0002 105.315 67.442 107.631 68.97C108.414 69.4867 108.809 69.3172 109.266 68.6088C109.874 67.6698 110.659 66.8614 111.573 66.2224C112.211 65.7751 112.231 65.3862 111.899 64.7306C110.54 62.0525 109.169 59.3744 107.937 56.6379C107.397 55.435 106.795 54.985 105.385 55.0433C102.081 55.1766 99.024 53.9793 95.9954 52.7986C92.9249 51.604 90.0579 52.0068 87.4973 54.0487C85.0538 55.9962 83.2956 58.4659 82.2786 61.4357C82.1226 61.8941 81.7019 62.4192 82.0585 62.8359C82.4932 63.3443 83.1702 63.147 83.7637 63.0081C86.0429 62.472 87.5809 60.9773 88.7539 59.0743C89.3808 58.0575 90.0634 57.9047 91.0442 58.5493C92.3621 59.4133 93.7079 60.23 95.0508 61.0523C96.0762 61.6802 97.0569 62.6498 98.1575 62.8137C99.4225 62.9998 100.267 61.708 101.203 60.8857C101.93 60.2467 102.454 61.1107 102.989 61.4163C103.602 61.7663 103.011 62.1219 102.797 62.4025C102.203 63.1832 101.417 63.7693 100.487 64.4639L100.484 64.4611ZM82.3288 73.151C82.2313 72.5343 81.8217 72.2982 81.401 72.1148C80.983 71.9314 80.5957 72.0176 80.3171 72.4343C79.6763 73.3872 79.0327 74.3401 78.3695 75.2818C77.946 75.8847 77.9934 76.3764 78.6119 76.8098C79.2946 77.2876 79.7933 77.1043 80.2224 76.4431C80.7991 75.5569 81.4149 74.6957 82 73.815C82.1477 73.5928 82.2396 73.3316 82.3288 73.1538V73.151ZM78.0435 71.4536C77.9906 70.973 77.595 70.7146 77.1937 70.4979C76.7814 70.2785 76.3857 70.3535 76.1043 70.7591C75.5805 71.5119 75.0483 72.262 74.5468 73.0288C74.2821 73.4316 74.3796 73.8178 74.739 74.1317C75.0957 74.4429 75.4774 74.6957 75.9845 74.529C76.3272 74.4151 78.0519 71.8648 78.0435 71.4536ZM83.5018 78.7211C83.9448 78.7906 84.1872 78.51 84.4073 78.1989C84.8336 77.5932 85.2488 76.9793 85.6834 76.382C86.1265 75.7736 86.0429 75.293 85.4215 74.8568C84.8086 74.4262 84.3182 74.4734 83.8919 75.104C83.4517 75.7569 82.9585 76.3764 82.5601 77.0515C82.1115 77.8071 82.6186 78.6628 83.5018 78.7239V78.7211ZM87.1295 81.2103C87.684 81.2242 89.027 79.7185 88.9935 79.1129C88.9517 78.3405 88.3694 78.0155 87.6979 77.9238C87.241 77.8627 85.9398 79.5212 85.976 80.0824C86.0234 80.8242 86.6447 80.9936 87.1323 81.2103H87.1295Z" fill="black"/>
<path d="M88.9213 15.0996C94.2625 15.0996 99.601 15.1191 104.939 15.0802C105.856 15.0746 106.503 15.3496 107.135 15.9969C109.336 18.2528 111.574 20.4725 113.825 22.6783C114.388 23.2311 114.68 23.7923 114.675 24.6146C114.641 30.307 114.644 36.0021 114.672 41.6945C114.675 42.514 114.577 42.9141 113.574 42.928C112.501 42.9419 112.398 42.5057 112.407 41.6223C112.443 36.6689 112.354 31.7155 112.465 26.7649C112.499 25.2814 112.022 24.9564 110.687 25.0841C109.537 25.1925 108.369 25.1175 107.207 25.1036C105.472 25.0814 104.647 24.2757 104.625 22.5672C104.605 21.1337 104.586 19.6974 104.633 18.2639C104.658 17.5416 104.432 17.3138 103.694 17.3138C93.5269 17.336 83.3599 17.3415 73.1929 17.3082C72.0951 17.3054 72.3068 17.9638 72.3068 18.5778C72.3041 26.6316 72.2929 34.6853 72.3236 42.7418C72.3263 43.6392 72.2037 44.0781 71.1478 44.0337C70.3119 43.9975 70.05 43.8086 70.0528 42.9391C70.0862 34.5158 70.0667 26.0898 70.0778 17.6666C70.0778 15.8886 70.9137 15.1079 72.7694 15.1052C78.1552 15.0968 83.541 15.1024 88.9241 15.1024L88.9213 15.0996ZM110.832 22.6366C110.047 21.9421 109.395 21.417 108.81 20.8309C108.241 20.2613 107.737 19.6252 107.012 18.8001C106.539 22.9783 106.6 23.0478 110.222 22.8644C110.303 22.8617 110.384 22.8061 110.832 22.6339V22.6366Z" fill="black"/>
<path d="M92.3515 21.7674C98.5231 21.7702 103.508 26.7319 103.51 32.8715C103.51 39.0195 98.5314 43.9923 92.371 43.9951C86.2078 43.9979 81.2232 39.0334 81.2149 32.8854C81.2065 26.7375 86.1911 21.7619 92.3515 21.7646V21.7674ZM92.3905 23.9955C87.4811 23.9899 83.4494 28.0015 83.4522 32.8882C83.4522 37.7694 87.5034 41.7837 92.4072 41.7643C97.2442 41.7476 101.242 37.7666 101.273 32.9382C101.307 28.0515 97.2804 23.9983 92.3877 23.9927L92.3905 23.9955Z" fill="black"/>
<path d="M119.383 62.9912C118.848 63.633 118.063 64.058 117.397 64.0525C116.697 64.0497 116.341 62.9829 116.419 62.4801C116.541 61.6744 117.597 61.3716 118.249 61.3605C118.943 61.3466 118.924 62.4134 119.383 62.9912Z" fill="black"/>
<path d="M90.1557 37.3303C89.7405 37.3525 89.4702 37.0997 89.2028 36.8358C88.6455 36.2829 88.1189 35.6912 87.5199 35.1856C86.8428 34.6133 86.6645 34.2104 87.4084 33.4492C88.2109 32.6297 88.6511 32.9797 89.1331 33.6409C89.8352 34.6077 90.4009 34.6522 91.2534 33.6965C92.6995 32.0796 94.3462 30.6406 95.8201 29.0459C96.5418 28.2653 96.8677 28.8209 97.3526 29.2348C97.8959 29.6988 98.0798 30.0488 97.4501 30.6545C95.3799 32.638 93.371 34.6855 91.337 36.7052C91.0083 37.0302 90.685 37.3775 90.1584 37.3303H90.1557Z" fill="black"/>
<path d="M16.5946 4.48008H21.1546V31.0801H15.9106V10.0281L10.8946 11.4341L9.60257 6.95008L16.5946 4.48008ZM35.8499 31.6121C32.5312 31.6121 29.9219 30.3581 28.0219 27.8501C26.1472 25.3167 25.2099 21.9601 25.2099 17.7801C25.2099 13.6001 26.1472 10.2561 28.0219 7.74808C29.9219 5.21474 32.5312 3.94808 35.8499 3.94808C39.1939 3.94808 41.8032 5.21474 43.6779 7.74808C45.5526 10.2561 46.4899 13.6001 46.4899 17.7801C46.4899 21.9601 45.5526 25.3167 43.6779 27.8501C41.8032 30.3581 39.1939 31.6121 35.8499 31.6121ZM31.8219 24.2781C32.7339 25.7474 34.0765 26.4821 35.8499 26.4821C37.6232 26.4821 38.9659 25.7347 39.8779 24.2401C40.8152 22.7454 41.2839 20.5921 41.2839 17.7801C41.2839 14.9427 40.8152 12.7767 39.8779 11.2821C38.9659 9.78741 37.6232 9.04008 35.8499 9.04008C34.0765 9.04008 32.7339 9.78741 31.8219 11.2821C30.9099 12.7767 30.4539 14.9427 30.4539 17.7801C30.4539 20.6174 30.9099 22.7834 31.8219 24.2781Z" fill="#FF5C4E"/>
</svg>
