<svg width="112" height="90" viewBox="0 0 112 90" fill="none" xmlns="http://www.w3.org/2000/svg">
<path d="M93.9434 31.7435C93.4656 32.3127 93.6444 32.7291 94.4799 32.9927C94.0909 33.2926 93.8974 33.2467 93.449 33.3365C92.9718 33.4301 92.8798 32.6374 92.3452 33.006C92.418 33.4817 93.0619 33.3575 93.1903 33.7701C93.0657 34.0184 92.6805 33.7204 92.5886 34.0432C93.1424 34.8627 94.3362 34.366 94.9341 35.1835C94.6849 35.26 94.4569 35.3306 94.0238 35.4643C94.6792 35.7852 95.2157 35.9552 95.6335 36.2799C96.1087 36.6486 95.8289 37.2617 95.1985 37.3152C95.3116 38.0659 96.8024 37.6667 96.4076 38.7994C95.6641 38.7019 94.8804 38.5988 93.9319 38.4746C94.5125 38.7363 95.0069 38.8452 95.3269 39.1413C95.5703 39.3667 96.3732 39.6398 95.6143 40.2128C95.4802 40.3141 95.4476 40.4898 95.5377 40.6426C95.6565 40.8432 95.8788 40.7935 96.0551 40.7839C97.5459 40.6999 99.0348 40.5948 100.526 40.5127C102.783 40.3886 105.042 40.2931 107.298 40.1498C107.782 40.1192 107.984 40.4382 108.016 40.7324C108.055 41.0724 107.627 40.9902 107.416 40.9941C106.37 41.0093 105.728 42.1554 105.077 41.9147C105.962 41.5805 107.273 42.2375 108.597 42.0828C109.308 41.9988 109.323 42.6157 109.693 42.929C109.275 43.0168 108.702 42.8545 108.53 42.9576C107.692 43.46 106.717 43.0264 105.939 43.4619C105.74 43.5727 105.642 43.6338 105.416 43.609C105.033 43.567 104.423 43.29 104.655 44.1648C104.732 44.4513 104.429 44.394 104.26 44.4112C103.929 44.4437 103.576 44.3539 103.229 44.585C103.429 44.904 103.686 44.8181 103.919 44.8085C104.441 44.7837 104.931 44.7455 105.13 45.4274C105.238 45.7941 105.611 45.8896 106 45.8438C106.443 45.7922 106.897 45.8056 107.334 45.7234C108.045 45.5897 108.465 45.861 108.668 46.5524C108.39 46.7988 108.024 46.7396 107.696 46.8046C107.445 46.8542 107.185 46.858 107.208 47.2401C107.229 47.5724 107.359 47.8895 107.687 47.8055C108.421 47.6202 108.89 48.3231 109.568 48.2677C109.67 48.2601 109.877 48.3899 109.875 48.4511C109.844 49.3775 110.58 49.047 111.092 49.1884C110.532 49.3106 110.141 49.4099 110.093 50.1511C110.063 50.6419 109.35 50.9609 108.79 51.1481C107.915 51.4404 107.039 51.7383 106.161 52.0249C105.874 52.1184 105.613 52.1929 105.744 52.5979C105.849 52.9245 106.027 53.0506 106.37 52.9684C107.05 52.808 107.79 52.8386 108.396 52.4489C109.068 52.0153 109.754 52.1146 110.5 52.1414C111.113 52.1624 110.923 52.8137 111.349 52.8538C111.287 53.3027 110.877 53.3409 110.578 53.4058C109.584 53.6236 108.576 53.7745 107.574 53.956C107.397 53.9884 107.225 54.0438 106.955 54.1126C107.671 54.9301 108.133 55.7992 109.264 56.0208C109.996 56.164 110.944 57.6119 110.829 58.2995C110.699 59.0731 110.072 59.5506 109.407 59.8677C108.375 60.3605 107.3 60.7674 106.244 61.2124C105.983 61.3232 105.673 61.3671 105.517 61.6345C105.374 61.8809 105.184 62.1942 105.316 62.4387C105.466 62.7157 105.776 62.4941 106.004 62.4272C107.181 62.0834 108.444 62.0662 109.499 61.2563C110.08 60.8113 110.864 61.2697 111.557 61.2602C111.515 61.6746 111.736 61.9745 111.998 62.2534C111.743 62.4368 111.512 62.7061 111.228 62.7844C110.341 63.0289 109.436 63.218 108.532 63.4014C104.345 64.2495 100.303 65.6591 96.149 66.6237C94.66 66.9694 93.1807 67.3763 91.6515 67.5272C91.4637 67.5463 91.2395 67.5654 91.1035 67.6743C90.8793 67.8557 91.0479 68.2511 90.7643 68.4345C90.9234 68.614 91.1226 68.509 91.2989 68.4975C93.7996 68.3428 96.3023 68.1881 98.801 68.0143C99.1134 67.9932 99.4813 67.957 99.7208 67.787C100.811 67.0076 101.798 66.9389 102.67 68.1403C102.352 68.4326 101.788 68.5835 101.994 69.3895C102.141 69.9721 101.273 70.0332 100.848 70.293C100.625 70.4286 100.28 70.3408 100.014 70.4267C99.786 70.4993 99.1613 70.165 99.4296 70.9023C99.443 70.9386 99.0444 71.1449 98.7627 71.143C98.0345 71.1411 97.3485 71.3569 96.6798 71.6606C97.3428 71.6301 97.9885 71.949 98.6535 71.6664C98.9869 71.525 99.2303 71.7046 99.2724 72.0388C99.3203 72.4056 98.9946 72.4552 98.7531 72.4285C97.0247 72.2298 95.5243 73.1409 93.8916 73.4141C92.9201 73.5764 92.1766 74.3348 91.4139 74.8619C90.268 75.6565 89.0186 76.05 87.7654 76.5046C87.3572 76.6536 86.928 76.7415 86.3244 76.9096C86.9931 76.1875 87.9091 76.2506 88.5338 75.5916C87.1713 75.6833 85.9833 75.88 84.96 76.6975C83.9655 77.4902 82.7352 77.7424 81.5261 77.7557C80.614 77.7653 79.8072 77.7023 79.1844 78.5236C79.0618 78.684 78.6191 78.7471 78.3949 78.6649C77.1111 78.1951 76.1913 79.215 74.9265 79.2685C75.304 79.6907 75.647 79.385 75.946 79.6181C75.6183 79.9562 74.9898 79.8053 74.7732 80.3019C74.7483 80.3611 74.4915 80.3974 74.413 80.342C73.1463 79.45 72.2419 80.8291 71.0845 80.9074C69.2257 81.0354 67.3631 81.6179 65.5139 81.979C63.5479 82.361 61.578 82.8652 59.5621 83.0104C59.3398 83.0257 59.1175 83.0238 58.8971 83.0486C58.5216 83.0925 57.7723 81.9656 57.8049 83.3982C57.8068 83.5242 57.3201 83.6255 57.0307 83.528C57.0001 83.2377 57.3296 83.3065 57.3833 83.1193C57.3431 83.0811 57.2971 83.0047 57.2645 83.0104C56.6628 83.0983 56.1569 83.4631 55.5322 82.6991C55.1758 82.2617 54.0989 82.1547 53.3343 82.7411C53.0507 82.9588 52.6751 83.0906 52.1903 82.8939C51.3644 82.5577 50.3794 82.6456 49.6072 82.8901C47.7369 83.4803 47.185 83.593 45.447 83.2434C44.3969 83.0314 43.3142 83.062 42.1626 83.4994C43.0613 83.9349 43.9657 83.5872 45.0024 83.8642C43.0364 84.1316 41.2773 84.1431 39.5239 83.954C39.11 83.9081 38.6999 83.8088 38.2994 83.9177C36.8277 84.315 35.5726 83.19 34.1354 83.3485C33.9725 83.3657 33.8441 83.2205 33.825 83.0448C33.802 82.8309 33.894 82.678 34.1182 82.6246C34.4075 82.5558 34.7812 82.6551 34.9249 82.1566C34.419 82.0152 33.6219 82.1795 33.6947 81.2646C33.6947 81.2589 33.4705 81.234 33.3517 81.2187C32.2901 81.0774 31.2476 80.7603 30.1266 80.8768C30.3815 80.6629 30.8605 80.7145 30.6689 80.1376C30.5942 79.9141 31.056 79.7021 31.3415 79.7709C31.9988 79.9294 32.3859 79.3125 32.4568 79.0489C32.5603 78.6516 32.0505 78.388 31.5523 78.323C30.828 78.2275 31.1729 77.4845 31.2955 77.4062C32.1789 76.837 31.4718 76.5906 31.125 76.2487C30.9717 76.0978 30.8548 75.9106 30.6804 75.689C31.7439 75.2764 32.8017 75.179 33.869 75.0568C33.7694 75.328 33.4705 75.2612 33.1888 75.5973C34.9057 75.4942 36.4541 75.9583 38.0618 75.8456L36.2778 76.1761L36.2931 76.3098C37.8702 76.1092 39.4472 75.9087 41.0243 75.7062C40.4015 76.1627 39.6599 76.1322 38.9528 76.3709C39.0602 76.6269 39.3495 76.4378 39.4779 76.5906C39.3533 76.7319 39.0851 76.6555 39.0237 76.8981C39.0544 76.9325 39.0927 77.007 39.1234 77.0032C40.9342 76.772 42.7125 76.5123 44.2934 75.4331C44.8185 75.0759 45.5792 74.9651 46.2806 74.883C44.9124 74.8218 43.5538 74.7703 42.0514 74.5773C42.4902 74.1113 42.8332 74.3424 43.1398 74.3634C43.3813 74.3806 43.4522 74.3443 43.4656 74.0807C43.4829 73.7541 43.2855 73.9279 43.1705 73.9012C42.6876 73.7923 42.1971 73.8267 41.7601 74.0158C40.6794 74.4857 39.9359 74.5449 38.811 74.2087C38.148 74.01 37.4754 73.9604 36.822 74.4303C38.3837 74.6175 39.9474 74.8046 41.5091 74.9899C38.6903 75.1427 35.9386 74.7588 32.9857 74.0406C33.8767 73.7082 34.5742 73.6834 35.3081 73.7541C34.6739 73.2556 33.892 73.3224 33.0776 73.1639C33.7062 72.7169 34.373 72.7494 35.0092 72.7226C35.2756 72.7112 35.4806 72.6883 35.4442 72.3998C35.4174 72.1878 35.2947 71.9815 34.9843 72.0503C34.3903 72.184 33.6813 72.0828 33.2501 71.8841C32.4204 71.5002 31.7133 72.0694 30.8567 71.8344C31.1652 71.6931 31.3971 71.588 31.6577 71.4696C31.2016 70.9692 30.6229 71.5174 30.1343 71.1392C31.7094 71.0475 33.1581 70.4668 34.672 70.0581C33.7828 70.2338 33.2693 69.2329 32.3801 69.3723C32.2153 69.3972 32.0774 69.2329 32.1732 69.0476C32.3035 68.7974 32.2958 68.4517 32.7653 68.4574C33.4475 68.465 34.1565 68.5185 34.9383 68.148C34.007 67.382 32.7864 67.5482 31.9624 66.8357C31.6194 66.6294 33.0393 66.8606 32.0774 66.3868C31.8532 66.2761 31.6922 65.7852 31.8551 65.6725C32.7059 65.0861 31.8915 64.9371 31.6079 64.8282C30.9755 64.5856 30.7781 63.9037 30.0078 63.6631C30.9429 63.2543 31.8991 62.92 32.4702 63.2276C33.2942 63.6707 33.9649 63.3804 34.7026 63.3555C34.9575 63.3479 35.2947 63.3307 35.3273 63.0327C35.3676 62.6545 34.9651 62.7825 34.7582 62.6908C34.0722 62.3928 33.2482 62.7195 32.4759 62.2114C33.2865 62.0108 33.9764 61.8848 34.7026 62.0605C34.0837 61.7377 33.3574 61.8275 32.748 61.4989C33.3248 61.3289 33.9016 61.1494 34.5129 61.2525C34.7026 61.285 34.8425 61.2583 34.8444 61.0558C34.8444 60.8419 34.7256 60.6871 34.4822 60.7234C33.1639 60.9259 31.88 60.202 30.5539 60.6508C31.7318 59.9734 32.764 59.7353 33.6506 59.9365C33.4475 59.1801 32.9972 58.7159 32.2153 58.7197C31.7037 58.7236 31.5657 58.4619 31.5082 58.0397C32.2211 57.8239 32.9607 57.9729 33.6832 57.8831C33.9572 57.8487 34.2657 57.8564 34.2063 57.419C34.1776 57.1974 34.2945 57.0255 33.9725 56.8249C33.6889 56.6492 32.9435 56.1239 33.9917 55.8107C33.7981 55.484 32.9742 55.8107 33.2252 55.1841C33.5145 54.464 34.1507 55.3771 34.647 54.974C34.3558 54.8422 34.3884 54.3895 33.9074 54.3953C33.7177 54.3953 33.7368 53.4097 33.9629 53.3657C34.762 53.211 35.1529 52.2082 36.1034 52.384C36.3755 52.4336 36.3851 52.1681 36.3602 51.9847C36.2759 51.3678 36.2471 50.7413 36.1896 50.1377C36.1475 49.6926 35.3465 49.3545 34.7544 49.6296C34.3654 49.8111 34.191 49.6009 33.8633 49.4539C34.3864 48.8732 35.0169 49.3545 35.5573 49.2132C35.998 49.0967 36.3314 48.9572 36.2452 48.5561C36.1379 48.0538 37.0347 47.836 36.5288 47.2802C36.479 47.2248 36.6821 47.0758 36.8067 47.1025C37.8242 47.3241 38.7095 46.7167 39.7136 46.6556C38.7497 46.1418 37.692 46.4302 36.7166 46.1991C36.5173 46.1513 36.3276 46.2449 36.2069 46.4015C36.0593 46.5945 35.9846 47.135 35.7815 46.4149C35.7412 46.2736 35.3982 46.1532 35.4998 46.6212C35.5496 46.8504 35.2047 46.7262 35.2104 46.625C35.2219 46.3461 34.8866 46.2525 34.8712 46.0023C35.3503 45.7234 35.793 46.0501 36.2184 45.9527C36.4426 45.9011 36.8258 46.0482 36.8546 45.7521C36.8795 45.4961 36.8929 45.0664 36.3774 45.0568C36.7051 44.6863 37.0462 44.9136 37.303 44.9995C38.1193 45.2727 38.9433 45.2211 39.7634 45.1428C40.2042 45.1008 40.6296 44.8582 40.6679 45.6012C40.6794 45.8323 40.9515 45.8495 41.1949 45.8839C41.9671 45.9928 42.6991 45.6833 43.4618 45.7196C43.5959 45.7254 43.7799 45.6108 43.8699 45.4961C44.4812 44.7168 44.8568 44.6271 45.7479 45.1179C46.1713 45.351 46.5987 45.605 46.6121 44.8085C46.6217 44.2049 47.3977 44.415 47.484 43.8802C47.2559 43.7121 46.34 44.3749 46.7481 43.3492C45.9376 43.2556 46.2997 42.7513 46.3764 42.3292C46.4473 41.9357 46.1503 42.0083 45.8992 41.9472C44.6422 41.6397 43.5844 42.3789 42.4308 42.5909C41.2485 42.8086 40.1026 43.2327 38.9433 43.5765C38.721 43.6434 38.514 43.6987 38.3013 43.567C38.7555 43.2652 37.9353 42.7838 38.4546 42.4935C38.5102 42.4629 38.5811 42.4438 38.6194 42.398C38.8705 42.1019 39.6676 42.3025 39.499 41.7657C39.3323 41.2347 38.7267 41.6435 38.3301 41.6779C37.3969 41.76 36.479 41.6435 35.5611 41.5518C35.061 41.5021 34.8042 40.6311 34.8674 40.1307C34.9766 39.2731 35.8543 38.4231 34.9421 37.512C34.7199 37.2904 34.7697 36.9256 34.9077 36.6047C35.6052 34.9658 36.5154 33.4721 38.1576 32.6431C38.6846 32.3776 38.6884 31.9173 38.9088 31.5525C39.2135 31.0482 38.9471 30.6643 38.3876 30.4924C38.3282 30.4733 38.2093 30.4522 38.286 30.3052C38.9414 29.0674 39.4204 27.7361 40.8231 27.0313C42.9885 25.9425 45.1557 24.8652 47.4131 23.9808C53.6715 21.5302 60.0105 19.2973 66.3398 17.0338C67.5777 16.5907 68.8425 16.7626 70.065 16.4914C70.8622 16.3156 71.8011 16.4608 72.3875 15.6738C73.1138 16.5487 73.6791 15.8056 74.3574 15.4847C74.0087 15.3186 73.75 15.0282 73.3974 15.3377C74.0182 14.9155 74.7445 14.7436 75.4573 14.7589C76.0744 14.7723 76.678 15.0874 77.3027 15.1677C77.9427 15.2498 78.2206 15.7369 78.6287 16.1342C78.3911 16.4073 78.0251 16.2755 77.7626 16.4875C79.3607 16.732 80.773 15.9775 82.3386 15.6032C82.5915 15.7178 81.8212 16.0177 82.3002 16.0788C83.6569 16.2564 85.0232 16.5066 86.309 15.7197C86.698 15.4809 87.1637 15.3644 87.7194 15.1409C86.1519 14.8028 84.7109 15.5592 83.2699 15.1696C85.3356 14.6691 87.3649 14.0006 89.5245 14.0694C89.8273 14.0789 90.1339 14.0846 90.1607 14.4667C90.1875 14.8525 89.8656 14.8468 89.6222 14.8047C88.7791 14.6596 89.2275 15.4981 88.8615 15.7197C89.352 15.3625 90.0112 15.7426 90.4539 15.3205C90.6168 15.1658 90.9981 15.1753 90.565 14.7398C90.1837 14.3559 90.8984 14.2107 91.0901 14.268C91.8776 14.503 92.6921 14.1209 93.5026 14.5354C94.1676 14.8754 94.9053 14.1018 95.6948 14.3349C95.9324 14.4055 96.3118 14.4189 96.2908 14.6252C96.1834 15.7159 97.0343 15.2746 97.5152 15.4179C97.5631 15.8018 97.1205 15.6356 97.0438 15.8629C97.086 15.8973 97.1262 15.9584 97.1703 15.9623C97.3294 15.9699 97.5018 15.9164 97.6455 15.9623C97.9771 16.0692 98.4715 15.9088 98.5922 16.3863C98.7301 16.9364 97.9981 16.6002 97.9138 16.9689C99.2456 17.2611 99.3203 17.3681 99.0214 18.6956C99.6097 18.2735 100.096 17.7578 100.848 17.9545C100.897 18.3652 100.501 18.22 100.332 18.348C100.167 18.4721 100.018 18.5906 100.079 18.8064C100.369 19.813 100.378 19.8302 99.2839 20.1377C99.0233 20.2103 98.8087 20.472 98.4753 20.3689C98.4274 19.962 99.0176 19.7003 98.734 19.2553C98.5903 19.2152 98.4868 19.2686 98.4197 19.3947C98.2223 19.7672 97.3945 19.3508 97.5689 19.7882C97.7433 20.2256 98.0154 21.024 99.0272 20.6592C98.4005 21.3678 97.7279 21.0049 97.0898 21.1329C97.4999 21.7881 98.3373 21.3755 98.7033 21.9619C98.9141 22.3 99.1383 22.6209 99.7228 22.512C100.269 22.4107 100.202 22.9704 100.047 23.2493C99.7285 23.8223 100.236 23.6714 100.621 23.8758C97.2316 25.1231 93.7517 25.2912 90.1492 26.0227C91.3334 26.464 92.372 25.7114 93.4011 26.3264C93.0638 26.5671 92.5253 26.6607 92.8971 27.2204C93.106 27.5336 93.127 27.9328 92.4908 28.2938C93.7709 28.3492 94.7386 28.5823 95.8481 28.842C94.9609 29.4934 94.1388 29.3119 93.3838 28.9853C92.2686 28.5039 92.0539 28.525 91.3967 29.5984C91.2415 29.8544 91.0307 29.862 90.7566 29.8639C90.3715 29.8658 90.2278 30.2612 89.8924 30.4427C90.1703 30.7426 90.5037 30.7235 90.5861 30.5286C90.8467 29.9117 91.4177 30.584 91.709 30.2135C91.7128 30.2097 91.8776 30.2937 91.9141 30.3644C91.9466 30.4293 91.9026 30.607 91.9006 30.607C90.8889 30.5458 91.0728 31.5085 90.7011 31.9918C90.6704 32.0319 90.6129 32.0548 90.5459 32.1007C91.0173 32.3662 91.5097 31.8466 91.939 32.2573C92.1555 31.6919 91.5864 31.499 91.5366 31.0157C92.4525 31.0291 93.3685 30.8648 93.9855 31.7778L93.951 31.7454L93.9434 31.7435ZM65.4315 19.1158C66.3053 19.2495 67.0412 18.8408 67.7751 18.4798C68.8846 17.9354 70.0209 17.8743 71.1688 18.2601C71.9525 18.5218 72.7516 18.7338 73.4702 18.2658C74.0911 17.8628 74.7694 17.5878 75.396 17.2115C75.5167 17.1389 75.7601 17.0243 75.5838 16.7282C74.9725 16.839 74.3363 16.9364 73.6656 16.5926C74.0163 16.4589 74.3018 16.35 74.7943 16.1628C74.0374 16.1533 73.5238 16.3233 72.9854 16.3118C72.0713 16.2927 71.2224 16.7435 70.3122 16.8772C69.8025 16.9517 69.0417 17.3624 68.4305 17.6871C67.4474 18.2104 66.2076 18.2028 65.4296 19.1388C65.3261 18.7109 65.0636 18.814 64.7762 18.9306C64.1706 19.177 63.5594 19.4081 62.9481 19.6449C63.2758 20.0365 63.6437 19.9563 64.0059 19.7939C64.4868 19.5781 64.9582 19.3412 65.4335 19.112L65.4315 19.1158ZM96.3636 70.6425C94.3726 70.5088 93.4375 70.6827 92.7476 71.3397C94.1906 72.2585 95.1717 70.8966 96.3636 70.6425ZM40.2846 48.4969C41.2715 49.5341 42.2641 48.4224 43.1858 48.7433C43.205 48.7509 43.3391 48.5542 43.3468 48.4492C43.3583 48.2658 43.2088 48.1359 43.0459 48.1588C42.1549 48.2868 41.2274 48.1455 40.2846 48.495V48.4969ZM107.242 42.6921C106.464 41.8937 105.805 42.0503 105.186 42.6386C105.816 42.7743 106.472 42.4476 107.242 42.6921Z" fill="#D1E3FF"/>
<path d="M64.2949 31.7228C64.2504 31.7731 64.206 31.8235 64.1616 31.8738C63.5986 32.4988 62.932 33.0053 62.1468 32.2411C61.3676 31.4829 61.8357 30.8283 62.449 30.2211C63.9216 28.7638 65.3852 27.2947 66.8518 25.8315C69.9954 22.6949 73.139 19.5582 76.2826 16.4215C78.0544 14.6532 78.09 14.6236 79.7906 16.3741C81.3995 18.0269 82.9668 19.7211 84.5401 21.4094C85.7875 22.4727 86.0897 23.3257 86.1341 21.6345C86.143 21.3264 86.3919 21.0776 86.7 21.0776C87.0437 21.0776 87.4911 21.0776 87.8852 21.0747C88.1607 21.0747 88.3859 21.2909 88.3918 21.5664C88.4185 22.5971 88.4215 24.8571 88.4215 24.8571C88.4215 24.8571 89.1711 25.8286 90.8954 27.3066C92.128 28.364 93.2213 29.5813 94.3798 30.7276C94.9249 31.2666 95.1738 31.8205 94.6346 32.5343C93.6894 33.7813 92.2465 31.8176 91.9828 31.554C90.7532 30.3248 90.8125 30.3336 90.8125 31.9597C90.7947 34.6284 90.768 43.6001 90.7621 45.6942C90.7621 46.0496 90.4718 46.3369 90.1162 46.3369H89.0437C88.1281 46.3369 88.3978 45.7149 88.3978 43.3542C88.3978 40.9936 88.4126 32.9283 88.4452 29.5724C88.4541 28.6779 88.2496 28.0145 87.5741 27.3658C84.6557 24.5638 81.7787 21.7174 78.9403 18.8355C78.2589 18.1424 77.8796 18.1513 77.207 18.8444C74.5227 21.6019 71.7909 24.3121 69.0355 26.9985C68.4488 27.5702 68.2622 28.1655 68.277 28.9504C68.3125 30.9171 68.3125 36.0768 68.3125 38.1679C68.3125 38.3812 68.1407 38.553 67.9274 38.553H66.2237C66.043 38.553 65.8978 38.4078 65.8978 38.2272C65.9067 36.8854 65.9363 33.2097 65.9274 32.3241C65.9985 29.7265 66.037 30.0878 64.3038 31.7287L64.2949 31.7228Z" fill="black"/>
<path d="M82.5196 46.3344H81.3938C81.0797 46.3344 80.8219 46.0826 80.816 45.7686C80.7923 44.418 80.7301 39.0451 80.7212 38.7755C80.656 36.9895 80.7804 37.2146 79.6427 37.2176C78.985 37.2176 77.7791 37.1998 76.8813 37.182C76.6917 37.1791 76.345 37.1909 76.0962 37.2028C75.9273 37.2117 75.791 37.3449 75.7791 37.5138C75.7614 37.7685 75.7436 38.118 75.7436 38.3016C75.7436 38.6215 75.4828 38.8822 75.1629 38.8822H74.194C73.874 38.8822 73.6162 38.6245 73.6133 38.3046C73.6133 37.6619 73.6133 36.6667 73.6133 36.2846C73.6133 35.6004 73.954 35.0465 74.6118 35.0287C77.0769 34.9665 79.5449 34.9665 82.01 35.0169C82.7626 35.0317 83.0944 35.6093 83.0944 36.3527C83.0944 38.0084 83.0944 43.6923 83.0944 45.7627C83.0944 46.0796 82.8367 46.3373 82.5196 46.3373V46.3344Z" fill="black"/>
<path d="M79.5387 28.1122C79.4291 28.8705 78.9669 29.3 78.2439 29.2348C77.6069 29.1785 77.1447 28.7491 77.1862 28.0441C77.2306 27.2829 77.7047 26.8919 78.4632 26.9452C79.1565 26.9926 79.4854 27.4458 79.5387 28.1122Z" fill="black"/>
<path d="M55.0917 41.1656C60.2052 41.1656 65.3214 41.1896 70.4349 41.1496C71.8674 41.1389 73.0199 41.5927 74.0916 42.5191C79.8002 47.4632 85.5331 52.3805 91.2713 57.2899C93.0108 58.7769 93.8886 60.6029 93.8455 62.8987C93.7997 65.2559 93.8455 67.6132 93.8321 69.9704C93.8186 71.7831 92.9246 72.6827 91.1312 72.7388C90.9508 72.7441 90.7704 72.7602 90.5927 72.7388C88.6916 73.0058 86.7125 72.1275 86.3193 75.0133C85.288 77.4613 82.7972 78.3503 80.1126 78.0139C77.5976 77.6989 75.788 76.2947 74.9641 73.9027C74.6382 72.955 74.2074 72.7148 73.265 72.7228C68.4207 72.7655 63.5738 72.7602 58.7296 72.7254C57.8625 72.7201 57.4182 72.8776 57.1112 73.82C56.2549 76.4602 53.845 78.0593 51.0714 78.0593C48.3006 78.0593 45.9472 76.4602 45.0478 73.8013C44.7435 72.9016 44.2992 72.6801 43.4241 72.7228C42.0373 72.7922 40.6425 72.7548 39.253 72.7361C37.2712 72.7121 36.4203 71.8632 36.3826 69.8743C36.361 68.7638 36.3368 67.6479 36.3906 66.54C36.431 65.7391 36.1725 65.4535 35.3324 65.4749C36.563 65.4428 33.0732 65.4802 31.7376 65.4935C31.4629 65.4962 31.1075 65.3894 30.9325 65.1785C30.612 64.7914 30.6578 64.1267 30.9325 63.817C31.129 63.5955 31.4226 63.462 31.6703 63.4593C33.1809 63.4326 38.0386 63.3472 38.6364 63.3472C42.8532 63.3605 37.43 63.3579 41.6469 63.3472C42.4305 63.3472 43.1683 63.454 43.1844 64.4044C43.2006 65.3547 42.4843 65.4989 41.6873 65.4989C40.7098 65.4989 39.4765 65.2933 38.833 65.6858C38.5368 65.8646 38.5691 66.4679 38.5691 66.4679C38.5691 66.4679 38.5125 69.4499 38.5637 69.8023C38.6929 70.6538 40.0258 70.507 40.0258 70.507L43.3406 70.4963C43.3406 70.4963 44.6466 70.5898 44.8916 69.9491C46.0576 66.8977 48.2414 65.2666 51.0526 65.2533C53.8557 65.2426 56.0153 66.847 57.227 69.9117C57.499 70.5978 58.9019 70.523 58.9019 70.523L72.9822 70.507C72.9822 70.507 74.5359 70.5711 74.7998 69.8076C75.7854 66.9778 78.1603 65.2586 80.9312 65.2533C83.7235 65.2506 86.0608 66.9324 87.0652 69.7942C87.2941 70.4456 87.6038 70.5738 88.215 70.5924C91.6725 70.7019 91.6725 70.7153 91.6725 67.2395C91.6725 65.7285 91.6617 64.2148 91.6725 62.7038C91.6913 60.7577 88.6647 58.2429 88.6647 58.2429L73.4481 45.0899C73.4481 45.0899 71.7759 43.304 70.5749 43.304C60.2967 43.32 50.0186 43.3253 39.7404 43.2959C39.0699 43.2959 38.5287 43.8379 38.5394 44.5026C38.5691 46.5021 38.5206 46.5021 40.4432 46.5769C40.5779 46.5822 40.7125 46.5769 40.8471 46.5902C41.558 46.6676 42.0858 47.0227 42.0427 47.7622C42.005 48.4269 41.5042 48.7392 40.8229 48.7366C37.974 48.7312 35.1224 48.7366 32.2735 48.7339C31.6595 48.7339 31.1264 48.2534 31.1344 47.6447C31.1452 46.9559 31.6757 46.6276 32.3462 46.5982C33.3775 46.5528 34.4115 46.5475 35.4401 46.5875C36.1375 46.6142 36.423 46.3606 36.3772 45.6665C36.3395 45.0899 36.3583 44.5106 36.3772 43.9313C36.4391 42.0386 37.3062 41.1736 39.2099 41.171C44.5039 41.1603 49.7978 41.1683 55.0917 41.1656ZM55.334 71.6469C55.3206 69.3191 53.406 67.4183 51.0687 67.4156C48.7799 67.4103 46.79 69.3698 46.7631 71.6496C46.7361 74.0015 48.7207 75.9343 51.1361 75.9076C53.4868 75.8809 55.3475 73.9908 55.334 71.6469ZM85.218 71.6469C85.2045 69.3297 83.2685 67.413 80.9419 67.4156C78.6504 67.4156 76.6605 69.3778 76.639 71.6496C76.6174 74.0015 78.602 75.9343 81.012 75.9076C83.36 75.8809 85.2315 73.9855 85.218 71.6469Z" fill="black"/>
<path d="M76.3394 59.4845C73.8298 59.4845 71.3175 59.4899 68.8078 59.4845C67.0279 59.4792 66.8583 59.3137 66.8556 57.6105C66.8502 53.9211 66.8502 50.2317 66.8556 46.5424C66.8583 44.962 67.0764 44.8018 68.614 44.7057C69.8957 44.6283 70.892 44.9807 71.8829 45.8536C76.1698 49.6311 80.5374 53.3231 84.8754 57.0445C85.4166 57.509 86.0736 57.9522 85.7424 58.8065C85.4301 59.6127 84.6627 59.4738 84.0083 59.4792C81.4529 59.4925 78.8975 59.4845 76.3421 59.4845H76.3394ZM81.4018 57.3035C81.4233 57.1967 81.4448 57.0899 81.4637 56.9831C77.7073 53.7529 73.9536 50.5227 70.1973 47.2925C69.9253 47.0576 69.6345 46.78 69.2494 46.9722C68.9021 47.1457 69.0367 47.5221 69.0367 47.8131C69.0259 50.6562 69.0556 53.4993 69.0152 56.3424C69.0044 57.1246 69.2952 57.3222 70.0303 57.3142C72.4942 57.2821 74.9607 57.3035 77.4246 57.3035C78.7494 57.3035 80.0769 57.3035 81.4018 57.3035Z" fill="black"/>
<path d="M38.5633 54.2706C38.5633 54.4041 38.5633 54.5375 38.5633 54.671C38.5794 55.6027 38.2805 56.7159 38.6952 57.4153C39.1799 58.2349 40.4051 57.6396 41.2991 57.7544C42.0261 57.8478 42.5028 58.1682 42.4678 58.929C42.4354 59.6311 41.9588 59.9141 41.2776 59.9087C40.8737 59.9034 40.4697 59.9434 40.0685 59.9087C39.1234 59.8206 38.4071 59.882 38.5094 61.1608C38.5579 61.7774 38.0921 62.2793 37.4 62.242C36.7188 62.2046 36.331 61.7107 36.3983 61.0593C36.5141 59.9381 35.8975 59.8153 35.0223 59.9007C34.6669 59.9354 34.3061 59.9194 33.9479 59.8874C33.3232 59.834 32.9651 59.4896 32.9543 58.8543C32.9435 58.2136 33.334 57.8985 33.9237 57.7757C33.9668 57.7677 34.0126 57.7677 34.0583 57.7624C34.7908 57.6556 35.8409 58.1228 36.191 57.5115C36.5626 56.8654 36.3552 55.8803 36.3687 55.0421C36.3876 53.8434 36.3768 52.6448 36.3768 51.4462C36.3768 50.6987 36.6191 50.0526 37.4673 50.0687C38.2994 50.0847 38.5498 50.7414 38.5579 51.4782C38.566 52.4099 38.5579 53.3416 38.5633 54.2759V54.2706Z" fill="black"/>
<path d="M47.4365 44.5802C48.3789 44.5802 49.3214 44.5615 50.2612 44.5855C50.867 44.6016 51.2925 44.8819 51.3275 45.5439C51.3652 46.262 50.9451 46.6518 50.2908 46.6865C49.1275 46.7506 47.9589 46.7666 46.7956 46.7185C45.9662 46.6838 45.53 46.8734 45.635 47.8077C45.7212 48.5926 45.6539 49.4442 44.5795 49.4415C43.5293 49.4415 43.4889 48.6166 43.4782 47.8131C43.4476 45.6454 44.5436 44.5615 46.766 44.5615C46.9895 44.5615 47.2157 44.5615 47.4392 44.5615C47.4392 44.5669 47.4392 44.5722 47.4392 44.5775L47.4365 44.5802Z" fill="black"/>
<path d="M60.0135 59.3078C59.2057 59.3078 58.3979 59.3131 57.5928 59.3078C56.8442 59.3024 56.1925 59.0541 56.1818 58.2212C56.171 57.375 56.8119 57.1427 57.5739 57.1507C58.651 57.1614 59.7254 57.132 60.8025 57.1587C61.4057 57.1721 61.8177 57.1267 61.8257 56.3392C61.8338 55.6798 62.2997 55.2767 63.0025 55.3568C63.7026 55.4369 63.9638 55.9201 63.9557 56.5821C63.9503 57.0706 63.9503 57.5592 63.9557 58.0504C63.9638 58.886 63.4845 59.2704 62.7036 59.2997C61.8069 59.3318 60.9102 59.3078 60.0135 59.3078C60.0135 59.3078 60.0135 59.3104 60.0135 59.3131V59.3078Z" fill="black"/>
<path d="M56.9256 44.5666C57.9542 44.5666 58.9828 44.5746 60.0088 44.5666C60.752 44.5586 61.4278 44.7562 61.4601 45.5864C61.4925 46.406 60.8489 46.721 60.103 46.7263C57.9569 46.7423 55.8135 46.7477 53.6674 46.721C52.9269 46.713 52.321 46.422 52.3722 45.5464C52.4179 44.7322 53.0319 44.5773 53.7078 44.572C54.7795 44.564 55.8539 44.572 56.9256 44.5693V44.5666Z" fill="black"/>
<path d="M52.6685 59.3083C52.4019 59.3083 52.1353 59.3163 51.8688 59.3083C51.1148 59.2816 50.5116 58.9746 50.5359 58.163C50.5574 57.4262 51.1229 57.1432 51.8391 57.1539C52.4154 57.1619 52.9943 57.1646 53.5706 57.1539C54.2707 57.1406 54.8523 57.3435 54.8873 58.123C54.9223 58.9426 54.373 59.2789 53.6029 59.3056C53.2932 59.3163 52.9809 59.3056 52.6712 59.3056L52.6685 59.3083Z" fill="black"/>
<path d="M52.8841 71.6603C52.9002 72.5839 52.0466 73.4596 51.1122 73.4783C50.1429 73.4996 49.327 72.7041 49.3108 71.7217C49.2946 70.7232 50.0513 69.9491 51.0557 69.9357C52.0601 69.9224 52.8679 70.6832 52.8841 71.6603Z" fill="black"/>
<path d="M80.9984 73.4779C80.0344 73.51 79.1916 72.7118 79.162 71.7427C79.1323 70.7576 79.8998 69.9621 80.9042 69.9381C81.9139 69.914 82.7298 70.6642 82.7595 71.6413C82.7864 72.5596 81.9355 73.4459 80.9984 73.4779Z" fill="black"/>
<path d="M5.93225 31.0801V27.1661L15.0143 17.8181C17.0409 15.6901 18.0543 13.9167 18.0543 12.4981C18.0543 11.4594 17.7249 10.6234 17.0663 9.99008C16.4329 9.35674 15.6096 9.04008 14.5963 9.04008C12.5949 9.04008 11.1129 10.0787 10.1503 12.1561L5.74225 9.57208C6.57825 7.74808 7.78158 6.35474 9.35225 5.39208C10.9229 4.42941 12.6456 3.94808 14.5203 3.94808C16.9269 3.94808 18.9916 4.70808 20.7143 6.22808C22.4369 7.72274 23.2983 9.74941 23.2983 12.3081C23.2983 15.0694 21.8416 17.9067 18.9283 20.8201L13.7223 26.0261H23.7163V31.0801H5.93225Z" fill="#FF5C4E"/>
</svg>
