<svg width="107" height="91" viewBox="0 0 107 91" fill="none" xmlns="http://www.w3.org/2000/svg">
<path d="M88.9434 32.7435C88.4656 33.3127 88.6444 33.7291 89.4799 33.9927C89.0909 34.2926 88.8974 34.2467 88.449 34.3365C87.9718 34.4301 87.8798 33.6374 87.3452 34.006C87.418 34.4817 88.0619 34.3575 88.1903 34.7701C88.0657 35.0184 87.6805 34.7204 87.5886 35.0432C88.1424 35.8627 89.3362 35.366 89.9341 36.1835C89.6849 36.26 89.4569 36.3306 89.0238 36.4643C89.6792 36.7852 90.2157 36.9552 90.6335 37.2799C91.1087 37.6486 90.8289 38.2617 90.1985 38.3152C90.3116 39.0659 91.8024 38.6667 91.4076 39.7994C90.6641 39.7019 89.8804 39.5988 88.9319 39.4746C89.5125 39.7363 90.0069 39.8452 90.3269 40.1413C90.5703 40.3667 91.3732 40.6398 90.6143 41.2128C90.4802 41.3141 90.4476 41.4898 90.5377 41.6426C90.6565 41.8432 90.8788 41.7935 91.0551 41.7839C92.5459 41.6999 94.0348 41.5948 95.5257 41.5127C97.783 41.3886 100.042 41.2931 102.298 41.1498C102.782 41.1192 102.984 41.4382 103.016 41.7324C103.055 42.0724 102.627 41.9902 102.416 41.9941C101.37 42.0093 100.728 43.1554 100.077 42.9147C100.962 42.5805 102.273 43.2375 103.597 43.0828C104.308 42.9988 104.323 43.6157 104.693 43.929C104.275 44.0168 103.702 43.8545 103.53 43.9576C102.692 44.46 101.717 44.0264 100.939 44.4619C100.74 44.5727 100.642 44.6338 100.416 44.609C100.033 44.567 99.4233 44.29 99.6552 45.1648C99.7318 45.4513 99.4291 45.394 99.2604 45.4112C98.9289 45.4437 98.5763 45.3539 98.2295 45.585C98.4288 45.904 98.6856 45.8181 98.9193 45.8085C99.4406 45.7837 99.9311 45.7455 100.13 46.4274C100.238 46.7941 100.611 46.8896 101 46.8438C101.443 46.7922 101.897 46.8056 102.334 46.7234C103.045 46.5897 103.465 46.861 103.668 47.5524C103.39 47.7988 103.024 47.7396 102.696 47.8046C102.445 47.8542 102.185 47.858 102.208 48.2401C102.229 48.5724 102.359 48.8895 102.687 48.8055C103.421 48.6202 103.89 49.3231 104.568 49.2677C104.67 49.2601 104.877 49.3899 104.875 49.4511C104.844 50.3775 105.58 50.047 106.092 50.1884C105.532 50.3106 105.141 50.4099 105.093 51.1511C105.063 51.6419 104.35 51.9609 103.79 52.1481C102.915 52.4404 102.039 52.7383 101.161 53.0249C100.874 53.1184 100.613 53.1929 100.744 53.5979C100.849 53.9245 101.027 54.0506 101.37 53.9684C102.05 53.808 102.79 53.8386 103.396 53.4489C104.068 53.0153 104.754 53.1146 105.5 53.1414C106.113 53.1624 105.923 53.8137 106.349 53.8538C106.287 54.3027 105.877 54.3409 105.578 54.4058C104.584 54.6236 103.576 54.7745 102.574 54.956C102.397 54.9884 102.225 55.0438 101.955 55.1126C102.671 55.9301 103.133 56.7992 104.264 57.0208C104.996 57.164 105.944 58.6119 105.829 59.2995C105.699 60.0731 105.072 60.5506 104.407 60.8677C103.375 61.3605 102.3 61.7674 101.244 62.2124C100.983 62.3232 100.673 62.3671 100.517 62.6345C100.374 62.8809 100.184 63.1942 100.316 63.4387C100.466 63.7157 100.776 63.4941 101.004 63.4272C102.181 63.0834 103.444 63.0662 104.499 62.2563C105.08 61.8113 105.864 62.2697 106.557 62.2602C106.515 62.6746 106.736 62.9745 106.998 63.2534C106.743 63.4368 106.512 63.7061 106.228 63.7844C105.341 64.0289 104.436 64.218 103.532 64.4014C99.3447 65.2495 95.3034 66.6591 91.149 67.6237C89.66 67.9694 88.1807 68.3763 86.6515 68.5272C86.4637 68.5463 86.2395 68.5654 86.1035 68.6743C85.8793 68.8557 86.0479 69.2511 85.7643 69.4345C85.9234 69.614 86.1226 69.509 86.2989 69.4975C88.7996 69.3428 91.3023 69.1881 93.801 69.0143C94.1134 68.9932 94.4813 68.957 94.7208 68.787C95.8112 68.0076 96.798 67.9389 97.6699 69.1403C97.3518 69.4326 96.7885 69.5835 96.9935 70.3895C97.1411 70.9721 96.273 71.0332 95.8476 71.293C95.6253 71.4286 95.2804 71.3408 95.014 71.4267C94.786 71.4993 94.1613 71.165 94.4296 71.9023C94.443 71.9386 94.0444 72.1449 93.7627 72.143C93.0345 72.1411 92.3485 72.3569 91.6798 72.6606C92.3428 72.6301 92.9885 72.949 93.6535 72.6664C93.9869 72.525 94.2303 72.7046 94.2724 73.0388C94.3203 73.4056 93.9946 73.4552 93.7531 73.4285C92.0247 73.2298 90.5243 74.1409 88.8916 74.4141C87.9201 74.5764 87.1766 75.3348 86.4139 75.8619C85.268 76.6565 84.0186 77.05 82.7654 77.5046C82.3572 77.6536 81.928 77.7415 81.3244 77.9096C81.9931 77.1875 82.9091 77.2506 83.5338 76.5916C82.1713 76.6833 80.9833 76.88 79.96 77.6975C78.9655 78.4902 77.7352 78.7424 76.5261 78.7557C75.614 78.7653 74.8072 78.7023 74.1844 79.5236C74.0618 79.684 73.6191 79.7471 73.3949 79.6649C72.1111 79.1951 71.1913 80.215 69.9265 80.2685C70.304 80.6907 70.647 80.385 70.946 80.6181C70.6183 80.9562 69.9898 80.8053 69.7732 81.3019C69.7483 81.3611 69.4915 81.3974 69.413 81.342C68.1463 80.45 67.2419 81.8291 66.0845 81.9074C64.2257 82.0354 62.3631 82.6179 60.5139 82.979C58.5479 83.361 56.578 83.8652 54.5621 84.0104C54.3398 84.0257 54.1175 84.0238 53.8971 84.0486C53.5216 84.0925 52.7723 82.9656 52.8049 84.3982C52.8068 84.5242 52.3201 84.6255 52.0307 84.528C52.0001 84.2377 52.3296 84.3065 52.3833 84.1193C52.3431 84.0811 52.2971 84.0047 52.2645 84.0104C51.6628 84.0983 51.1569 84.4631 50.5322 83.6991C50.1758 83.2617 49.0989 83.1547 48.3343 83.7411C48.0507 83.9588 47.6751 84.0906 47.1903 83.8939C46.3644 83.5577 45.3794 83.6456 44.6072 83.8901C42.7369 84.4803 42.185 84.593 40.447 84.2434C39.3969 84.0314 38.3142 84.062 37.1626 84.4994C38.0613 84.9349 38.9657 84.5872 40.0024 84.8642C38.0364 85.1316 36.2773 85.1431 34.5239 84.954C34.11 84.9081 33.6999 84.8088 33.2994 84.9177C31.8277 85.315 30.5726 84.19 29.1354 84.3485C28.9725 84.3657 28.8441 84.2205 28.825 84.0448C28.802 83.8309 28.894 83.678 29.1182 83.6246C29.4075 83.5558 29.7812 83.6551 29.9249 83.1566C29.419 83.0152 28.6219 83.1795 28.6947 82.2646C28.6947 82.2589 28.4705 82.234 28.3517 82.2187C27.2901 82.0774 26.2476 81.7603 25.1266 81.8768C25.3815 81.6629 25.8605 81.7145 25.6689 81.1376C25.5942 80.9141 26.056 80.7021 26.3415 80.7709C26.9988 80.9294 27.3859 80.3125 27.4568 80.0489C27.5603 79.6516 27.0505 79.388 26.5523 79.323C25.828 79.2275 26.1729 78.4845 26.2955 78.4062C27.1789 77.837 26.4718 77.5906 26.125 77.2487C25.9717 77.0978 25.8548 76.9106 25.6804 76.689C26.7439 76.2764 27.8017 76.179 28.869 76.0568C28.7694 76.328 28.4705 76.2612 28.1888 76.5973C29.9057 76.4942 31.4541 76.9583 33.0618 76.8456L31.2778 77.1761L31.2931 77.3098C32.8702 77.1092 34.4472 76.9087 36.0243 76.7062C35.4015 77.1627 34.6599 77.1322 33.9528 77.3709C34.0602 77.6269 34.3495 77.4378 34.4779 77.5906C34.3533 77.7319 34.0851 77.6555 34.0237 77.8981C34.0544 77.9325 34.0927 78.007 34.1234 78.0032C35.9342 77.772 37.7125 77.5123 39.2934 76.4331C39.8185 76.0759 40.5792 75.9651 41.2806 75.883C39.9124 75.8218 38.5538 75.7703 37.0514 75.5773C37.4902 75.1113 37.8332 75.3424 38.1398 75.3634C38.3813 75.3806 38.4522 75.3443 38.4656 75.0807C38.4829 74.7541 38.2855 74.9279 38.1705 74.9012C37.6876 74.7923 37.1971 74.8267 36.7601 75.0158C35.6794 75.4857 34.9359 75.5449 33.811 75.2087C33.148 75.01 32.4754 74.9604 31.822 75.4303C33.3837 75.6175 34.9474 75.8046 36.5091 75.9899C33.6903 76.1427 30.9386 75.7588 27.9857 75.0406C28.8767 74.7082 29.5742 74.6834 30.3081 74.7541C29.6739 74.2556 28.892 74.3224 28.0776 74.1639C28.7062 73.7169 29.373 73.7494 30.0092 73.7226C30.2756 73.7112 30.4806 73.6883 30.4442 73.3998C30.4174 73.1878 30.2947 72.9815 29.9843 73.0503C29.3903 73.184 28.6813 73.0828 28.2501 72.8841C27.4204 72.5002 26.7133 73.0694 25.8567 72.8344C26.1652 72.6931 26.3971 72.588 26.6577 72.4696C26.2016 71.9692 25.6229 72.5174 25.1343 72.1392C26.7094 72.0475 28.1581 71.4668 29.672 71.0581C28.7828 71.2338 28.2693 70.2329 27.3801 70.3723C27.2153 70.3972 27.0774 70.2329 27.1732 70.0476C27.3035 69.7974 27.2958 69.4517 27.7653 69.4574C28.4475 69.465 29.1565 69.5185 29.9383 69.148C29.007 68.382 27.7864 68.5482 26.9624 67.8357C26.6194 67.6294 28.0393 67.8606 27.0774 67.3868C26.8532 67.2761 26.6922 66.7852 26.8551 66.6725C27.7059 66.0861 26.8915 65.9371 26.6079 65.8282C25.9755 65.5856 25.7781 64.9037 25.0078 64.6631C25.9429 64.2543 26.8991 63.92 27.4702 64.2276C28.2942 64.6707 28.9649 64.3804 29.7026 64.3555C29.9575 64.3479 30.2947 64.3307 30.3273 64.0327C30.3676 63.6545 29.9651 63.7825 29.7582 63.6908C29.0722 63.3928 28.2482 63.7195 27.4759 63.2114C28.2865 63.0108 28.9764 62.8848 29.7026 63.0605C29.0837 62.7377 28.3574 62.8275 27.748 62.4989C28.3248 62.3289 28.9016 62.1494 29.5129 62.2525C29.7026 62.285 29.8425 62.2583 29.8444 62.0558C29.8444 61.8419 29.7256 61.6871 29.4822 61.7234C28.1639 61.9259 26.88 61.202 25.5539 61.6508C26.7318 60.9734 27.764 60.7353 28.6506 60.9365C28.4475 60.1801 27.9972 59.7159 27.2153 59.7197C26.7037 59.7236 26.5657 59.4619 26.5082 59.0397C27.2211 58.8239 27.9607 58.9729 28.6832 58.8831C28.9572 58.8487 29.2657 58.8564 29.2063 58.419C29.1776 58.1974 29.2945 58.0255 28.9725 57.8249C28.6889 57.6492 27.9435 57.1239 28.9917 56.8107C28.7981 56.484 27.9742 56.8107 28.2252 56.1841C28.5145 55.464 29.1507 56.3771 29.647 55.974C29.3558 55.8422 29.3884 55.3895 28.9074 55.3953C28.7177 55.3953 28.7368 54.4097 28.9629 54.3657C29.762 54.211 30.1529 53.2082 31.1034 53.384C31.3755 53.4336 31.3851 53.1681 31.3602 52.9847C31.2759 52.3678 31.2471 51.7413 31.1896 51.1377C31.1475 50.6926 30.3465 50.3545 29.7544 50.6296C29.3654 50.8111 29.191 50.6009 28.8633 50.4539C29.3864 49.8732 30.0169 50.3545 30.5573 50.2132C30.998 50.0967 31.3314 49.9572 31.2452 49.5561C31.1379 49.0538 32.0347 48.836 31.5288 48.2802C31.479 48.2248 31.6821 48.0758 31.8067 48.1025C32.8242 48.3241 33.7095 47.7167 34.7136 47.6556C33.7497 47.1418 32.692 47.4302 31.7166 47.1991C31.5173 47.1513 31.3276 47.2449 31.2069 47.4015C31.0593 47.5945 30.9846 48.135 30.7815 47.4149C30.7412 47.2736 30.3982 47.1532 30.4998 47.6212C30.5496 47.8504 30.2047 47.7262 30.2104 47.625C30.2219 47.3461 29.8866 47.2525 29.8712 47.0023C30.3503 46.7234 30.793 47.0501 31.2184 46.9527C31.4426 46.9011 31.8258 47.0482 31.8546 46.7521C31.8795 46.4961 31.8929 46.0664 31.3774 46.0568C31.7051 45.6863 32.0462 45.9136 32.303 45.9995C33.1193 46.2727 33.9433 46.2211 34.7634 46.1428C35.2042 46.1008 35.6296 45.8582 35.6679 46.6012C35.6794 46.8323 35.9515 46.8495 36.1949 46.8839C36.9671 46.9928 37.6991 46.6833 38.4618 46.7196C38.5959 46.7254 38.7799 46.6108 38.8699 46.4961C39.4812 45.7168 39.8568 45.6271 40.7479 46.1179C41.1713 46.351 41.5987 46.605 41.6121 45.8085C41.6217 45.2049 42.3977 45.415 42.484 44.8802C42.2559 44.7121 41.34 45.3749 41.7481 44.3492C40.9376 44.2556 41.2997 43.7513 41.3764 43.3292C41.4473 42.9357 41.1503 43.0083 40.8992 42.9472C39.6422 42.6397 38.5844 43.3789 37.4308 43.5909C36.2485 43.8086 35.1026 44.2327 33.9433 44.5765C33.721 44.6434 33.514 44.6987 33.3013 44.567C33.7555 44.2652 32.9353 43.7838 33.4546 43.4935C33.5102 43.4629 33.5811 43.4438 33.6194 43.398C33.8705 43.1019 34.6676 43.3025 34.499 42.7657C34.3323 42.2347 33.7267 42.6435 33.3301 42.6779C32.3969 42.76 31.479 42.6435 30.5611 42.5518C30.061 42.5021 29.8042 41.6311 29.8674 41.1307C29.9766 40.2731 30.8543 39.4231 29.9421 38.512C29.7199 38.2904 29.7697 37.9256 29.9077 37.6047C30.6052 35.9658 31.5154 34.4721 33.1576 33.6431C33.6846 33.3776 33.6884 32.9173 33.9088 32.5525C34.2135 32.0482 33.9471 31.6643 33.3876 31.4924C33.3282 31.4733 33.2093 31.4522 33.286 31.3052C33.9414 30.0674 34.4204 28.7361 35.8231 28.0313C37.9885 26.9425 40.1557 25.8652 42.4131 24.9808C48.6715 22.5302 55.0105 20.2973 61.3398 18.0338C62.5777 17.5907 63.8425 17.7626 65.065 17.4914C65.8622 17.3156 66.8011 17.4608 67.3875 16.6738C68.1138 17.5487 68.6791 16.8056 69.3574 16.4847C69.0087 16.3186 68.75 16.0282 68.3974 16.3377C69.0182 15.9155 69.7445 15.7436 70.4573 15.7589C71.0744 15.7723 71.678 16.0874 72.3027 16.1677C72.9427 16.2498 73.2206 16.7369 73.6287 17.1342C73.3911 17.4073 73.0251 17.2755 72.7626 17.4875C74.3607 17.732 75.773 16.9775 77.3386 16.6032C77.5915 16.7178 76.8212 17.0177 77.3002 17.0788C78.6569 17.2564 80.0232 17.5066 81.309 16.7197C81.698 16.4809 82.1637 16.3644 82.7194 16.1409C81.1519 15.8028 79.7109 16.5592 78.2699 16.1696C80.3356 15.6691 82.3649 15.0006 84.5245 15.0694C84.8273 15.0789 85.1339 15.0846 85.1607 15.4667C85.1875 15.8525 84.8656 15.8468 84.6222 15.8047C83.7791 15.6596 84.2275 16.4981 83.8615 16.7197C84.352 16.3625 85.0112 16.7426 85.4539 16.3205C85.6168 16.1658 85.9981 16.1753 85.565 15.7398C85.1837 15.3559 85.8984 15.2107 86.0901 15.268C86.8776 15.503 87.6921 15.1209 88.5026 15.5354C89.1676 15.8754 89.9053 15.1018 90.6948 15.3349C90.9324 15.4055 91.3118 15.4189 91.2908 15.6252C91.1834 16.7159 92.0343 16.2746 92.5152 16.4179C92.5631 16.8018 92.1205 16.6356 92.0438 16.8629C92.086 16.8973 92.1262 16.9584 92.1703 16.9623C92.3294 16.9699 92.5018 16.9164 92.6455 16.9623C92.9771 17.0692 93.4715 16.9088 93.5922 17.3863C93.7301 17.9364 92.9981 17.6002 92.9138 17.9689C94.2456 18.2611 94.3203 18.3681 94.0214 19.6956C94.6097 19.2735 95.0964 18.7578 95.8476 18.9545C95.8974 19.3652 95.5007 19.22 95.3321 19.348C95.1673 19.4721 95.0179 19.5906 95.0792 19.8064C95.3685 20.813 95.3781 20.8302 94.2839 21.1377C94.0233 21.2103 93.8087 21.472 93.4753 21.3689C93.4274 20.962 94.0176 20.7003 93.734 20.2553C93.5903 20.2152 93.4868 20.2686 93.4197 20.3947C93.2223 20.7672 92.3945 20.3508 92.5689 20.7882C92.7433 21.2256 93.0154 22.024 94.0272 21.6592C93.4005 22.3678 92.7279 22.0049 92.0898 22.1329C92.4999 22.7881 93.3373 22.3755 93.7033 22.9619C93.9141 23.3 94.1383 23.6209 94.7228 23.512C95.2689 23.4107 95.2018 23.9704 95.0466 24.2493C94.7285 24.8223 95.2363 24.6714 95.6215 24.8758C92.2316 26.1231 88.7517 26.2912 85.1492 27.0227C86.3334 27.464 87.372 26.7114 88.4011 27.3264C88.0638 27.5671 87.5253 27.6607 87.8971 28.2204C88.106 28.5336 88.127 28.9328 87.4908 29.2938C88.7709 29.3492 89.7386 29.5823 90.8481 29.842C89.9609 30.4934 89.1388 30.3119 88.3838 29.9853C87.2686 29.5039 87.0539 29.525 86.3967 30.5984C86.2415 30.8544 86.0307 30.862 85.7566 30.8639C85.3715 30.8658 85.2278 31.2612 84.8924 31.4427C85.1703 31.7426 85.5037 31.7235 85.5861 31.5286C85.8467 30.9117 86.4177 31.584 86.709 31.2135C86.7128 31.2097 86.8776 31.2937 86.9141 31.3644C86.9466 31.4293 86.9026 31.607 86.9006 31.607C85.8889 31.5458 86.0728 32.5085 85.7011 32.9918C85.6704 33.0319 85.6129 33.0548 85.5459 33.1007C86.0173 33.3662 86.5097 32.8466 86.939 33.2573C87.1555 32.6919 86.5864 32.499 86.5366 32.0157C87.4525 32.0291 88.3685 31.8648 88.9855 32.7778L88.951 32.7454L88.9434 32.7435ZM60.4315 20.1158C61.3053 20.2495 62.0412 19.8408 62.7751 19.4798C63.8846 18.9354 65.0209 18.8743 66.1688 19.2601C66.9525 19.5218 67.7516 19.7338 68.4702 19.2658C69.0911 18.8628 69.7694 18.5878 70.396 18.2115C70.5167 18.1389 70.7601 18.0243 70.5838 17.7282C69.9725 17.839 69.3363 17.9364 68.6656 17.5926C69.0163 17.4589 69.3018 17.35 69.7943 17.1628C69.0374 17.1533 68.5238 17.3233 67.9854 17.3118C67.0713 17.2927 66.2224 17.7435 65.3122 17.8772C64.8025 17.9517 64.0417 18.3624 63.4305 18.6871C62.4474 19.2104 61.2076 19.2028 60.4296 20.1388C60.3261 19.7109 60.0636 19.814 59.7762 19.9306C59.1706 20.177 58.5594 20.4081 57.9481 20.6449C58.2758 21.0365 58.6437 20.9563 59.0059 20.7939C59.4868 20.5781 59.9582 20.3412 60.4335 20.112L60.4315 20.1158ZM91.3636 71.6425C89.3726 71.5088 88.4375 71.6827 87.7476 72.3397C89.1906 73.2585 90.1717 71.8966 91.3636 71.6425ZM35.2846 49.4969C36.2715 50.5341 37.2641 49.4224 38.1858 49.7433C38.205 49.7509 38.3391 49.5542 38.3468 49.4492C38.3583 49.2658 38.2088 49.1359 38.0459 49.1588C37.1549 49.2868 36.2274 49.1455 35.2846 49.495V49.4969ZM102.242 43.6921C101.464 42.8937 100.805 43.0503 100.186 43.6386C100.816 43.7743 101.472 43.4476 102.242 43.6921Z" fill="#D1E3FF"/>
<path d="M39.0257 51.1088C39.0257 59.7768 39.0257 68.4448 39.0257 77.1128C39.0257 78.9406 39.1336 79.0484 40.9389 79.0508C53.6348 79.0508 66.3307 79.0508 79.0267 79.0508C80.8953 79.0508 81.0172 78.9242 81.0196 77.0449C81.0196 74.2328 81.0242 71.4232 81.0196 68.6112C81.0196 67.8613 81.0735 67.0927 82.0441 67.1138C82.928 67.1325 82.9984 67.8543 82.996 68.5667C82.9867 71.6505 83.0078 74.7367 82.9843 77.8205C82.9679 79.9131 81.7909 81.0754 79.7019 81.0777C66.5769 81.0848 53.4519 81.0848 40.3246 81.0777C38.191 81.0777 36.9976 79.8779 36.9976 77.7361C36.9953 59.9689 36.9953 42.2041 37 24.4393C37 22.3045 38.2004 21.0906 40.3246 21.0883C53.4496 21.0813 66.5746 21.0813 79.7019 21.0883C81.7886 21.0883 82.9796 22.2599 82.9843 24.3479C83.0031 30.321 82.9914 36.2942 82.9914 42.2697C82.9914 42.9868 83.0312 43.7952 82.023 43.8093C81.0125 43.8233 81.0242 43.0243 81.0219 42.3002C81.0219 36.5613 81.0219 30.8225 81.0219 25.0813C81.0219 23.284 80.8718 23.1293 79.1017 23.1293C66.3659 23.1293 53.6325 23.1293 40.8967 23.1293C39.15 23.1293 39.028 23.2488 39.028 24.9876C39.0257 33.6954 39.028 42.4009 39.028 51.1088H39.0257Z" fill="black"/>
<path d="M69.8713 69.6345C69.4462 69.7329 69.3805 70.089 69.1621 70.2906C68.5679 70.8365 67.8987 71.0497 67.1167 70.7967C66.3887 70.56 65.9636 70.0656 65.771 69.3181C65.4705 68.1466 65.717 66.9047 65.245 65.4965C64.5288 67.61 63.8877 69.5056 63.2489 71.3989C63.1362 71.7316 63.0681 72.0831 62.9154 72.3947C62.6736 72.8821 62.3096 73.2429 61.7037 73.011C61.1636 72.8048 60.8794 72.383 61.0414 71.8066C61.3045 70.8717 61.6144 69.9485 61.9197 69.0253C62.4105 67.5467 62.899 66.0705 63.4156 64.6014C63.8313 63.4251 64.6532 62.8557 65.6982 63.0502C66.8161 63.2587 67.328 64.0367 67.429 65.1169C67.53 66.2041 67.6098 67.2913 67.7108 68.5285C68.5374 67.699 69.2912 66.9188 70.5359 67.4085C71.6748 67.856 71.7359 69.0323 72.3488 69.9906C73.0134 69.1776 73.6099 68.416 74.2392 67.685C74.4976 67.385 74.4036 67.146 74.2674 66.8438C73.8377 65.8925 73.8799 64.9411 74.4083 64.0414C75.3007 62.5183 75.9536 60.8898 76.4819 59.2191C77.2686 56.7354 78.6612 54.5703 79.9411 52.342C81.7869 49.1295 83.6491 45.9264 85.5184 42.728C85.8261 42.2032 86.0421 41.8025 85.2719 41.458C84.7364 41.219 84.4264 40.7363 84.7552 40.1107C85.1075 39.4453 85.7087 39.4007 86.2488 39.7522C86.9063 40.1763 87.1717 39.9373 87.4793 39.3515C87.9678 38.4213 88.5314 37.5286 89.0715 36.6241C89.4449 35.9961 89.722 35.2604 90.6966 35.3682C91.0747 35.4104 91.1545 34.9933 91.3212 34.7472C92.4532 33.093 94.0195 32.6407 95.5413 33.5311C96.9832 34.3747 97.4012 36.0313 96.5792 37.7066C96.3749 38.1237 96.1213 38.4635 96.483 38.9766C96.7741 39.389 96.5017 39.8717 96.2575 40.2865C95.6047 41.3948 94.98 42.5218 94.3107 43.6184C94.0547 44.0378 94.0994 44.2347 94.5268 44.5252C96.5745 45.9241 96.8516 47.2222 95.6211 49.3709C94.4962 51.3344 93.3643 53.291 92.2277 55.2475C91.8684 55.8661 91.4739 56.5808 90.6026 56.0582C89.7619 55.5545 90.1353 54.8585 90.4993 54.2259C91.6665 52.1991 92.8336 50.1699 94.0148 48.1501C94.3553 47.569 94.5761 47.009 93.9514 46.4818C93.4207 46.0342 93.0262 45.8163 92.5447 46.6786C90.3514 50.5893 88.0476 54.4391 85.8472 58.3475C84.8656 60.0931 83.7337 61.7123 82.428 63.2236C81.4323 64.3741 80.4483 65.5363 79.7133 66.886C79.098 68.0154 78.1117 68.6222 76.8365 68.5379C76.2565 68.5004 75.9794 68.7183 75.6835 69.1073C75.1645 69.7915 74.6314 70.4663 74.0819 71.1271C72.7316 72.7462 71.1042 72.5001 70.2705 70.5647C70.1367 70.2554 70.0004 69.9461 69.8666 69.6392L69.8713 69.6345ZM82.9446 58.5818C83.4942 58.5888 83.5411 58.1624 83.7032 57.8836C85.7063 54.4461 87.6977 51.0017 89.6915 47.5596C91.3306 44.7291 91.3212 44.7455 88.4093 43.2529C87.9138 42.9975 87.6883 43.0303 87.4112 43.5153C85.0041 47.7119 82.5759 51.8921 80.1618 56.084C80.0374 56.2996 79.7086 56.6089 79.9998 56.801C80.972 57.4454 81.9959 58.0148 82.9446 58.5818ZM91.7557 42.8733C92.2301 43.1029 92.3263 42.9764 92.4038 42.8428C92.9534 41.9009 93.4935 40.9519 94.0477 40.0146C94.2802 39.621 93.9397 39.5296 93.7283 39.4218C92.735 38.9134 91.7111 37.702 90.821 37.9902C90.0367 38.2432 89.6398 39.7077 89.0903 40.6473C88.9893 40.8184 88.7169 41.0644 89.0058 41.2448C89.9991 41.8634 91.016 42.4398 91.7533 42.8733H91.7557ZM82.0476 60.3603C81.916 60.2947 81.8127 60.2478 81.7164 60.1939C80.8358 59.6972 79.9786 58.8724 79.0698 58.8161C78.4898 58.781 78.4475 60.1611 78.0694 60.8664C77.9966 61.0023 77.9872 61.171 77.9144 61.3046C77.5035 62.0403 77.6373 62.4808 78.4358 62.9331C79.2178 63.3759 79.6921 63.4626 80.2182 62.6402C80.6127 62.0216 81.1528 61.4967 81.6249 60.9273C81.7446 60.782 81.8526 60.625 82.0476 60.3626V60.3603ZM78.3442 65.3184C77.9755 64.8732 77.433 64.4983 76.8906 64.4256C76.3082 64.346 76.2025 65.0021 76.1344 65.4683C76.0451 66.0635 76.3786 66.4572 76.9446 66.5298C77.7172 66.6259 77.9684 65.9862 78.3442 65.3207V65.3184ZM94.9589 36.2141C94.9518 35.5791 94.6865 35.1948 94.0829 35.162C93.3103 35.1198 92.8594 35.7267 92.8665 36.289C92.8735 36.9568 93.7142 37.2029 94.2356 37.2685C94.764 37.3341 94.8438 36.6335 94.9589 36.2141Z" fill="black"/>
<path d="M60.0293 33.076C55.9714 33.076 51.9136 33.076 47.8534 33.076C46.1783 33.076 46.0049 32.8925 45.9979 31.1657C45.9955 30.4599 45.9955 29.7542 45.9979 29.0508C46.0025 27.2605 46.1689 27.0841 47.919 27.0841C55.6059 27.0817 63.2929 27.0841 70.9822 27.0841C71.5281 27.0841 72.0739 27.0911 72.6222 27.0841C73.3555 27.077 74.0256 27.2464 73.9951 28.1286C73.967 28.9214 73.3391 29.0743 72.6433 29.0719C69.7545 29.0602 66.8681 29.0672 63.9793 29.0672C59.1413 29.0672 54.301 29.0625 49.4629 29.0743C48.7952 29.0743 48.0127 28.7544 48.001 30.0553C47.9916 31.3092 48.6968 31.1022 49.4137 31.1022C56.8289 31.1022 64.2417 31.1022 71.6569 31.1022C71.9685 31.1022 72.2825 31.1116 72.5941 31.1022C73.3227 31.081 74.0115 31.2316 73.9951 32.1114C73.9787 32.9913 73.2758 33.083 72.5566 33.083C68.3816 33.0736 64.2066 33.0783 60.0293 33.0783V33.076Z" fill="black"/>
<path d="M49.4915 77.0807C45.8856 77.0807 42.6337 74.7617 41.4568 71.3535C40.3033 68.0156 41.3677 64.235 44.0709 62.0542C46.957 59.7259 50.8372 59.4307 53.8945 61.3257C54.5041 61.7052 55.3715 62.0706 54.8417 63.0099C54.2766 64.0125 53.5358 63.4409 52.8512 63.0497C50.5043 61.7075 48.1457 61.7122 45.8973 63.209C43.5434 64.7761 42.6478 67.0997 43.1519 69.8169C43.6302 72.4006 45.2737 74.1035 47.8386 74.8273C51.6859 75.9118 55.6083 73.1501 55.967 69.0978C56.021 68.5005 55.9999 67.9032 56.7056 67.6643C57.4722 67.4066 58.0232 67.9641 57.9951 68.9596C57.8685 73.4101 54.0234 77.083 49.4962 77.083L49.4915 77.0807Z" fill="black"/>
<path d="M54.9961 50.0801C51.9484 50.0801 48.9006 50.0801 45.8529 50.0801C45.5403 50.0801 45.2231 50.0982 44.9176 50.044C44.3654 49.947 43.9824 49.6538 43.9965 49.0606C44.0106 48.4651 44.4171 48.1989 44.9646 48.1132C45.2701 48.0658 45.5873 48.0884 45.8999 48.0884C51.9554 48.0884 58.0133 48.0884 64.0689 48.0884C64.3415 48.0884 64.6164 48.0794 64.889 48.0974C65.5094 48.1425 65.9817 48.4515 65.9958 49.0515C66.0099 49.717 65.5094 50.0395 64.842 50.0688C64.2969 50.0937 63.7493 50.0779 63.2018 50.0779C60.4666 50.0779 57.7314 50.0779 54.9961 50.0779V50.0801Z" fill="black"/>
<path d="M64.9143 44.0759C61.4355 44.0759 57.9567 44.0688 54.4779 44.083C53.7045 44.0853 52.9665 43.9838 52.997 43.0299C53.0252 42.1515 53.7656 42.083 54.4732 42.083C61.5083 42.0854 68.5435 42.0854 75.5787 42.083C76.2933 42.083 76.9984 42.1822 76.9961 43.0794C76.9937 43.9673 76.3168 44.083 75.5834 44.0806C72.027 44.0688 68.4707 44.0759 64.9119 44.0759H64.9143Z" fill="black"/>
<path d="M59.9717 35.0857C63.1463 35.0857 66.3185 35.088 69.4931 35.0857C70.2409 35.0857 71.0146 35.1213 70.9958 36.1164C70.9793 37.0236 70.2503 37.083 69.5425 37.083C63.1957 37.0806 56.8488 37.0783 50.502 37.083C49.7495 37.083 48.9664 37.0236 48.997 36.0475C49.0275 35.0738 49.8365 35.0809 50.5702 35.0833C53.7048 35.0904 56.8394 35.0857 59.974 35.0857H59.9717Z" fill="black"/>
<path d="M48.8717 71.083C48.3304 71.0588 47.8524 70.9116 47.4752 70.6052C46.7676 70.0285 46.0693 69.4438 45.3992 68.8349C44.947 68.4256 44.8041 67.9498 45.3453 67.5083C45.8444 67.103 46.3505 67.2381 46.7957 67.599C47.3065 68.0123 47.8243 68.4236 48.2836 68.8793C48.7006 69.2926 48.9841 69.2301 49.3872 68.8611C50.2682 68.0567 51.196 67.2885 52.1098 66.5082C52.5644 66.1191 53.0869 65.8751 53.6375 66.3268C54.2069 66.7945 54.0429 67.2845 53.5321 67.726C52.4566 68.6515 51.3811 69.5749 50.3103 70.5023C49.9073 70.8511 49.4153 71.0245 48.874 71.083H48.8717Z" fill="black"/>
<path d="M49.9817 55.0806C48.4151 55.0806 46.8486 55.0735 45.282 55.0829C44.5718 55.0876 44.0056 54.8952 43.9962 54.0812C43.9891 53.3211 44.553 53.0959 45.19 53.0936C48.401 53.0795 51.612 53.0795 54.823 53.0936C55.4718 53.0959 56.0145 53.3633 55.9956 54.107C55.9791 54.8343 55.4742 55.0829 54.7971 55.0806C53.1904 55.0735 51.5861 55.0806 49.9794 55.0806H49.9817Z" fill="black"/>
<path d="M72.5389 48.0853C73.5965 48.0853 74.6518 48.0853 75.7094 48.0853C76.4271 48.0853 77.0031 48.3707 76.996 49.0955C76.9866 49.8248 76.394 50.083 75.6834 50.083C73.5705 50.083 71.4553 50.083 69.3424 50.083C68.6365 50.083 68.018 49.8474 67.9967 49.1249C67.9731 48.3276 68.6176 48.0808 69.3683 48.083C70.426 48.0853 71.4812 48.083 72.5389 48.083V48.0853Z" fill="black"/>
<path d="M62.4468 55.0782C61.3448 55.0782 60.2428 55.0782 59.1407 55.0782C58.5093 55.0782 58.0529 54.8387 58.0009 54.1628C57.9418 53.3999 58.436 53.1065 59.1053 53.0995C61.3495 53.0784 63.5938 53.0784 65.838 53.0948C66.4978 53.0995 67.0299 53.3999 66.9944 54.1346C66.9589 54.8552 66.4363 55.0899 65.7552 55.0829C64.6532 55.0688 63.5512 55.0782 62.4492 55.0782H62.4468Z" fill="black"/>
<path d="M18.0605 15.2721C19.8592 15.8041 21.3158 16.7414 22.4305 18.0841C23.5705 19.4014 24.1405 20.9974 24.1405 22.8721C24.1405 25.6081 23.2158 27.7487 21.3665 29.2941C19.5425 30.8394 17.3005 31.6121 14.6405 31.6121C12.5632 31.6121 10.7012 31.1434 9.05448 30.2061C7.43315 29.2434 6.25515 27.8374 5.52048 25.9881L10.0045 23.4041C10.6632 25.4561 12.2085 26.4821 14.6405 26.4821C15.9832 26.4821 17.0218 26.1654 17.7565 25.5321C18.5165 24.8734 18.8965 23.9867 18.8965 22.8721C18.8965 21.7827 18.5165 20.9087 17.7565 20.2501C17.0218 19.5914 15.9832 19.2621 14.6405 19.2621H13.5005L11.4865 16.2221L16.7305 9.38208H6.31848V4.48008H23.0385V8.81208L18.0605 15.2721Z" fill="#FF5C4E"/>
</svg>
