<svg width="112" height="91" viewBox="0 0 112 91" fill="none" xmlns="http://www.w3.org/2000/svg">
<path d="M93.9434 32.7435C93.4656 33.3127 93.6444 33.7291 94.4799 33.9927C94.0909 34.2926 93.8974 34.2467 93.449 34.3365C92.9718 34.4301 92.8798 33.6374 92.3452 34.006C92.418 34.4817 93.0619 34.3575 93.1903 34.7701C93.0657 35.0184 92.6805 34.7204 92.5886 35.0432C93.1424 35.8627 94.3362 35.366 94.9341 36.1835C94.6849 36.26 94.4569 36.3306 94.0238 36.4643C94.6792 36.7852 95.2157 36.9552 95.6335 37.2799C96.1087 37.6486 95.8289 38.2617 95.1985 38.3152C95.3116 39.0659 96.8024 38.6667 96.4076 39.7994C95.6641 39.7019 94.8804 39.5988 93.9319 39.4746C94.5125 39.7363 95.0069 39.8452 95.3269 40.1413C95.5703 40.3667 96.3732 40.6398 95.6143 41.2128C95.4802 41.3141 95.4476 41.4898 95.5377 41.6426C95.6565 41.8432 95.8788 41.7935 96.0551 41.7839C97.5459 41.6999 99.0348 41.5948 100.526 41.5127C102.783 41.3886 105.042 41.2931 107.298 41.1498C107.782 41.1192 107.984 41.4382 108.016 41.7324C108.055 42.0724 107.627 41.9902 107.416 41.9941C106.37 42.0093 105.728 43.1554 105.077 42.9147C105.962 42.5805 107.273 43.2375 108.597 43.0828C109.308 42.9988 109.323 43.6157 109.693 43.929C109.275 44.0168 108.702 43.8545 108.53 43.9576C107.692 44.46 106.717 44.0264 105.939 44.4619C105.74 44.5727 105.642 44.6338 105.416 44.609C105.033 44.567 104.423 44.29 104.655 45.1648C104.732 45.4513 104.429 45.394 104.26 45.4112C103.929 45.4437 103.576 45.3539 103.229 45.585C103.429 45.904 103.686 45.8181 103.919 45.8085C104.441 45.7837 104.931 45.7455 105.13 46.4274C105.238 46.7941 105.611 46.8896 106 46.8438C106.443 46.7922 106.897 46.8056 107.334 46.7234C108.045 46.5897 108.465 46.861 108.668 47.5524C108.39 47.7988 108.024 47.7396 107.696 47.8046C107.445 47.8542 107.185 47.858 107.208 48.2401C107.229 48.5724 107.359 48.8895 107.687 48.8055C108.421 48.6202 108.89 49.3231 109.568 49.2677C109.67 49.2601 109.877 49.3899 109.875 49.4511C109.844 50.3775 110.58 50.047 111.092 50.1884C110.532 50.3106 110.141 50.4099 110.093 51.1511C110.063 51.6419 109.35 51.9609 108.79 52.1481C107.915 52.4404 107.039 52.7383 106.161 53.0249C105.874 53.1184 105.613 53.1929 105.744 53.5979C105.849 53.9245 106.027 54.0506 106.37 53.9684C107.05 53.808 107.79 53.8386 108.396 53.4489C109.068 53.0153 109.754 53.1146 110.5 53.1414C111.113 53.1624 110.923 53.8137 111.349 53.8538C111.287 54.3027 110.877 54.3409 110.578 54.4058C109.584 54.6236 108.576 54.7745 107.574 54.956C107.397 54.9884 107.225 55.0438 106.955 55.1126C107.671 55.9301 108.133 56.7992 109.264 57.0208C109.996 57.164 110.944 58.6119 110.829 59.2995C110.699 60.0731 110.072 60.5506 109.407 60.8677C108.375 61.3605 107.3 61.7674 106.244 62.2124C105.983 62.3232 105.673 62.3671 105.517 62.6345C105.374 62.8809 105.184 63.1942 105.316 63.4387C105.466 63.7157 105.776 63.4941 106.004 63.4272C107.181 63.0834 108.444 63.0662 109.499 62.2563C110.08 61.8113 110.864 62.2697 111.557 62.2602C111.515 62.6746 111.736 62.9745 111.998 63.2534C111.743 63.4368 111.512 63.7061 111.228 63.7844C110.341 64.0289 109.436 64.218 108.532 64.4014C104.345 65.2495 100.303 66.6591 96.149 67.6237C94.66 67.9694 93.1807 68.3763 91.6515 68.5272C91.4637 68.5463 91.2395 68.5654 91.1035 68.6743C90.8793 68.8557 91.0479 69.2511 90.7643 69.4345C90.9234 69.614 91.1226 69.509 91.2989 69.4975C93.7996 69.3428 96.3023 69.1881 98.801 69.0143C99.1134 68.9932 99.4813 68.957 99.7208 68.787C100.811 68.0076 101.798 67.9389 102.67 69.1403C102.352 69.4326 101.788 69.5835 101.994 70.3895C102.141 70.9721 101.273 71.0332 100.848 71.293C100.625 71.4286 100.28 71.3408 100.014 71.4267C99.786 71.4993 99.1613 71.165 99.4296 71.9023C99.443 71.9386 99.0444 72.1449 98.7627 72.143C98.0345 72.1411 97.3485 72.3569 96.6798 72.6606C97.3428 72.6301 97.9885 72.949 98.6535 72.6664C98.9869 72.525 99.2303 72.7046 99.2724 73.0388C99.3203 73.4056 98.9946 73.4552 98.7531 73.4285C97.0247 73.2298 95.5243 74.1409 93.8916 74.4141C92.9201 74.5764 92.1766 75.3348 91.4139 75.8619C90.268 76.6565 89.0186 77.05 87.7654 77.5046C87.3572 77.6536 86.928 77.7415 86.3244 77.9096C86.9931 77.1875 87.9091 77.2506 88.5338 76.5916C87.1713 76.6833 85.9833 76.88 84.96 77.6975C83.9655 78.4902 82.7352 78.7424 81.5261 78.7557C80.614 78.7653 79.8072 78.7023 79.1844 79.5236C79.0618 79.684 78.6191 79.7471 78.3949 79.6649C77.1111 79.1951 76.1913 80.215 74.9265 80.2685C75.304 80.6907 75.647 80.385 75.946 80.6181C75.6183 80.9562 74.9898 80.8053 74.7732 81.3019C74.7483 81.3611 74.4915 81.3974 74.413 81.342C73.1463 80.45 72.2419 81.8291 71.0845 81.9074C69.2257 82.0354 67.3631 82.6179 65.5139 82.979C63.5479 83.361 61.578 83.8652 59.5621 84.0104C59.3398 84.0257 59.1175 84.0238 58.8971 84.0486C58.5216 84.0925 57.7723 82.9656 57.8049 84.3982C57.8068 84.5242 57.3201 84.6255 57.0307 84.528C57.0001 84.2377 57.3296 84.3065 57.3833 84.1193C57.3431 84.0811 57.2971 84.0047 57.2645 84.0104C56.6628 84.0983 56.1569 84.4631 55.5322 83.6991C55.1758 83.2617 54.0989 83.1547 53.3343 83.7411C53.0507 83.9588 52.6751 84.0906 52.1903 83.8939C51.3644 83.5577 50.3794 83.6456 49.6072 83.8901C47.7369 84.4803 47.185 84.593 45.447 84.2434C44.3969 84.0314 43.3142 84.062 42.1626 84.4994C43.0613 84.9349 43.9657 84.5872 45.0024 84.8642C43.0364 85.1316 41.2773 85.1431 39.5239 84.954C39.11 84.9081 38.6999 84.8088 38.2994 84.9177C36.8277 85.315 35.5726 84.19 34.1354 84.3485C33.9725 84.3657 33.8441 84.2205 33.825 84.0448C33.802 83.8309 33.894 83.678 34.1182 83.6246C34.4075 83.5558 34.7812 83.6551 34.9249 83.1566C34.419 83.0152 33.6219 83.1795 33.6947 82.2646C33.6947 82.2589 33.4705 82.234 33.3517 82.2187C32.2901 82.0774 31.2476 81.7603 30.1266 81.8768C30.3815 81.6629 30.8605 81.7145 30.6689 81.1376C30.5942 80.9141 31.056 80.7021 31.3415 80.7709C31.9988 80.9294 32.3859 80.3125 32.4568 80.0489C32.5603 79.6516 32.0505 79.388 31.5523 79.323C30.828 79.2275 31.1729 78.4845 31.2955 78.4062C32.1789 77.837 31.4718 77.5906 31.125 77.2487C30.9717 77.0978 30.8548 76.9106 30.6804 76.689C31.7439 76.2764 32.8017 76.179 33.869 76.0568C33.7694 76.328 33.4705 76.2612 33.1888 76.5973C34.9057 76.4942 36.4541 76.9583 38.0618 76.8456L36.2778 77.1761L36.2931 77.3098C37.8702 77.1092 39.4472 76.9087 41.0243 76.7062C40.4015 77.1627 39.6599 77.1322 38.9528 77.3709C39.0602 77.6269 39.3495 77.4378 39.4779 77.5906C39.3533 77.7319 39.0851 77.6555 39.0237 77.8981C39.0544 77.9325 39.0927 78.007 39.1234 78.0032C40.9342 77.772 42.7125 77.5123 44.2934 76.4331C44.8185 76.0759 45.5792 75.9651 46.2806 75.883C44.9124 75.8218 43.5538 75.7703 42.0514 75.5773C42.4902 75.1113 42.8332 75.3424 43.1398 75.3634C43.3813 75.3806 43.4522 75.3443 43.4656 75.0807C43.4829 74.7541 43.2855 74.9279 43.1705 74.9012C42.6876 74.7923 42.1971 74.8267 41.7601 75.0158C40.6794 75.4857 39.9359 75.5449 38.811 75.2087C38.148 75.01 37.4754 74.9604 36.822 75.4303C38.3837 75.6175 39.9474 75.8046 41.5091 75.9899C38.6903 76.1427 35.9386 75.7588 32.9857 75.0406C33.8767 74.7082 34.5742 74.6834 35.3081 74.7541C34.6739 74.2556 33.892 74.3224 33.0776 74.1639C33.7062 73.7169 34.373 73.7494 35.0092 73.7226C35.2756 73.7112 35.4806 73.6883 35.4442 73.3998C35.4174 73.1878 35.2947 72.9815 34.9843 73.0503C34.3903 73.184 33.6813 73.0828 33.2501 72.8841C32.4204 72.5002 31.7133 73.0694 30.8567 72.8344C31.1652 72.6931 31.3971 72.588 31.6577 72.4696C31.2016 71.9692 30.6229 72.5174 30.1343 72.1392C31.7094 72.0475 33.1581 71.4668 34.672 71.0581C33.7828 71.2338 33.2693 70.2329 32.3801 70.3723C32.2153 70.3972 32.0774 70.2329 32.1732 70.0476C32.3035 69.7974 32.2958 69.4517 32.7653 69.4574C33.4475 69.465 34.1565 69.5185 34.9383 69.148C34.007 68.382 32.7864 68.5482 31.9624 67.8357C31.6194 67.6294 33.0393 67.8606 32.0774 67.3868C31.8532 67.2761 31.6922 66.7852 31.8551 66.6725C32.7059 66.0861 31.8915 65.9371 31.6079 65.8282C30.9755 65.5856 30.7781 64.9037 30.0078 64.6631C30.9429 64.2543 31.8991 63.92 32.4702 64.2276C33.2942 64.6707 33.9649 64.3804 34.7026 64.3555C34.9575 64.3479 35.2947 64.3307 35.3273 64.0327C35.3676 63.6545 34.9651 63.7825 34.7582 63.6908C34.0722 63.3928 33.2482 63.7195 32.4759 63.2114C33.2865 63.0108 33.9764 62.8848 34.7026 63.0605C34.0837 62.7377 33.3574 62.8275 32.748 62.4989C33.3248 62.3289 33.9016 62.1494 34.5129 62.2525C34.7026 62.285 34.8425 62.2583 34.8444 62.0558C34.8444 61.8419 34.7256 61.6871 34.4822 61.7234C33.1639 61.9259 31.88 61.202 30.5539 61.6508C31.7318 60.9734 32.764 60.7353 33.6506 60.9365C33.4475 60.1801 32.9972 59.7159 32.2153 59.7197C31.7037 59.7236 31.5657 59.4619 31.5082 59.0397C32.2211 58.8239 32.9607 58.9729 33.6832 58.8831C33.9572 58.8487 34.2657 58.8564 34.2063 58.419C34.1776 58.1974 34.2945 58.0255 33.9725 57.8249C33.6889 57.6492 32.9435 57.1239 33.9917 56.8107C33.7981 56.484 32.9742 56.8107 33.2252 56.1841C33.5145 55.464 34.1507 56.3771 34.647 55.974C34.3558 55.8422 34.3884 55.3895 33.9074 55.3953C33.7177 55.3953 33.7368 54.4097 33.9629 54.3657C34.762 54.211 35.1529 53.2082 36.1034 53.384C36.3755 53.4336 36.3851 53.1681 36.3602 52.9847C36.2759 52.3678 36.2471 51.7413 36.1896 51.1377C36.1475 50.6926 35.3465 50.3545 34.7544 50.6296C34.3654 50.8111 34.191 50.6009 33.8633 50.4539C34.3864 49.8732 35.0169 50.3545 35.5573 50.2132C35.998 50.0967 36.3314 49.9572 36.2452 49.5561C36.1379 49.0538 37.0347 48.836 36.5288 48.2802C36.479 48.2248 36.6821 48.0758 36.8067 48.1025C37.8242 48.3241 38.7095 47.7167 39.7136 47.6556C38.7497 47.1418 37.692 47.4302 36.7166 47.1991C36.5173 47.1513 36.3276 47.2449 36.2069 47.4015C36.0593 47.5945 35.9846 48.135 35.7815 47.4149C35.7412 47.2736 35.3982 47.1532 35.4998 47.6212C35.5496 47.8504 35.2047 47.7262 35.2104 47.625C35.2219 47.3461 34.8866 47.2525 34.8712 47.0023C35.3503 46.7234 35.793 47.0501 36.2184 46.9527C36.4426 46.9011 36.8258 47.0482 36.8546 46.7521C36.8795 46.4961 36.8929 46.0664 36.3774 46.0568C36.7051 45.6863 37.0462 45.9136 37.303 45.9995C38.1193 46.2727 38.9433 46.2211 39.7634 46.1428C40.2042 46.1008 40.6296 45.8582 40.6679 46.6012C40.6794 46.8323 40.9515 46.8495 41.1949 46.8839C41.9671 46.9928 42.6991 46.6833 43.4618 46.7196C43.5959 46.7254 43.7799 46.6108 43.8699 46.4961C44.4812 45.7168 44.8568 45.6271 45.7479 46.1179C46.1713 46.351 46.5987 46.605 46.6121 45.8085C46.6217 45.2049 47.3977 45.415 47.484 44.8802C47.2559 44.7121 46.34 45.3749 46.7481 44.3492C45.9376 44.2556 46.2997 43.7513 46.3764 43.3292C46.4473 42.9357 46.1503 43.0083 45.8992 42.9472C44.6422 42.6397 43.5844 43.3789 42.4308 43.5909C41.2485 43.8086 40.1026 44.2327 38.9433 44.5765C38.721 44.6434 38.514 44.6987 38.3013 44.567C38.7555 44.2652 37.9353 43.7838 38.4546 43.4935C38.5102 43.4629 38.5811 43.4438 38.6194 43.398C38.8705 43.1019 39.6676 43.3025 39.499 42.7657C39.3323 42.2347 38.7267 42.6435 38.3301 42.6779C37.3969 42.76 36.479 42.6435 35.5611 42.5518C35.061 42.5021 34.8042 41.6311 34.8674 41.1307C34.9766 40.2731 35.8543 39.4231 34.9421 38.512C34.7199 38.2904 34.7697 37.9256 34.9077 37.6047C35.6052 35.9658 36.5154 34.4721 38.1576 33.6431C38.6846 33.3776 38.6884 32.9173 38.9088 32.5525C39.2135 32.0482 38.9471 31.6643 38.3876 31.4924C38.3282 31.4733 38.2093 31.4522 38.286 31.3052C38.9414 30.0674 39.4204 28.7361 40.8231 28.0313C42.9885 26.9425 45.1557 25.8652 47.4131 24.9808C53.6715 22.5302 60.0105 20.2973 66.3398 18.0338C67.5777 17.5907 68.8425 17.7626 70.065 17.4914C70.8622 17.3156 71.8011 17.4608 72.3875 16.6738C73.1138 17.5487 73.6791 16.8056 74.3574 16.4847C74.0087 16.3186 73.75 16.0282 73.3974 16.3377C74.0182 15.9155 74.7445 15.7436 75.4573 15.7589C76.0744 15.7723 76.678 16.0874 77.3027 16.1677C77.9427 16.2498 78.2206 16.7369 78.6287 17.1342C78.3911 17.4073 78.0251 17.2755 77.7626 17.4875C79.3607 17.732 80.773 16.9775 82.3386 16.6032C82.5915 16.7178 81.8212 17.0177 82.3002 17.0788C83.6569 17.2564 85.0232 17.5066 86.309 16.7197C86.698 16.4809 87.1637 16.3644 87.7194 16.1409C86.1519 15.8028 84.7109 16.5592 83.2699 16.1696C85.3356 15.6691 87.3649 15.0006 89.5245 15.0694C89.8273 15.0789 90.1339 15.0846 90.1607 15.4667C90.1875 15.8525 89.8656 15.8468 89.6222 15.8047C88.7791 15.6596 89.2275 16.4981 88.8615 16.7197C89.352 16.3625 90.0112 16.7426 90.4539 16.3205C90.6168 16.1658 90.9981 16.1753 90.565 15.7398C90.1837 15.3559 90.8984 15.2107 91.0901 15.268C91.8776 15.503 92.6921 15.1209 93.5026 15.5354C94.1676 15.8754 94.9053 15.1018 95.6948 15.3349C95.9324 15.4055 96.3118 15.4189 96.2908 15.6252C96.1834 16.7159 97.0343 16.2746 97.5152 16.4179C97.5631 16.8018 97.1205 16.6356 97.0438 16.8629C97.086 16.8973 97.1262 16.9584 97.1703 16.9623C97.3294 16.9699 97.5018 16.9164 97.6455 16.9623C97.9771 17.0692 98.4715 16.9088 98.5922 17.3863C98.7301 17.9364 97.9981 17.6002 97.9138 17.9689C99.2456 18.2611 99.3203 18.3681 99.0214 19.6956C99.6097 19.2735 100.096 18.7578 100.848 18.9545C100.897 19.3652 100.501 19.22 100.332 19.348C100.167 19.4721 100.018 19.5906 100.079 19.8064C100.369 20.813 100.378 20.8302 99.2839 21.1377C99.0233 21.2103 98.8087 21.472 98.4753 21.3689C98.4274 20.962 99.0176 20.7003 98.734 20.2553C98.5903 20.2152 98.4868 20.2686 98.4197 20.3947C98.2223 20.7672 97.3945 20.3508 97.5689 20.7882C97.7433 21.2256 98.0154 22.024 99.0272 21.6592C98.4005 22.3678 97.7279 22.0049 97.0898 22.1329C97.4999 22.7881 98.3373 22.3755 98.7033 22.9619C98.9141 23.3 99.1383 23.6209 99.7228 23.512C100.269 23.4107 100.202 23.9704 100.047 24.2493C99.7285 24.8223 100.236 24.6714 100.621 24.8758C97.2316 26.1231 93.7517 26.2912 90.1492 27.0227C91.3334 27.464 92.372 26.7114 93.4011 27.3264C93.0638 27.5671 92.5253 27.6607 92.8971 28.2204C93.106 28.5336 93.127 28.9328 92.4908 29.2938C93.7709 29.3492 94.7386 29.5823 95.8481 29.842C94.9609 30.4934 94.1388 30.3119 93.3838 29.9853C92.2686 29.5039 92.0539 29.525 91.3967 30.5984C91.2415 30.8544 91.0307 30.862 90.7566 30.8639C90.3715 30.8658 90.2278 31.2612 89.8924 31.4427C90.1703 31.7426 90.5037 31.7235 90.5861 31.5286C90.8467 30.9117 91.4177 31.584 91.709 31.2135C91.7128 31.2097 91.8776 31.2937 91.9141 31.3644C91.9466 31.4293 91.9026 31.607 91.9006 31.607C90.8889 31.5458 91.0728 32.5085 90.7011 32.9918C90.6704 33.0319 90.6129 33.0548 90.5459 33.1007C91.0173 33.3662 91.5097 32.8466 91.939 33.2573C92.1555 32.6919 91.5864 32.499 91.5366 32.0157C92.4525 32.0291 93.3685 31.8648 93.9855 32.7778L93.951 32.7454L93.9434 32.7435ZM65.4315 20.1158C66.3053 20.2495 67.0412 19.8408 67.7751 19.4798C68.8846 18.9354 70.0209 18.8743 71.1688 19.2601C71.9525 19.5218 72.7516 19.7338 73.4702 19.2658C74.0911 18.8628 74.7694 18.5878 75.396 18.2115C75.5167 18.1389 75.7601 18.0243 75.5838 17.7282C74.9725 17.839 74.3363 17.9364 73.6656 17.5926C74.0163 17.4589 74.3018 17.35 74.7943 17.1628C74.0374 17.1533 73.5238 17.3233 72.9854 17.3118C72.0713 17.2927 71.2224 17.7435 70.3122 17.8772C69.8025 17.9517 69.0417 18.3624 68.4305 18.6871C67.4474 19.2104 66.2076 19.2028 65.4296 20.1388C65.3261 19.7109 65.0636 19.814 64.7762 19.9306C64.1706 20.177 63.5594 20.4081 62.9481 20.6449C63.2758 21.0365 63.6437 20.9563 64.0059 20.7939C64.4868 20.5781 64.9582 20.3412 65.4335 20.112L65.4315 20.1158ZM96.3636 71.6425C94.3726 71.5088 93.4375 71.6827 92.7476 72.3397C94.1906 73.2585 95.1717 71.8966 96.3636 71.6425ZM40.2846 49.4969C41.2715 50.5341 42.2641 49.4224 43.1858 49.7433C43.205 49.7509 43.3391 49.5542 43.3468 49.4492C43.3583 49.2658 43.2088 49.1359 43.0459 49.1588C42.1549 49.2868 41.2274 49.1455 40.2846 49.495V49.4969ZM107.242 43.6921C106.464 42.8937 105.805 43.0503 105.186 43.6386C105.816 43.7743 106.472 43.4476 107.242 43.6921Z" fill="#D1E3FF"/>
<path d="M70.8927 20.5206C79.6119 16.8916 88.2765 16.7058 97.0641 19.3374C98.0098 19.6216 98.92 20.0834 99.7865 20.5698C101.645 21.6082 102.564 23.1413 102.514 25.3684C102.419 29.7379 102.503 34.1074 102.471 38.4797C102.465 39.2886 102.665 39.8515 103.381 40.2887C104.078 40.7123 104.712 41.2452 105.343 41.7617C106.696 42.8656 107.281 44.3003 106.866 46.0028C106.439 47.7544 105.269 48.8939 103.474 49.1153C102.583 49.2246 102.465 49.5907 102.476 50.3258C102.503 52.6923 102.424 55.0615 102.503 57.428C102.572 59.4283 101.697 60.8165 100.079 61.844C97.7283 63.3388 95.0906 64.011 92.3901 64.4401C91.592 64.5658 91.1738 64.9538 90.6545 65.5249C89.0938 67.241 88.6838 69.2031 88.9298 71.4166C89.009 72.1352 88.8669 72.8813 88.9544 73.6C89.3206 76.554 87.779 78.2919 85.3327 79.5244C82.0364 81.1858 78.4803 81.951 74.8751 82.421C66.6451 83.4922 58.4425 83.3419 50.3327 81.4017C48.116 80.8716 45.9677 80.1365 44.0325 78.8877C42.3542 77.8028 41.3128 76.3572 41.5014 74.2421C41.5342 73.8814 41.4878 73.5125 41.5096 73.1491C41.69 70.1267 41.4304 67.364 39.3995 64.7434C37.5163 62.3168 37.0079 59.1879 37.0051 56.0726C37.0051 54.2062 36.986 52.3398 37.0106 50.4734C37.0352 48.3474 38.3718 46.9947 40.5174 46.9646C41.2472 46.9537 41.7502 46.8362 42.1766 46.1203C42.9446 44.8304 44.2375 44.0926 45.5659 43.4641C47.5038 42.5432 49.5455 41.9201 51.6447 41.513C52.4757 41.3518 52.8501 41.0703 52.8638 40.1248C52.8993 37.5451 54.2332 35.676 56.5811 34.7496C58.7814 33.8806 59.6205 32.3831 59.5959 30.1205C59.5522 26.2073 59.5385 22.2887 59.6397 18.3755C59.7025 15.9325 61.2796 14.0524 63.5592 13.3419C65.7787 12.6505 68.0719 13.3337 69.5807 15.1509C70.4253 16.1675 70.8407 17.3507 70.8872 18.6624C70.9091 19.2909 70.8899 19.9194 70.8899 20.5179L70.8927 20.5206ZM43.822 56.6902C43.822 59.6415 43.8575 62.7841 43.8001 65.9239C43.7837 66.7983 44.0926 67.3585 44.7267 67.8969C48.127 70.7853 52.0903 71.9166 56.4909 71.7909C57.0512 71.7745 57.3027 71.5614 57.4585 71.0668C57.8056 69.9464 58.6721 69.4982 59.7599 69.4928C63.4034 69.4682 67.0469 69.4764 70.6931 69.4873C71.8029 69.49 72.6557 69.9956 73.0083 71.0613C73.1832 71.586 73.3855 71.7745 73.9348 71.7882C78.3792 71.9112 82.3917 70.799 85.8029 67.8231C86.437 67.2684 86.7295 66.6918 86.7131 65.831C86.6611 63.1912 86.7049 60.5487 86.6857 57.9062C86.683 57.4007 86.8497 56.846 86.7131 56.6574C72.2976 61.8713 58.15 61.8495 43.8302 56.6929L43.822 56.6902ZM86.6748 70.0775C82.7252 73.0589 78.5651 74.2421 73.995 74.0181C73.3964 73.988 73.1613 74.1738 72.9727 74.775C72.6775 75.7178 71.9341 76.2452 70.9009 76.2452C67.1207 76.2479 63.3406 76.2452 59.5604 76.2452C58.6475 76.2452 57.8521 75.8462 57.6115 75.0237C57.3109 74.0044 56.6849 73.9907 55.8732 74.0181C51.6857 74.1574 47.881 73.0179 44.4643 70.5804C44.2976 70.4629 44.1254 70.2552 43.8193 70.4902C43.8193 71.8101 43.8657 73.1764 43.8029 74.54C43.7591 75.521 44.1691 76.1796 44.9235 76.7234C46.4241 77.8055 48.1215 78.4641 49.8845 78.915C59.1176 81.2869 68.419 81.3307 77.7505 79.5954C80.257 79.1281 82.7142 78.4504 84.9255 77.1169C85.7509 76.6196 86.6092 76.0676 86.6529 74.9854C86.7185 73.4551 86.6693 71.9221 86.6693 70.0803L86.6748 70.0775ZM71.5459 32.9215C72.1035 33.9462 72.7486 34.2878 73.4265 34.5447C76.1024 35.5503 77.51 37.5069 77.6494 40.3188C77.6931 41.1741 78.0703 41.3763 78.7755 41.5075C80.4292 41.8136 82.05 42.2754 83.6026 42.9148C85.5459 43.7128 87.4729 44.5736 88.5526 46.5438C88.8204 47.0302 89.2086 46.9346 89.5994 46.951C92.3054 47.0712 93.4479 48.2217 93.437 50.9598C93.4233 54.6243 93.7568 58.3216 92.3929 62.0736C95.118 61.6473 97.5288 61.016 99.5651 59.3628C100.065 58.9583 100.183 58.4009 100.175 57.7751C100.155 56.0016 100.177 54.2281 100.164 52.4546C100.155 51.367 100.442 50.099 99.9805 49.2464C99.5678 48.484 98.1656 48.7163 97.2144 48.4567C92.8958 47.2844 89.4546 44.7867 86.4397 41.5868C85.8603 40.9719 85.3273 40.3079 84.4608 39.9718C82.7361 39.305 82.02 38.0971 82.1922 36.2389C82.2386 35.7225 82.2359 35.5339 81.6537 35.4874C78.2535 35.206 74.9434 34.5283 71.5432 32.9242L71.5459 32.9215ZM55.0641 44.6665C55.0641 45.8497 55.0942 47.0357 55.0532 48.2189C55.0286 48.8966 55.198 49.2054 55.9524 49.1808C57.5897 49.1317 59.2324 49.1317 60.8724 49.1808C61.6596 49.2054 61.8946 48.9322 61.87 48.1643C61.8208 46.5274 61.8946 44.8851 61.8427 43.2455C61.8126 42.3109 62.3784 42.3874 62.9907 42.3738C63.6412 42.3601 64.1359 42.3738 64.1031 43.2783C64.043 44.8687 64.1195 46.4673 64.0731 48.0577C64.0512 48.8311 64.1879 49.2218 65.0981 49.1808C66.6889 49.1071 68.2878 49.1262 69.8786 49.1754C70.6412 49.1972 70.92 48.9704 70.8954 48.1807C70.8407 46.5875 70.9282 44.9917 70.8626 43.4013C70.8243 42.4995 71.2207 42.3574 71.9942 42.3601C72.7623 42.3601 73.1668 42.4885 73.1313 43.3985C73.0657 44.9889 73.1477 46.5875 73.0985 48.178C73.0739 48.9568 73.3363 49.241 74.107 49.1726C74.722 49.118 75.3835 49.3393 75.3589 48.2791C75.3015 45.8661 75.3179 43.4532 75.3534 41.0375C75.3644 40.2751 75.0309 40.1302 74.364 40.1439C72.7705 40.1767 71.1742 40.1849 69.5807 40.1439C68.8564 40.1248 68.6295 40.3899 68.6432 41.0894C68.6787 42.729 68.6049 44.3713 68.6705 46.0082C68.7088 46.9865 68.1648 46.9674 67.4678 46.981C66.7381 46.9947 66.2515 46.9373 66.2925 45.9836C66.3609 44.3932 66.2871 42.7973 66.3199 41.2042C66.3335 40.4964 66.2023 40.1139 65.3577 40.1439C63.7669 40.204 62.168 40.204 60.5772 40.1439C59.7353 40.1139 59.5959 40.4964 59.6123 41.2042C59.6451 42.7973 59.5741 44.3932 59.6369 45.9864C59.6752 46.9346 59.1859 46.9947 58.4589 46.9838C57.7619 46.9728 57.2234 46.9838 57.2617 46.0082C57.3273 44.3249 57.2453 42.6388 57.289 40.9555C57.3136 39.9554 56.6385 40.1958 56.0864 40.163C55.4932 40.1275 55.0122 40.1439 55.0477 40.9828C55.1024 42.2098 55.0614 43.4422 55.0614 44.6719L55.0641 44.6665ZM100.172 32.5334C96.7224 34.4381 93.1391 35.1595 89.46 35.482C88.8888 35.5312 88.8068 35.7197 88.897 36.2362C89.0801 37.2828 88.7931 38.242 88.0633 39.0044C87.6779 39.4088 87.7654 39.6274 88.0961 39.9854C90.8076 42.9012 93.9017 45.1993 97.824 46.2378C100.18 46.8608 100.175 46.8909 100.175 44.4205C100.175 42.7372 100.175 41.0539 100.175 39.3678C100.175 37.1544 100.175 34.9382 100.175 32.5307L100.172 32.5334ZM43.8767 52.0747C43.535 53.105 44.3195 53.7253 45.0985 54.2773C46.446 55.2364 47.9794 55.8267 49.5619 56.253C58.5873 58.6769 67.7056 58.7342 76.8677 57.2012C79.6037 56.7449 82.2906 56.0672 84.7314 54.6653C85.5241 54.2117 86.2976 53.7171 86.6065 52.777C86.6912 52.5174 86.7759 52.2059 86.5627 52.001C86.3003 51.7468 86.0625 52.0392 85.8466 52.1622C84.2914 53.0339 82.6486 53.6952 80.9157 54.0914C68.3835 56.958 56.0126 56.9607 43.8767 52.072V52.0747ZM61.87 23.3052C61.87 24.8492 61.8755 26.3959 61.8673 27.9398C61.8646 28.4754 61.8673 28.9236 62.6244 28.9072C64.3519 28.8744 66.0793 28.8826 67.8068 28.9045C68.389 28.9127 68.624 28.6776 68.6213 28.1038C68.6049 24.923 68.6787 21.7394 68.5666 18.564C68.4956 16.6156 66.8119 15.2111 65.0352 15.3422C63.182 15.4789 61.9001 16.9299 61.8782 18.9411C61.8618 20.3949 61.8755 21.8487 61.8755 23.3025L61.87 23.3052ZM46.241 50.4843C58.9017 54.7773 71.5432 54.7883 84.1984 50.4761C82.2195 49.1562 80.052 48.5961 77.838 48.1643C77.5756 48.7409 77.6303 49.3065 77.6986 49.8285C77.8763 51.162 77.346 51.4927 76.0422 51.479C69.2172 51.4134 62.3921 51.449 55.5643 51.449C53.8587 51.449 52.9458 50.6046 52.8255 48.9158C52.7982 48.5277 52.9294 48.0523 52.2078 48.2217C50.1441 48.7108 48.0832 49.2 46.241 50.4843ZM73.4893 26.6199C81.5252 29.5849 89.5694 29.6204 97.608 26.6145C89.5803 23.6659 81.5416 23.6823 73.4893 26.6199ZM56.2722 37.8211H74.312C73.8255 37.1872 73.2953 36.9522 72.7541 36.7417C70.5127 35.8591 69.0532 34.3015 68.7088 31.8694C68.6076 31.1534 68.2168 31.1261 67.6783 31.1316C66.1313 31.1425 64.5842 31.1726 63.0399 31.1206C62.2472 31.0933 61.8454 31.2682 61.6869 32.1481C61.2796 34.378 59.9157 35.8591 57.8083 36.6926C57.2425 36.9166 56.6002 37.0833 56.2722 37.8211ZM100.104 28.2677C90.3238 32.1946 80.6506 32.1946 70.961 28.2568C70.6904 29.1367 71.1469 29.7243 71.7837 30.238C72.7923 31.0496 73.9676 31.5442 75.184 31.924C80.6342 33.6183 86.1937 33.6921 91.7861 32.8941C94.175 32.5553 96.5202 31.9732 98.6166 30.7025C99.5077 30.1615 100.434 29.5658 100.104 28.2677ZM85.535 19.9276C84.715 19.9276 83.8923 19.8785 83.0778 19.9358C79.6666 20.1736 76.2992 20.6491 73.1668 22.1438C72.3413 22.5373 71.5596 23.0101 71.0539 23.8135C70.8489 24.1387 70.8107 24.5049 71.0403 24.8382C71.2753 25.1826 71.5323 24.9148 71.7455 24.8027C74.9926 23.0975 78.5268 22.4854 82.1184 22.234C87.8857 21.8323 93.5682 22.1766 98.9528 24.5923C99.2808 24.7399 99.6307 25.2809 100.002 24.8328C100.369 24.3901 100.139 23.8763 99.7783 23.4801C98.8927 22.51 97.7283 21.9881 96.5256 21.5536C92.9723 20.272 89.2851 19.8648 85.535 19.9249V19.9276ZM65.1664 74.0153C66.7545 74.0153 68.3425 73.9771 69.9278 74.0317C70.7423 74.059 70.9337 73.7311 70.8927 72.9988C70.8571 72.3484 70.9801 71.7636 69.9634 71.7827C66.8365 71.8374 63.7068 71.8401 60.5772 71.7827C59.5959 71.7636 59.6123 72.2746 59.6069 72.966C59.5987 73.6437 59.6807 74.0727 60.5444 74.0372C62.0832 73.9743 63.6275 74.0208 65.1691 74.0208L65.1664 74.0153ZM52.8583 45.0818C52.7845 44.2402 53.0168 43.4996 52.0739 43.7264C49.5647 44.3276 47.0692 44.9753 44.9126 46.4946C44.4643 46.8116 44.0625 47.186 43.8821 47.7216C43.7974 47.9757 43.7591 48.2763 43.9587 48.4977C44.1965 48.7627 44.4479 48.5715 44.6803 48.443C46.9571 47.1723 49.4362 46.47 51.9591 45.9454C52.7627 45.7787 52.8966 45.3988 52.8556 45.0846L52.8583 45.0818ZM77.7013 44.7594C77.5264 45.5519 77.9036 45.8251 78.6744 45.9836C80.8938 46.4427 83.0559 47.104 85.1223 48.0714C85.5405 48.2654 86.0188 49.0305 86.4835 48.4157C86.9563 47.7845 86.3495 47.2406 85.8931 46.8007C85.3327 46.2596 84.6494 45.8989 83.9552 45.5601C82.3179 44.7621 80.5686 44.303 78.822 43.8139C77.8763 43.5488 77.5373 43.7948 77.7041 44.7594H77.7013ZM88.938 52.4491C88.938 53.2662 88.9106 54.0832 88.9489 54.8976C88.968 55.3266 88.681 55.9715 89.5475 55.9688C90.2773 55.9688 91.0399 55.8649 91.0891 55.0069C91.182 53.381 91.1847 51.7386 91.0836 50.1127C91.0317 49.2601 90.25 49.1644 89.5256 49.1754C88.6564 49.189 88.979 49.8476 88.9516 50.2684C88.9052 50.9899 88.938 51.7195 88.938 52.4436V52.4491ZM41.5014 52.6459C41.5014 51.8725 41.5315 51.0964 41.4905 50.3258C41.4659 49.8886 41.7365 49.2437 40.9192 49.1863C40.2359 49.1371 39.5034 49.2492 39.3831 49.9979C39.1098 51.7031 39.1125 53.4411 39.3831 55.149C39.5006 55.9005 40.2304 56.007 40.9138 55.9661C41.7365 55.9141 41.4659 55.272 41.4905 54.8347C41.5315 54.1078 41.5014 53.3782 41.5014 52.6513V52.6459ZM88.9407 63.511C90.0149 62.1883 90.5124 60.6936 90.8267 59.1387C90.8978 58.7807 91.2039 58.1194 90.3648 58.2014C89.799 58.2588 88.897 57.7969 88.9325 59.0239C88.9762 60.5187 88.9434 62.0134 88.9434 63.5082L88.9407 63.511ZM102.484 42.4667C102.484 43.7838 102.465 44.8004 102.492 45.8142C102.503 46.1858 102.304 46.6914 102.81 46.8745C103.22 47.022 103.608 46.7679 103.936 46.5384C104.827 45.9098 104.969 44.6337 104.193 43.8111C103.777 43.3712 103.233 43.0487 102.484 42.4667ZM41.4796 63.3661C41.4796 61.8085 41.5698 60.2454 41.444 58.6987C41.373 57.8243 40.4901 58.3161 39.9817 58.2014C39.5444 58.103 39.4323 58.4118 39.5198 58.7807C39.897 60.3902 40.2906 61.9971 41.4823 63.3661H41.4796ZM85.5405 35.7197C84.8298 35.7416 84.4636 36.1324 84.4745 36.8183C84.4827 37.444 84.8817 37.8457 85.4749 37.8785C86.15 37.9168 86.5901 37.4741 86.6147 36.8183C86.6393 36.1542 86.2457 35.7443 85.5377 35.7197H85.5405Z" fill="black"/>
<path d="M25.4865 21.6941V26.5581H22.6365V31.0801H17.3545V26.5581H4.77652V21.6941L13.6305 4.48008H19.2545L10.4385 21.6941H17.3545V15.3861H22.6365V21.6941H25.4865Z" fill="#FF5C4E"/>
</svg>
