<svg width="107" height="91" viewBox="0 0 107 91" fill="none" xmlns="http://www.w3.org/2000/svg">
<path d="M15.2308 14.1701C17.7895 14.1701 19.9428 14.9427 21.6908 16.4881C23.4388 18.0081 24.3128 20.1361 24.3128 22.8721C24.3128 25.6081 23.3882 27.7487 21.5388 29.2941C19.7148 30.8394 17.4728 31.6121 14.8128 31.6121C12.6595 31.6121 10.7595 31.1307 9.11282 30.1681C7.46615 29.2054 6.27549 27.7867 5.54082 25.9121L10.0248 23.2901C10.6835 25.4181 12.2795 26.4821 14.8128 26.4821C16.1555 26.4821 17.1942 26.1654 17.9288 25.5321C18.6888 24.8734 19.0688 23.9867 19.0688 22.8721C19.0688 21.7827 18.7015 20.9087 17.9668 20.2501C17.2322 19.5914 16.2315 19.2621 14.9648 19.2621H6.90882L7.97282 4.48008H23.0588V9.38208H12.8368L12.4948 14.1701H15.2308Z" fill="#FF5C4E"/>
<path d="M88.9434 30.7435C88.4656 31.3127 88.6444 31.7291 89.4799 31.9927C89.0909 32.2926 88.8974 32.2467 88.449 32.3365C87.9718 32.4301 87.8798 31.6374 87.3452 32.006C87.418 32.4817 88.0619 32.3575 88.1903 32.7701C88.0657 33.0184 87.6805 32.7204 87.5886 33.0432C88.1424 33.8627 89.3362 33.366 89.9341 34.1835C89.6849 34.26 89.4569 34.3306 89.0238 34.4643C89.6792 34.7852 90.2157 34.9552 90.6335 35.2799C91.1087 35.6486 90.8289 36.2617 90.1985 36.3152C90.3116 37.0659 91.8024 36.6667 91.4076 37.7994C90.6641 37.7019 89.8804 37.5988 88.9319 37.4746C89.5125 37.7363 90.0069 37.8452 90.3269 38.1413C90.5703 38.3667 91.3732 38.6398 90.6143 39.2128C90.4802 39.3141 90.4476 39.4898 90.5377 39.6426C90.6565 39.8432 90.8788 39.7935 91.0551 39.7839C92.5459 39.6999 94.0348 39.5948 95.5257 39.5127C97.783 39.3886 100.042 39.2931 102.298 39.1498C102.782 39.1192 102.984 39.4382 103.016 39.7324C103.055 40.0724 102.627 39.9902 102.416 39.9941C101.37 40.0093 100.728 41.1554 100.077 40.9147C100.962 40.5805 102.273 41.2375 103.597 41.0828C104.308 40.9988 104.323 41.6157 104.693 41.929C104.275 42.0168 103.702 41.8545 103.53 41.9576C102.692 42.46 101.717 42.0264 100.939 42.4619C100.74 42.5727 100.642 42.6338 100.416 42.609C100.033 42.567 99.4233 42.29 99.6552 43.1648C99.7318 43.4513 99.4291 43.394 99.2604 43.4112C98.9289 43.4437 98.5763 43.3539 98.2295 43.585C98.4288 43.904 98.6856 43.8181 98.9193 43.8085C99.4406 43.7837 99.9311 43.7455 100.13 44.4274C100.238 44.7941 100.611 44.8896 101 44.8438C101.443 44.7922 101.897 44.8056 102.334 44.7234C103.045 44.5897 103.465 44.861 103.668 45.5524C103.39 45.7988 103.024 45.7396 102.696 45.8046C102.445 45.8542 102.185 45.858 102.208 46.2401C102.229 46.5724 102.359 46.8895 102.687 46.8055C103.421 46.6202 103.89 47.3231 104.568 47.2677C104.67 47.2601 104.877 47.3899 104.875 47.4511C104.844 48.3775 105.58 48.047 106.092 48.1884C105.532 48.3106 105.141 48.4099 105.093 49.1511C105.063 49.6419 104.35 49.9609 103.79 50.1481C102.915 50.4404 102.039 50.7383 101.161 51.0249C100.874 51.1184 100.613 51.1929 100.744 51.5979C100.849 51.9245 101.027 52.0506 101.37 51.9684C102.05 51.808 102.79 51.8386 103.396 51.4489C104.068 51.0153 104.754 51.1146 105.5 51.1414C106.113 51.1624 105.923 51.8137 106.349 51.8538C106.287 52.3027 105.877 52.3409 105.578 52.4058C104.584 52.6236 103.576 52.7745 102.574 52.956C102.397 52.9884 102.225 53.0438 101.955 53.1126C102.671 53.9301 103.133 54.7992 104.264 55.0208C104.996 55.164 105.944 56.6119 105.829 57.2995C105.699 58.0731 105.072 58.5506 104.407 58.8677C103.375 59.3605 102.3 59.7674 101.244 60.2124C100.983 60.3232 100.673 60.3671 100.517 60.6345C100.374 60.8809 100.184 61.1942 100.316 61.4387C100.466 61.7157 100.776 61.4941 101.004 61.4272C102.181 61.0834 103.444 61.0662 104.499 60.2563C105.08 59.8113 105.864 60.2697 106.557 60.2602C106.515 60.6746 106.736 60.9745 106.998 61.2534C106.743 61.4368 106.512 61.7061 106.228 61.7844C105.341 62.0289 104.436 62.218 103.532 62.4014C99.3447 63.2495 95.3034 64.6591 91.149 65.6237C89.66 65.9694 88.1807 66.3763 86.6515 66.5272C86.4637 66.5463 86.2395 66.5654 86.1035 66.6743C85.8793 66.8557 86.0479 67.2511 85.7643 67.4345C85.9234 67.614 86.1226 67.509 86.2989 67.4975C88.7996 67.3428 91.3023 67.1881 93.801 67.0143C94.1134 66.9932 94.4813 66.957 94.7208 66.787C95.8112 66.0076 96.798 65.9389 97.6699 67.1403C97.3518 67.4326 96.7885 67.5835 96.9935 68.3895C97.1411 68.9721 96.273 69.0332 95.8476 69.293C95.6253 69.4286 95.2804 69.3408 95.014 69.4267C94.786 69.4993 94.1613 69.165 94.4296 69.9023C94.443 69.9386 94.0444 70.1449 93.7627 70.143C93.0345 70.1411 92.3485 70.3569 91.6798 70.6606C92.3428 70.6301 92.9885 70.949 93.6535 70.6664C93.9869 70.525 94.2303 70.7046 94.2724 71.0388C94.3203 71.4056 93.9946 71.4552 93.7531 71.4285C92.0247 71.2298 90.5243 72.1409 88.8916 72.4141C87.9201 72.5764 87.1766 73.3348 86.4139 73.8619C85.268 74.6565 84.0186 75.05 82.7654 75.5046C82.3572 75.6536 81.928 75.7415 81.3244 75.9096C81.9931 75.1875 82.9091 75.2506 83.5338 74.5916C82.1713 74.6833 80.9833 74.88 79.96 75.6975C78.9655 76.4902 77.7352 76.7424 76.5261 76.7557C75.614 76.7653 74.8072 76.7023 74.1844 77.5236C74.0618 77.684 73.6191 77.7471 73.3949 77.6649C72.1111 77.1951 71.1913 78.215 69.9265 78.2685C70.304 78.6907 70.647 78.385 70.946 78.6181C70.6183 78.9562 69.9898 78.8053 69.7732 79.3019C69.7483 79.3611 69.4915 79.3974 69.413 79.342C68.1463 78.45 67.2419 79.8291 66.0845 79.9074C64.2257 80.0354 62.3631 80.6179 60.5139 80.979C58.5479 81.361 56.578 81.8652 54.5621 82.0104C54.3398 82.0257 54.1175 82.0238 53.8971 82.0486C53.5216 82.0925 52.7723 80.9656 52.8049 82.3982C52.8068 82.5242 52.3201 82.6255 52.0307 82.528C52.0001 82.2377 52.3296 82.3065 52.3833 82.1193C52.3431 82.0811 52.2971 82.0047 52.2645 82.0104C51.6628 82.0983 51.1569 82.4631 50.5322 81.6991C50.1758 81.2617 49.0989 81.1547 48.3343 81.7411C48.0507 81.9588 47.6751 82.0906 47.1903 81.8939C46.3644 81.5577 45.3794 81.6456 44.6072 81.8901C42.7369 82.4803 42.185 82.593 40.447 82.2434C39.3969 82.0314 38.3142 82.062 37.1626 82.4994C38.0613 82.9349 38.9657 82.5872 40.0024 82.8642C38.0364 83.1316 36.2773 83.1431 34.5239 82.954C34.11 82.9081 33.6999 82.8088 33.2994 82.9177C31.8277 83.315 30.5726 82.19 29.1354 82.3485C28.9725 82.3657 28.8441 82.2205 28.825 82.0448C28.802 81.8309 28.894 81.678 29.1182 81.6246C29.4075 81.5558 29.7812 81.6551 29.9249 81.1566C29.419 81.0152 28.6219 81.1795 28.6947 80.2646C28.6947 80.2589 28.4705 80.234 28.3517 80.2187C27.2901 80.0774 26.2476 79.7603 25.1266 79.8768C25.3815 79.6629 25.8605 79.7145 25.6689 79.1376C25.5942 78.9141 26.056 78.7021 26.3415 78.7709C26.9988 78.9294 27.3859 78.3125 27.4568 78.0489C27.5603 77.6516 27.0505 77.388 26.5523 77.323C25.828 77.2275 26.1729 76.4845 26.2955 76.4062C27.1789 75.837 26.4718 75.5906 26.125 75.2487C25.9717 75.0978 25.8548 74.9106 25.6804 74.689C26.7439 74.2764 27.8017 74.179 28.869 74.0568C28.7694 74.328 28.4705 74.2612 28.1888 74.5973C29.9057 74.4942 31.4541 74.9583 33.0618 74.8456L31.2778 75.1761L31.2931 75.3098C32.8702 75.1092 34.4472 74.9087 36.0243 74.7062C35.4015 75.1627 34.6599 75.1322 33.9528 75.3709C34.0602 75.6269 34.3495 75.4378 34.4779 75.5906C34.3533 75.7319 34.0851 75.6555 34.0237 75.8981C34.0544 75.9325 34.0927 76.007 34.1234 76.0032C35.9342 75.772 37.7125 75.5123 39.2934 74.4331C39.8185 74.0759 40.5792 73.9651 41.2806 73.883C39.9124 73.8218 38.5538 73.7703 37.0514 73.5773C37.4902 73.1113 37.8332 73.3424 38.1398 73.3634C38.3813 73.3806 38.4522 73.3443 38.4656 73.0807C38.4829 72.7541 38.2855 72.9279 38.1705 72.9012C37.6876 72.7923 37.1971 72.8267 36.7601 73.0158C35.6794 73.4857 34.9359 73.5449 33.811 73.2087C33.148 73.01 32.4754 72.9604 31.822 73.4303C33.3837 73.6175 34.9474 73.8046 36.5091 73.9899C33.6903 74.1427 30.9386 73.7588 27.9857 73.0406C28.8767 72.7082 29.5742 72.6834 30.3081 72.7541C29.6739 72.2556 28.892 72.3224 28.0776 72.1639C28.7062 71.7169 29.373 71.7494 30.0092 71.7226C30.2756 71.7112 30.4806 71.6883 30.4442 71.3998C30.4174 71.1878 30.2947 70.9815 29.9843 71.0503C29.3903 71.184 28.6813 71.0828 28.2501 70.8841C27.4204 70.5002 26.7133 71.0694 25.8567 70.8344C26.1652 70.6931 26.3971 70.588 26.6577 70.4696C26.2016 69.9692 25.6229 70.5174 25.1343 70.1392C26.7094 70.0475 28.1581 69.4668 29.672 69.0581C28.7828 69.2338 28.2693 68.2329 27.3801 68.3723C27.2153 68.3972 27.0774 68.2329 27.1732 68.0476C27.3035 67.7974 27.2958 67.4517 27.7653 67.4574C28.4475 67.465 29.1565 67.5185 29.9383 67.148C29.007 66.382 27.7864 66.5482 26.9624 65.8357C26.6194 65.6294 28.0393 65.8606 27.0774 65.3868C26.8532 65.2761 26.6922 64.7852 26.8551 64.6725C27.7059 64.0861 26.8915 63.9371 26.6079 63.8282C25.9755 63.5856 25.7781 62.9037 25.0078 62.6631C25.9429 62.2543 26.8991 61.92 27.4702 62.2276C28.2942 62.6707 28.9649 62.3804 29.7026 62.3555C29.9575 62.3479 30.2947 62.3307 30.3273 62.0327C30.3676 61.6545 29.9651 61.7825 29.7582 61.6908C29.0722 61.3928 28.2482 61.7195 27.4759 61.2114C28.2865 61.0108 28.9764 60.8848 29.7026 61.0605C29.0837 60.7377 28.3574 60.8275 27.748 60.4989C28.3248 60.3289 28.9016 60.1494 29.5129 60.2525C29.7026 60.285 29.8425 60.2583 29.8444 60.0558C29.8444 59.8419 29.7256 59.6871 29.4822 59.7234C28.1639 59.9259 26.88 59.202 25.5539 59.6508C26.7318 58.9734 27.764 58.7353 28.6506 58.9365C28.4475 58.1801 27.9972 57.7159 27.2153 57.7197C26.7037 57.7236 26.5657 57.4619 26.5082 57.0397C27.2211 56.8239 27.9607 56.9729 28.6832 56.8831C28.9572 56.8487 29.2657 56.8564 29.2063 56.419C29.1776 56.1974 29.2945 56.0255 28.9725 55.8249C28.6889 55.6492 27.9435 55.1239 28.9917 54.8107C28.7981 54.484 27.9742 54.8107 28.2252 54.1841C28.5145 53.464 29.1507 54.3771 29.647 53.974C29.3558 53.8422 29.3884 53.3895 28.9074 53.3953C28.7177 53.3953 28.7368 52.4097 28.9629 52.3657C29.762 52.211 30.1529 51.2082 31.1034 51.384C31.3755 51.4336 31.3851 51.1681 31.3602 50.9847C31.2759 50.3678 31.2471 49.7413 31.1896 49.1377C31.1475 48.6926 30.3465 48.3545 29.7544 48.6296C29.3654 48.8111 29.191 48.6009 28.8633 48.4539C29.3864 47.8732 30.0169 48.3545 30.5573 48.2132C30.998 48.0967 31.3314 47.9572 31.2452 47.5561C31.1379 47.0538 32.0347 46.836 31.5288 46.2802C31.479 46.2248 31.6821 46.0758 31.8067 46.1025C32.8242 46.3241 33.7095 45.7167 34.7136 45.6556C33.7497 45.1418 32.692 45.4302 31.7166 45.1991C31.5173 45.1513 31.3276 45.2449 31.2069 45.4015C31.0593 45.5945 30.9846 46.135 30.7815 45.4149C30.7412 45.2736 30.3982 45.1532 30.4998 45.6212C30.5496 45.8504 30.2047 45.7262 30.2104 45.625C30.2219 45.3461 29.8866 45.2525 29.8712 45.0023C30.3503 44.7234 30.793 45.0501 31.2184 44.9527C31.4426 44.9011 31.8258 45.0482 31.8546 44.7521C31.8795 44.4961 31.8929 44.0664 31.3774 44.0568C31.7051 43.6863 32.0462 43.9136 32.303 43.9995C33.1193 44.2727 33.9433 44.2211 34.7634 44.1428C35.2042 44.1008 35.6296 43.8582 35.6679 44.6012C35.6794 44.8323 35.9515 44.8495 36.1949 44.8839C36.9671 44.9928 37.6991 44.6833 38.4618 44.7196C38.5959 44.7254 38.7799 44.6108 38.8699 44.4961C39.4812 43.7168 39.8568 43.6271 40.7479 44.1179C41.1713 44.351 41.5987 44.605 41.6121 43.8085C41.6217 43.2049 42.3977 43.415 42.484 42.8802C42.2559 42.7121 41.34 43.3749 41.7481 42.3492C40.9376 42.2556 41.2997 41.7513 41.3764 41.3292C41.4473 40.9357 41.1503 41.0083 40.8992 40.9472C39.6422 40.6397 38.5844 41.3789 37.4308 41.5909C36.2485 41.8086 35.1026 42.2327 33.9433 42.5765C33.721 42.6434 33.514 42.6987 33.3013 42.567C33.7555 42.2652 32.9353 41.7838 33.4546 41.4935C33.5102 41.4629 33.5811 41.4438 33.6194 41.398C33.8705 41.1019 34.6676 41.3025 34.499 40.7657C34.3323 40.2347 33.7267 40.6435 33.3301 40.6779C32.3969 40.76 31.479 40.6435 30.5611 40.5518C30.061 40.5021 29.8042 39.6311 29.8674 39.1307C29.9766 38.2731 30.8543 37.4231 29.9421 36.512C29.7199 36.2904 29.7697 35.9256 29.9077 35.6047C30.6052 33.9658 31.5154 32.4721 33.1576 31.6431C33.6846 31.3776 33.6884 30.9173 33.9088 30.5525C34.2135 30.0482 33.9471 29.6643 33.3876 29.4924C33.3282 29.4733 33.2093 29.4522 33.286 29.3052C33.9414 28.0674 34.4204 26.7361 35.8231 26.0313C37.9885 24.9425 40.1557 23.8652 42.4131 22.9808C48.6715 20.5302 55.0105 18.2973 61.3398 16.0338C62.5777 15.5907 63.8425 15.7626 65.065 15.4914C65.8622 15.3156 66.8011 15.4608 67.3875 14.6738C68.1138 15.5487 68.6791 14.8056 69.3574 14.4847C69.0087 14.3186 68.75 14.0282 68.3974 14.3377C69.0182 13.9155 69.7445 13.7436 70.4573 13.7589C71.0744 13.7723 71.678 14.0874 72.3027 14.1677C72.9427 14.2498 73.2206 14.7369 73.6287 15.1342C73.3911 15.4073 73.0251 15.2755 72.7626 15.4875C74.3607 15.732 75.773 14.9775 77.3386 14.6032C77.5915 14.7178 76.8212 15.0177 77.3002 15.0788C78.6569 15.2564 80.0232 15.5066 81.309 14.7197C81.698 14.4809 82.1637 14.3644 82.7194 14.1409C81.1519 13.8028 79.7109 14.5592 78.2699 14.1696C80.3356 13.6691 82.3649 13.0006 84.5245 13.0694C84.8273 13.0789 85.1339 13.0846 85.1607 13.4667C85.1875 13.8525 84.8656 13.8468 84.6222 13.8047C83.7791 13.6596 84.2275 14.4981 83.8615 14.7197C84.352 14.3625 85.0112 14.7426 85.4539 14.3205C85.6168 14.1658 85.9981 14.1753 85.565 13.7398C85.1837 13.3559 85.8984 13.2107 86.0901 13.268C86.8776 13.503 87.6921 13.1209 88.5026 13.5354C89.1676 13.8754 89.9053 13.1018 90.6948 13.3349C90.9324 13.4055 91.3118 13.4189 91.2908 13.6252C91.1834 14.7159 92.0343 14.2746 92.5152 14.4179C92.5631 14.8018 92.1205 14.6356 92.0438 14.8629C92.086 14.8973 92.1262 14.9584 92.1703 14.9623C92.3294 14.9699 92.5018 14.9164 92.6455 14.9623C92.9771 15.0692 93.4715 14.9088 93.5922 15.3863C93.7301 15.9364 92.9981 15.6002 92.9138 15.9689C94.2456 16.2611 94.3203 16.3681 94.0214 17.6956C94.6097 17.2735 95.0964 16.7578 95.8476 16.9545C95.8974 17.3652 95.5007 17.22 95.3321 17.348C95.1673 17.4721 95.0179 17.5906 95.0792 17.8064C95.3685 18.813 95.3781 18.8302 94.2839 19.1377C94.0233 19.2103 93.8087 19.472 93.4753 19.3689C93.4274 18.962 94.0176 18.7003 93.734 18.2553C93.5903 18.2152 93.4868 18.2686 93.4197 18.3947C93.2223 18.7672 92.3945 18.3508 92.5689 18.7882C92.7433 19.2256 93.0154 20.024 94.0272 19.6592C93.4005 20.3678 92.7279 20.0049 92.0898 20.1329C92.4999 20.7881 93.3373 20.3755 93.7033 20.9619C93.9141 21.3 94.1383 21.6209 94.7228 21.512C95.2689 21.4107 95.2018 21.9704 95.0466 22.2493C94.7285 22.8223 95.2363 22.6714 95.6215 22.8758C92.2316 24.1231 88.7517 24.2912 85.1492 25.0227C86.3334 25.464 87.372 24.7114 88.4011 25.3264C88.0638 25.5671 87.5253 25.6607 87.8971 26.2204C88.106 26.5336 88.127 26.9328 87.4908 27.2938C88.7709 27.3492 89.7386 27.5823 90.8481 27.842C89.9609 28.4934 89.1388 28.3119 88.3838 27.9853C87.2686 27.5039 87.0539 27.525 86.3967 28.5984C86.2415 28.8544 86.0307 28.862 85.7566 28.8639C85.3715 28.8658 85.2278 29.2612 84.8924 29.4427C85.1703 29.7426 85.5037 29.7235 85.5861 29.5286C85.8467 28.9117 86.4177 29.584 86.709 29.2135C86.7128 29.2097 86.8776 29.2937 86.9141 29.3644C86.9466 29.4293 86.9026 29.607 86.9006 29.607C85.8889 29.5458 86.0728 30.5085 85.7011 30.9918C85.6704 31.0319 85.6129 31.0548 85.5459 31.1007C86.0173 31.3662 86.5097 30.8466 86.939 31.2573C87.1555 30.6919 86.5864 30.499 86.5366 30.0157C87.4525 30.0291 88.3685 29.8648 88.9855 30.7778L88.951 30.7454L88.9434 30.7435ZM60.4315 18.1158C61.3053 18.2495 62.0412 17.8408 62.7751 17.4798C63.8846 16.9354 65.0209 16.8743 66.1688 17.2601C66.9525 17.5218 67.7516 17.7338 68.4702 17.2658C69.0911 16.8628 69.7694 16.5878 70.396 16.2115C70.5167 16.1389 70.7601 16.0243 70.5838 15.7282C69.9725 15.839 69.3363 15.9364 68.6656 15.5926C69.0163 15.4589 69.3018 15.35 69.7943 15.1628C69.0374 15.1533 68.5238 15.3233 67.9854 15.3118C67.0713 15.2927 66.2224 15.7435 65.3122 15.8772C64.8025 15.9517 64.0417 16.3624 63.4305 16.6871C62.4474 17.2104 61.2076 17.2028 60.4296 18.1388C60.3261 17.7109 60.0636 17.814 59.7762 17.9306C59.1706 18.177 58.5594 18.4081 57.9481 18.6449C58.2758 19.0365 58.6437 18.9563 59.0059 18.7939C59.4868 18.5781 59.9582 18.3412 60.4335 18.112L60.4315 18.1158ZM91.3636 69.6425C89.3726 69.5088 88.4375 69.6827 87.7476 70.3397C89.1906 71.2585 90.1717 69.8966 91.3636 69.6425ZM35.2846 47.4969C36.2715 48.5341 37.2641 47.4224 38.1858 47.7433C38.205 47.7509 38.3391 47.5542 38.3468 47.4492C38.3583 47.2658 38.2088 47.1359 38.0459 47.1588C37.1549 47.2868 36.2274 47.1455 35.2846 47.495V47.4969ZM102.242 41.6921C101.464 40.8937 100.805 41.0503 100.186 41.6386C100.816 41.7743 101.472 41.4476 102.242 41.6921Z" fill="#D1E3FF"/>
<path d="M59.2803 82.0804C51.1979 82.0804 43.1183 82.0804 35.0359 82.0804C33.1756 82.0804 33.0054 81.9133 33.0054 80.0637C33.0054 74.6819 32.9856 69.303 33.0111 63.9212C33.0309 59.5903 35.0104 56.4633 38.9098 54.5598C39.3692 54.336 39.8343 54.2142 39.8655 53.5231C39.8939 52.9481 40.427 52.7272 40.9517 52.5572C43.0106 51.8831 45.0638 51.1891 47.1142 50.4895C47.5906 50.328 48.1323 50.2119 48.43 50.634C49.1617 51.665 49.9558 51.005 50.6874 50.7642C51.5127 50.4923 51.0816 49.7191 51.144 49.1639C51.3085 47.7136 51.1327 46.405 49.848 45.3853C49.2837 44.9378 48.881 44.2155 48.5605 43.5414C47.5963 41.5161 46.7994 39.5504 44.5079 38.3749C42.7497 37.4741 41.7117 33.4378 42.7553 32.0187C43.9237 30.4297 44.6157 28.9001 44.4285 26.9684C46.547 24.7052 45.7728 21.7509 46.2691 19.1081C46.8249 16.1708 49.0511 14.1229 52.0515 14.1003C55.9736 14.0719 59.8957 14.0748 63.8178 14.1003C66.8976 14.1201 69.1947 16.1312 69.6371 19.1931C69.8385 20.5924 69.9831 22.003 70.0881 23.4107C70.1703 24.5352 70.193 25.5748 71.1856 26.4415C71.9002 27.0647 71.5089 28.141 71.5854 29.0219C71.6251 29.4666 71.4323 29.9142 71.8208 30.3504C73.7095 32.4832 73.8088 35.6726 72.0902 37.8084C71.6733 38.3239 71.2309 38.8989 70.59 39.0688C69.1834 39.4427 68.6559 40.4256 68.2447 41.7087C67.6917 43.4309 66.6311 44.8953 65.3833 46.2124C64.8813 46.7421 64.4871 49.9485 64.8416 50.5121C65.1223 50.9597 66.8381 51.2571 67.2209 50.8521C67.7796 50.2601 68.3355 50.328 69.0189 50.566C70.9303 51.2316 72.8616 51.8491 74.7844 52.4807C75.431 52.6932 76.0832 52.917 76.1031 53.7412C76.1144 54.2596 76.5001 54.3275 76.8319 54.4692C78.5675 55.2141 80.0365 56.316 81.0631 57.8965C81.6076 58.7349 82.3903 58.5196 83.0681 58.514C83.7799 58.5083 83.5701 57.7067 83.6722 57.2733C83.9813 55.9931 84.1004 54.6674 84.4152 53.39C84.7158 52.1692 84.2167 51.5375 83.156 51.0815C79.821 49.6511 76.5001 48.1895 73.1764 46.7279C71.4748 45.9801 71.0211 45.204 71.3075 43.4082C71.523 42.06 71.7925 40.7173 72.1129 39.3917C72.4561 37.9783 73.528 37.1795 74.9318 37.4515C75.8393 37.6271 75.9811 37.2617 76.0946 36.5621C76.7185 32.673 76.7383 33.1659 80.2208 33.8287C86.4259 35.0127 92.6366 36.1768 98.8444 37.341C101.113 37.7659 101.212 37.8848 100.793 40.2188C100.39 42.4423 99.9845 44.6659 99.5477 46.8837C99.1904 48.7107 98.8501 48.9429 97.072 48.603C91.9333 47.6202 86.7974 46.6175 81.6587 45.6346C79.9004 45.2975 78.1364 44.9689 76.3725 44.6687C75.1899 44.4676 74.5773 43.9351 74.9262 42.635C75.1105 41.9551 75.1615 41.2442 75.292 40.5502C75.3572 40.2018 75.4054 39.9157 74.9488 39.7798C74.4923 39.641 74.3221 39.8931 74.2512 40.2358C74.0073 41.434 73.7748 42.6378 73.5678 43.8444C73.4401 44.5865 74.1037 44.6404 74.5433 44.833C77.694 46.2152 80.8533 47.5748 84.0068 48.9543C86.3777 49.991 87.0866 51.3279 86.6329 53.8828C86.3862 55.2736 86.1224 56.6615 85.8388 58.0438C85.7141 58.6528 85.6488 59.0918 86.4996 59.2363C87.512 59.4091 87.824 60.0662 87.5971 61.1227C87.1008 63.4227 86.7435 65.7539 86.2614 68.0567C86.1281 68.6997 86.2217 69.0594 86.769 69.4673C88.0197 70.3964 88.6067 71.6965 88.5897 73.2685C88.5755 74.5913 88.5982 75.9112 88.584 77.234C88.5557 80.1458 86.6102 82.072 83.6552 82.0748C75.5274 82.0861 67.3996 82.0776 59.269 82.0776L59.2803 82.0804ZM57.8964 65.0854C53.0328 65.0854 48.1663 65.1166 43.3027 65.0599C42.2846 65.0486 42.0435 65.3573 42.0634 66.3289C42.1258 69.3455 42.0549 72.3678 42.1002 75.3844C42.1229 76.8261 41.4536 78.8004 42.3923 79.5623C43.2857 80.2875 45.1886 79.7153 46.6377 79.8258C47.6502 79.9022 47.7806 79.449 47.7664 78.5993C47.7239 75.8178 47.7863 73.0334 47.7352 70.2491C47.7126 68.9999 48.1521 68.4504 49.4595 68.4589C55.1257 68.4957 60.7947 68.4957 66.4609 68.4589C67.7654 68.4504 68.2135 68.9914 68.1908 70.2434C68.1398 73.0249 68.222 75.8121 68.1511 78.5908C68.1256 79.6133 68.4546 79.8938 69.4273 79.8229C70.5078 79.7408 71.6024 79.7436 72.6829 79.8229C73.6188 79.8909 73.874 79.5652 73.8627 78.6446C73.8145 74.5885 73.806 70.5295 73.8655 66.4733C73.8825 65.3998 73.6443 65.0344 72.4873 65.0514C67.6236 65.1222 62.7572 65.0797 57.8935 65.0826L57.8964 65.0854ZM58.075 31.6307C55.3355 31.6647 52.596 31.6137 49.8622 31.8913C49.1816 31.9592 48.8441 32.081 48.8781 32.8571C48.9405 34.2706 48.7987 35.6981 48.9292 37.1031C49.3829 42.043 51.9012 45.5326 56.4869 47.5012C57.5022 47.9374 58.4919 47.9119 59.5015 47.4842C62.9614 46.017 65.2982 43.5272 66.4779 39.9526C67.2691 37.5619 66.9685 35.0948 67.0423 32.6532C67.065 31.9451 66.6452 31.9621 66.1433 31.9054C63.4577 31.6108 60.7635 31.6533 58.0722 31.6307H58.075ZM57.9588 25.4246C60.9308 25.4246 63.9057 25.402 66.8778 25.4388C67.6662 25.4501 67.9866 25.2405 67.8845 24.4134C67.6832 22.7791 67.5839 21.1277 67.3571 19.499C67.099 17.6409 65.7689 16.4088 63.9142 16.3861C59.9496 16.338 55.985 16.338 52.0232 16.3861C50.1656 16.4088 48.8299 17.6381 48.5718 19.4905C48.345 21.1221 48.2457 22.7706 48.0444 24.4049C47.9451 25.2207 48.2372 25.453 49.0398 25.4416C52.0118 25.402 54.9867 25.4246 57.9588 25.4246ZM98.4389 40.4709C98.7622 39.5022 98.0163 39.539 97.5087 39.4427C91.4994 38.2786 85.4872 37.1342 79.4778 35.9757C78.8823 35.8624 78.4966 35.9134 78.3803 36.647C78.1166 38.3182 77.8217 39.9866 77.453 41.6379C77.2942 42.3489 77.5494 42.5585 78.1648 42.6746C84.1798 43.8076 90.192 44.9434 96.2013 46.1019C96.967 46.2492 97.4009 46.1897 97.5371 45.2692C97.7753 43.6433 98.1354 42.0345 98.4361 40.4681L98.4389 40.4709ZM57.8482 62.8137C60.5877 62.8137 63.3272 62.7939 66.0667 62.8279C66.7814 62.8364 67.065 62.6608 67.0508 61.8875C67.0054 59.4827 66.9685 57.0722 67.0621 54.6703C67.116 53.322 66.0469 53.5458 65.3691 53.2314C64.558 52.8546 64.4757 53.5769 64.2517 54.0641C63.0124 56.7607 60.9252 58.2704 57.9361 58.2647C55.0122 58.2591 52.9505 56.7748 51.7055 54.1491C51.4617 53.6336 51.4106 52.8348 50.5059 53.237C49.814 53.5458 48.7959 53.3815 48.8611 54.7184C48.9717 57.0722 48.9235 59.4346 48.8753 61.794C48.8583 62.5985 49.1078 62.8421 49.9132 62.8279C52.5592 62.7826 55.2022 62.8109 57.8482 62.8109V62.8137ZM39.8116 56.619C36.7687 58.2845 35.3309 60.6015 35.294 63.7315C35.2458 67.9746 35.2798 72.2177 35.2798 76.4608C35.2798 79.9277 35.2798 79.8853 38.7765 79.8399C39.7266 79.8286 39.84 79.4604 39.8258 78.6729C39.7833 76.5061 39.8116 74.3364 39.8116 72.1667C39.8116 67.0823 39.8116 61.9951 39.8116 56.6219V56.619ZM57.9588 75.2824H53.4326C49.9444 75.2824 49.9756 75.2824 50.0068 78.7183C50.0153 79.5793 50.2337 79.8399 51.1128 79.8286C54.9328 79.7804 58.75 79.8088 62.57 79.8088C66.027 79.8088 65.9986 79.8088 65.9221 76.3021C65.9051 75.509 65.698 75.2484 64.887 75.2654C62.5785 75.3136 60.2672 75.2824 57.9559 75.2824H57.9588ZM86.3209 75.2824C86.3209 74.7188 86.3266 74.1551 86.3209 73.5914C86.2926 71.6427 85.4219 70.7759 83.4595 70.7533C82.5662 70.7419 81.6672 70.8099 80.7795 70.7363C79.8153 70.6541 79.4552 70.9459 79.4977 71.9684C79.5799 73.8435 79.5204 75.7271 79.5204 77.6051C79.5204 79.0742 80.2672 79.8088 81.7608 79.8088C86.0373 79.8088 86.3209 79.5284 86.3209 75.2824ZM76.1173 56.6304C76.1173 64.264 76.1173 71.62 76.1173 78.976C76.1173 79.4066 76.069 79.8541 76.7412 79.8059C77.4473 79.755 77.2346 79.2253 77.2374 78.8571C77.2545 76.3078 77.2658 73.7585 77.2374 71.2121C77.2233 69.9148 77.7961 68.711 78.9844 68.6657C80.8958 68.592 80.6973 67.5185 80.6519 66.2977C80.615 65.3092 80.703 64.3121 80.6264 63.3264C80.4024 60.3891 79.0241 58.1882 76.1144 56.6332L76.1173 56.6304ZM62.4396 48.5067C59.3767 50.6509 56.4529 50.5122 53.4837 48.5521C53.3816 51.1863 53.0554 53.6506 55.4915 55.2453C57.0513 56.2678 58.699 56.3046 60.2899 55.3416C62.8536 53.7894 62.5672 51.2599 62.4424 48.5067H62.4396ZM46.615 53.1917C43.5957 53.9036 42.0861 55.6768 42.0861 58.5112C42.0861 58.7944 42.0861 59.0777 42.0861 59.3609C42.0861 63.0772 42.0861 63.0658 45.7699 62.8279C46.3258 62.7911 46.6349 62.7118 46.6264 62.0518C46.6009 59.1286 46.615 56.2083 46.615 53.1917ZM69.311 57.9531C69.311 59.2759 69.3025 60.5959 69.3167 61.9187C69.3195 62.2246 69.1891 62.7344 69.6003 62.7542C70.919 62.8222 72.3228 63.0432 73.5337 62.6806C74.2796 62.4568 73.7521 61.1595 73.8258 60.3466C73.8939 59.5988 73.84 58.8369 73.84 58.0834C73.84 54.3757 73.8343 54.3984 70.2072 53.3645C69.501 53.1634 69.277 53.237 69.2997 53.9905C69.3365 55.3104 69.311 56.6332 69.311 57.956V57.9531ZM58.0127 27.6991C54.7031 27.6991 51.3964 27.6906 48.0869 27.7076C47.4148 27.7105 46.5725 27.3734 46.5838 28.6934C46.5952 29.9595 47.3155 29.7414 48.0699 29.6989C49.9558 29.5913 51.8417 29.4525 53.7304 29.4015C58.5515 29.274 63.3697 29.3278 68.1795 29.7216C68.9055 29.781 69.3167 29.6904 69.3309 28.7897C69.3422 27.9229 69.1012 27.6652 68.2192 27.6765C64.8161 27.7275 61.4129 27.6963 58.0098 27.6963L58.0127 27.6991ZM58.1119 70.7533C55.7553 70.7533 53.3958 70.8042 51.0391 70.7306C50.0522 70.6994 49.9955 71.1555 50.0097 71.9146C50.0238 72.5972 50.0295 73.0447 50.954 73.0363C55.622 72.9909 60.2927 72.9909 64.9607 73.0363C65.871 73.0447 65.9164 72.6255 65.9192 71.9287C65.9192 71.1895 65.9107 70.6994 64.904 70.7334C62.6437 70.8099 60.3778 70.7589 58.1148 70.7589L58.1119 70.7533ZM82.8753 64.7795C82.8923 64.7795 82.9065 64.7795 82.9235 64.7795C82.9235 65.6746 82.8923 66.5725 82.9405 67.4647C82.9604 67.8131 82.6427 68.3938 83.346 68.4561C83.9614 68.5099 83.9586 67.9944 84.0352 67.5893C84.3471 65.9267 84.6619 64.264 84.9455 62.5956C85.0164 62.1736 85.4758 61.6467 84.9115 61.3238C84.3897 61.0208 83.6864 60.8735 83.1475 61.0887C82.7108 61.2615 82.8838 61.9215 82.8781 62.3804C82.8696 63.182 82.8781 63.9807 82.8781 64.7823L82.8753 64.7795ZM46.6179 37.0549C46.6179 35.616 46.6236 34.347 46.6179 33.0781C46.6179 32.673 46.7285 32.2057 46.0365 32.2227C45.4693 32.2368 45.0071 32.3473 44.8114 32.9449C44.4456 34.061 45.3389 36.2476 46.6207 37.0577L46.6179 37.0549ZM69.311 37.1144C70.59 36.2052 71.4351 34.1884 71.1515 33.0328C70.9871 32.3614 70.4851 32.2142 69.8527 32.2227C69.1295 32.2312 69.3252 32.7495 69.3195 33.1206C69.2997 34.381 69.311 35.6415 69.311 37.1144Z" fill="black"/>
<path d="M45.5033 67.2353C45.4069 68.0284 45.0382 68.4816 44.3066 68.4561C43.6543 68.4362 43.2459 68.0199 43.2402 67.3684C43.2374 66.6461 43.6713 66.2241 44.4001 66.2325C45.0751 66.241 45.3615 66.7169 45.5033 67.2353Z" fill="black"/>
<path d="M71.5032 68.4816C70.8283 68.3456 70.3915 67.9491 70.4738 67.2211C70.5447 66.5838 70.9786 66.1872 71.6365 66.2354C72.3568 66.2892 72.7624 66.7509 72.6886 67.4704C72.6234 68.1162 72.1782 68.4419 71.5032 68.4787V68.4816Z" fill="black"/>
<path d="M53.5606 32.2138C54.7262 32.2534 55.7386 32.7774 56.5298 33.7405C56.9496 34.2532 56.9581 34.7829 56.4873 35.2615C56.0194 35.7374 55.4494 35.7941 54.9786 35.3239C53.9491 34.3013 52.9821 34.2249 51.9271 35.287C51.4082 35.8082 50.8013 35.7487 50.3135 35.1992C49.8626 34.695 49.9476 34.1597 50.3759 33.6725C51.1955 32.7434 52.2079 32.2138 53.5606 32.2109V32.2138Z" fill="black"/>
<path d="M62.2696 32.2109C63.6763 32.2223 64.6632 32.701 65.4714 33.5762C65.945 34.0861 66.1152 34.6412 65.6104 35.2106C65.1197 35.7601 64.5157 35.8026 63.9967 35.2814C62.9389 34.2135 61.9719 34.3155 60.9453 35.3324C60.4745 35.7997 59.9016 35.7317 59.4365 35.253C58.9686 34.7687 58.9885 34.239 59.411 33.732C60.2051 32.7746 61.2232 32.2563 62.2725 32.2138L62.2696 32.2109Z" fill="black"/>
<path d="M57.8228 44.6934C56.6998 44.6594 55.727 44.1439 54.9358 43.263C54.4622 42.7333 54.3828 42.164 54.9188 41.6343C55.3952 41.1641 55.9624 41.1273 56.4304 41.5975C57.4655 42.637 58.4382 42.6625 59.4818 41.6088C59.9469 41.1386 60.5141 41.1584 60.9962 41.623C61.5379 42.147 61.4755 42.7163 61.0047 43.2517C60.1851 44.1835 59.1642 44.6991 57.8228 44.6962V44.6934Z" fill="black"/>
</svg>
