<svg width="112" height="91" viewBox="0 0 112 91" fill="none" xmlns="http://www.w3.org/2000/svg">
<path d="M15.328 13.1061C18.0894 13.1821 20.3314 14.0814 22.054 15.8041C23.7767 17.5014 24.638 19.6801 24.638 22.3401C24.638 25.0507 23.7387 27.2801 21.94 29.0281C20.1414 30.7507 17.8234 31.6121 14.986 31.6121C12.1487 31.6121 9.83071 30.7507 8.03205 29.0281C6.25871 27.3054 5.37205 25.0761 5.37205 22.3401C5.37205 20.3134 5.89138 18.5274 6.93005 16.9821L15.214 4.48008H21.218L15.328 13.1061ZM11.832 25.4941C12.668 26.2794 13.7194 26.6721 14.986 26.6721C16.2527 26.6721 17.304 26.2794 18.14 25.4941C19.0014 24.7087 19.432 23.6574 19.432 22.3401C19.432 21.0481 19.0014 20.0094 18.14 19.2241C17.304 18.4387 16.2527 18.0461 14.986 18.0461C13.7194 18.0461 12.668 18.4387 11.832 19.2241C10.996 19.9841 10.578 21.0227 10.578 22.3401C10.578 23.6574 10.996 24.7087 11.832 25.4941Z" fill="#FF5C4E"/>
<path d="M93.9434 30.7435C93.4656 31.3127 93.6444 31.7291 94.4799 31.9927C94.0909 32.2926 93.8974 32.2467 93.449 32.3365C92.9718 32.4301 92.8798 31.6374 92.3452 32.006C92.418 32.4817 93.0619 32.3575 93.1903 32.7701C93.0657 33.0184 92.6805 32.7204 92.5886 33.0432C93.1424 33.8627 94.3362 33.366 94.9341 34.1835C94.6849 34.26 94.4569 34.3306 94.0238 34.4643C94.6792 34.7852 95.2157 34.9552 95.6335 35.2799C96.1087 35.6486 95.8289 36.2617 95.1985 36.3152C95.3116 37.0659 96.8024 36.6667 96.4076 37.7994C95.6641 37.7019 94.8804 37.5988 93.9319 37.4746C94.5125 37.7363 95.0069 37.8452 95.3269 38.1413C95.5703 38.3667 96.3732 38.6398 95.6143 39.2128C95.4802 39.3141 95.4476 39.4898 95.5377 39.6426C95.6565 39.8432 95.8788 39.7935 96.0551 39.7839C97.5459 39.6999 99.0348 39.5948 100.526 39.5127C102.783 39.3886 105.042 39.2931 107.298 39.1498C107.782 39.1192 107.984 39.4382 108.016 39.7324C108.055 40.0724 107.627 39.9902 107.416 39.9941C106.37 40.0093 105.728 41.1554 105.077 40.9147C105.962 40.5805 107.273 41.2375 108.597 41.0828C109.308 40.9988 109.323 41.6157 109.693 41.929C109.275 42.0168 108.702 41.8545 108.53 41.9576C107.692 42.46 106.717 42.0264 105.939 42.4619C105.74 42.5727 105.642 42.6338 105.416 42.609C105.033 42.567 104.423 42.29 104.655 43.1648C104.732 43.4513 104.429 43.394 104.26 43.4112C103.929 43.4437 103.576 43.3539 103.229 43.585C103.429 43.904 103.686 43.8181 103.919 43.8085C104.441 43.7837 104.931 43.7455 105.13 44.4274C105.238 44.7941 105.611 44.8896 106 44.8438C106.443 44.7922 106.897 44.8056 107.334 44.7234C108.045 44.5897 108.465 44.861 108.668 45.5524C108.39 45.7988 108.024 45.7396 107.696 45.8046C107.445 45.8542 107.185 45.858 107.208 46.2401C107.229 46.5724 107.359 46.8895 107.687 46.8055C108.421 46.6202 108.89 47.3231 109.568 47.2677C109.67 47.2601 109.877 47.3899 109.875 47.4511C109.844 48.3775 110.58 48.047 111.092 48.1884C110.532 48.3106 110.141 48.4099 110.093 49.1511C110.063 49.6419 109.35 49.9609 108.79 50.1481C107.915 50.4404 107.039 50.7383 106.161 51.0249C105.874 51.1184 105.613 51.1929 105.744 51.5979C105.849 51.9245 106.027 52.0506 106.37 51.9684C107.05 51.808 107.79 51.8386 108.396 51.4489C109.068 51.0153 109.754 51.1146 110.5 51.1414C111.113 51.1624 110.923 51.8137 111.349 51.8538C111.287 52.3027 110.877 52.3409 110.578 52.4058C109.584 52.6236 108.576 52.7745 107.574 52.956C107.397 52.9884 107.225 53.0438 106.955 53.1126C107.671 53.9301 108.133 54.7992 109.264 55.0208C109.996 55.164 110.944 56.6119 110.829 57.2995C110.699 58.0731 110.072 58.5506 109.407 58.8677C108.375 59.3605 107.3 59.7674 106.244 60.2124C105.983 60.3232 105.673 60.3671 105.517 60.6345C105.374 60.8809 105.184 61.1942 105.316 61.4387C105.466 61.7157 105.776 61.4941 106.004 61.4272C107.181 61.0834 108.444 61.0662 109.499 60.2563C110.08 59.8113 110.864 60.2697 111.557 60.2602C111.515 60.6746 111.736 60.9745 111.998 61.2534C111.743 61.4368 111.512 61.7061 111.228 61.7844C110.341 62.0289 109.436 62.218 108.532 62.4014C104.345 63.2495 100.303 64.6591 96.149 65.6237C94.66 65.9694 93.1807 66.3763 91.6515 66.5272C91.4637 66.5463 91.2395 66.5654 91.1035 66.6743C90.8793 66.8557 91.0479 67.2511 90.7643 67.4345C90.9234 67.614 91.1226 67.509 91.2989 67.4975C93.7996 67.3428 96.3023 67.1881 98.801 67.0143C99.1134 66.9932 99.4813 66.957 99.7208 66.787C100.811 66.0076 101.798 65.9389 102.67 67.1403C102.352 67.4326 101.788 67.5835 101.994 68.3895C102.141 68.9721 101.273 69.0332 100.848 69.293C100.625 69.4286 100.28 69.3408 100.014 69.4267C99.786 69.4993 99.1613 69.165 99.4296 69.9023C99.443 69.9386 99.0444 70.1449 98.7627 70.143C98.0345 70.1411 97.3485 70.3569 96.6798 70.6606C97.3428 70.6301 97.9885 70.949 98.6535 70.6664C98.9869 70.525 99.2303 70.7046 99.2724 71.0388C99.3203 71.4056 98.9946 71.4552 98.7531 71.4285C97.0247 71.2298 95.5243 72.1409 93.8916 72.4141C92.9201 72.5764 92.1766 73.3348 91.4139 73.8619C90.268 74.6565 89.0186 75.05 87.7654 75.5046C87.3572 75.6536 86.928 75.7415 86.3244 75.9096C86.9931 75.1875 87.9091 75.2506 88.5338 74.5916C87.1713 74.6833 85.9833 74.88 84.96 75.6975C83.9655 76.4902 82.7352 76.7424 81.5261 76.7557C80.614 76.7653 79.8072 76.7023 79.1844 77.5236C79.0618 77.684 78.6191 77.7471 78.3949 77.6649C77.1111 77.1951 76.1913 78.215 74.9265 78.2685C75.304 78.6907 75.647 78.385 75.946 78.6181C75.6183 78.9562 74.9898 78.8053 74.7732 79.3019C74.7483 79.3611 74.4915 79.3974 74.413 79.342C73.1463 78.45 72.2419 79.8291 71.0845 79.9074C69.2257 80.0354 67.3631 80.6179 65.5139 80.979C63.5479 81.361 61.578 81.8652 59.5621 82.0104C59.3398 82.0257 59.1175 82.0238 58.8971 82.0486C58.5216 82.0925 57.7723 80.9656 57.8049 82.3982C57.8068 82.5242 57.3201 82.6255 57.0307 82.528C57.0001 82.2377 57.3296 82.3065 57.3833 82.1193C57.3431 82.0811 57.2971 82.0047 57.2645 82.0104C56.6628 82.0983 56.1569 82.4631 55.5322 81.6991C55.1758 81.2617 54.0989 81.1547 53.3343 81.7411C53.0507 81.9588 52.6751 82.0906 52.1903 81.8939C51.3644 81.5577 50.3794 81.6456 49.6072 81.8901C47.7369 82.4803 47.185 82.593 45.447 82.2434C44.3969 82.0314 43.3142 82.062 42.1626 82.4994C43.0613 82.9349 43.9657 82.5872 45.0024 82.8642C43.0364 83.1316 41.2773 83.1431 39.5239 82.954C39.11 82.9081 38.6999 82.8088 38.2994 82.9177C36.8277 83.315 35.5726 82.19 34.1354 82.3485C33.9725 82.3657 33.8441 82.2205 33.825 82.0448C33.802 81.8309 33.894 81.678 34.1182 81.6246C34.4075 81.5558 34.7812 81.6551 34.9249 81.1566C34.419 81.0152 33.6219 81.1795 33.6947 80.2646C33.6947 80.2589 33.4705 80.234 33.3517 80.2187C32.2901 80.0774 31.2476 79.7603 30.1266 79.8768C30.3815 79.6629 30.8605 79.7145 30.6689 79.1376C30.5942 78.9141 31.056 78.7021 31.3415 78.7709C31.9988 78.9294 32.3859 78.3125 32.4568 78.0489C32.5603 77.6516 32.0505 77.388 31.5523 77.323C30.828 77.2275 31.1729 76.4845 31.2955 76.4062C32.1789 75.837 31.4718 75.5906 31.125 75.2487C30.9717 75.0978 30.8548 74.9106 30.6804 74.689C31.7439 74.2764 32.8017 74.179 33.869 74.0568C33.7694 74.328 33.4705 74.2612 33.1888 74.5973C34.9057 74.4942 36.4541 74.9583 38.0618 74.8456L36.2778 75.1761L36.2931 75.3098C37.8702 75.1092 39.4472 74.9087 41.0243 74.7062C40.4015 75.1627 39.6599 75.1322 38.9528 75.3709C39.0602 75.6269 39.3495 75.4378 39.4779 75.5906C39.3533 75.7319 39.0851 75.6555 39.0237 75.8981C39.0544 75.9325 39.0927 76.007 39.1234 76.0032C40.9342 75.772 42.7125 75.5123 44.2934 74.4331C44.8185 74.0759 45.5792 73.9651 46.2806 73.883C44.9124 73.8218 43.5538 73.7703 42.0514 73.5773C42.4902 73.1113 42.8332 73.3424 43.1398 73.3634C43.3813 73.3806 43.4522 73.3443 43.4656 73.0807C43.4829 72.7541 43.2855 72.9279 43.1705 72.9012C42.6876 72.7923 42.1971 72.8267 41.7601 73.0158C40.6794 73.4857 39.9359 73.5449 38.811 73.2087C38.148 73.01 37.4754 72.9604 36.822 73.4303C38.3837 73.6175 39.9474 73.8046 41.5091 73.9899C38.6903 74.1427 35.9386 73.7588 32.9857 73.0406C33.8767 72.7082 34.5742 72.6834 35.3081 72.7541C34.6739 72.2556 33.892 72.3224 33.0776 72.1639C33.7062 71.7169 34.373 71.7494 35.0092 71.7226C35.2756 71.7112 35.4806 71.6883 35.4442 71.3998C35.4174 71.1878 35.2947 70.9815 34.9843 71.0503C34.3903 71.184 33.6813 71.0828 33.2501 70.8841C32.4204 70.5002 31.7133 71.0694 30.8567 70.8344C31.1652 70.6931 31.3971 70.588 31.6577 70.4696C31.2016 69.9692 30.6229 70.5174 30.1343 70.1392C31.7094 70.0475 33.1581 69.4668 34.672 69.0581C33.7828 69.2338 33.2693 68.2329 32.3801 68.3723C32.2153 68.3972 32.0774 68.2329 32.1732 68.0476C32.3035 67.7974 32.2958 67.4517 32.7653 67.4574C33.4475 67.465 34.1565 67.5185 34.9383 67.148C34.007 66.382 32.7864 66.5482 31.9624 65.8357C31.6194 65.6294 33.0393 65.8606 32.0774 65.3868C31.8532 65.2761 31.6922 64.7852 31.8551 64.6725C32.7059 64.0861 31.8915 63.9371 31.6079 63.8282C30.9755 63.5856 30.7781 62.9037 30.0078 62.6631C30.9429 62.2543 31.8991 61.92 32.4702 62.2276C33.2942 62.6707 33.9649 62.3804 34.7026 62.3555C34.9575 62.3479 35.2947 62.3307 35.3273 62.0327C35.3676 61.6545 34.9651 61.7825 34.7582 61.6908C34.0722 61.3928 33.2482 61.7195 32.4759 61.2114C33.2865 61.0108 33.9764 60.8848 34.7026 61.0605C34.0837 60.7377 33.3574 60.8275 32.748 60.4989C33.3248 60.3289 33.9016 60.1494 34.5129 60.2525C34.7026 60.285 34.8425 60.2583 34.8444 60.0558C34.8444 59.8419 34.7256 59.6871 34.4822 59.7234C33.1639 59.9259 31.88 59.202 30.5539 59.6508C31.7318 58.9734 32.764 58.7353 33.6506 58.9365C33.4475 58.1801 32.9972 57.7159 32.2153 57.7197C31.7037 57.7236 31.5657 57.4619 31.5082 57.0397C32.2211 56.8239 32.9607 56.9729 33.6832 56.8831C33.9572 56.8487 34.2657 56.8564 34.2063 56.419C34.1776 56.1974 34.2945 56.0255 33.9725 55.8249C33.6889 55.6492 32.9435 55.1239 33.9917 54.8107C33.7981 54.484 32.9742 54.8107 33.2252 54.1841C33.5145 53.464 34.1507 54.3771 34.647 53.974C34.3558 53.8422 34.3884 53.3895 33.9074 53.3953C33.7177 53.3953 33.7368 52.4097 33.9629 52.3657C34.762 52.211 35.1529 51.2082 36.1034 51.384C36.3755 51.4336 36.3851 51.1681 36.3602 50.9847C36.2759 50.3678 36.2471 49.7413 36.1896 49.1377C36.1475 48.6926 35.3465 48.3545 34.7544 48.6296C34.3654 48.8111 34.191 48.6009 33.8633 48.4539C34.3864 47.8732 35.0169 48.3545 35.5573 48.2132C35.998 48.0967 36.3314 47.9572 36.2452 47.5561C36.1379 47.0538 37.0347 46.836 36.5288 46.2802C36.479 46.2248 36.6821 46.0758 36.8067 46.1025C37.8242 46.3241 38.7095 45.7167 39.7136 45.6556C38.7497 45.1418 37.692 45.4302 36.7166 45.1991C36.5173 45.1513 36.3276 45.2449 36.2069 45.4015C36.0593 45.5945 35.9846 46.135 35.7815 45.4149C35.7412 45.2736 35.3982 45.1532 35.4998 45.6212C35.5496 45.8504 35.2047 45.7262 35.2104 45.625C35.2219 45.3461 34.8866 45.2525 34.8712 45.0023C35.3503 44.7234 35.793 45.0501 36.2184 44.9527C36.4426 44.9011 36.8258 45.0482 36.8546 44.7521C36.8795 44.4961 36.8929 44.0664 36.3774 44.0568C36.7051 43.6863 37.0462 43.9136 37.303 43.9995C38.1193 44.2727 38.9433 44.2211 39.7634 44.1428C40.2042 44.1008 40.6296 43.8582 40.6679 44.6012C40.6794 44.8323 40.9515 44.8495 41.1949 44.8839C41.9671 44.9928 42.6991 44.6833 43.4618 44.7196C43.5959 44.7254 43.7799 44.6108 43.8699 44.4961C44.4812 43.7168 44.8568 43.6271 45.7479 44.1179C46.1713 44.351 46.5987 44.605 46.6121 43.8085C46.6217 43.2049 47.3977 43.415 47.484 42.8802C47.2559 42.7121 46.34 43.3749 46.7481 42.3492C45.9376 42.2556 46.2997 41.7513 46.3764 41.3292C46.4473 40.9357 46.1503 41.0083 45.8992 40.9472C44.6422 40.6397 43.5844 41.3789 42.4308 41.5909C41.2485 41.8086 40.1026 42.2327 38.9433 42.5765C38.721 42.6434 38.514 42.6987 38.3013 42.567C38.7555 42.2652 37.9353 41.7838 38.4546 41.4935C38.5102 41.4629 38.5811 41.4438 38.6194 41.398C38.8705 41.1019 39.6676 41.3025 39.499 40.7657C39.3323 40.2347 38.7267 40.6435 38.3301 40.6779C37.3969 40.76 36.479 40.6435 35.5611 40.5518C35.061 40.5021 34.8042 39.6311 34.8674 39.1307C34.9766 38.2731 35.8543 37.4231 34.9421 36.512C34.7199 36.2904 34.7697 35.9256 34.9077 35.6047C35.6052 33.9658 36.5154 32.4721 38.1576 31.6431C38.6846 31.3776 38.6884 30.9173 38.9088 30.5525C39.2135 30.0482 38.9471 29.6643 38.3876 29.4924C38.3282 29.4733 38.2093 29.4522 38.286 29.3052C38.9414 28.0674 39.4204 26.7361 40.8231 26.0313C42.9885 24.9425 45.1557 23.8652 47.4131 22.9808C53.6715 20.5302 60.0105 18.2973 66.3398 16.0338C67.5777 15.5907 68.8425 15.7626 70.065 15.4914C70.8622 15.3156 71.8011 15.4608 72.3875 14.6738C73.1138 15.5487 73.6791 14.8056 74.3574 14.4847C74.0087 14.3186 73.75 14.0282 73.3974 14.3377C74.0182 13.9155 74.7445 13.7436 75.4573 13.7589C76.0744 13.7723 76.678 14.0874 77.3027 14.1677C77.9427 14.2498 78.2206 14.7369 78.6287 15.1342C78.3911 15.4073 78.0251 15.2755 77.7626 15.4875C79.3607 15.732 80.773 14.9775 82.3386 14.6032C82.5915 14.7178 81.8212 15.0177 82.3002 15.0788C83.6569 15.2564 85.0232 15.5066 86.309 14.7197C86.698 14.4809 87.1637 14.3644 87.7194 14.1409C86.1519 13.8028 84.7109 14.5592 83.2699 14.1696C85.3356 13.6691 87.3649 13.0006 89.5245 13.0694C89.8273 13.0789 90.1339 13.0846 90.1607 13.4667C90.1875 13.8525 89.8656 13.8468 89.6222 13.8047C88.7791 13.6596 89.2275 14.4981 88.8615 14.7197C89.352 14.3625 90.0112 14.7426 90.4539 14.3205C90.6168 14.1658 90.9981 14.1753 90.565 13.7398C90.1837 13.3559 90.8984 13.2107 91.0901 13.268C91.8776 13.503 92.6921 13.1209 93.5026 13.5354C94.1676 13.8754 94.9053 13.1018 95.6948 13.3349C95.9324 13.4055 96.3118 13.4189 96.2908 13.6252C96.1834 14.7159 97.0343 14.2746 97.5152 14.4179C97.5631 14.8018 97.1205 14.6356 97.0438 14.8629C97.086 14.8973 97.1262 14.9584 97.1703 14.9623C97.3294 14.9699 97.5018 14.9164 97.6455 14.9623C97.9771 15.0692 98.4715 14.9088 98.5922 15.3863C98.7301 15.9364 97.9981 15.6002 97.9138 15.9689C99.2456 16.2611 99.3203 16.3681 99.0214 17.6956C99.6097 17.2735 100.096 16.7578 100.848 16.9545C100.897 17.3652 100.501 17.22 100.332 17.348C100.167 17.4721 100.018 17.5906 100.079 17.8064C100.369 18.813 100.378 18.8302 99.2839 19.1377C99.0233 19.2103 98.8087 19.472 98.4753 19.3689C98.4274 18.962 99.0176 18.7003 98.734 18.2553C98.5903 18.2152 98.4868 18.2686 98.4197 18.3947C98.2223 18.7672 97.3945 18.3508 97.5689 18.7882C97.7433 19.2256 98.0154 20.024 99.0272 19.6592C98.4005 20.3678 97.7279 20.0049 97.0898 20.1329C97.4999 20.7881 98.3373 20.3755 98.7033 20.9619C98.9141 21.3 99.1383 21.6209 99.7228 21.512C100.269 21.4107 100.202 21.9704 100.047 22.2493C99.7285 22.8223 100.236 22.6714 100.621 22.8758C97.2316 24.1231 93.7517 24.2912 90.1492 25.0227C91.3334 25.464 92.372 24.7114 93.4011 25.3264C93.0638 25.5671 92.5253 25.6607 92.8971 26.2204C93.106 26.5336 93.127 26.9328 92.4908 27.2938C93.7709 27.3492 94.7386 27.5823 95.8481 27.842C94.9609 28.4934 94.1388 28.3119 93.3838 27.9853C92.2686 27.5039 92.0539 27.525 91.3967 28.5984C91.2415 28.8544 91.0307 28.862 90.7566 28.8639C90.3715 28.8658 90.2278 29.2612 89.8924 29.4427C90.1703 29.7426 90.5037 29.7235 90.5861 29.5286C90.8467 28.9117 91.4177 29.584 91.709 29.2135C91.7128 29.2097 91.8776 29.2937 91.9141 29.3644C91.9466 29.4293 91.9026 29.607 91.9006 29.607C90.8889 29.5458 91.0728 30.5085 90.7011 30.9918C90.6704 31.0319 90.6129 31.0548 90.5459 31.1007C91.0173 31.3662 91.5097 30.8466 91.939 31.2573C92.1555 30.6919 91.5864 30.499 91.5366 30.0157C92.4525 30.0291 93.3685 29.8648 93.9855 30.7778L93.951 30.7454L93.9434 30.7435ZM65.4315 18.1158C66.3053 18.2495 67.0412 17.8408 67.7751 17.4798C68.8846 16.9354 70.0209 16.8743 71.1688 17.2601C71.9525 17.5218 72.7516 17.7338 73.4702 17.2658C74.0911 16.8628 74.7694 16.5878 75.396 16.2115C75.5167 16.1389 75.7601 16.0243 75.5838 15.7282C74.9725 15.839 74.3363 15.9364 73.6656 15.5926C74.0163 15.4589 74.3018 15.35 74.7943 15.1628C74.0374 15.1533 73.5238 15.3233 72.9854 15.3118C72.0713 15.2927 71.2224 15.7435 70.3122 15.8772C69.8025 15.9517 69.0417 16.3624 68.4305 16.6871C67.4474 17.2104 66.2076 17.2028 65.4296 18.1388C65.3261 17.7109 65.0636 17.814 64.7762 17.9306C64.1706 18.177 63.5594 18.4081 62.9481 18.6449C63.2758 19.0365 63.6437 18.9563 64.0059 18.7939C64.4868 18.5781 64.9582 18.3412 65.4335 18.112L65.4315 18.1158ZM96.3636 69.6425C94.3726 69.5088 93.4375 69.6827 92.7476 70.3397C94.1906 71.2585 95.1717 69.8966 96.3636 69.6425ZM40.2846 47.4969C41.2715 48.5341 42.2641 47.4224 43.1858 47.7433C43.205 47.7509 43.3391 47.5542 43.3468 47.4492C43.3583 47.2658 43.2088 47.1359 43.0459 47.1588C42.1549 47.2868 41.2274 47.1455 40.2846 47.495V47.4969ZM107.242 41.6921C106.464 40.8937 105.805 41.0503 105.186 41.6386C105.816 41.7743 106.472 41.4476 107.242 41.6921Z" fill="#D1E3FF"/>
<path d="M71.0206 80.0801C52.7662 80.083 38 65.3227 38 47.0653C38 28.8905 52.7721 14.0801 70.8998 14.0801C89.3045 14.0801 104.021 28.858 104 47.3187C103.979 65.3316 89.1366 80.0742 71.0206 80.0801ZM40.3628 47.0064C40.3363 63.885 54.0625 77.6937 70.888 77.7173C87.8285 77.7408 101.611 64.0058 101.637 47.0742C101.664 30.2427 87.8845 16.4517 71.0354 16.4429C54.1597 16.437 40.3893 30.1573 40.3658 47.0064H40.3628Z" fill="black"/>
<path d="M98.1079 47.1363C98.1138 62.091 85.9432 74.1968 70.9118 74.188C56.0249 74.1821 43.8985 62.0262 43.8955 47.1039C43.8896 32.102 56.0278 19.9609 71.012 19.9727C85.9962 19.9874 98.105 32.1256 98.1108 47.1363H98.1079ZM95.7451 47.0509C95.7539 33.4661 84.6174 22.3384 71.012 22.3355C57.3978 22.3355 46.276 33.4278 46.2583 47.0273C46.2377 60.6415 57.3359 71.8046 70.9118 71.8222C84.5968 71.8429 95.7392 60.727 95.748 47.0479L95.7451 47.0509Z" fill="black"/>
<path d="M62.7478 47.0564C62.7478 46.1725 62.7389 45.2916 62.7478 44.4078C62.7831 41.3379 64.9544 38.9691 67.8623 38.8307C70.8586 38.6893 73.407 40.8842 73.5896 43.9423C73.7163 46.0429 73.7222 48.1641 73.5867 50.2647C73.3923 53.261 70.8969 55.4205 67.9595 55.3292C65.0399 55.2379 62.7949 52.8839 62.7478 49.8493C62.733 48.9184 62.7478 47.9844 62.7478 47.0534V47.0564ZM65.1135 47.0829C65.1135 48.0139 65.0811 48.9478 65.1194 49.8788C65.1931 51.6053 66.4481 52.8986 68.0626 52.9634C69.6064 53.0253 71.0795 51.8792 71.1856 50.2382C71.3211 48.1376 71.324 46.0164 71.1856 43.9158C71.0795 42.2777 69.6035 41.1346 68.0597 41.1965C66.4452 41.2613 65.196 42.5546 65.1224 44.284C65.0841 45.215 65.1165 46.149 65.1165 47.0799L65.1135 47.0829Z" fill="black"/>
<path d="M54.0921 52.9693C55.683 52.9693 57.2415 52.984 58.803 52.9634C59.6633 52.9516 60.3203 53.2668 60.3055 54.1684C60.2908 55.0728 59.6132 55.3439 58.7647 55.338C56.2162 55.3174 53.6649 55.3233 51.1164 55.338C50.486 55.3409 49.9498 55.2231 49.664 54.5838C49.3605 53.9091 49.7406 53.4554 50.1737 53.037C52.3244 50.96 54.4927 48.8977 56.6375 46.8118C58.3257 45.1678 58.4936 43.5622 57.159 42.2187C55.7655 40.8163 53.9359 40.8694 52.3273 42.3513C52.0032 42.6489 51.7086 43.0024 51.3344 43.2145C50.8218 43.5062 50.2797 43.4414 49.8702 42.967C49.5167 42.5575 49.4636 42.1244 49.7553 41.6206C50.9367 39.5554 53.9831 38.3327 56.2811 39.028C58.8678 39.8088 60.5383 42.0655 60.4086 44.6022C60.335 46.0576 59.5984 47.1801 58.6203 48.1965C57.1296 49.7432 55.6653 51.3165 54.098 52.9722L54.0921 52.9693Z" fill="black"/>
<path d="M80.6074 55.326C79.862 55.2052 79.4201 54.7574 79.5527 53.9266C79.6116 53.5524 79.8149 53.1959 79.9887 52.8453C82.107 48.5911 84.2312 44.3368 86.3583 40.0855C86.7413 39.3195 87.1685 38.4592 88.2262 38.9748C89.2573 39.4756 88.9274 40.3005 88.5208 41.1078C86.3377 45.4416 84.1693 49.7813 82.0068 54.124C81.7152 54.7102 81.4471 55.2877 80.6104 55.3289L80.6074 55.326Z" fill="black"/>
<path d="M82.519 44.302C82.5013 46.1257 81.0312 47.584 79.2311 47.5663C77.4163 47.5516 75.9844 46.0991 75.9785 44.2666C75.9726 42.3811 77.5017 40.8579 79.3401 40.9198C81.1432 40.9817 82.5367 42.4636 82.519 44.299V44.302ZM79.2841 45.1269C79.7702 45.0356 80.1267 44.8176 80.1267 44.2755C80.1267 43.6774 79.7555 43.3356 79.2105 43.3651C78.6713 43.3946 78.3178 43.7628 78.3826 44.3609C78.4386 44.8912 78.8127 45.0857 79.2871 45.1299L79.2841 45.1269Z" fill="black"/>
<path d="M89.1309 46.5852C90.8662 46.5645 92.4483 48.1083 92.4807 49.8525C92.5131 51.5878 90.9958 53.1728 89.2429 53.2347C87.4516 53.2995 85.8106 51.6938 85.8283 49.8908C85.843 48.1142 87.3544 46.6058 89.1309 46.5852ZM89.1898 49.0334C88.6094 49.0452 88.2795 49.3546 88.2736 49.9232C88.2677 50.4181 88.5682 50.7599 89.0543 50.81C89.6229 50.8689 89.9912 50.5124 90.0472 49.985C90.1032 49.4282 89.7526 49.1012 89.1928 49.0364L89.1898 49.0334Z" fill="black"/>
</svg>
