<svg width="107" height="91" viewBox="0 0 107 91" fill="none" xmlns="http://www.w3.org/2000/svg">
<path d="M6.17955 4.48008H23.3555V8.92608L14.3495 31.0801H8.80155L17.5415 9.49608H6.17955V4.48008Z" fill="#FF5C4E"/>
<path d="M88.9434 30.7435C88.4656 31.3127 88.6444 31.7291 89.4799 31.9927C89.0909 32.2926 88.8974 32.2467 88.449 32.3365C87.9718 32.4301 87.8798 31.6374 87.3452 32.006C87.418 32.4817 88.0619 32.3575 88.1903 32.7701C88.0657 33.0184 87.6805 32.7204 87.5886 33.0432C88.1424 33.8627 89.3362 33.366 89.9341 34.1835C89.6849 34.26 89.4569 34.3306 89.0238 34.4643C89.6792 34.7852 90.2157 34.9552 90.6335 35.2799C91.1087 35.6486 90.8289 36.2617 90.1985 36.3152C90.3116 37.0659 91.8024 36.6667 91.4076 37.7994C90.6641 37.7019 89.8804 37.5988 88.9319 37.4746C89.5125 37.7363 90.0069 37.8452 90.3269 38.1413C90.5703 38.3667 91.3732 38.6398 90.6143 39.2128C90.4802 39.3141 90.4476 39.4898 90.5377 39.6426C90.6565 39.8432 90.8788 39.7935 91.0551 39.7839C92.5459 39.6999 94.0348 39.5948 95.5257 39.5127C97.783 39.3886 100.042 39.2931 102.298 39.1498C102.782 39.1192 102.984 39.4382 103.016 39.7324C103.055 40.0724 102.627 39.9902 102.416 39.9941C101.37 40.0093 100.728 41.1554 100.077 40.9147C100.962 40.5805 102.273 41.2375 103.597 41.0828C104.308 40.9988 104.323 41.6157 104.693 41.929C104.275 42.0168 103.702 41.8545 103.53 41.9576C102.692 42.46 101.717 42.0264 100.939 42.4619C100.74 42.5727 100.642 42.6338 100.416 42.609C100.033 42.567 99.4233 42.29 99.6552 43.1648C99.7318 43.4513 99.4291 43.394 99.2604 43.4112C98.9289 43.4437 98.5763 43.3539 98.2295 43.585C98.4288 43.904 98.6856 43.8181 98.9193 43.8085C99.4406 43.7837 99.9311 43.7455 100.13 44.4274C100.238 44.7941 100.611 44.8896 101 44.8438C101.443 44.7922 101.897 44.8056 102.334 44.7234C103.045 44.5897 103.465 44.861 103.668 45.5524C103.39 45.7988 103.024 45.7396 102.696 45.8046C102.445 45.8542 102.185 45.858 102.208 46.2401C102.229 46.5724 102.359 46.8895 102.687 46.8055C103.421 46.6202 103.89 47.3231 104.568 47.2677C104.67 47.2601 104.877 47.3899 104.875 47.4511C104.844 48.3775 105.58 48.047 106.092 48.1884C105.532 48.3106 105.141 48.4099 105.093 49.1511C105.063 49.6419 104.35 49.9609 103.79 50.1481C102.915 50.4404 102.039 50.7383 101.161 51.0249C100.874 51.1184 100.613 51.1929 100.744 51.5979C100.849 51.9245 101.027 52.0506 101.37 51.9684C102.05 51.808 102.79 51.8386 103.396 51.4489C104.068 51.0153 104.754 51.1146 105.5 51.1414C106.113 51.1624 105.923 51.8137 106.349 51.8538C106.287 52.3027 105.877 52.3409 105.578 52.4058C104.584 52.6236 103.576 52.7745 102.574 52.956C102.397 52.9884 102.225 53.0438 101.955 53.1126C102.671 53.9301 103.133 54.7992 104.264 55.0208C104.996 55.164 105.944 56.6119 105.829 57.2995C105.699 58.0731 105.072 58.5506 104.407 58.8677C103.375 59.3605 102.3 59.7674 101.244 60.2124C100.983 60.3232 100.673 60.3671 100.517 60.6345C100.374 60.8809 100.184 61.1942 100.316 61.4387C100.466 61.7157 100.776 61.4941 101.004 61.4272C102.181 61.0834 103.444 61.0662 104.499 60.2563C105.08 59.8113 105.864 60.2697 106.557 60.2602C106.515 60.6746 106.736 60.9745 106.998 61.2534C106.743 61.4368 106.512 61.7061 106.228 61.7844C105.341 62.0289 104.436 62.218 103.532 62.4014C99.3447 63.2495 95.3034 64.6591 91.149 65.6237C89.66 65.9694 88.1807 66.3763 86.6515 66.5272C86.4637 66.5463 86.2395 66.5654 86.1035 66.6743C85.8793 66.8557 86.0479 67.2511 85.7643 67.4345C85.9234 67.614 86.1226 67.509 86.2989 67.4975C88.7996 67.3428 91.3023 67.1881 93.801 67.0143C94.1134 66.9932 94.4813 66.957 94.7208 66.787C95.8112 66.0076 96.798 65.9389 97.6699 67.1403C97.3518 67.4326 96.7885 67.5835 96.9935 68.3895C97.1411 68.9721 96.273 69.0332 95.8476 69.293C95.6253 69.4286 95.2804 69.3408 95.014 69.4267C94.786 69.4993 94.1613 69.165 94.4296 69.9023C94.443 69.9386 94.0444 70.1449 93.7627 70.143C93.0345 70.1411 92.3485 70.3569 91.6798 70.6606C92.3428 70.6301 92.9885 70.949 93.6535 70.6664C93.9869 70.525 94.2303 70.7046 94.2724 71.0388C94.3203 71.4056 93.9946 71.4552 93.7531 71.4285C92.0247 71.2298 90.5243 72.1409 88.8916 72.4141C87.9201 72.5764 87.1766 73.3348 86.4139 73.8619C85.268 74.6565 84.0186 75.05 82.7654 75.5046C82.3572 75.6536 81.928 75.7415 81.3244 75.9096C81.9931 75.1875 82.9091 75.2506 83.5338 74.5916C82.1713 74.6833 80.9833 74.88 79.96 75.6975C78.9655 76.4902 77.7352 76.7424 76.5261 76.7557C75.614 76.7653 74.8072 76.7023 74.1844 77.5236C74.0618 77.684 73.6191 77.7471 73.3949 77.6649C72.1111 77.1951 71.1913 78.215 69.9265 78.2685C70.304 78.6907 70.647 78.385 70.946 78.6181C70.6183 78.9562 69.9898 78.8053 69.7732 79.3019C69.7483 79.3611 69.4915 79.3974 69.413 79.342C68.1463 78.45 67.2419 79.8291 66.0845 79.9074C64.2257 80.0354 62.3631 80.6179 60.5139 80.979C58.5479 81.361 56.578 81.8652 54.5621 82.0104C54.3398 82.0257 54.1175 82.0238 53.8971 82.0486C53.5216 82.0925 52.7723 80.9656 52.8049 82.3982C52.8068 82.5242 52.3201 82.6255 52.0307 82.528C52.0001 82.2377 52.3296 82.3065 52.3833 82.1193C52.3431 82.0811 52.2971 82.0047 52.2645 82.0104C51.6628 82.0983 51.1569 82.4631 50.5322 81.6991C50.1758 81.2617 49.0989 81.1547 48.3343 81.7411C48.0507 81.9588 47.6751 82.0906 47.1903 81.8939C46.3644 81.5577 45.3794 81.6456 44.6072 81.8901C42.7369 82.4803 42.185 82.593 40.447 82.2434C39.3969 82.0314 38.3142 82.062 37.1626 82.4994C38.0613 82.9349 38.9657 82.5872 40.0024 82.8642C38.0364 83.1316 36.2773 83.1431 34.5239 82.954C34.11 82.9081 33.6999 82.8088 33.2994 82.9177C31.8277 83.315 30.5726 82.19 29.1354 82.3485C28.9725 82.3657 28.8441 82.2205 28.825 82.0448C28.802 81.8309 28.894 81.678 29.1182 81.6246C29.4075 81.5558 29.7812 81.6551 29.9249 81.1566C29.419 81.0152 28.6219 81.1795 28.6947 80.2646C28.6947 80.2589 28.4705 80.234 28.3517 80.2187C27.2901 80.0774 26.2476 79.7603 25.1266 79.8768C25.3815 79.6629 25.8605 79.7145 25.6689 79.1376C25.5942 78.9141 26.056 78.7021 26.3415 78.7709C26.9988 78.9294 27.3859 78.3125 27.4568 78.0489C27.5603 77.6516 27.0505 77.388 26.5523 77.323C25.828 77.2275 26.1729 76.4845 26.2955 76.4062C27.1789 75.837 26.4718 75.5906 26.125 75.2487C25.9717 75.0978 25.8548 74.9106 25.6804 74.689C26.7439 74.2764 27.8017 74.179 28.869 74.0568C28.7694 74.328 28.4705 74.2612 28.1888 74.5973C29.9057 74.4942 31.4541 74.9583 33.0618 74.8456L31.2778 75.1761L31.2931 75.3098C32.8702 75.1092 34.4472 74.9087 36.0243 74.7062C35.4015 75.1627 34.6599 75.1322 33.9528 75.3709C34.0602 75.6269 34.3495 75.4378 34.4779 75.5906C34.3533 75.7319 34.0851 75.6555 34.0237 75.8981C34.0544 75.9325 34.0927 76.007 34.1234 76.0032C35.9342 75.772 37.7125 75.5123 39.2934 74.4331C39.8185 74.0759 40.5792 73.9651 41.2806 73.883C39.9124 73.8218 38.5538 73.7703 37.0514 73.5773C37.4902 73.1113 37.8332 73.3424 38.1398 73.3634C38.3813 73.3806 38.4522 73.3443 38.4656 73.0807C38.4829 72.7541 38.2855 72.9279 38.1705 72.9012C37.6876 72.7923 37.1971 72.8267 36.7601 73.0158C35.6794 73.4857 34.9359 73.5449 33.811 73.2087C33.148 73.01 32.4754 72.9604 31.822 73.4303C33.3837 73.6175 34.9474 73.8046 36.5091 73.9899C33.6903 74.1427 30.9386 73.7588 27.9857 73.0406C28.8767 72.7082 29.5742 72.6834 30.3081 72.7541C29.6739 72.2556 28.892 72.3224 28.0776 72.1639C28.7062 71.7169 29.373 71.7494 30.0092 71.7226C30.2756 71.7112 30.4806 71.6883 30.4442 71.3998C30.4174 71.1878 30.2947 70.9815 29.9843 71.0503C29.3903 71.184 28.6813 71.0828 28.2501 70.8841C27.4204 70.5002 26.7133 71.0694 25.8567 70.8344C26.1652 70.6931 26.3971 70.588 26.6577 70.4696C26.2016 69.9692 25.6229 70.5174 25.1343 70.1392C26.7094 70.0475 28.1581 69.4668 29.672 69.0581C28.7828 69.2338 28.2693 68.2329 27.3801 68.3723C27.2153 68.3972 27.0774 68.2329 27.1732 68.0476C27.3035 67.7974 27.2958 67.4517 27.7653 67.4574C28.4475 67.465 29.1565 67.5185 29.9383 67.148C29.007 66.382 27.7864 66.5482 26.9624 65.8357C26.6194 65.6294 28.0393 65.8606 27.0774 65.3868C26.8532 65.2761 26.6922 64.7852 26.8551 64.6725C27.7059 64.0861 26.8915 63.9371 26.6079 63.8282C25.9755 63.5856 25.7781 62.9037 25.0078 62.6631C25.9429 62.2543 26.8991 61.92 27.4702 62.2276C28.2942 62.6707 28.9649 62.3804 29.7026 62.3555C29.9575 62.3479 30.2947 62.3307 30.3273 62.0327C30.3676 61.6545 29.9651 61.7825 29.7582 61.6908C29.0722 61.3928 28.2482 61.7195 27.4759 61.2114C28.2865 61.0108 28.9764 60.8848 29.7026 61.0605C29.0837 60.7377 28.3574 60.8275 27.748 60.4989C28.3248 60.3289 28.9016 60.1494 29.5129 60.2525C29.7026 60.285 29.8425 60.2583 29.8444 60.0558C29.8444 59.8419 29.7256 59.6871 29.4822 59.7234C28.1639 59.9259 26.88 59.202 25.5539 59.6508C26.7318 58.9734 27.764 58.7353 28.6506 58.9365C28.4475 58.1801 27.9972 57.7159 27.2153 57.7197C26.7037 57.7236 26.5657 57.4619 26.5082 57.0397C27.2211 56.8239 27.9607 56.9729 28.6832 56.8831C28.9572 56.8487 29.2657 56.8564 29.2063 56.419C29.1776 56.1974 29.2945 56.0255 28.9725 55.8249C28.6889 55.6492 27.9435 55.1239 28.9917 54.8107C28.7981 54.484 27.9742 54.8107 28.2252 54.1841C28.5145 53.464 29.1507 54.3771 29.647 53.974C29.3558 53.8422 29.3884 53.3895 28.9074 53.3953C28.7177 53.3953 28.7368 52.4097 28.9629 52.3657C29.762 52.211 30.1529 51.2082 31.1034 51.384C31.3755 51.4336 31.3851 51.1681 31.3602 50.9847C31.2759 50.3678 31.2471 49.7413 31.1896 49.1377C31.1475 48.6926 30.3465 48.3545 29.7544 48.6296C29.3654 48.8111 29.191 48.6009 28.8633 48.4539C29.3864 47.8732 30.0169 48.3545 30.5573 48.2132C30.998 48.0967 31.3314 47.9572 31.2452 47.5561C31.1379 47.0538 32.0347 46.836 31.5288 46.2802C31.479 46.2248 31.6821 46.0758 31.8067 46.1025C32.8242 46.3241 33.7095 45.7167 34.7136 45.6556C33.7497 45.1418 32.692 45.4302 31.7166 45.1991C31.5173 45.1513 31.3276 45.2449 31.2069 45.4015C31.0593 45.5945 30.9846 46.135 30.7815 45.4149C30.7412 45.2736 30.3982 45.1532 30.4998 45.6212C30.5496 45.8504 30.2047 45.7262 30.2104 45.625C30.2219 45.3461 29.8866 45.2525 29.8712 45.0023C30.3503 44.7234 30.793 45.0501 31.2184 44.9527C31.4426 44.9011 31.8258 45.0482 31.8546 44.7521C31.8795 44.4961 31.8929 44.0664 31.3774 44.0568C31.7051 43.6863 32.0462 43.9136 32.303 43.9995C33.1193 44.2727 33.9433 44.2211 34.7634 44.1428C35.2042 44.1008 35.6296 43.8582 35.6679 44.6012C35.6794 44.8323 35.9515 44.8495 36.1949 44.8839C36.9671 44.9928 37.6991 44.6833 38.4618 44.7196C38.5959 44.7254 38.7799 44.6108 38.8699 44.4961C39.4812 43.7168 39.8568 43.6271 40.7479 44.1179C41.1713 44.351 41.5987 44.605 41.6121 43.8085C41.6217 43.2049 42.3977 43.415 42.484 42.8802C42.2559 42.7121 41.34 43.3749 41.7481 42.3492C40.9376 42.2556 41.2997 41.7513 41.3764 41.3292C41.4473 40.9357 41.1503 41.0083 40.8992 40.9472C39.6422 40.6397 38.5844 41.3789 37.4308 41.5909C36.2485 41.8086 35.1026 42.2327 33.9433 42.5765C33.721 42.6434 33.514 42.6987 33.3013 42.567C33.7555 42.2652 32.9353 41.7838 33.4546 41.4935C33.5102 41.4629 33.5811 41.4438 33.6194 41.398C33.8705 41.1019 34.6676 41.3025 34.499 40.7657C34.3323 40.2347 33.7267 40.6435 33.3301 40.6779C32.3969 40.76 31.479 40.6435 30.5611 40.5518C30.061 40.5021 29.8042 39.6311 29.8674 39.1307C29.9766 38.2731 30.8543 37.4231 29.9421 36.512C29.7199 36.2904 29.7697 35.9256 29.9077 35.6047C30.6052 33.9658 31.5154 32.4721 33.1576 31.6431C33.6846 31.3776 33.6884 30.9173 33.9088 30.5525C34.2135 30.0482 33.9471 29.6643 33.3876 29.4924C33.3282 29.4733 33.2093 29.4522 33.286 29.3052C33.9414 28.0674 34.4204 26.7361 35.8231 26.0313C37.9885 24.9425 40.1557 23.8652 42.4131 22.9808C48.6715 20.5302 55.0105 18.2973 61.3398 16.0338C62.5777 15.5907 63.8425 15.7626 65.065 15.4914C65.8622 15.3156 66.8011 15.4608 67.3875 14.6738C68.1138 15.5487 68.6791 14.8056 69.3574 14.4847C69.0087 14.3186 68.75 14.0282 68.3974 14.3377C69.0182 13.9155 69.7445 13.7436 70.4573 13.7589C71.0744 13.7723 71.678 14.0874 72.3027 14.1677C72.9427 14.2498 73.2206 14.7369 73.6287 15.1342C73.3911 15.4073 73.0251 15.2755 72.7626 15.4875C74.3607 15.732 75.773 14.9775 77.3386 14.6032C77.5915 14.7178 76.8212 15.0177 77.3002 15.0788C78.6569 15.2564 80.0232 15.5066 81.309 14.7197C81.698 14.4809 82.1637 14.3644 82.7194 14.1409C81.1519 13.8028 79.7109 14.5592 78.2699 14.1696C80.3356 13.6691 82.3649 13.0006 84.5245 13.0694C84.8273 13.0789 85.1339 13.0846 85.1607 13.4667C85.1875 13.8525 84.8656 13.8468 84.6222 13.8047C83.7791 13.6596 84.2275 14.4981 83.8615 14.7197C84.352 14.3625 85.0112 14.7426 85.4539 14.3205C85.6168 14.1658 85.9981 14.1753 85.565 13.7398C85.1837 13.3559 85.8984 13.2107 86.0901 13.268C86.8776 13.503 87.6921 13.1209 88.5026 13.5354C89.1676 13.8754 89.9053 13.1018 90.6948 13.3349C90.9324 13.4055 91.3118 13.4189 91.2908 13.6252C91.1834 14.7159 92.0343 14.2746 92.5152 14.4179C92.5631 14.8018 92.1205 14.6356 92.0438 14.8629C92.086 14.8973 92.1262 14.9584 92.1703 14.9623C92.3294 14.9699 92.5018 14.9164 92.6455 14.9623C92.9771 15.0692 93.4715 14.9088 93.5922 15.3863C93.7301 15.9364 92.9981 15.6002 92.9138 15.9689C94.2456 16.2611 94.3203 16.3681 94.0214 17.6956C94.6097 17.2735 95.0964 16.7578 95.8476 16.9545C95.8974 17.3652 95.5007 17.22 95.3321 17.348C95.1673 17.4721 95.0179 17.5906 95.0792 17.8064C95.3685 18.813 95.3781 18.8302 94.2839 19.1377C94.0233 19.2103 93.8087 19.472 93.4753 19.3689C93.4274 18.962 94.0176 18.7003 93.734 18.2553C93.5903 18.2152 93.4868 18.2686 93.4197 18.3947C93.2223 18.7672 92.3945 18.3508 92.5689 18.7882C92.7433 19.2256 93.0154 20.024 94.0272 19.6592C93.4005 20.3678 92.7279 20.0049 92.0898 20.1329C92.4999 20.7881 93.3373 20.3755 93.7033 20.9619C93.9141 21.3 94.1383 21.6209 94.7228 21.512C95.2689 21.4107 95.2018 21.9704 95.0466 22.2493C94.7285 22.8223 95.2363 22.6714 95.6215 22.8758C92.2316 24.1231 88.7517 24.2912 85.1492 25.0227C86.3334 25.464 87.372 24.7114 88.4011 25.3264C88.0638 25.5671 87.5253 25.6607 87.8971 26.2204C88.106 26.5336 88.127 26.9328 87.4908 27.2938C88.7709 27.3492 89.7386 27.5823 90.8481 27.842C89.9609 28.4934 89.1388 28.3119 88.3838 27.9853C87.2686 27.5039 87.0539 27.525 86.3967 28.5984C86.2415 28.8544 86.0307 28.862 85.7566 28.8639C85.3715 28.8658 85.2278 29.2612 84.8924 29.4427C85.1703 29.7426 85.5037 29.7235 85.5861 29.5286C85.8467 28.9117 86.4177 29.584 86.709 29.2135C86.7128 29.2097 86.8776 29.2937 86.9141 29.3644C86.9466 29.4293 86.9026 29.607 86.9006 29.607C85.8889 29.5458 86.0728 30.5085 85.7011 30.9918C85.6704 31.0319 85.6129 31.0548 85.5459 31.1007C86.0173 31.3662 86.5097 30.8466 86.939 31.2573C87.1555 30.6919 86.5864 30.499 86.5366 30.0157C87.4525 30.0291 88.3685 29.8648 88.9855 30.7778L88.951 30.7454L88.9434 30.7435ZM60.4315 18.1158C61.3053 18.2495 62.0412 17.8408 62.7751 17.4798C63.8846 16.9354 65.0209 16.8743 66.1688 17.2601C66.9525 17.5218 67.7516 17.7338 68.4702 17.2658C69.0911 16.8628 69.7694 16.5878 70.396 16.2115C70.5167 16.1389 70.7601 16.0243 70.5838 15.7282C69.9725 15.839 69.3363 15.9364 68.6656 15.5926C69.0163 15.4589 69.3018 15.35 69.7943 15.1628C69.0374 15.1533 68.5238 15.3233 67.9854 15.3118C67.0713 15.2927 66.2224 15.7435 65.3122 15.8772C64.8025 15.9517 64.0417 16.3624 63.4305 16.6871C62.4474 17.2104 61.2076 17.2028 60.4296 18.1388C60.3261 17.7109 60.0636 17.814 59.7762 17.9306C59.1706 18.177 58.5594 18.4081 57.9481 18.6449C58.2758 19.0365 58.6437 18.9563 59.0059 18.7939C59.4868 18.5781 59.9582 18.3412 60.4335 18.112L60.4315 18.1158ZM91.3636 69.6425C89.3726 69.5088 88.4375 69.6827 87.7476 70.3397C89.1906 71.2585 90.1717 69.8966 91.3636 69.6425ZM35.2846 47.4969C36.2715 48.5341 37.2641 47.4224 38.1858 47.7433C38.205 47.7509 38.3391 47.5542 38.3468 47.4492C38.3583 47.2658 38.2088 47.1359 38.0459 47.1588C37.1549 47.2868 36.2274 47.1455 35.2846 47.495V47.4969ZM102.242 41.6921C101.464 40.8937 100.805 41.0503 100.186 41.6386C100.816 41.7743 101.472 41.4476 102.242 41.6921Z" fill="#D1E3FF"/>
<path d="M66.0206 80.0801C47.7662 80.083 33 65.3227 33 47.0653C33 28.8905 47.7721 14.0801 65.8998 14.0801C84.3045 14.0801 99.0206 28.858 99 47.3187C98.9794 65.3316 84.1366 80.0742 66.0206 80.0801ZM35.3628 47.0064C35.3363 63.885 49.0625 77.6937 65.888 77.7173C82.8285 77.7408 96.6107 64.0058 96.6372 47.0742C96.6637 30.2427 82.8845 16.4517 66.0354 16.4429C49.1597 16.437 35.3893 30.1573 35.3658 47.0064H35.3628Z" fill="black"/>
<path d="M93.1079 47.1363C93.1138 62.091 80.9432 74.1968 65.9118 74.188C51.0249 74.1821 38.8985 62.0262 38.8955 47.1039C38.8896 32.102 51.0278 19.9609 66.012 19.9727C80.9962 19.9874 93.105 32.1256 93.1108 47.1363H93.1079ZM90.7451 47.0509C90.7539 33.4661 79.6174 22.3384 66.012 22.3355C52.3978 22.3355 41.276 33.4278 41.2583 47.0273C41.2377 60.6415 52.3359 71.8046 65.9118 71.8222C79.5968 71.8429 90.7392 60.727 90.748 47.0479L90.7451 47.0509Z" fill="black"/>
<path d="M57.7478 47.0564C57.7478 46.1725 57.7389 45.2916 57.7478 44.4078C57.7831 41.3379 59.9544 38.9691 62.8623 38.8307C65.8586 38.6893 68.407 40.8842 68.5896 43.9423C68.7163 46.0429 68.7222 48.1641 68.5867 50.2647C68.3923 53.261 65.8969 55.4205 62.9595 55.3292C60.0399 55.2379 57.7949 52.8839 57.7478 49.8493C57.733 48.9184 57.7478 47.9844 57.7478 47.0534V47.0564ZM60.1135 47.0829C60.1135 48.0139 60.0811 48.9478 60.1194 49.8788C60.1931 51.6053 61.4481 52.8986 63.0626 52.9634C64.6064 53.0253 66.0795 51.8792 66.1856 50.2382C66.3211 48.1376 66.324 46.0164 66.1856 43.9158C66.0795 42.2777 64.6035 41.1346 63.0597 41.1965C61.4452 41.2613 60.196 42.5546 60.1224 44.284C60.0841 45.215 60.1165 46.149 60.1165 47.0799L60.1135 47.0829Z" fill="black"/>
<path d="M49.0921 52.9693C50.683 52.9693 52.2415 52.984 53.803 52.9634C54.6633 52.9516 55.3203 53.2668 55.3055 54.1684C55.2908 55.0728 54.6132 55.3439 53.7647 55.338C51.2162 55.3174 48.6649 55.3233 46.1164 55.338C45.486 55.3409 44.9498 55.2231 44.664 54.5838C44.3605 53.9091 44.7406 53.4554 45.1737 53.037C47.3244 50.96 49.4927 48.8977 51.6375 46.8118C53.3257 45.1678 53.4936 43.5622 52.159 42.2187C50.7655 40.8163 48.9359 40.8694 47.3273 42.3513C47.0032 42.6489 46.7086 43.0024 46.3344 43.2145C45.8218 43.5062 45.2797 43.4414 44.8702 42.967C44.5167 42.5575 44.4636 42.1244 44.7553 41.6206C45.9367 39.5554 48.9831 38.3327 51.2811 39.028C53.8678 39.8088 55.5383 42.0655 55.4086 44.6022C55.335 46.0576 54.5984 47.1801 53.6203 48.1965C52.1296 49.7432 50.6653 51.3165 49.098 52.9722L49.0921 52.9693Z" fill="black"/>
<path d="M75.6074 55.326C74.862 55.2052 74.4201 54.7574 74.5527 53.9266C74.6116 53.5524 74.8149 53.1959 74.9887 52.8453C77.107 48.5911 79.2312 44.3368 81.3583 40.0855C81.7413 39.3195 82.1685 38.4592 83.2262 38.9748C84.2573 39.4756 83.9274 40.3005 83.5208 41.1078C81.3377 45.4416 79.1693 49.7813 77.0068 54.124C76.7152 54.7102 76.4471 55.2877 75.6104 55.3289L75.6074 55.326Z" fill="black"/>
<path d="M77.519 44.302C77.5013 46.1257 76.0312 47.584 74.2311 47.5663C72.4163 47.5516 70.9844 46.0991 70.9785 44.2666C70.9726 42.3811 72.5017 40.8579 74.3401 40.9198C76.1432 40.9817 77.5367 42.4636 77.519 44.299V44.302ZM74.2841 45.1269C74.7702 45.0356 75.1267 44.8176 75.1267 44.2755C75.1267 43.6774 74.7555 43.3356 74.2105 43.3651C73.6713 43.3946 73.3178 43.7628 73.3826 44.3609C73.4386 44.8912 73.8127 45.0857 74.2871 45.1299L74.2841 45.1269Z" fill="black"/>
<path d="M84.1309 46.5852C85.8662 46.5645 87.4483 48.1083 87.4807 49.8525C87.5131 51.5878 85.9958 53.1728 84.2429 53.2347C82.4516 53.2995 80.8106 51.6938 80.8283 49.8908C80.843 48.1142 82.3544 46.6058 84.1309 46.5852ZM84.1898 49.0334C83.6094 49.0452 83.2795 49.3546 83.2736 49.9232C83.2677 50.4181 83.5682 50.7599 84.0543 50.81C84.6229 50.8689 84.9912 50.5124 85.0472 49.985C85.1032 49.4282 84.7526 49.1012 84.1928 49.0364L84.1898 49.0334Z" fill="black"/>
</svg>
