<svg width="107" height="92" viewBox="0 0 107 92" fill="none" xmlns="http://www.w3.org/2000/svg">
<path d="M24.638 13.1821C24.638 15.2341 24.106 17.0327 23.042 18.5781H23.08L14.796 31.0801H8.79205L14.72 22.4161C11.9587 22.3654 9.70405 21.4914 7.95605 19.7941C6.23338 18.0714 5.37205 15.8674 5.37205 13.1821C5.37205 10.4714 6.25871 8.25474 8.03205 6.53208C9.83071 4.80941 12.1487 3.94808 14.986 3.94808C17.8487 3.94808 20.1667 4.80941 21.94 6.53208C23.7387 8.22941 24.638 10.4461 24.638 13.1821ZM10.578 13.1821C10.578 14.4994 10.996 15.5507 11.832 16.3361C12.6934 17.1214 13.7447 17.5141 14.986 17.5141C16.278 17.5141 17.342 17.1214 18.178 16.3361C19.014 15.5507 19.432 14.4994 19.432 13.1821C19.432 11.8647 19.014 10.8261 18.178 10.0661C17.342 9.28074 16.278 8.88808 14.986 8.88808C13.7447 8.88808 12.6934 9.28074 11.832 10.0661C10.996 10.8514 10.578 11.8901 10.578 13.1821Z" fill="#FF5C4E"/>
<path d="M88.9434 31.7435C88.4656 32.3127 88.6444 32.7291 89.4799 32.9927C89.0909 33.2926 88.8974 33.2467 88.449 33.3365C87.9718 33.4301 87.8798 32.6374 87.3452 33.006C87.418 33.4817 88.0619 33.3575 88.1903 33.7701C88.0657 34.0184 87.6805 33.7204 87.5886 34.0432C88.1424 34.8627 89.3362 34.366 89.9341 35.1835C89.6849 35.26 89.4569 35.3306 89.0238 35.4643C89.6792 35.7852 90.2157 35.9552 90.6335 36.2799C91.1087 36.6486 90.8289 37.2617 90.1985 37.3152C90.3116 38.0659 91.8024 37.6667 91.4076 38.7994C90.6641 38.7019 89.8804 38.5988 88.9319 38.4746C89.5125 38.7363 90.0069 38.8452 90.3269 39.1413C90.5703 39.3667 91.3732 39.6398 90.6143 40.2128C90.4802 40.3141 90.4476 40.4898 90.5377 40.6426C90.6565 40.8432 90.8788 40.7935 91.0551 40.7839C92.5459 40.6999 94.0348 40.5948 95.5257 40.5127C97.783 40.3886 100.042 40.2931 102.298 40.1498C102.782 40.1192 102.984 40.4382 103.016 40.7324C103.055 41.0724 102.627 40.9902 102.416 40.9941C101.37 41.0093 100.728 42.1554 100.077 41.9147C100.962 41.5805 102.273 42.2375 103.597 42.0828C104.308 41.9988 104.323 42.6157 104.693 42.929C104.275 43.0168 103.702 42.8545 103.53 42.9576C102.692 43.46 101.717 43.0264 100.939 43.4619C100.74 43.5727 100.642 43.6338 100.416 43.609C100.033 43.567 99.4233 43.29 99.6552 44.1648C99.7318 44.4513 99.4291 44.394 99.2604 44.4112C98.9289 44.4437 98.5763 44.3539 98.2295 44.585C98.4288 44.904 98.6856 44.8181 98.9193 44.8085C99.4406 44.7837 99.9311 44.7455 100.13 45.4274C100.238 45.7941 100.611 45.8896 101 45.8438C101.443 45.7922 101.897 45.8056 102.334 45.7234C103.045 45.5897 103.465 45.861 103.668 46.5524C103.39 46.7988 103.024 46.7396 102.696 46.8046C102.445 46.8542 102.185 46.858 102.208 47.2401C102.229 47.5724 102.359 47.8895 102.687 47.8055C103.421 47.6202 103.89 48.3231 104.568 48.2677C104.67 48.2601 104.877 48.3899 104.875 48.4511C104.844 49.3775 105.58 49.047 106.092 49.1884C105.532 49.3106 105.141 49.4099 105.093 50.1511C105.063 50.6419 104.35 50.9609 103.79 51.1481C102.915 51.4404 102.039 51.7383 101.161 52.0249C100.874 52.1184 100.613 52.1929 100.744 52.5979C100.849 52.9245 101.027 53.0506 101.37 52.9684C102.05 52.808 102.79 52.8386 103.396 52.4489C104.068 52.0153 104.754 52.1146 105.5 52.1414C106.113 52.1624 105.923 52.8137 106.349 52.8538C106.287 53.3027 105.877 53.3409 105.578 53.4058C104.584 53.6236 103.576 53.7745 102.574 53.956C102.397 53.9884 102.225 54.0438 101.955 54.1126C102.671 54.9301 103.133 55.7992 104.264 56.0208C104.996 56.164 105.944 57.6119 105.829 58.2995C105.699 59.0731 105.072 59.5506 104.407 59.8677C103.375 60.3605 102.3 60.7674 101.244 61.2124C100.983 61.3232 100.673 61.3671 100.517 61.6345C100.374 61.8809 100.184 62.1942 100.316 62.4387C100.466 62.7157 100.776 62.4941 101.004 62.4272C102.181 62.0834 103.444 62.0662 104.499 61.2563C105.08 60.8113 105.864 61.2697 106.557 61.2602C106.515 61.6746 106.736 61.9745 106.998 62.2534C106.743 62.4368 106.512 62.7061 106.228 62.7844C105.341 63.0289 104.436 63.218 103.532 63.4014C99.3447 64.2495 95.3034 65.6591 91.149 66.6237C89.66 66.9694 88.1807 67.3763 86.6515 67.5272C86.4637 67.5463 86.2395 67.5654 86.1035 67.6743C85.8793 67.8557 86.0479 68.2511 85.7643 68.4345C85.9234 68.614 86.1226 68.509 86.2989 68.4975C88.7996 68.3428 91.3023 68.1881 93.801 68.0143C94.1134 67.9932 94.4813 67.957 94.7208 67.787C95.8112 67.0076 96.798 66.9389 97.6699 68.1403C97.3518 68.4326 96.7885 68.5835 96.9935 69.3895C97.1411 69.9721 96.273 70.0332 95.8476 70.293C95.6253 70.4286 95.2804 70.3408 95.014 70.4267C94.786 70.4993 94.1613 70.165 94.4296 70.9023C94.443 70.9386 94.0444 71.1449 93.7627 71.143C93.0345 71.1411 92.3485 71.3569 91.6798 71.6606C92.3428 71.6301 92.9885 71.949 93.6535 71.6664C93.9869 71.525 94.2303 71.7046 94.2724 72.0388C94.3203 72.4056 93.9946 72.4552 93.7531 72.4285C92.0247 72.2298 90.5243 73.1409 88.8916 73.4141C87.9201 73.5764 87.1766 74.3348 86.4139 74.8619C85.268 75.6565 84.0186 76.05 82.7654 76.5046C82.3572 76.6536 81.928 76.7415 81.3244 76.9096C81.9931 76.1875 82.9091 76.2506 83.5338 75.5916C82.1713 75.6833 80.9833 75.88 79.96 76.6975C78.9655 77.4902 77.7352 77.7424 76.5261 77.7557C75.614 77.7653 74.8072 77.7023 74.1844 78.5236C74.0618 78.684 73.6191 78.7471 73.3949 78.6649C72.1111 78.1951 71.1913 79.215 69.9265 79.2685C70.304 79.6907 70.647 79.385 70.946 79.6181C70.6183 79.9562 69.9898 79.8053 69.7732 80.3019C69.7483 80.3611 69.4915 80.3974 69.413 80.342C68.1463 79.45 67.2419 80.8291 66.0845 80.9074C64.2257 81.0354 62.3631 81.6179 60.5139 81.979C58.5479 82.361 56.578 82.8652 54.5621 83.0104C54.3398 83.0257 54.1175 83.0238 53.8971 83.0486C53.5216 83.0925 52.7723 81.9656 52.8049 83.3982C52.8068 83.5242 52.3201 83.6255 52.0307 83.528C52.0001 83.2377 52.3296 83.3065 52.3833 83.1193C52.3431 83.0811 52.2971 83.0047 52.2645 83.0104C51.6628 83.0983 51.1569 83.4631 50.5322 82.6991C50.1758 82.2617 49.0989 82.1547 48.3343 82.7411C48.0507 82.9588 47.6751 83.0906 47.1903 82.8939C46.3644 82.5577 45.3794 82.6456 44.6072 82.8901C42.7369 83.4803 42.185 83.593 40.447 83.2434C39.3969 83.0314 38.3142 83.062 37.1626 83.4994C38.0613 83.9349 38.9657 83.5872 40.0024 83.8642C38.0364 84.1316 36.2773 84.1431 34.5239 83.954C34.11 83.9081 33.6999 83.8088 33.2994 83.9177C31.8277 84.315 30.5726 83.19 29.1354 83.3485C28.9725 83.3657 28.8441 83.2205 28.825 83.0448C28.802 82.8309 28.894 82.678 29.1182 82.6246C29.4075 82.5558 29.7812 82.6551 29.9249 82.1566C29.419 82.0152 28.6219 82.1795 28.6947 81.2646C28.6947 81.2589 28.4705 81.234 28.3517 81.2187C27.2901 81.0774 26.2476 80.7603 25.1266 80.8768C25.3815 80.6629 25.8605 80.7145 25.6689 80.1376C25.5942 79.9141 26.056 79.7021 26.3415 79.7709C26.9988 79.9294 27.3859 79.3125 27.4568 79.0489C27.5603 78.6516 27.0505 78.388 26.5523 78.323C25.828 78.2275 26.1729 77.4845 26.2955 77.4062C27.1789 76.837 26.4718 76.5906 26.125 76.2487C25.9717 76.0978 25.8548 75.9106 25.6804 75.689C26.7439 75.2764 27.8017 75.179 28.869 75.0568C28.7694 75.328 28.4705 75.2612 28.1888 75.5973C29.9057 75.4942 31.4541 75.9583 33.0618 75.8456L31.2778 76.1761L31.2931 76.3098C32.8702 76.1092 34.4472 75.9087 36.0243 75.7062C35.4015 76.1627 34.6599 76.1322 33.9528 76.3709C34.0602 76.6269 34.3495 76.4378 34.4779 76.5906C34.3533 76.7319 34.0851 76.6555 34.0237 76.8981C34.0544 76.9325 34.0927 77.007 34.1234 77.0032C35.9342 76.772 37.7125 76.5123 39.2934 75.4331C39.8185 75.0759 40.5792 74.9651 41.2806 74.883C39.9124 74.8218 38.5538 74.7703 37.0514 74.5773C37.4902 74.1113 37.8332 74.3424 38.1398 74.3634C38.3813 74.3806 38.4522 74.3443 38.4656 74.0807C38.4829 73.7541 38.2855 73.9279 38.1705 73.9012C37.6876 73.7923 37.1971 73.8267 36.7601 74.0158C35.6794 74.4857 34.9359 74.5449 33.811 74.2087C33.148 74.01 32.4754 73.9604 31.822 74.4303C33.3837 74.6175 34.9474 74.8046 36.5091 74.9899C33.6903 75.1427 30.9386 74.7588 27.9857 74.0406C28.8767 73.7082 29.5742 73.6834 30.3081 73.7541C29.6739 73.2556 28.892 73.3224 28.0776 73.1639C28.7062 72.7169 29.373 72.7494 30.0092 72.7226C30.2756 72.7112 30.4806 72.6883 30.4442 72.3998C30.4174 72.1878 30.2947 71.9815 29.9843 72.0503C29.3903 72.184 28.6813 72.0828 28.2501 71.8841C27.4204 71.5002 26.7133 72.0694 25.8567 71.8344C26.1652 71.6931 26.3971 71.588 26.6577 71.4696C26.2016 70.9692 25.6229 71.5174 25.1343 71.1392C26.7094 71.0475 28.1581 70.4668 29.672 70.0581C28.7828 70.2338 28.2693 69.2329 27.3801 69.3723C27.2153 69.3972 27.0774 69.2329 27.1732 69.0476C27.3035 68.7974 27.2958 68.4517 27.7653 68.4574C28.4475 68.465 29.1565 68.5185 29.9383 68.148C29.007 67.382 27.7864 67.5482 26.9624 66.8357C26.6194 66.6294 28.0393 66.8606 27.0774 66.3868C26.8532 66.2761 26.6922 65.7852 26.8551 65.6725C27.7059 65.0861 26.8915 64.9371 26.6079 64.8282C25.9755 64.5856 25.7781 63.9037 25.0078 63.6631C25.9429 63.2543 26.8991 62.92 27.4702 63.2276C28.2942 63.6707 28.9649 63.3804 29.7026 63.3555C29.9575 63.3479 30.2947 63.3307 30.3273 63.0327C30.3676 62.6545 29.9651 62.7825 29.7582 62.6908C29.0722 62.3928 28.2482 62.7195 27.4759 62.2114C28.2865 62.0108 28.9764 61.8848 29.7026 62.0605C29.0837 61.7377 28.3574 61.8275 27.748 61.4989C28.3248 61.3289 28.9016 61.1494 29.5129 61.2525C29.7026 61.285 29.8425 61.2583 29.8444 61.0558C29.8444 60.8419 29.7256 60.6871 29.4822 60.7234C28.1639 60.9259 26.88 60.202 25.5539 60.6508C26.7318 59.9734 27.764 59.7353 28.6506 59.9365C28.4475 59.1801 27.9972 58.7159 27.2153 58.7197C26.7037 58.7236 26.5657 58.4619 26.5082 58.0397C27.2211 57.8239 27.9607 57.9729 28.6832 57.8831C28.9572 57.8487 29.2657 57.8564 29.2063 57.419C29.1776 57.1974 29.2945 57.0255 28.9725 56.8249C28.6889 56.6492 27.9435 56.1239 28.9917 55.8107C28.7981 55.484 27.9742 55.8107 28.2252 55.1841C28.5145 54.464 29.1507 55.3771 29.647 54.974C29.3558 54.8422 29.3884 54.3895 28.9074 54.3953C28.7177 54.3953 28.7368 53.4097 28.9629 53.3657C29.762 53.211 30.1529 52.2082 31.1034 52.384C31.3755 52.4336 31.3851 52.1681 31.3602 51.9847C31.2759 51.3678 31.2471 50.7413 31.1896 50.1377C31.1475 49.6926 30.3465 49.3545 29.7544 49.6296C29.3654 49.8111 29.191 49.6009 28.8633 49.4539C29.3864 48.8732 30.0169 49.3545 30.5573 49.2132C30.998 49.0967 31.3314 48.9572 31.2452 48.5561C31.1379 48.0538 32.0347 47.836 31.5288 47.2802C31.479 47.2248 31.6821 47.0758 31.8067 47.1025C32.8242 47.3241 33.7095 46.7167 34.7136 46.6556C33.7497 46.1418 32.692 46.4302 31.7166 46.1991C31.5173 46.1513 31.3276 46.2449 31.2069 46.4015C31.0593 46.5945 30.9846 47.135 30.7815 46.4149C30.7412 46.2736 30.3982 46.1532 30.4998 46.6212C30.5496 46.8504 30.2047 46.7262 30.2104 46.625C30.2219 46.3461 29.8866 46.2525 29.8712 46.0023C30.3503 45.7234 30.793 46.0501 31.2184 45.9527C31.4426 45.9011 31.8258 46.0482 31.8546 45.7521C31.8795 45.4961 31.8929 45.0664 31.3774 45.0568C31.7051 44.6863 32.0462 44.9136 32.303 44.9995C33.1193 45.2727 33.9433 45.2211 34.7634 45.1428C35.2042 45.1008 35.6296 44.8582 35.6679 45.6012C35.6794 45.8323 35.9515 45.8495 36.1949 45.8839C36.9671 45.9928 37.6991 45.6833 38.4618 45.7196C38.5959 45.7254 38.7799 45.6108 38.8699 45.4961C39.4812 44.7168 39.8568 44.6271 40.7479 45.1179C41.1713 45.351 41.5987 45.605 41.6121 44.8085C41.6217 44.2049 42.3977 44.415 42.484 43.8802C42.2559 43.7121 41.34 44.3749 41.7481 43.3492C40.9376 43.2556 41.2997 42.7513 41.3764 42.3292C41.4473 41.9357 41.1503 42.0083 40.8992 41.9472C39.6422 41.6397 38.5844 42.3789 37.4308 42.5909C36.2485 42.8086 35.1026 43.2327 33.9433 43.5765C33.721 43.6434 33.514 43.6987 33.3013 43.567C33.7555 43.2652 32.9353 42.7838 33.4546 42.4935C33.5102 42.4629 33.5811 42.4438 33.6194 42.398C33.8705 42.1019 34.6676 42.3025 34.499 41.7657C34.3323 41.2347 33.7267 41.6435 33.3301 41.6779C32.3969 41.76 31.479 41.6435 30.5611 41.5518C30.061 41.5021 29.8042 40.6311 29.8674 40.1307C29.9766 39.2731 30.8543 38.4231 29.9421 37.512C29.7199 37.2904 29.7697 36.9256 29.9077 36.6047C30.6052 34.9658 31.5154 33.4721 33.1576 32.6431C33.6846 32.3776 33.6884 31.9173 33.9088 31.5525C34.2135 31.0482 33.9471 30.6643 33.3876 30.4924C33.3282 30.4733 33.2093 30.4522 33.286 30.3052C33.9414 29.0674 34.4204 27.7361 35.8231 27.0313C37.9885 25.9425 40.1557 24.8652 42.4131 23.9808C48.6715 21.5302 55.0105 19.2973 61.3398 17.0338C62.5777 16.5907 63.8425 16.7626 65.065 16.4914C65.8622 16.3156 66.8011 16.4608 67.3875 15.6738C68.1138 16.5487 68.6791 15.8056 69.3574 15.4847C69.0087 15.3186 68.75 15.0282 68.3974 15.3377C69.0182 14.9155 69.7445 14.7436 70.4573 14.7589C71.0744 14.7723 71.678 15.0874 72.3027 15.1677C72.9427 15.2498 73.2206 15.7369 73.6287 16.1342C73.3911 16.4073 73.0251 16.2755 72.7626 16.4875C74.3607 16.732 75.773 15.9775 77.3386 15.6032C77.5915 15.7178 76.8212 16.0177 77.3002 16.0788C78.6569 16.2564 80.0232 16.5066 81.309 15.7197C81.698 15.4809 82.1637 15.3644 82.7194 15.1409C81.1519 14.8028 79.7109 15.5592 78.2699 15.1696C80.3356 14.6691 82.3649 14.0006 84.5245 14.0694C84.8273 14.0789 85.1339 14.0846 85.1607 14.4667C85.1875 14.8525 84.8656 14.8468 84.6222 14.8047C83.7791 14.6596 84.2275 15.4981 83.8615 15.7197C84.352 15.3625 85.0112 15.7426 85.4539 15.3205C85.6168 15.1658 85.9981 15.1753 85.565 14.7398C85.1837 14.3559 85.8984 14.2107 86.0901 14.268C86.8776 14.503 87.6921 14.1209 88.5026 14.5354C89.1676 14.8754 89.9053 14.1018 90.6948 14.3349C90.9324 14.4055 91.3118 14.4189 91.2908 14.6252C91.1834 15.7159 92.0343 15.2746 92.5152 15.4179C92.5631 15.8018 92.1205 15.6356 92.0438 15.8629C92.086 15.8973 92.1262 15.9584 92.1703 15.9623C92.3294 15.9699 92.5018 15.9164 92.6455 15.9623C92.9771 16.0692 93.4715 15.9088 93.5922 16.3863C93.7301 16.9364 92.9981 16.6002 92.9138 16.9689C94.2456 17.2611 94.3203 17.3681 94.0214 18.6956C94.6097 18.2735 95.0964 17.7578 95.8476 17.9545C95.8974 18.3652 95.5007 18.22 95.3321 18.348C95.1673 18.4721 95.0179 18.5906 95.0792 18.8064C95.3685 19.813 95.3781 19.8302 94.2839 20.1377C94.0233 20.2103 93.8087 20.472 93.4753 20.3689C93.4274 19.962 94.0176 19.7003 93.734 19.2553C93.5903 19.2152 93.4868 19.2686 93.4197 19.3947C93.2223 19.7672 92.3945 19.3508 92.5689 19.7882C92.7433 20.2256 93.0154 21.024 94.0272 20.6592C93.4005 21.3678 92.7279 21.0049 92.0898 21.1329C92.4999 21.7881 93.3373 21.3755 93.7033 21.9619C93.9141 22.3 94.1383 22.6209 94.7228 22.512C95.2689 22.4107 95.2018 22.9704 95.0466 23.2493C94.7285 23.8223 95.2363 23.6714 95.6215 23.8758C92.2316 25.1231 88.7517 25.2912 85.1492 26.0227C86.3334 26.464 87.372 25.7114 88.4011 26.3264C88.0638 26.5671 87.5253 26.6607 87.8971 27.2204C88.106 27.5336 88.127 27.9328 87.4908 28.2938C88.7709 28.3492 89.7386 28.5823 90.8481 28.842C89.9609 29.4934 89.1388 29.3119 88.3838 28.9853C87.2686 28.5039 87.0539 28.525 86.3967 29.5984C86.2415 29.8544 86.0307 29.862 85.7566 29.8639C85.3715 29.8658 85.2278 30.2612 84.8924 30.4427C85.1703 30.7426 85.5037 30.7235 85.5861 30.5286C85.8467 29.9117 86.4177 30.584 86.709 30.2135C86.7128 30.2097 86.8776 30.2937 86.9141 30.3644C86.9466 30.4293 86.9026 30.607 86.9006 30.607C85.8889 30.5458 86.0728 31.5085 85.7011 31.9918C85.6704 32.0319 85.6129 32.0548 85.5459 32.1007C86.0173 32.3662 86.5097 31.8466 86.939 32.2573C87.1555 31.6919 86.5864 31.499 86.5366 31.0157C87.4525 31.0291 88.3685 30.8648 88.9855 31.7778L88.951 31.7454L88.9434 31.7435ZM60.4315 19.1158C61.3053 19.2495 62.0412 18.8408 62.7751 18.4798C63.8846 17.9354 65.0209 17.8743 66.1688 18.2601C66.9525 18.5218 67.7516 18.7338 68.4702 18.2658C69.0911 17.8628 69.7694 17.5878 70.396 17.2115C70.5167 17.1389 70.7601 17.0243 70.5838 16.7282C69.9725 16.839 69.3363 16.9364 68.6656 16.5926C69.0163 16.4589 69.3018 16.35 69.7943 16.1628C69.0374 16.1533 68.5238 16.3233 67.9854 16.3118C67.0713 16.2927 66.2224 16.7435 65.3122 16.8772C64.8025 16.9517 64.0417 17.3624 63.4305 17.6871C62.4474 18.2104 61.2076 18.2028 60.4296 19.1388C60.3261 18.7109 60.0636 18.814 59.7762 18.9306C59.1706 19.177 58.5594 19.4081 57.9481 19.6449C58.2758 20.0365 58.6437 19.9563 59.0059 19.7939C59.4868 19.5781 59.9582 19.3412 60.4335 19.112L60.4315 19.1158ZM91.3636 70.6425C89.3726 70.5088 88.4375 70.6827 87.7476 71.3397C89.1906 72.2585 90.1717 70.8966 91.3636 70.6425ZM35.2846 48.4969C36.2715 49.5341 37.2641 48.4224 38.1858 48.7433C38.205 48.7509 38.3391 48.5542 38.3468 48.4492C38.3583 48.2658 38.2088 48.1359 38.0459 48.1588C37.1549 48.2868 36.2274 48.1455 35.2846 48.495V48.4969ZM102.242 42.6921C101.464 41.8937 100.805 42.0503 100.186 42.6386C100.816 42.7743 101.472 42.4476 102.242 42.6921Z" fill="#D1E3FF"/>
<path d="M36 47.0719C36 40.3236 36 33.5779 36 26.8297C36 23.8127 37.3247 22.3454 40.3014 22.281C41.4225 22.2552 41.1287 21.5847 41.1519 21.002C41.2318 19.0345 42.474 17.5157 44.3218 17.1469C45.9635 16.8194 47.7289 17.7219 48.4918 19.2743C48.8217 19.9473 48.9583 20.6616 48.8835 21.3991C48.8139 22.0876 49.0897 22.2732 49.7572 22.2655C52.721 22.2345 55.6848 22.201 58.646 22.2784C59.7285 22.3067 59.5249 21.6595 59.5764 21.0458C59.7491 18.9803 60.6923 17.7477 62.468 17.2372C63.9267 16.8168 65.504 17.3558 66.4911 18.5858C67.1173 19.3671 67.357 20.2851 67.3106 21.2366C67.2642 22.1495 67.6689 22.2758 68.442 22.2655C71.1893 22.2294 73.9418 22.1984 76.6866 22.2784C77.7535 22.3093 78.0551 22.0334 78.0396 20.9478C78.0112 18.903 79.5344 17.3119 81.4853 17.1108C83.377 16.9148 85.1321 18.1552 85.6347 20.0453C85.6682 20.1691 85.6888 20.2954 85.7171 20.4218C85.8383 20.9968 85.4543 21.8142 85.9465 22.1082C86.4284 22.397 87.1887 22.2294 87.8253 22.2474C88.3407 22.2603 88.8562 22.2449 89.3716 22.2526C91.869 22.2887 93.4668 23.872 93.472 26.381C93.4849 35.0194 93.4952 43.6578 93.4514 52.2936C93.4462 53.3483 93.7065 53.9465 94.6549 54.5216C100.224 57.9047 103.008 64.4802 101.668 70.8288C100.353 77.0639 95.2271 81.9169 88.9283 82.8891C81.6194 84.0159 74.6995 80.0371 72.094 73.1238C71.7563 72.229 71.3388 72.0021 70.4471 72.0047C60.4836 72.033 50.5175 72.0253 40.5539 72.0227C37.4587 72.0227 36.0026 70.5555 36.0026 67.4405C36.0026 60.651 36.0026 53.8614 36.0026 47.0719H36ZM64.736 35.5583C56.4915 35.5583 48.2469 35.5764 40.0024 35.5377C38.9355 35.5325 38.5437 35.7182 38.5489 36.9224C38.6056 47.0177 38.5798 57.1157 38.5824 67.211C38.5824 69.1218 38.9045 69.4415 40.8246 69.4415C50.4427 69.4415 60.0609 69.426 69.6817 69.4647C70.7486 69.4699 71.1223 69.3152 71.094 68.0903C70.8672 57.9589 79.9003 50.4422 89.784 52.5257C90.8046 52.7397 90.9154 52.5076 90.9102 51.6103C90.8793 46.7135 90.8484 41.8141 90.9283 36.9173C90.9489 35.7027 90.5288 35.5325 89.4696 35.5377C81.225 35.5764 72.9805 35.5583 64.736 35.5583ZM86.4439 80.5245C93.5055 80.5528 99.3403 74.7947 99.3944 67.7422C99.4486 60.6303 93.6318 54.7562 86.529 54.7511C79.4751 54.7459 73.6609 60.5375 73.6377 67.5926C73.6145 74.6323 79.4236 80.4987 86.4465 80.5245H86.4439ZM64.6458 32.9333C71.6043 32.9333 78.5628 32.9333 85.5213 32.9333C87.0238 32.9333 88.5289 32.9075 90.0314 32.941C90.7066 32.9565 90.9205 32.7089 90.9076 32.0436C90.8716 30.1535 90.9051 28.2608 90.8896 26.3707C90.8819 25.3856 90.3639 24.8596 89.3742 24.8415C88.516 24.8235 87.6526 24.8905 86.7996 24.8209C85.9542 24.7539 85.6836 25.0401 85.7274 25.891C85.8073 27.4279 85.1605 28.6528 83.828 29.4444C81.2096 30.9967 78.0628 29.1556 78.0396 26.0071C78.0319 25.022 77.7613 24.7925 76.8154 24.8132C73.9831 24.8776 71.1455 24.8544 68.3106 24.8235C67.6302 24.8158 67.2823 24.9473 67.3184 25.726C67.3493 26.3629 67.2617 27.0076 67.0014 27.6161C66.3184 29.2149 64.6509 30.1922 62.9577 29.9679C61.115 29.7229 59.7078 28.3124 59.6408 26.2881C59.5996 25.0143 59.1666 24.7642 57.9888 24.8054C55.3291 24.9008 52.6617 24.8751 50.002 24.8132C49.0923 24.7925 48.8629 25.0581 48.8629 25.9555C48.8629 28.3021 47.247 29.9575 45.077 29.9885C42.8502 30.0194 41.1493 28.3433 41.1879 25.94C41.206 24.8415 40.7369 24.7307 39.9019 24.8441C38.9741 24.9705 38.5798 25.5378 38.5824 26.4403C38.585 28.1602 38.6494 29.8828 38.5566 31.595C38.4973 32.6728 38.8246 32.9591 39.9019 32.9539C48.149 32.9075 56.3961 32.9281 64.6432 32.9281L64.6458 32.9333ZM46.3037 23.5548C46.3037 22.7374 46.3218 21.9225 46.2986 21.1051C46.2779 20.3135 45.863 19.7539 45.0667 19.723C44.2626 19.692 43.778 20.2284 43.7574 21.0174C43.7136 22.6935 43.7188 24.3696 43.7549 26.0458C43.7703 26.8348 44.2419 27.3789 45.0409 27.3634C45.8372 27.3505 46.2676 26.7987 46.296 26.0045C46.3243 25.1897 46.3011 24.3722 46.3037 23.5548ZM83.158 23.5161C83.158 22.6987 83.1837 21.8813 83.1502 21.0664C83.1193 20.2748 82.6837 19.7255 81.8822 19.723C81.0833 19.7204 80.6245 20.2645 80.6065 21.0561C80.573 22.6884 80.5782 24.3232 80.6014 25.9555C80.6142 26.8039 81.0653 27.3944 81.9338 27.3609C82.725 27.3325 83.1348 26.7575 83.1528 25.9658C83.1708 25.151 83.158 24.3335 83.1528 23.5161H83.158ZM64.6844 23.5677C64.6844 23.5677 64.6767 23.5677 64.6716 23.5677C64.6716 22.6678 64.6999 21.7652 64.6613 20.8653C64.6303 20.1639 64.1845 19.741 63.5067 19.7178C62.7618 19.692 62.2593 20.1226 62.2412 20.8833C62.2 22.642 62.2026 24.4006 62.2309 26.1592C62.2438 26.9148 62.718 27.3763 63.4603 27.3738C64.2025 27.3686 64.6484 26.8941 64.6767 26.1437C64.7102 25.2876 64.6844 24.429 64.6844 23.5703V23.5677Z" fill="black"/>
<path d="M50.409 66.8657C48.7338 66.8657 47.0612 66.8554 45.386 66.8708C44.4994 66.8786 43.7907 66.5666 43.7701 65.6176C43.7469 64.5862 44.4891 64.2767 45.4272 64.2793C48.7312 64.2896 52.0378 64.2896 55.3418 64.2793C56.2232 64.2793 56.919 64.5398 56.9396 65.5299C56.9628 66.6001 56.2361 66.8786 55.3005 66.8683C53.6692 66.8528 52.0378 66.8631 50.4064 66.8631L50.409 66.8657Z" fill="black"/>
<path d="M49.0896 43.6577C47.801 43.6577 46.515 43.6629 45.2264 43.6577C44.3759 43.6526 43.7754 43.2529 43.7677 42.3813C43.7599 41.5072 44.3501 41.0868 45.2032 41.0843C47.7778 41.0765 50.3524 41.0791 52.9297 41.0817C53.7827 41.0817 54.3626 41.4556 54.3703 42.3607C54.3781 43.2632 53.8111 43.6552 52.9529 43.6603C51.6643 43.668 50.3782 43.6603 49.0896 43.6603V43.6577Z" fill="black"/>
<path d="M64.9808 43.6584C63.6922 43.6584 62.4062 43.6584 61.1176 43.6584C60.2723 43.6584 59.664 43.3206 59.646 42.4129C59.6254 41.433 60.2491 41.0746 61.1563 41.0772C63.6897 41.0823 66.2205 41.0772 68.7539 41.0772C69.6018 41.0772 70.2229 41.4511 70.2435 42.3226C70.2667 43.2716 69.6173 43.6584 68.7152 43.6584C67.4704 43.6584 66.2256 43.6584 64.9808 43.6584Z" fill="black"/>
<path d="M49.1048 51.3934C47.8162 51.3934 46.5301 51.3934 45.2415 51.3934C44.391 51.3934 43.788 51.0015 43.7699 50.1299C43.7519 49.2557 44.3369 48.8225 45.19 48.82C47.7646 48.8071 50.3393 48.8148 52.9165 48.8148C53.767 48.8148 54.3623 49.1732 54.37 50.0783C54.3803 51.0608 53.7412 51.4037 52.8392 51.3986C51.5944 51.3909 50.3496 51.3986 49.1048 51.396V51.3934Z" fill="black"/>
<path d="M64.9237 51.3938C63.6351 51.3938 62.3491 51.3989 61.0605 51.3938C60.2023 51.3886 59.6379 50.9967 59.6456 50.0916C59.6533 49.1865 60.2358 48.8152 61.0863 48.8152C63.6609 48.8152 66.2355 48.81 68.8128 48.8177C69.6658 48.8203 70.256 49.2432 70.2457 50.1174C70.2354 50.9915 69.6375 51.3886 68.787 51.3938C67.4984 51.3989 66.2123 51.3938 64.9237 51.3938Z" fill="black"/>
<path d="M49.1435 59.1297C47.8549 59.1297 46.5689 59.1297 45.2803 59.1297C44.3756 59.1297 43.7339 58.7248 43.77 57.7759C43.8035 56.9069 44.4323 56.5459 45.2777 56.5459C47.8111 56.5485 50.3419 56.5485 52.8753 56.5459C53.7877 56.5459 54.401 56.925 54.3675 57.8997C54.3366 58.8074 53.7206 59.1323 52.8779 59.1297C51.6331 59.1245 50.3883 59.1297 49.1435 59.1297Z" fill="black"/>
<path d="M64.9247 59.1301C63.6361 59.1301 62.3501 59.1353 61.0615 59.1301C60.2032 59.125 59.6388 58.733 59.6466 57.8279C59.6543 56.9228 60.2367 56.5515 61.0872 56.5515C63.6619 56.5515 66.2365 56.5463 68.8137 56.5541C69.6668 56.5566 70.257 56.9795 70.2467 57.8537C70.2364 58.7278 69.6384 59.125 68.788 59.1301C67.4993 59.1353 66.2133 59.1301 64.9247 59.1301Z" fill="black"/>
<path d="M80.6142 43.6584C79.4107 43.6584 78.2097 43.6584 77.0061 43.6584C76.1041 43.6584 75.4521 43.2793 75.4701 42.3278C75.4856 41.4562 76.1067 41.0771 76.9546 41.0771C79.3591 41.0771 81.7662 41.0771 84.1708 41.0771C85.0728 41.0771 85.7326 41.4588 85.7042 42.4077C85.6759 43.3592 84.98 43.6764 84.0909 43.6635C82.9311 43.648 81.7714 43.6609 80.6116 43.6584H80.6142Z" fill="black"/>
<path d="M86.5131 81.5892C79.266 81.615 72.6528 76.4732 72.542 67.4996C72.4492 59.9674 78.8948 53.6859 86.5234 53.6885C94.1752 53.6885 100.616 59.9958 100.492 67.5692C100.345 76.5403 93.7164 81.6228 86.5131 81.5892ZM86.5028 80.6661C93.5773 80.6893 99.5745 74.8977 99.4868 67.8529C99.3837 59.7276 93.5567 54.8231 86.5956 54.7844C79.7428 54.7457 73.7404 59.4672 73.5445 67.7601C73.377 74.7765 79.3768 80.6429 86.5054 80.6661H86.5028Z" fill="black"/>
<path d="M80.9976 67.3214C80.9976 66.5959 80.9788 65.874 80.9976 65.1485C81.0426 63.6118 82.3262 62.4146 83.9249 62.3967C85.5763 62.3788 86.9236 63.5617 86.9611 65.1271C86.9986 66.6316 86.9986 68.1362 86.9611 69.6372C86.9198 71.2347 85.595 72.4176 83.9475 72.3962C82.2849 72.3712 81.0351 71.1918 80.9976 69.5765C80.9788 68.826 80.9976 68.0719 80.9976 67.3214ZM85.5237 67.4215C85.5237 66.7281 85.55 66.0312 85.5162 65.3379C85.4712 64.3873 84.8069 63.7476 83.9475 63.769C83.1143 63.7905 82.4725 64.4087 82.45 65.3165C82.4162 66.7031 82.4125 68.0933 82.45 69.48C82.4763 70.4306 83.0617 70.956 83.97 70.9595C84.8819 70.9631 85.4524 70.4485 85.5125 69.4978C85.5537 68.8045 85.52 68.1112 85.52 67.4179L85.5237 67.4215Z" fill="black"/>
<path d="M79.9864 67.4069C79.9864 68.737 79.9786 70.0706 79.9864 71.4006C79.9903 71.9125 79.8735 72.393 79.2117 72.3965C78.5304 72.3999 78.4487 71.8951 78.4487 71.3972C78.4487 69.1966 78.4331 66.996 78.4604 64.7955C78.4681 64.2314 78.3397 64.0573 77.709 64.3254C77.164 64.5587 76.4555 64.9974 76.0817 64.2071C75.7002 63.3993 76.5878 63.3192 77.129 63.0928C77.6506 62.877 78.184 62.6785 78.7212 62.4974C79.5076 62.2328 79.9592 62.4905 79.9747 63.246C80.002 64.6318 79.9825 66.0176 79.9825 67.4034L79.9864 67.4069Z" fill="black"/>
<path d="M90.0178 62.3966C91.155 62.4073 91.9963 63.2652 91.9892 64.4126C91.9821 65.5528 91.1229 66.4071 89.9857 66.3964C88.8735 66.3892 87.9787 65.4849 87.9894 64.3804C88 63.2687 88.902 62.3859 90.0178 62.3966ZM90.6131 64.4197C90.5918 64.0837 90.4171 63.8478 90.0677 63.8121C89.7183 63.7763 89.4759 63.9515 89.4332 64.3125C89.3904 64.7092 89.5971 64.963 89.9893 64.9773C90.3351 64.9916 90.5454 64.7772 90.6096 64.4197H90.6131Z" fill="black"/>
<path d="M94.9751 68.4C96.145 68.3929 96.9928 69.2334 96.9892 70.3874C96.9821 71.5093 96.0663 72.4175 94.9608 72.3961C93.8804 72.3747 93.0111 71.5022 92.9897 70.4123C92.9682 69.2584 93.8089 68.4036 94.9751 68.3965V68.4ZM95.0216 70.9572C95.4009 70.9394 95.5762 70.6937 95.569 70.3625C95.5618 70.0312 95.3687 69.7784 95.0002 69.7819C94.5924 69.7819 94.3884 70.0455 94.4135 70.423C94.4349 70.7649 94.646 70.9715 95.0216 70.9572Z" fill="black"/>
<path d="M62.1203 65.5707C62.0688 66.3624 61.6513 66.86 60.8343 66.842C60.0869 66.8239 59.6462 66.3546 59.6436 65.6017C59.6384 64.7842 60.1023 64.2969 60.9142 64.3149C61.659 64.3304 62.061 64.8049 62.1203 65.5733V65.5707Z" fill="black"/>
<path d="M90.6868 71.3927C90.0633 71.3624 89.7752 70.7215 90.1698 70.1223C90.9276 68.9732 91.7248 67.8507 92.5063 66.7169C93.1535 65.7802 93.8047 64.8473 94.452 63.9144C94.7361 63.501 95.1071 63.2242 95.6044 63.52C96.149 63.8423 96.0425 64.3012 95.7346 64.7487C94.3217 66.7889 92.9049 68.8329 91.492 70.8769C91.2986 71.1576 91.0697 71.3851 90.6868 71.3965V71.3927Z" fill="black"/>
</svg>
