<svg width="23" height="23" viewBox="0 0 23 23" fill="none" xmlns="http://www.w3.org/2000/svg">
<path d="M-0.00015625 21.2222V20.5862C0.12862 20.0374 0.396354 19.5794 0.797057 19.1766C3.28214 16.6792 5.75404 14.1684 8.23612 11.6679C8.37568 11.5273 8.37568 11.4607 8.23492 11.3196C5.73727 8.8033 3.2444 6.281 0.752734 3.75808C0.202292 3.20141 0.00343749 2.52237 0.162161 1.76035C0.338255 0.91231 0.858151 0.342307 1.67992 0.100011C2.50229 -0.142892 3.23362 0.0612432 3.84336 0.674253C6.33443 3.17657 8.8243 5.67949 11.31 8.18726C11.4477 8.32658 11.5208 8.34839 11.6717 8.19453C13.386 6.44879 15.108 4.71031 16.8288 2.97122C17.6176 2.17407 18.3867 1.3545 19.2066 0.591267C20.0649 -0.207706 21.4102 -0.11321 22.2026 0.743914C23.0082 1.61558 22.9879 2.95426 22.1553 3.79624C19.6942 6.28584 17.2337 8.77665 14.7678 11.2608C14.6144 11.4153 14.5935 11.4916 14.7612 11.6588C17.1564 14.0539 19.5391 16.4629 21.9361 18.8562C22.4224 19.342 22.8681 19.8357 22.9986 20.542V21.1326C22.9795 21.2046 22.9603 21.2767 22.9411 21.3494C22.7201 22.1908 22.2056 22.7566 21.3593 22.9352C20.4806 23.1206 19.6918 22.9237 19.0335 22.255C16.5736 19.7557 14.1029 17.2667 11.6424 14.768C11.4998 14.6233 11.4334 14.633 11.2968 14.7717C8.85125 17.254 6.39313 19.723 3.95536 22.2126C3.39055 22.7893 2.74008 23.0316 1.95664 22.9904C1.00909 22.9407 0.284948 22.344 0.0555469 21.413C0.039974 21.3494 0.0579427 21.2737 -0.00195312 21.2234L-0.00015625 21.2222Z" fill="#D6D6D6"/>
</svg>
