<svg width="367" height="92" viewBox="0 0 367 92" fill="none" xmlns="http://www.w3.org/2000/svg">
<path d="M35.657 41.6305C33.5514 42.3105 31.1266 42.7996 28.3824 43.0976L28.7954 44.927C29.8045 49.2516 30.6934 53.3664 31.4622 57.2716C32.2708 61.1731 32.8454 64.9358 33.186 68.5599C33.5902 72.8609 33.0583 75.9643 31.5902 77.87C30.1258 79.8156 27.5816 80.9587 23.9576 81.2993C21.6477 81.5164 18.929 81.2295 15.8013 80.4387C12.6735 79.6479 9.93965 78.5589 7.59958 77.1718C5.29935 75.7809 4.0856 74.4085 3.95834 73.0545C3.9022 72.4571 4.14661 71.8516 4.69158 71.2379C5.23655 70.6242 5.86865 70.0827 6.58789 69.6133C7.30712 69.144 7.82604 68.8943 8.14464 68.8644C8.66236 68.8157 9.01396 68.9233 9.19946 69.1871C9.42853 69.487 9.55055 69.7165 9.56552 69.8758C9.58423 70.075 9.46169 70.2673 9.19789 70.4528C8.59064 70.8313 8.1769 71.1313 7.95667 71.3529C7.73643 71.5744 7.64503 71.8844 7.68246 72.2826C7.77229 73.2384 8.66983 74.2388 10.3751 75.2838C12.1202 76.3251 14.2087 77.1734 16.6407 77.8287C19.069 78.4442 21.2986 78.6565 23.3297 78.4656C25.0819 78.3009 26.477 77.9689 27.5148 77.4696C28.5527 76.9703 29.3104 76.0554 29.788 74.7249C30.2618 73.3545 30.3771 71.3751 30.1338 68.7865C29.7259 64.4456 28.3807 57.4005 26.0985 47.6513C25.8929 46.7466 25.6967 45.9414 25.5099 45.2358C25.3591 44.4866 25.2395 43.855 25.151 43.3411C22.4429 43.5956 20.2706 43.7797 18.6341 43.8933C15.5999 44.0981 13.0343 44.1584 10.9372 44.0743C10.3324 44.0508 9.814 43.8785 9.38207 43.5575C8.98622 43.193 8.7621 42.7319 8.7097 42.1744C8.68724 41.9354 8.78426 41.6853 9.00075 41.4239C9.21724 41.1625 9.48478 41.0168 9.80338 40.9868C10.5999 40.912 11.5214 40.8856 12.5681 40.9078C15.4617 40.9171 18.5811 40.7645 21.9263 40.4501L24.3158 40.2255C24.0592 39.2051 23.9302 38.4739 23.9289 38.0321C23.935 37.67 24.1222 37.3109 24.4905 36.9548C24.8987 36.5951 25.3218 36.3946 25.7598 36.3534C26.2377 36.3085 26.6497 36.6314 26.9959 37.322C27.1453 37.6294 27.4268 38.4868 27.8403 39.8943C29.712 39.7184 31.1799 39.5202 32.244 39.2996C33.3441 39.0355 33.9719 38.8761 34.1275 38.8213C35.2276 38.5572 35.9568 38.4083 36.3153 38.3746C36.7135 38.3372 37.0377 38.367 37.2879 38.464C37.5779 38.5573 37.7341 38.7234 37.7566 38.9623C37.809 39.5199 37.6187 40.0601 37.1857 40.5829C36.7527 41.1057 36.2432 41.4549 35.657 41.6305ZM68.3517 70.7992C68.3966 71.2771 68.2499 71.8533 67.9115 72.528C67.5694 73.1628 67.1993 73.4989 66.801 73.5363C66.124 73.5999 65.567 73.2304 65.13 72.4278C64.6929 71.6252 64.422 70.6663 64.3172 69.5512C64.2274 68.5954 64.0177 65.7225 63.688 60.9323L63.5344 58.6567C63.4483 57.7407 63.1476 57.1061 62.6323 56.7527C61.1246 59.9478 59.699 62.7334 58.3555 65.1096C57.0119 67.4857 55.239 69.7817 53.0366 71.9975C50.8306 74.1735 48.4133 75.385 45.7849 75.632C44.5105 75.7518 43.4775 75.4471 42.6858 74.718C41.9339 73.9851 41.4981 72.9815 41.3783 71.7071C41.2286 70.1141 41.7415 67.8763 42.9169 64.9937C44.0886 62.0712 45.6566 59.0914 47.6211 56.0543C49.5817 52.9773 51.5911 50.4181 53.6491 48.3766C55.0103 47.0433 56.1103 46.1364 56.949 45.6558C57.784 45.1354 58.5399 44.8434 59.217 44.7798C59.8542 44.7199 60.53 44.8573 61.2444 45.1919C61.9589 45.5265 62.5887 46.0298 63.134 46.7017C63.6792 47.3736 63.9949 48.1676 64.081 49.0835C64.197 50.3181 63.9689 51.5247 63.3967 52.7034L64.3842 52.3093C64.8223 52.2681 65.1316 52.7814 65.3123 53.8492C65.4121 54.4827 65.5735 55.7732 65.7967 57.7209C66.0598 59.6648 66.2711 61.2721 66.4307 62.5427C66.5941 63.8532 66.7536 65.1238 66.9095 66.3546C67.0654 67.5855 67.1969 68.5574 67.3041 69.2705C67.3701 69.5455 67.5575 69.8293 67.8662 70.1216C68.1712 70.3742 68.333 70.6001 68.3517 70.7992ZM61.577 54.5016C61.9426 53.262 62.0599 51.9452 61.9289 50.5513C61.8503 49.715 61.5241 49.0225 60.9502 48.4738C60.4124 47.8815 59.7254 47.6247 58.8891 47.7033C57.8935 47.7969 56.6827 48.5936 55.2568 50.0937C53.6069 51.7754 51.9062 53.9842 50.1545 56.7202C48.3991 59.4162 46.9803 62.0606 45.8981 64.6532C44.816 67.2459 44.3423 69.259 44.477 70.6927C44.5893 71.8874 45.203 72.4324 46.3181 72.3276C48.4686 72.1255 50.4646 71.1344 52.3061 69.3543C54.1476 67.5741 55.742 65.5159 57.0893 63.1796C58.4727 60.7997 59.9686 57.907 61.577 54.5016ZM97.2342 47.0524C96.9156 47.0824 96.5422 46.9568 96.1141 46.6756C95.6821 46.3546 95.3865 46.2016 95.2272 46.2166C94.1519 46.3176 92.5087 47.2153 90.2976 48.9096C88.0864 50.604 85.8398 52.5628 83.5579 54.7861C81.2759 57.0094 79.5433 58.8797 78.3601 60.3971L78.5209 61.4667C81.6785 62.5761 85.1841 63.7533 89.0375 64.9981C92.8909 66.243 95.5475 66.9375 97.0074 67.0815C97.5724 67.1088 98.1356 67.1161 98.6969 67.1035C99.2581 67.091 99.6583 67.0734 99.8972 67.051C100.256 67.0173 100.556 67.0091 100.799 67.0265C101.042 67.0439 101.169 67.1123 101.18 67.2318C101.225 67.7097 100.891 68.2231 100.179 68.7721C99.5076 69.3174 98.4348 69.6593 96.9613 69.7978C95.6471 69.9213 93.8101 69.6118 91.4503 68.8694C89.1265 68.0833 86.3566 67.0379 83.1404 65.7332L79.2029 64.235C80.196 69.2441 80.7168 72.0075 80.7655 72.5252C80.8067 72.9633 80.6213 73.3423 80.2094 73.6622C79.7976 73.9822 79.3328 74.1665 78.8151 74.2151C78.4965 74.2451 78.1927 73.7915 77.9037 72.8544C77.6148 71.9173 77.1981 70.0481 76.6535 67.2468L75.8929 63.6421C75.3963 63.4879 74.9519 63.2485 74.5598 62.9237C74.164 62.5592 73.9511 62.2176 73.9212 61.899C73.8762 61.4211 74.2221 60.8261 74.9587 60.1141C74.7168 57.9673 74.3091 54.912 73.7357 50.9483C73.2021 46.9808 72.8094 44.0849 72.5576 42.2604L71.4785 33.9851C71.3737 32.87 71.4233 31.9011 71.6272 31.0784C71.8311 30.2557 72.4109 29.7995 73.3667 29.7097C73.7251 29.676 73.9716 29.7332 74.106 29.8812C74.2367 29.9895 74.3208 30.2427 74.3582 30.641C74.5304 32.4729 75.0503 36.7229 75.9181 43.3909C76.8219 50.0154 77.4864 54.734 77.9114 57.5465C85.9988 48.2691 92.0934 43.4376 96.1954 43.0521C97.0317 42.9735 97.7436 43.0673 98.3311 43.3335C98.9546 43.5561 99.2814 43.8267 99.3113 44.1453C99.3637 44.7029 99.1411 45.3264 98.6434 46.016C98.1819 46.662 97.7121 47.0075 97.2342 47.0524ZM126.818 62.7129C126.993 65.4285 127.161 67.6425 127.322 69.3549C127.536 71.6249 127.83 73.6864 128.205 75.5395C128.352 76.2488 128.438 76.7429 128.465 77.0217C128.524 77.6588 128.436 78.2096 128.198 78.6738C127.964 79.1779 127.588 79.4543 127.071 79.503C126.354 79.5703 125.931 79.3489 125.803 78.8387C125.699 78.1654 125.541 77.1157 125.326 75.6895C125.155 74.2994 125.003 72.8875 124.868 71.4538L124.142 63.085C123.942 63.1037 123.566 63.1592 123.012 63.2514C122.498 63.3399 121.982 63.4085 121.465 63.4571C120.509 63.547 119.969 62.9348 119.846 61.6206C119.756 60.6648 119.95 60.1644 120.428 60.1195C120.587 60.1045 121.076 60.1791 121.895 60.3432C122.714 60.5073 123.402 60.5631 123.96 60.5107L122.311 43.6108C121.989 43.601 121.326 43.603 120.323 43.6169C119.316 43.591 118.561 43.4611 118.057 43.2273C117.592 42.9897 117.336 42.612 117.287 42.0943C117.19 41.0588 117.34 40.5224 117.739 40.485C118.177 40.4438 118.729 40.5526 119.397 40.8113C119.48 40.8436 119.73 40.9406 120.147 41.1023C120.56 41.2242 121.129 41.2913 121.853 41.3036C122.032 40.6439 122.21 40.1853 122.387 39.9276C122.603 39.6662 123.03 39.5055 123.667 39.4457C124.464 39.3708 124.877 39.4927 124.907 39.8113C124.918 39.9307 124.879 40.1554 124.79 40.4852C124.696 40.7752 124.663 41.0596 124.689 41.3384C127.192 41.4647 130.049 41.9395 133.26 42.7626C136.507 43.5422 139.344 44.6616 141.772 46.1209C144.239 47.5765 145.566 49.2999 145.753 51.2911C146.019 54.1186 144.392 56.4811 140.875 58.3786C137.357 60.2761 132.671 61.7209 126.818 62.7129ZM124.783 43.6196C125.08 45.9219 125.428 48.9828 125.827 52.8022C126.222 56.5818 126.478 59.0889 126.594 60.3234C128.983 60.0989 131.504 59.5606 134.156 58.7088C136.804 57.817 138.996 56.7674 140.73 55.5598C142.501 54.3086 143.326 53.0458 143.207 51.7714C143.049 50.0988 141.951 48.6753 139.913 47.5009C137.874 46.3266 135.459 45.4286 132.669 44.8069C129.918 44.1816 127.289 43.7858 124.783 43.6196ZM168.063 40.2149C167.785 40.2411 167.495 40.1478 167.193 39.935C166.932 39.7185 166.621 39.4062 166.262 38.9981C165.945 38.6261 165.535 38.3231 165.031 38.0893C164.567 37.8517 164.096 37.7553 163.618 37.8002C162.463 37.9088 161.054 39.588 159.391 42.8379C157.724 46.0479 156.171 50.0507 154.734 54.8463C154.86 55.7585 155.028 56.9078 155.239 58.2942C155.489 59.6768 155.666 60.7048 155.77 61.378L156.173 63.7507C156.226 64.3082 156.151 64.7973 155.95 65.218C155.752 65.6786 155.334 65.9388 154.697 65.9987C154.02 66.0623 153.498 65.2074 153.13 63.434C152.759 61.6208 152.391 58.9837 152.025 55.5227C151.903 54.6503 151.745 53.3996 151.552 51.7705C151.399 50.1377 151.175 48.1901 150.882 45.9276C150.441 42.5139 150.151 40.0703 150.013 38.5968C149.927 37.6808 150.441 37.1704 151.556 37.0656C152.233 37.002 152.66 37.2633 152.835 37.8494C153.047 38.392 153.229 39.4797 153.383 41.1125L154.276 50.6106C155.182 47.4318 156.227 44.6619 157.412 42.3007C158.596 39.9395 159.791 38.1197 160.997 36.8413C162.238 35.5193 163.377 34.8096 164.412 34.7123C165.289 34.63 166.144 34.7505 166.977 35.0739C167.811 35.3973 168.497 35.8551 169.035 36.4474C169.569 36.9999 169.862 37.5549 169.915 38.1124C169.948 38.4708 169.729 38.9133 169.256 39.4399C168.819 39.9228 168.422 40.1812 168.063 40.2149ZM201.943 58.2438C201.988 58.7217 201.841 59.298 201.503 59.9726C201.16 60.6074 200.79 60.9435 200.392 60.9809C199.715 61.0446 199.158 60.6751 198.721 59.8724C198.284 59.0698 198.013 58.1109 197.908 56.9959C197.818 56.0401 197.609 53.1671 197.279 48.3769L197.125 46.1013C197.039 45.1853 196.739 44.5507 196.223 44.1974C194.716 47.3925 193.29 50.1781 191.946 52.5542C190.603 54.9304 188.83 57.2263 186.628 59.4421C184.422 61.6181 182.004 62.8296 179.376 63.0766C178.102 63.1964 177.068 62.8917 176.277 62.1626C175.525 61.4297 175.089 60.4261 174.969 59.1517C174.82 57.5588 175.332 55.321 176.508 52.4383C177.68 49.5159 179.248 46.5361 181.212 43.4989C183.173 40.422 185.182 37.8627 187.24 35.8212C188.601 34.488 189.701 33.5811 190.54 33.1005C191.375 32.5801 192.131 32.288 192.808 32.2244C193.445 32.1645 194.121 32.3019 194.835 32.6365C195.55 32.9711 196.18 33.4744 196.725 34.1463C197.27 34.8182 197.586 35.6122 197.672 36.5282C197.788 37.7627 197.56 38.9694 196.988 40.1481L197.975 39.7539C198.413 39.7128 198.723 40.2261 198.903 41.2938C199.003 41.9273 199.165 43.2179 199.388 45.1655C199.651 47.1094 199.862 48.7167 200.022 49.9873C200.185 51.2978 200.345 52.5685 200.5 53.7993C200.656 55.0301 200.788 56.002 200.895 56.7151C200.961 56.9902 201.148 57.2739 201.457 57.5663C201.762 57.8188 201.924 58.0447 201.943 58.2438ZM195.168 41.9462C195.534 40.7066 195.651 39.3898 195.52 37.996C195.441 37.1597 195.115 36.4671 194.541 35.9184C194.003 35.3262 193.316 35.0693 192.48 35.1479C191.484 35.2415 190.274 36.0383 188.848 37.5383C187.198 39.22 185.497 41.4289 183.745 44.1648C181.99 46.8609 180.571 49.5052 179.489 52.0979C178.407 54.6905 177.933 56.7037 178.068 58.1373C178.18 59.3321 178.794 59.877 179.909 59.7722C182.06 59.5701 184.056 58.579 185.897 56.7989C187.739 55.0188 189.333 52.9605 190.68 50.6242C192.064 48.2443 193.56 45.3517 195.168 41.9462ZM221.825 50.9514C219.99 53.6549 218.3 55.7623 216.755 57.2736C215.249 58.7811 213.6 59.619 211.808 59.7875C210.295 59.9297 208.979 59.3905 207.86 58.1698C206.78 56.9455 206.16 55.477 205.999 53.7646C205.76 51.2158 206.133 47.9264 207.121 43.8964C208.108 39.8663 209.502 36.3203 211.304 33.2583C213.105 30.1963 215.041 28.568 217.112 28.3733C217.988 28.291 218.775 28.5385 219.472 29.1158C219.864 29.4405 220.247 29.8866 220.622 30.454C220.997 31.0215 221.207 31.5441 221.252 32.022C221.315 32.699 221.291 33.5049 221.177 34.4396C221.101 35.3307 220.963 35.7856 220.763 35.8043C220.365 35.8417 220.086 35.647 219.925 35.2202C219.764 34.7933 219.632 34.2433 219.529 33.57C219.312 32.5458 219.129 31.88 218.98 31.5726C218.826 31.2254 218.63 31.0631 218.391 31.0855C216.52 31.2614 214.831 32.746 213.326 35.5391C211.817 38.2923 210.668 41.4537 209.878 45.0233C209.085 48.553 208.776 51.2537 208.952 53.1255C209.199 55.7539 210.199 56.9857 211.951 56.8211C213.226 56.7013 214.351 56.2741 215.326 55.5396C216.342 54.8014 217.372 53.8005 218.419 52.5371C220.363 50.1446 221.858 48.0958 222.903 46.3905C222.972 46.2635 223.163 45.9443 223.476 45.4327C223.826 44.8775 224.08 44.5925 224.24 44.5775C224.717 44.5326 224.973 44.6893 225.007 45.0478C225.029 45.2867 224.68 46.0628 223.96 47.3759C223.28 48.6853 222.568 49.8772 221.825 50.9514ZM253.284 56.6728C252.488 56.7477 251.673 55.9806 250.838 54.3716C250.044 52.7589 249.483 51.0639 249.155 49.2868C248.835 47.5893 248.39 44.1358 247.82 38.9263C247.701 38.0937 247.603 37.2593 247.524 36.4229C247.442 35.5468 247.353 34.8119 247.257 34.2183C246.36 37.0747 245.081 40.3488 243.419 44.0405C241.757 47.7322 240.029 50.928 238.233 53.6278C236.478 56.3239 234.963 57.7318 233.689 57.8516C232.375 57.9751 231.433 57.3605 230.864 56.0078C230.335 54.6514 229.928 52.4598 229.643 49.4332C229.377 46.6056 229.435 43.3661 229.815 39.7145C230.234 36.0592 230.834 33.2507 231.614 31.2892C231.934 30.4154 232.22 29.8261 232.472 29.5211C232.721 29.1763 233.025 28.9871 233.383 28.9534C234.379 28.8598 234.895 29.0121 234.933 29.4104C234.952 29.6095 234.796 30.0862 234.465 30.8405C233.577 32.9327 232.865 35.4102 232.331 38.2727C231.796 41.1353 231.75 44.9163 232.191 49.6155C232.487 52.7617 233.073 54.2936 233.949 54.2112C234.985 54.1139 236.272 52.8479 237.811 50.4132C239.386 47.935 240.9 45.0205 242.353 41.6699C243.805 38.3192 244.879 35.4261 245.575 32.9903C245.818 32.1639 246.061 30.8956 246.302 29.1856C246.358 28.4973 246.432 28.0082 246.525 27.7182C246.615 27.3884 246.739 27.216 246.899 27.201C247.337 27.1599 247.831 27.2942 248.383 27.6039C248.934 27.9137 249.229 28.2677 249.266 28.6659C249.446 30.5775 249.814 33.8574 250.372 38.5057C250.965 43.1103 251.446 46.2994 251.813 48.0727C252.118 49.6109 252.511 50.7994 252.992 51.6381C253.512 52.4731 253.996 53.1307 254.443 53.611C254.886 54.0514 255.113 54.3314 255.125 54.4509C255.184 55.0881 255.052 55.6027 254.727 55.9948C254.403 56.3869 253.922 56.6129 253.284 56.6728ZM258.914 15.8871C258.157 15.9582 257.46 15.8028 256.821 15.4209C256.179 14.9991 255.652 14.5263 255.242 14.0025C254.831 13.4786 254.612 13.0773 254.586 12.7985C254.545 12.3604 254.705 11.9236 255.066 11.4879C255.466 11.0485 255.886 10.8082 256.324 10.767C256.602 10.7408 256.854 10.8577 257.08 11.1178C257.341 11.3343 257.636 11.6883 257.963 12.1798C258.294 12.7112 258.612 13.1031 258.917 13.3557C259.048 13.4639 259.311 13.7003 259.707 14.0649C260.139 14.3859 260.361 14.6061 260.372 14.7256C260.435 15.4026 259.95 15.7898 258.914 15.8871ZM260.91 66.6229C259.238 66.7801 257.776 66.6162 256.525 66.1311C255.278 65.6858 254.318 65.093 253.646 64.3527C252.974 63.6123 252.604 62.8837 252.537 62.1669C252.507 61.8483 252.616 61.5166 252.865 61.1718C253.074 60.8308 253.258 60.6527 253.417 60.6378C253.656 60.6153 253.865 60.6962 254.043 60.8803C254.181 61.0682 254.296 61.2181 254.386 61.3301C255.284 62.3305 256.157 63.0721 257.006 63.5548C257.815 64.0412 258.777 64.232 259.892 64.1272C261.645 63.9625 262.803 63.251 263.368 61.9926C263.936 60.7741 264.106 58.9502 263.878 56.5209C263.755 55.2067 263.502 53.5832 263.119 51.6505C262.773 49.6743 262.417 47.8194 262.054 46.0858C261.961 45.532 261.849 44.9801 261.717 44.43C261.585 43.88 261.473 43.328 261.381 42.7742C260.887 40.0886 260.192 36.96 259.293 33.3884C258.644 30.7576 258.288 29.1037 258.224 28.4266C258.172 27.8691 258.198 27.5051 258.303 27.3345C258.403 27.1242 258.713 26.9947 259.23 26.946C259.947 26.8787 260.532 27.3259 260.984 28.2879C261.472 29.2062 261.889 30.6535 262.235 32.6298C262.619 35.0043 263.301 38.4154 264.282 42.8632C265.767 50.116 266.579 54.4792 266.717 55.9527C267.032 59.298 266.65 61.8649 265.573 63.6536C264.496 65.4422 262.941 66.432 260.91 66.6229ZM294.78 37.2849C294.847 38.0018 294.458 39.6254 293.611 42.1557C292.804 44.6823 291.422 47.0821 289.466 49.3551C287.55 51.6244 285.039 52.905 281.933 53.1969C279.384 53.4365 277.178 52.8402 275.316 51.4082C273.454 49.9761 272.368 47.6074 272.057 44.302C271.765 41.1956 272.194 38.0618 273.343 34.9004C274.488 31.6992 276.126 29.0342 278.256 26.9055C280.383 24.7371 282.681 23.5368 285.15 23.3047C286.623 23.1662 287.89 23.3887 288.949 23.9722C290.044 24.5121 290.65 25.3993 290.766 26.6338C290.897 28.0277 290.228 29.4566 288.758 30.9205C287.329 32.3807 285.406 33.7265 282.991 34.9579C280.575 36.1893 278.054 37.1494 275.427 37.8383C275.121 39.7151 275.051 41.5297 275.215 43.2819C275.433 45.5918 276.139 47.3333 277.334 48.5067C278.568 49.6763 280.201 50.1656 282.232 49.9747C285.299 49.6865 287.685 48.3574 289.391 45.9874C291.096 43.6174 292.457 40.9986 293.474 38.1309C293.538 37.9641 293.65 37.6523 293.807 37.1956C293.962 36.699 294.118 36.4432 294.278 36.4282C294.557 36.402 294.724 36.6876 294.78 37.2849ZM284.663 25.8213C283.15 25.9635 281.743 26.598 280.443 27.7246C279.142 28.8512 278.08 30.1563 277.255 31.64C276.47 33.12 275.989 34.4107 275.811 35.5121C277.624 35.1408 279.507 34.4416 281.459 33.4144C283.412 32.3872 285.018 31.3122 286.279 30.1893C287.579 29.0627 288.199 28.1808 288.139 27.5436C288.08 26.9064 287.694 26.4404 286.984 26.1456C286.313 25.8471 285.539 25.739 284.663 25.8213ZM336.907 48.9342C336.19 49.0016 335.798 48.6768 335.731 47.96C334.975 39.9154 334.137 33.7869 333.219 29.5743C332.297 25.3219 331.199 23.2556 329.925 23.3754C327.774 23.5775 325.334 31.3801 322.603 46.7832L322.609 46.8429C322.654 47.3208 322.534 47.754 322.249 48.1423C321.96 48.4909 321.557 48.6895 321.039 48.7381C320.322 48.8055 319.93 48.4807 319.863 47.7639C319.713 46.1709 319.561 43.6943 319.405 40.3341C319.213 36.5756 319.016 33.6211 318.814 31.4706C318.533 28.4838 318.235 26.3824 317.92 25.1666C317.641 23.9072 317.202 23.3055 316.605 23.3617C315.251 23.4889 313.773 26.1389 312.169 31.3116C310.563 36.4445 308.941 42.4827 307.303 49.4264L306.912 51.0301C306.79 51.4433 306.583 51.8043 306.29 52.113C306.038 52.418 305.732 52.5873 305.374 52.621C304.896 52.6659 304.573 52.656 304.407 52.5913C304.24 52.5267 304.118 52.2971 304.041 51.9026C303.658 49.9699 303.254 47.3763 302.827 44.122C302.669 43.2931 302.46 41.9267 302.201 40.0226C301.17 33.3297 300.385 28.8234 299.846 26.5037C299.302 24.1441 299.018 22.825 298.991 22.5462C298.962 22.2276 299.085 21.8343 299.363 21.3663C299.64 20.8983 299.918 20.6512 300.197 20.625C300.834 20.5651 301.395 20.9744 301.879 21.853C302.12 22.2723 302.503 24.004 303.03 27.048C303.558 30.0921 304.114 33.8766 304.7 38.4016L305.858 47.5133C307.412 40.5372 309.105 34.1909 310.939 28.4743C312.768 22.7179 314.658 19.748 316.61 19.5646C317.924 19.441 318.91 20.3126 319.567 22.1793C320.225 24.0459 320.724 26.7913 321.065 30.4153C321.244 32.3269 321.463 35.0785 321.72 38.6702L321.918 41.4237C323.016 35.5754 324.18 30.6448 325.41 26.6321C326.679 22.6157 328.131 20.5308 329.764 20.3773C333.865 19.9918 336.77 28.879 338.477 47.039C338.521 47.5169 338.4 47.9301 338.111 48.2787C337.826 48.667 337.425 48.8855 336.907 48.9342ZM362.779 24.7472C362.63 28.2967 362.557 30.2923 362.558 30.7341C362.501 35.6812 362.474 39.4603 362.478 42.0713C362.519 44.6388 362.636 46.958 362.831 49.0289C362.992 50.7413 363.239 52.0841 363.571 53.0573C363.944 54.0267 364.295 54.7771 364.626 55.3084C365.001 55.8758 365.194 56.2193 365.205 56.3387C365.239 56.6972 364.95 57.0457 364.339 57.3844C363.728 57.723 363.084 57.9242 362.407 57.9878C361.89 58.0365 361.406 57.3788 360.956 56.0149C360.547 54.6472 360.203 52.4899 359.926 49.5429C359.717 47.3127 359.653 44.2854 359.736 40.4609L359.857 32.133C358.976 34.3049 357.829 36.4215 356.416 38.4828C355.039 40.5006 353.514 41.588 351.841 41.7452C350.288 41.8912 348.767 40.6682 347.278 38.0761C345.789 35.4841 344.525 32.5093 343.486 29.1518C342.487 25.7905 341.913 23.3134 341.763 21.7204C341.67 20.7248 341.922 20.1989 342.519 20.1427C343.395 20.0604 344.029 20.8244 344.422 22.4347C346.976 33.3637 349.607 38.701 352.315 38.4465C353.39 38.3454 354.286 37.8393 355.004 36.9281C355.758 35.9734 356.609 34.5476 357.555 32.6506C357.994 31.7657 358.447 30.5982 358.914 29.1482C359.38 27.6982 359.729 26.5002 359.962 25.5543L359.813 19.4816C359.807 18.5582 359.866 17.9097 359.992 17.5364C360.114 17.1231 360.414 16.8941 360.891 16.8492C361.29 16.8117 361.71 17.0132 362.154 17.4537C362.593 17.8544 362.833 18.2737 362.874 18.7118C362.96 19.6277 362.929 21.6396 362.779 24.7472Z" fill="#579FFF"/>
</svg>
