<svg width="1142" height="146" viewBox="0 0 1142 146" fill="none" xmlns="http://www.w3.org/2000/svg">
<path d="M1108.24 75.9887L1108.35 76.476L1108.24 75.9887ZM330.14 99.3547L330.13 98.8548L330.14 99.3547ZM0.500322 144.982C0.490414 145.258 0.706095 145.49 0.982059 145.5L5.47916 145.661C5.75513 145.671 5.98687 145.455 5.99678 145.179C6.00669 144.903 5.79101 144.672 5.51504 144.662L1.51762 144.518L1.66114 140.521C1.67105 140.245 1.45537 140.013 1.17941 140.003C0.903441 139.993 0.671695 140.209 0.661787 140.485L0.500322 144.982ZM1.34064 145.366C1.86486 144.878 2.49446 144.366 3.23531 143.831L2.65007 143.02C1.88222 143.574 1.21936 144.113 0.65936 144.634L1.34064 145.366ZM7.50298 141.194C8.82566 140.475 10.3174 139.731 11.9857 138.968L11.5695 138.058C9.8833 138.83 8.3708 139.584 7.02533 140.315L7.50298 141.194ZM16.651 136.969C18.1285 136.374 19.7078 135.769 21.3921 135.157L21.0504 134.217C19.3563 134.833 17.7662 135.442 16.2773 136.041L16.651 136.969ZM26.1672 133.496C27.6948 132.987 29.2938 132.473 30.9657 131.957L30.6704 131.001C28.9918 131.52 27.3859 132.036 25.851 132.548L26.1672 133.496ZM35.7916 130.515C37.3568 130.063 38.9779 129.609 40.6557 129.154L40.3938 128.189C38.7109 128.646 37.0847 129.101 35.5141 129.555L35.7916 130.515ZM45.5717 127.858C47.1725 127.448 48.8198 127.038 50.5143 126.627L50.2786 125.655C48.5801 126.067 46.9287 126.479 45.3236 126.89L45.5717 127.858ZM55.3957 125.473C57.0105 125.101 58.6646 124.729 60.3584 124.357L60.1441 123.38C58.4469 123.753 56.7894 124.126 55.1711 124.499L55.3957 125.473ZM65.3181 123.294C66.9301 122.956 68.5754 122.619 70.2547 122.283L70.0583 121.302C68.3762 121.639 66.728 121.977 65.1131 122.315L65.3181 123.294ZM75.2868 121.297C76.8964 120.988 78.5351 120.681 80.2032 120.374L80.0224 119.391C78.3518 119.698 76.7107 120.006 75.0986 120.315L75.2868 121.297ZM85.2588 119.464C86.8742 119.179 88.5156 118.895 90.1833 118.613L90.0162 117.627C88.3463 117.91 86.7027 118.194 85.0852 118.479L85.2588 119.464ZM95.2541 117.77C96.8744 117.507 98.5184 117.244 100.186 116.982L100.031 115.994C98.3616 116.256 96.7157 116.519 95.0933 116.783L95.2541 117.77ZM105.261 116.202C106.89 115.956 108.54 115.712 110.211 115.469L110.068 114.479C108.394 114.723 106.742 114.967 105.112 115.213L105.261 116.202ZM115.264 114.748C116.91 114.518 118.577 114.289 120.264 114.061L120.13 113.07C118.441 113.298 116.773 113.527 115.126 113.758L115.264 114.748ZM125.283 113.396C126.953 113.178 128.642 112.962 130.351 112.748L130.227 111.755C128.516 111.97 126.826 112.186 125.154 112.404L125.283 113.396ZM135.329 112.134C137.007 111.931 138.702 111.729 140.416 111.529L140.3 110.535C138.585 110.736 136.888 110.938 135.209 111.141L135.329 112.134ZM145.415 110.955C147.075 110.768 148.751 110.582 150.444 110.398L150.336 109.404C148.642 109.588 146.964 109.774 145.303 109.961L145.415 110.955ZM155.553 109.852C157.194 109.679 158.851 109.508 160.523 109.339L160.422 108.344C158.749 108.514 157.091 108.685 155.449 108.857L155.553 109.852ZM165.584 108.835C167.263 108.671 168.957 108.508 170.666 108.347L170.572 107.352C168.862 107.513 167.167 107.676 165.487 107.84L165.584 108.835ZM175.657 107.885C177.335 107.732 179.027 107.581 180.734 107.431L180.646 106.435C178.939 106.584 177.246 106.736 175.567 106.889L175.657 107.885ZM185.809 106.993C187.463 106.853 189.129 106.715 190.809 106.578L190.728 105.581C189.047 105.718 187.38 105.857 185.725 105.997L185.809 106.993ZM195.887 106.171C197.571 106.038 199.269 105.907 200.979 105.778L200.903 104.781C199.192 104.91 197.494 105.041 195.809 105.174L195.887 106.171ZM205.975 105.406C207.652 105.284 209.342 105.163 211.044 105.043L210.974 104.046C209.271 104.166 207.581 104.287 205.902 104.409L205.975 105.406ZM216.173 104.69C217.823 104.579 219.484 104.469 221.157 104.36L221.092 103.362C219.419 103.471 217.757 103.581 216.106 103.692L216.173 104.69ZM226.208 104.038C227.903 103.932 229.609 103.828 231.327 103.725L231.267 102.727C229.548 102.83 227.841 102.934 226.146 103.04L226.208 104.038ZM236.36 103.429C238.025 103.333 239.701 103.239 241.386 103.146L241.331 102.147C239.645 102.24 237.968 102.335 236.303 102.431L236.36 103.429ZM246.475 102.87C248.171 102.781 249.877 102.692 251.593 102.606L251.542 101.607C249.825 101.694 248.119 101.782 246.423 101.872L246.475 102.87ZM256.588 102.358C258.263 102.277 259.948 102.197 261.643 102.119L261.596 101.12C259.901 101.198 258.216 101.278 256.54 101.359L256.588 102.358ZM266.756 101.887C268.436 101.813 270.126 101.74 271.825 101.669L271.783 100.67C270.083 100.741 268.393 100.814 266.712 100.888L266.756 101.887ZM276.84 101.463C278.521 101.395 280.211 101.329 281.91 101.265L281.872 100.265C280.172 100.33 278.482 100.396 276.8 100.464L276.84 101.463ZM287.035 101.074C288.708 101.014 290.39 100.955 292.081 100.897L292.047 99.8977C290.355 99.9556 288.673 100.015 286.999 100.075L287.035 101.074ZM297.105 100.73C298.788 100.676 300.48 100.622 302.181 100.571L302.15 99.571C300.449 99.6229 298.757 99.6761 297.073 99.7305L297.105 100.73ZM307.308 100.419C308.982 100.371 310.664 100.324 312.354 100.279L312.327 99.2793C310.636 99.3247 308.954 99.3714 307.279 99.4194L307.308 100.419ZM317.378 100.148C319.061 100.106 320.752 100.065 322.451 100.025L322.428 99.0253C320.728 99.0651 319.037 99.1062 317.353 99.1485L317.378 100.148ZM327.572 99.9095C328.43 99.8909 329.289 99.8726 330.151 99.8546L330.13 98.8548C329.268 98.8728 328.408 98.8911 327.55 98.9097L327.572 99.9095ZM330.151 99.8546C330.971 99.8375 331.792 99.8204 332.614 99.8034L332.594 98.8036C331.771 98.8206 330.95 98.8377 330.13 98.8548L330.151 99.8546ZM337.561 99.7016C339.215 99.6678 340.872 99.6341 342.534 99.6006L342.514 98.6008C340.852 98.6343 339.194 98.668 337.541 98.7018L337.561 99.7016ZM347.532 99.5004C349.203 99.4672 350.877 99.434 352.556 99.401L352.536 98.4012C350.857 98.4342 349.183 98.4674 347.513 98.5006L347.532 99.5004ZM357.598 99.3025C359.242 99.2706 360.889 99.2388 362.54 99.2071L362.521 98.2073C360.87 98.2389 359.222 98.2708 357.579 98.3027L357.598 99.3025ZM367.505 99.1123C369.164 99.0809 370.826 99.0495 372.491 99.0182L372.472 98.0184C370.807 98.0497 369.145 98.081 367.486 98.1125L367.505 99.1123ZM377.498 98.9248C379.171 98.8938 380.847 98.8628 382.526 98.832L382.508 97.8322C380.828 97.863 379.152 97.894 377.48 97.925L377.498 98.9248ZM387.526 98.7407C389.175 98.7107 390.827 98.6808 392.483 98.6511L392.465 97.6512C390.809 97.681 389.157 97.7109 387.508 97.7409L387.526 98.7407ZM397.458 98.562C399.12 98.5324 400.784 98.5028 402.451 98.4734L402.434 97.4735C400.766 97.503 399.102 97.5325 397.44 97.5621L397.458 98.562ZM407.462 98.3853C409.135 98.3561 410.81 98.3269 412.489 98.2978L412.471 97.2979C410.793 97.327 409.117 97.3562 407.444 97.3855L407.462 98.3853ZM417.467 98.2118C419.12 98.1834 420.775 98.155 422.434 98.1267L422.416 97.1269C420.758 97.1552 419.103 97.1835 417.449 97.212L417.467 98.2118ZM427.415 98.0421C429.078 98.0139 430.744 97.9859 432.411 97.9578L432.395 96.958C430.727 96.986 429.061 97.0141 427.398 97.0422L427.415 98.0421ZM437.421 97.874C439.094 97.8461 440.768 97.8183 442.445 97.7905L442.428 96.7906C440.751 96.8184 439.077 96.8462 437.405 96.8741L437.421 97.874ZM447.415 97.7084C449.071 97.6812 450.729 97.654 452.388 97.6269L452.372 96.627C450.712 96.6541 449.054 96.6813 447.398 96.7086L447.415 97.7084ZM457.374 97.5456C459.038 97.5186 460.703 97.4916 462.37 97.4646L462.354 96.4648C460.687 96.4917 459.021 96.5187 457.358 96.5457L457.374 97.5456ZM467.378 97.3839C469.049 97.3571 470.722 97.3303 472.396 97.3035L472.38 96.3036C470.706 96.3304 469.033 96.3572 467.362 96.3841L467.378 97.3839ZM477.367 97.2242C479.025 97.1978 480.685 97.1715 482.346 97.1452L482.33 96.1453C480.669 96.1716 479.009 96.198 477.351 96.2243L477.367 97.2242ZM487.333 97.0664C488.997 97.0401 490.662 97.0139 492.329 96.9877L492.313 95.9879C490.646 96.014 488.981 96.0402 487.317 96.0665L487.333 97.0664ZM497.333 96.9093C499.002 96.8832 500.673 96.8571 502.344 96.831L502.329 95.8311C500.657 95.8572 498.986 95.8833 497.317 95.9094L497.333 96.9093ZM507.321 96.7535C508.981 96.7277 510.642 96.7019 512.304 96.6761L512.288 95.6763C510.626 95.702 508.965 95.7278 507.306 95.7536L507.321 96.7535ZM517.292 96.5989C518.956 96.5732 520.621 96.5475 522.287 96.5218L522.271 95.5219C520.606 95.5476 518.941 95.5733 517.277 95.599L517.292 96.5989ZM527.287 96.4447C528.955 96.419 530.623 96.3934 532.292 96.3677L532.277 95.3678C530.608 95.3935 528.939 95.4192 527.272 95.4448L527.287 96.4447ZM537.276 96.2912C538.937 96.2657 540.599 96.2402 542.262 96.2147L542.247 95.2148C540.584 95.2403 538.922 95.2658 537.26 95.2913L537.276 96.2912ZM547.252 96.1382C548.916 96.1127 550.58 96.0873 552.245 96.0618L552.23 95.0619C550.565 95.0874 548.9 95.1129 547.236 95.1384L547.252 96.1382ZM557.241 95.9853C558.907 95.9598 560.574 95.9343 562.24 95.9088L562.225 94.9089C560.558 94.9344 558.892 94.9599 557.226 94.9854L557.241 95.9853ZM567.23 95.8325C568.893 95.807 570.557 95.7815 572.22 95.7561L572.205 94.7562C570.541 94.7817 568.878 94.8071 567.215 94.8326L567.23 95.8325ZM577.211 95.6796C578.875 95.6541 580.539 95.6286 582.204 95.6031L582.188 94.6032C580.524 94.6287 578.86 94.6542 577.196 94.6797L577.211 95.6796ZM587.197 95.5264C588.861 95.5009 590.525 95.4753 592.19 95.4497L592.174 94.4498C590.51 94.4754 588.846 94.501 587.181 94.5266L587.197 95.5264ZM597.184 95.3728C598.849 95.3471 600.513 95.3214 602.178 95.2957L602.162 94.2958C600.498 94.3215 598.833 94.3472 597.169 94.3729L597.184 95.3728ZM607.171 95.2185C608.835 95.1927 610.499 95.1669 612.163 95.1411L612.147 94.1412C610.484 94.167 608.82 94.1928 607.156 94.2186L607.171 95.2185ZM617.153 95.0635C618.816 95.0376 620.478 95.0117 622.14 94.9857L622.125 93.9858C620.463 94.0118 618.8 94.0377 617.137 94.0636L617.153 95.0635ZM627.137 94.9075C628.803 94.8814 630.47 94.8552 632.135 94.829L632.12 93.8291C630.454 93.8554 628.788 93.8815 627.121 93.9076L627.137 94.9075ZM637.13 94.7503C638.795 94.724 640.459 94.6976 642.122 94.6712L642.106 93.6714C640.443 93.6978 638.779 93.7241 637.115 93.7504L637.13 94.7503ZM647.109 94.5919C648.771 94.5655 650.432 94.5389 652.092 94.5123L652.076 93.5125C650.416 93.539 648.755 93.5656 647.093 93.5921L647.109 94.5919ZM657.089 94.4321C658.757 94.4052 660.425 94.3783 662.092 94.3514L662.076 93.3515C660.409 93.3785 658.741 93.4054 657.073 93.4322L657.089 94.4321ZM667.09 94.2703C668.755 94.2432 670.419 94.216 672.081 94.1888L672.065 93.1889C670.402 93.2161 668.738 93.2433 667.074 93.2704L667.09 94.2703ZM677.066 94.107C678.726 94.0796 680.386 94.0522 682.044 94.0247L682.027 93.0249C680.369 93.0523 678.71 93.0798 677.049 93.1071L677.066 94.107ZM687.04 93.9416C688.711 93.9138 690.381 93.8858 692.049 93.8578L692.032 92.8579C690.364 92.8859 688.695 92.9139 687.024 92.9418L687.04 93.9416ZM697.049 93.7735C698.714 93.7453 700.378 93.7171 702.04 93.6887L702.023 92.6889C700.361 92.7172 698.697 92.7455 697.032 92.7736L697.049 93.7735ZM707.022 93.6035C708.681 93.575 710.338 93.5464 711.994 93.5178L711.977 92.5179C710.321 92.5466 708.664 92.5751 707.005 92.6036L707.022 93.6035ZM716.993 93.4309C718.666 93.4017 720.337 93.3724 722.006 93.343L721.989 92.3431C720.32 92.3725 718.649 92.4018 716.976 92.431L716.993 93.4309ZM727.008 93.2546C728.674 93.225 730.337 93.1953 731.998 93.1656L731.98 92.1657C730.319 92.1955 728.656 92.2252 726.991 92.2547L727.008 93.2546ZM736.976 93.076C738.634 93.046 740.289 93.0159 741.942 92.9858L741.924 91.9859C740.271 92.0161 738.615 92.0462 736.958 92.0761L736.976 93.076ZM746.949 92.894C748.623 92.8631 750.295 92.8321 751.965 92.801L751.947 91.8012C750.277 91.8323 748.605 91.8633 746.93 91.8941L746.949 92.894ZM756.968 92.7074C758.633 92.6761 760.295 92.6447 761.955 92.6131L761.936 91.6133C760.276 91.6449 758.614 91.6763 756.949 91.7076L756.968 92.7074ZM766.927 92.5181C768.582 92.4864 770.234 92.4544 771.884 92.4224L771.864 91.4226C770.215 91.4546 768.563 91.4865 766.908 91.5183L766.927 92.5181ZM776.908 92.3243C778.584 92.2914 780.256 92.2583 781.926 92.2251L781.906 91.2253C780.237 91.2585 778.564 91.2916 776.889 91.3245L776.908 92.3243ZM786.926 92.1252C788.59 92.0917 790.251 92.0581 791.908 92.0244L791.888 91.0246C790.23 91.0583 788.57 91.0919 786.906 91.1254L786.926 92.1252ZM796.871 91.9228C798.529 91.8886 800.185 91.8543 801.836 91.8198L801.815 90.8201C800.164 90.8545 798.509 90.8888 796.851 90.923L796.871 91.9228ZM806.873 91.7141C808.548 91.6787 810.22 91.6431 811.888 91.6074L811.867 90.6076C810.199 90.6433 808.527 90.6789 806.852 90.7143L806.873 91.7141ZM816.882 91.4997C818.543 91.4637 820.2 91.4274 821.854 91.391L821.832 90.3913C820.179 90.4277 818.521 90.4639 816.861 90.4999L816.882 91.4997ZM826.803 91.2814C828.476 91.2441 830.145 91.2066 831.809 91.1689L831.787 90.1691C830.122 90.2068 828.453 90.2443 826.78 90.2816L826.803 91.2814ZM836.842 91.0541C838.515 91.0157 840.185 90.977 841.849 90.9382L841.826 89.9385C840.161 89.9773 838.492 90.0159 836.819 90.0544L836.842 91.0541ZM846.83 90.8212C848.486 90.782 850.138 90.7426 851.784 90.703L851.76 89.7033C850.114 89.7429 848.462 89.7823 846.806 89.8215L846.83 90.8212ZM856.74 90.5829C858.428 90.5417 860.112 90.5002 861.79 90.4586L861.766 89.4589C860.087 89.5005 858.404 89.542 856.715 89.5832L856.74 90.5829ZM866.811 90.3329C868.479 90.2908 870.143 90.2485 871.8 90.2059L871.775 89.2062C870.117 89.2488 868.454 89.2911 866.786 89.3332L866.811 90.3329ZM876.759 90.0776C878.406 90.0345 880.048 89.9913 881.685 89.9478L881.658 88.9482C880.022 88.9917 878.38 89.0349 876.732 89.0779L876.759 90.0776ZM886.739 89.8124C888.422 89.7668 890.099 89.7211 891.771 89.675L891.743 88.6754C890.072 88.7214 888.395 88.7672 886.712 88.8127L886.739 89.8124ZM896.766 89.5361C898.425 89.4895 900.078 89.4427 901.724 89.3956L901.696 88.396C900.049 88.4431 898.397 88.4899 896.738 88.5365L896.766 89.5361ZM906.645 89.2535C908.334 89.2043 910.017 89.1547 911.693 89.1049L911.664 88.1053C909.988 88.1551 908.305 88.2047 906.615 88.254L906.645 89.2535ZM916.732 88.9534C918.404 88.9027 920.069 88.8516 921.727 88.8002L921.696 87.8007C920.038 87.8521 918.374 87.9031 916.702 87.9539L916.732 88.9534ZM926.678 88.6451C928.321 88.5931 929.956 88.5408 931.584 88.4882L931.552 87.4887C929.924 87.5413 928.289 87.5936 926.646 87.6456L926.678 88.6451ZM936.661 88.3221C938.348 88.2663 940.026 88.2102 941.696 88.1537L941.663 87.1543C939.993 87.2108 938.315 87.2669 936.628 87.3227L936.661 88.3221ZM946.68 87.9831C948.333 87.9258 949.976 87.8682 951.611 87.8103L951.576 86.8109C949.941 86.8689 948.298 86.9265 946.645 86.9837L946.68 87.9831ZM956.564 87.6325C958.267 87.5707 959.959 87.5084 961.641 87.4457L961.604 86.4464C959.922 86.5091 958.23 86.5713 956.528 86.6332L956.564 87.6325ZM966.657 87.2563C968.319 87.1928 969.97 87.1288 971.611 87.0644L971.572 86.0652C969.931 86.1296 968.281 86.1935 966.619 86.2571L966.657 87.2563ZM976.501 86.8698C978.205 86.8011 979.897 86.7319 981.577 86.6622L981.536 85.6631C979.856 85.7328 978.165 85.802 976.461 85.8707L976.501 86.8698ZM986.621 86.45C988.289 86.3787 989.945 86.3069 991.589 86.2346L991.545 85.2355C989.902 85.3078 988.246 85.3796 986.578 85.4509L986.621 86.45ZM996.481 86.0161C998.176 85.9392 999.856 85.8618 1001.52 85.7838L1001.48 84.7849C999.81 84.8628 998.13 84.9403 996.436 85.0171L996.481 86.0161ZM1006.58 85.5429C1008.25 85.462 1009.91 85.3805 1011.55 85.2984L1011.5 84.2996C1009.86 84.3818 1008.2 84.4632 1006.53 84.5441L1006.58 85.5429ZM1016.42 85.05C1018.13 84.9614 1019.82 84.872 1021.49 84.7819L1021.44 83.7834C1019.77 83.8734 1018.08 83.9628 1016.37 84.0513L1016.42 85.05ZM1026.54 84.5049C1028.2 84.4118 1029.85 84.3179 1031.47 84.2232L1031.41 83.2249C1029.79 83.3195 1028.15 83.4134 1026.48 83.5064L1026.54 84.5049ZM1036.36 83.9324C1038.09 83.8272 1039.8 83.721 1041.49 83.6139L1041.42 82.6159C1039.74 82.723 1038.03 82.8291 1036.3 82.9342L1036.36 83.9324ZM1046.47 83.2896C1048.11 83.1805 1049.72 83.0704 1051.31 82.9593L1051.24 81.9617C1049.65 82.0727 1048.04 82.1828 1046.4 82.2918L1046.47 83.2896ZM1056.42 82.5917C1058.12 82.4661 1059.79 82.3392 1061.43 82.2111L1061.35 81.2142C1059.72 81.3422 1058.05 81.4689 1056.35 81.5944L1056.42 82.5917ZM1066.25 81.823C1068 81.6777 1069.71 81.5308 1071.38 81.3823L1071.29 80.3862C1069.62 80.5346 1067.91 80.6813 1066.17 80.8264L1066.25 81.823ZM1076.34 80.9247C1078.01 80.7651 1079.64 80.6037 1081.21 80.4404L1081.11 79.4458C1079.54 79.6088 1077.92 79.7699 1076.25 79.9292L1076.34 80.9247ZM1086.33 79.8857C1087.98 79.6983 1089.56 79.5086 1091.09 79.3165L1090.97 78.3243C1089.44 78.5159 1087.86 78.7052 1086.22 78.8921L1086.33 79.8857ZM1096.26 78.624C1097.92 78.3857 1099.5 78.1438 1100.98 77.8981L1100.82 76.9115C1099.34 77.1559 1097.78 77.3967 1096.12 77.6341L1096.26 78.624ZM1106.11 76.9592C1106.89 76.7998 1107.64 76.6387 1108.35 76.476L1108.13 75.5014C1107.43 75.662 1106.69 75.8214 1105.91 75.9794L1106.11 76.9592ZM1108.35 76.476C1109.2 76.2798 1110.04 76.0763 1110.86 75.8656L1110.61 74.8973C1109.8 75.1057 1108.97 75.3071 1108.13 75.5014L1108.35 76.476ZM1115.72 74.4586C1117.39 73.9146 1118.98 73.3359 1120.47 72.7246L1120.09 71.7992C1118.62 72.4004 1117.06 72.9706 1115.41 73.5073L1115.72 74.4586ZM1125.05 70.5991C1126.64 69.7681 1128.09 68.8918 1129.43 67.9742L1128.86 67.1508C1127.56 68.044 1126.14 68.8998 1124.59 69.7135L1125.05 70.5991ZM1133.4 64.7827C1134.7 63.5578 1135.83 62.2784 1136.79 60.9519L1135.99 60.3632C1135.06 61.6375 1133.97 62.8705 1132.71 64.0547L1133.4 64.7827ZM1139.36 56.5229C1140.07 54.9385 1140.59 53.3088 1140.94 51.6455L1139.96 51.4399C1139.62 53.0366 1139.12 54.5986 1138.45 56.116L1139.36 56.5229ZM1141.5 46.5557C1141.52 44.8746 1141.41 43.1734 1141.17 41.4624L1140.18 41.6022C1140.41 43.2662 1140.52 44.9148 1140.5 46.5387L1141.5 46.5557ZM1140.13 36.481C1139.69 34.8705 1139.15 33.2592 1138.54 31.6555L1137.6 32.0146C1138.21 33.5898 1138.73 35.1691 1139.16 36.7442L1140.13 36.481ZM1136.51 26.9992C1135.79 25.4899 1135 23.9941 1134.15 22.519L1133.29 23.0142C1134.12 24.471 1134.9 25.9466 1135.61 27.4337L1136.51 26.9992ZM1131.52 18.1979C1130.59 16.7807 1129.63 15.3903 1128.65 14.0338L1127.84 14.6222C1128.81 15.9654 1129.77 17.3415 1130.68 18.7433L1131.52 18.1979ZM1125.57 10.0152C1124.5 8.67904 1123.41 7.3871 1122.31 6.14735L1121.56 6.80863C1122.65 8.03728 1123.73 9.31757 1124.79 10.6416L1125.57 10.0152ZM1118.89 2.43705C1118.29 1.82067 1117.7 1.22247 1117.11 0.643747L1116.41 1.35625C1116.99 1.92922 1117.58 2.52165 1118.17 3.13224L1118.89 2.43705Z" fill="#579FFF"/>
</svg>
