<svg width="646" height="146" viewBox="0 0 646 146" fill="none" xmlns="http://www.w3.org/2000/svg">
<path d="M626.521 76.057L626.709 76.5202L626.709 76.5202L626.521 76.057ZM187.647 99.4231L187.628 98.9234L187.647 99.4231ZM1.5144 145.187C1.58018 145.456 1.85092 145.62 2.11912 145.554L6.48955 144.482C6.75774 144.416 6.92183 144.145 6.85604 143.877C6.79026 143.609 6.51951 143.445 6.25132 143.511L2.36649 144.464L1.41356 140.579C1.34777 140.311 1.07703 140.147 0.80884 140.212C0.540648 140.278 0.376566 140.549 0.442352 140.817L1.5144 145.187ZM2.4276 145.328C2.8081 144.7 3.28637 144.033 3.86922 143.331L3.10001 142.692C2.49046 143.426 1.98223 144.133 1.5724 144.809L2.4276 145.328ZM7.44821 139.759C8.60987 138.761 9.94699 137.724 11.4699 136.657L10.8961 135.838C9.34942 136.922 7.98592 137.979 6.79657 139L7.44821 139.759ZM15.7296 133.897C17.1018 133.07 18.5811 132.232 20.1716 131.385L19.7016 130.502C18.0964 131.357 16.6017 132.204 15.2135 133.041L15.7296 133.897ZM24.7203 129.089C26.1943 128.384 27.7458 127.674 29.377 126.964L28.9777 126.047C27.336 126.762 25.7736 127.476 24.2884 128.188L24.7203 129.089ZM34.1065 124.992C35.6391 124.38 37.2322 123.769 38.8873 123.159L38.5417 122.221C36.8784 122.833 35.2769 123.448 33.7357 124.063L34.1065 124.992ZM43.7069 121.45C45.2744 120.915 46.8915 120.382 48.559 119.853L48.2564 118.9C46.5822 119.431 44.9583 119.966 43.3838 120.504L43.7069 121.45ZM53.4418 118.356C55.0376 117.884 56.6755 117.414 58.3562 116.949L58.0895 115.986C56.4032 116.452 54.7596 116.923 53.1579 117.397L53.4418 118.356ZM63.3053 115.624C64.9308 115.203 66.5933 114.787 68.2933 114.374L68.0576 113.402C66.3526 113.816 64.6852 114.234 63.0546 114.656L63.3053 115.624ZM73.2739 113.204C74.9016 112.833 76.5614 112.467 78.2537 112.106L78.0447 111.128C76.3482 111.49 74.6841 111.857 73.052 112.229L73.2739 113.204ZM83.2799 111.065C84.9332 110.734 86.6157 110.406 88.3277 110.084L88.1427 109.101C86.4268 109.424 84.7405 109.752 83.0833 110.085L83.2799 111.065ZM93.3355 109.171C94.9984 108.877 96.6877 108.587 98.4038 108.303L98.2402 107.316C96.5206 107.601 94.8278 107.891 93.1614 108.186L93.3355 109.171ZM103.458 107.491C105.118 107.232 106.802 106.978 108.511 106.729L108.367 105.74C106.655 105.989 104.968 106.244 103.304 106.502L103.458 107.491ZM113.622 106.008C115.279 105.782 116.959 105.56 118.66 105.343L118.534 104.351C116.829 104.569 115.147 104.791 113.486 105.017L113.622 106.008ZM123.786 104.711C125.449 104.513 127.133 104.319 128.837 104.129L128.727 103.135C127.02 103.325 125.334 103.519 123.667 103.718L123.786 104.711ZM133.962 103.58C135.633 103.408 137.323 103.239 139.032 103.075L138.937 102.08C137.226 102.244 135.533 102.413 133.86 102.585L133.962 103.58ZM144.163 102.602C145.838 102.454 147.53 102.309 149.241 102.169L149.159 101.173C147.447 101.313 145.752 101.457 144.075 101.606L144.163 102.602ZM154.384 101.766C156.059 101.64 157.751 101.518 159.459 101.401L159.391 100.403C157.68 100.521 155.987 100.643 154.309 100.769L154.384 101.766ZM164.624 101.062C166.296 100.957 167.985 100.857 169.688 100.76L169.632 99.7621C167.926 99.8586 166.236 99.9592 164.561 100.064L164.624 101.062ZM174.846 100.484C176.526 100.399 178.221 100.317 179.93 100.24L179.885 99.2412C178.174 99.3185 176.477 99.3998 174.796 99.4851L174.846 100.484ZM185.065 100.022C185.928 99.9882 186.795 99.9549 187.665 99.9227L187.628 98.9234C186.757 98.9556 185.889 98.9889 185.025 99.0232L185.065 100.022ZM187.665 99.9227C188.486 99.8924 189.309 99.8621 190.134 99.832L190.098 98.8326C189.273 98.8628 188.449 98.893 187.628 98.9234L187.665 99.9227ZM195.107 99.6524C196.772 99.593 198.445 99.534 200.125 99.4753L200.09 98.4759C198.41 98.5346 196.737 98.5936 195.071 98.653L195.107 99.6524ZM205.132 99.3026C206.783 99.2462 208.44 99.1902 210.104 99.1345L210.071 98.1351C208.407 98.1907 206.749 98.2467 205.097 98.3031L205.132 99.3026ZM215.115 98.9685C216.782 98.9138 218.454 98.8595 220.133 98.8054L220.1 97.8059C218.422 97.86 216.749 97.9143 215.082 97.969L215.115 98.9685ZM225.104 98.6467C226.766 98.5941 228.434 98.5417 230.107 98.4897L230.076 97.4901C228.403 97.5422 226.735 97.5946 225.072 97.6472L225.104 98.6467ZM235.136 98.3343C236.788 98.2837 238.445 98.2333 240.106 98.1831L240.076 97.1835C238.414 97.2337 236.758 97.2841 235.105 97.3348L235.136 98.3343ZM245.102 98.0332C246.771 97.9834 248.445 97.9339 250.122 97.8845L250.093 96.8849C248.415 96.9343 246.742 96.9839 245.072 97.0336L245.102 98.0332ZM255.109 97.7386C256.769 97.6903 258.433 97.6422 260.1 97.5943L260.071 96.5947C258.404 96.6426 256.74 96.6908 255.08 96.739L255.109 97.7386ZM265.11 97.4508C266.775 97.4034 268.443 97.3561 270.114 97.3089L270.086 96.3093C268.415 96.3565 266.747 96.4038 265.082 96.4512L265.11 97.4508ZM275.101 97.1687C276.766 97.122 278.433 97.0755 280.103 97.0291L280.075 96.0294C278.405 96.0759 276.738 96.1224 275.073 96.1691L275.101 97.1687ZM285.117 96.89C286.777 96.8442 288.439 96.7983 290.103 96.7526L290.076 95.753C288.412 95.7987 286.75 95.8445 285.09 95.8904L285.117 96.89ZM295.101 96.6155C296.768 96.5699 298.437 96.5243 300.108 96.4787L300.081 95.4791C298.41 95.5247 296.741 95.5703 295.073 95.6159L295.101 96.6155ZM305.106 96.3426C306.77 96.2973 308.435 96.2521 310.101 96.2068L310.074 95.2072C308.408 95.2524 306.743 95.2977 305.079 95.343L305.106 96.3426ZM315.103 96.0711C316.77 96.0259 318.438 95.9806 320.106 95.9353L320.079 94.9357C318.41 94.981 316.743 95.0262 315.076 95.0714L315.103 96.0711ZM325.103 95.7997C326.769 95.7545 328.435 95.7092 330.102 95.6639L330.075 94.6642C328.408 94.7096 326.742 94.7549 325.076 94.8001L325.103 95.7997ZM335.102 95.5277C336.769 95.4822 338.436 95.4367 340.103 95.3911L340.076 94.3915C338.409 94.4371 336.742 94.4826 335.075 94.5281L335.102 95.5277ZM345.103 95.254C346.769 95.2082 348.435 95.1623 350.1 95.1163L350.073 94.1167C348.408 94.1627 346.742 94.2086 345.075 94.2544L345.103 95.254ZM355.1 94.9778C356.769 94.9314 358.437 94.8849 360.104 94.8382L360.076 93.8386C358.409 93.8853 356.741 93.9318 355.072 93.9782L355.1 94.9778ZM365.102 94.6979C366.767 94.6509 368.43 94.6038 370.092 94.5566L370.063 93.557C368.402 93.6042 366.738 93.6513 365.074 93.6983L365.102 94.6979ZM375.102 94.4134C376.772 94.3655 378.439 94.3175 380.104 94.2692L380.075 93.2696C378.41 93.3179 376.743 93.366 375.074 93.4139L375.102 94.4134ZM385.094 94.1237C386.764 94.0748 388.431 94.0256 390.097 93.9762L390.067 92.9766C388.402 93.026 386.734 93.0752 385.065 93.1241L385.094 94.1237ZM395.105 93.8267C396.772 93.7766 398.437 93.7263 400.098 93.6758L400.068 92.6762C398.406 92.7268 396.742 92.7771 395.075 92.8272L395.105 93.8267ZM405.085 93.5229C406.761 93.4711 408.434 93.4191 410.104 93.3668L410.072 92.3673C408.403 92.4196 406.73 92.4716 405.054 92.5234L405.085 93.5229ZM415.102 93.2089C416.764 93.1559 418.423 93.1027 420.078 93.0491L420.046 92.0496C418.391 92.1032 416.732 92.1564 415.07 92.2094L415.102 93.2089ZM425.098 92.8852C426.771 92.83 428.44 92.7746 430.104 92.7187L430.07 91.7193C428.406 91.7751 426.738 91.8306 425.065 91.8857L425.098 92.8852ZM435.083 92.5501C436.756 92.4929 438.425 92.4352 440.089 92.3772L440.054 91.3778C438.39 91.4358 436.722 91.4934 435.048 91.5507L435.083 92.5501ZM445.103 92.2004C446.77 92.1411 448.431 92.0813 450.086 92.021L450.049 91.0217C448.394 91.0819 446.734 91.1417 445.068 91.201L445.103 92.2004ZM455.076 91.8374C456.757 91.7748 458.432 91.7117 460.101 91.6482L460.063 90.6489C458.395 90.7125 456.72 90.7755 455.039 90.8381L455.076 91.8374ZM465.086 91.4559C466.752 91.3909 468.411 91.3254 470.063 91.2592L470.023 90.26C468.371 90.3261 466.713 90.3917 465.047 90.4567L465.086 91.4559ZM475.096 91.0552C476.767 90.9865 478.429 90.9173 480.084 90.8475L480.042 89.8484C478.387 89.9182 476.725 89.9874 475.055 90.056L475.096 91.0552ZM485.051 90.635C486.74 90.5617 488.42 90.4877 490.091 90.4131L490.046 89.4141C488.376 89.4887 486.696 89.5627 485.007 89.6359L485.051 90.635ZM495.077 90.187C496.742 90.1103 498.397 90.033 500.043 89.9548L499.995 88.956C498.35 89.0341 496.695 89.1114 495.031 89.188L495.077 90.187ZM505.085 89.7115C506.755 89.6296 508.414 89.5469 510.062 89.4633L510.011 88.4646C508.364 88.5481 506.705 88.6308 505.036 88.7127L505.085 89.7115ZM515.041 89.2064C516.732 89.1176 518.411 89.0279 520.076 88.9372L520.022 87.9387C518.357 88.0294 516.679 88.119 514.989 88.2078L515.041 89.2064ZM525.034 88.6623C526.719 88.5671 528.389 88.4708 530.045 88.3735L529.987 87.3752C528.331 87.4725 526.662 87.5687 524.978 87.6639L525.034 88.6623ZM535.059 88.0728C536.714 87.9714 538.355 87.8689 539.979 87.7652L539.915 86.7673C538.292 86.8709 536.652 86.9734 534.997 87.0747L535.059 88.0728ZM545.046 87.4344C546.721 87.3226 548.377 87.2094 550.014 87.0949L549.944 86.0973C548.308 86.2118 546.653 86.3248 544.98 86.4366L545.046 87.4344ZM555.003 86.7372C556.697 86.6127 558.369 86.4866 560.02 86.3589L559.942 85.3619C558.294 85.4895 556.623 85.6155 554.93 85.7399L555.003 86.7372ZM564.938 85.9679C566.653 85.8278 568.341 85.6858 570.003 85.5418L569.916 84.5456C568.257 84.6894 566.57 84.8312 564.857 84.9712L564.938 85.9679ZM574.905 85.104C576.626 84.9454 578.315 84.7846 579.971 84.6213L579.873 83.6261C578.219 83.7892 576.532 83.9498 574.813 84.1082L574.905 85.104ZM584.874 84.1207C586.6 83.9381 588.286 83.7525 589.93 83.564L589.817 82.5705C588.175 82.7587 586.492 82.9439 584.769 83.1263L584.874 84.1207ZM594.795 82.9824C596.54 82.7647 598.231 82.5431 599.868 82.3175L599.731 81.3269C598.099 81.5518 596.412 81.7729 594.671 81.9901L594.795 82.9824ZM604.788 81.6017C606.503 81.3379 608.146 81.0689 609.715 80.7945L609.542 79.8094C607.981 80.0826 606.345 80.3505 604.636 80.6133L604.788 81.6017ZM614.704 79.8512C616.462 79.4906 618.099 79.121 619.61 78.7419L619.367 77.7719C617.872 78.147 616.249 78.5135 614.503 78.8716L614.704 79.8512ZM624.454 77.3489C625.265 77.0778 626.018 76.8016 626.709 76.5202L626.332 75.5939C625.663 75.8662 624.931 76.135 624.137 76.4005L624.454 77.3489ZM626.709 76.5202C627.471 76.2103 628.206 75.8823 628.914 75.537L628.476 74.6381C627.788 74.9734 627.074 75.2923 626.332 75.5939L626.709 76.5202ZM633.065 73.1188C634.426 72.1771 635.658 71.1547 636.77 70.0602L636.069 69.3475C634.999 70.401 633.811 71.387 632.496 72.2965L633.065 73.1188ZM639.882 66.3879C640.811 65.0647 641.61 63.6714 642.29 62.2195L641.385 61.7954C640.728 63.1971 639.958 64.5397 639.063 65.8132L639.882 66.3879ZM643.976 57.7212C644.417 56.2016 644.755 54.6374 644.999 53.039L644.011 52.8881C643.773 54.4466 643.444 55.9678 643.015 57.4421L643.976 57.7212ZM645.455 48.2766C645.522 46.7033 645.513 45.1077 645.437 43.4986L644.438 43.5459C644.513 45.1275 644.521 46.693 644.456 48.234L645.455 48.2766ZM645.027 38.7467C644.834 37.1808 644.586 35.6097 644.291 34.0413L643.308 34.2265C643.6 35.7755 643.845 37.3255 644.035 38.869L645.027 38.7467ZM643.278 29.3895C642.898 27.8476 642.479 26.3155 642.027 24.8008L641.069 25.0867C641.516 26.5869 641.931 28.1033 642.307 29.6286L643.278 29.3895ZM640.565 20.2742C640.039 18.7595 639.486 17.271 638.914 15.8166L637.983 16.1829C638.551 17.6251 639.099 19.1009 639.62 20.6021L640.565 20.2742ZM637.088 11.4336C636.433 9.94308 635.763 8.50245 635.09 7.12211L634.191 7.5605C634.859 8.92914 635.523 10.3578 636.173 11.8361L637.088 11.4336ZM632.918 2.89403C632.53 2.17823 632.144 1.48617 631.763 0.819859L630.895 1.31686C631.273 1.97612 631.654 2.66123 632.038 3.3702L632.918 2.89403Z" fill="#579FFF"/>
</svg>
