<svg width="39" height="39" viewBox="0 0 39 39" fill="none" xmlns="http://www.w3.org/2000/svg">
<g clip-path="url(#clip0_116_1053)">
<path d="M22.7171 38.9998V25.4811H27.1419C27.466 23.4363 27.7642 21.536 28.0882 19.4825H22.915C22.3243 14.7449 22.2669 12.7897 28.1083 12.9487C28.1083 11.5228 28.1427 10.0969 28.0796 8.67389C28.0682 8.38755 27.6982 7.8814 27.486 7.87561C25.3525 7.82355 23.2706 7.33475 21.0682 8.00577C18.3153 8.84454 16.4226 11.6212 16.3653 14.4643C16.3338 16.0435 16.3596 17.6256 16.3596 19.361H11.5591V25.4002H16.2735V38.916C8.69147 38.1929 0.822648 31.3178 0.0684571 21.4608C-0.857793 9.39408 7.74802 0.81836 17.8364 0.0634651C29.7715 -0.830261 38.3229 7.96238 38.9595 18.2764C39.6707 29.8196 31.4262 37.788 22.7171 39.0027V38.9998Z" fill="#1877F2"/>
</g>
<defs>
<clipPath id="clip0_116_1053">
<rect width="39" height="39" fill="white"/>
</clipPath>
</defs>
</svg>
