<svg width="39" height="39" viewBox="0 0 39 39" fill="none" xmlns="http://www.w3.org/2000/svg">
<g clip-path="url(#clip0_116_1056)">
<path d="M38.9858 19.4439C39.428 29.9802 30.2416 39.3668 19.0364 38.9883C8.46866 38.6328 0.0403427 30.5564 0.000139434 19.484C-0.0400638 8.68971 8.61799 -0.349985 20.3545 0.0112593C30.2847 0.315163 39.2902 8.74132 38.9858 19.4439ZM31.9445 19.4955C31.8985 19.4955 31.8554 19.4898 31.8095 19.4898C31.8095 17.9158 31.7808 16.3389 31.8152 14.7649C31.9215 9.83079 28.7311 7.33075 24.2599 7.20173C21.058 7.10999 17.8475 7.07558 14.6513 7.23327C13.25 7.30208 11.7711 7.70059 10.5104 8.32273C7.65885 9.72757 7.26544 12.5745 7.18216 15.2924C7.07304 18.8475 7.26831 22.4141 7.43774 25.9721C7.56409 28.6155 9.83557 31.342 12.4459 31.4653C17.1267 31.6889 21.842 31.7692 26.5084 31.4309C29.0585 31.2445 31.0399 29.4154 31.4706 26.7204C31.8497 24.3493 31.8009 21.9095 31.9445 19.4984V19.4955Z" fill="url(#paint0_linear_116_1056)"/>
<path d="M19.599 29.2405C17.9737 29.2405 16.3483 29.2548 14.7258 29.2376C11.096 29.1946 9.93301 27.2021 9.76071 24.3609C9.56544 21.1297 9.56544 17.8671 9.76071 14.6331C9.93588 11.7575 11.142 9.79355 14.7344 9.76775C17.9823 9.74481 21.233 9.76775 24.4808 9.76201C27.2032 9.75628 29.2621 11.4708 29.2449 14.484C29.2306 16.9926 29.5235 19.5041 29.4689 22.0099C29.4344 23.5782 29.1473 25.1722 28.7309 26.6889C28.1996 28.6155 26.5054 29.1115 24.7565 29.2176C23.0421 29.3208 21.3163 29.2405 19.5961 29.2405H19.599ZM19.6191 13.1996C15.817 13.1996 13.2526 15.7197 13.1292 19.3149C12.9999 23.0822 16.2392 25.8947 19.3894 25.866C23.5045 25.8288 25.9913 22.9302 25.9942 19.5328C25.9971 16.1182 23.6165 12.9817 19.6191 13.2024V13.1996ZM27.967 13.363L27.9728 12.7294C27.3898 12.3137 26.8614 11.7087 26.2124 11.5252C25.1011 11.2127 24.5009 12.0814 24.4033 12.9903C24.3028 13.9393 25.0695 14.6761 25.9655 14.5643C26.6719 14.4754 27.3008 13.7844 27.967 13.363Z" fill="url(#paint1_linear_116_1056)"/>
<path d="M15.743 19.5646C15.2691 17.5176 17.7359 15.6253 19.433 15.5135C21.3111 15.3903 23.4419 17.5204 23.485 19.4327C23.528 21.3651 21.4174 23.5526 19.5623 23.4953C17.555 23.4351 15.743 21.5715 15.7401 19.5618L15.743 19.5646Z" fill="url(#paint2_linear_116_1056)"/>
</g>
<defs>
<linearGradient id="paint0_linear_116_1056" x1="37.9554" y1="17.4108" x2="9.40179" y2="39.6965" gradientUnits="userSpaceOnUse">
<stop stop-color="#B900B3"/>
<stop offset="0.475" stop-color="#F30506"/>
<stop offset="1" stop-color="#FFD220"/>
</linearGradient>
<linearGradient id="paint1_linear_116_1056" x1="28.9431" y1="18.4684" x2="14.5971" y2="29.8645" gradientUnits="userSpaceOnUse">
<stop stop-color="#B900B3"/>
<stop offset="0.475" stop-color="#F30506"/>
<stop offset="1" stop-color="#FFD220"/>
</linearGradient>
<linearGradient id="paint2_linear_116_1056" x1="23.2764" y1="19.0745" x2="17.4628" y2="23.506" gradientUnits="userSpaceOnUse">
<stop stop-color="#B900B3"/>
<stop offset="0.475" stop-color="#F30506"/>
<stop offset="1" stop-color="#FFD220"/>
</linearGradient>
<clipPath id="clip0_116_1056">
<rect width="39" height="39" fill="white"/>
</clipPath>
</defs>
</svg>
