<svg width="24" height="24" viewBox="0 0 24 24" fill="none" xmlns="http://www.w3.org/2000/svg">
<g clip-path="url(#clip0_116_1043)">
<path d="M21.0701 2.8678H2.93482C1.31595 2.8678 0 4.18375 0 5.80262V18.1974C0 19.8163 1.31595 21.1322 2.93482 21.1322H21.0652C22.684 21.1322 24 19.8163 24 18.1974V5.80759C24.005 4.18872 22.689 2.8678 21.0701 2.8678ZM22.6642 18.1974C22.6642 19.0764 21.9491 19.7914 21.0701 19.7914H2.93482C2.05587 19.7914 1.34078 19.0764 1.34078 18.1974V5.80759C1.34078 4.92863 2.05587 4.21355 2.93482 4.21355H21.0652C21.9441 4.21355 22.6592 4.92863 22.6592 5.80759V18.1974H22.6642Z" fill="#579FFF"/>
<path d="M15.1388 11.8457L21.0085 6.58187C21.2816 6.33358 21.3064 5.91148 21.0581 5.63339C20.8099 5.36027 20.3878 5.33544 20.1097 5.58373L12.0153 12.8488L10.4362 11.4385C10.4312 11.4335 10.4262 11.4285 10.4262 11.4236C10.3915 11.3888 10.3567 11.359 10.317 11.3292L3.89117 5.57877C3.61308 5.33047 3.19098 5.3553 2.94269 5.63339C2.6944 5.91148 2.71922 6.33358 2.99731 6.58187L8.93648 11.8904L3.02214 17.4273C2.75399 17.6806 2.73909 18.1027 2.99235 18.3758C3.12643 18.5148 3.3052 18.5893 3.48397 18.5893C3.64784 18.5893 3.81171 18.5297 3.94083 18.4105L9.94455 12.7942L11.5734 14.2492C11.7025 14.3634 11.8614 14.418 12.0203 14.418C12.1792 14.418 12.3431 14.3584 12.4672 14.2442L14.1407 12.7445L20.1097 18.4155C20.2388 18.5397 20.4076 18.5992 20.5715 18.5992C20.7503 18.5992 20.9241 18.5297 21.0581 18.3907C21.3114 18.1225 21.3015 17.6955 21.0333 17.4422L15.1388 11.8457Z" fill="#579FFF"/>
</g>
<defs>
<clipPath id="clip0_116_1043">
<rect width="24" height="24" fill="white"/>
</clipPath>
</defs>
</svg>
