<svg width="29" height="29" viewBox="0 0 29 29" fill="none" xmlns="http://www.w3.org/2000/svg">
<path d="M24.2194 19.0942C22.5974 19.0942 21.0087 18.8149 19.5015 18.2654C18.7666 17.9861 17.9335 18.2013 17.4491 18.7447L14.4639 21.2311C11.0399 19.2164 8.84772 16.8002 7.04306 13.0485L9.23664 9.83408C9.78884 9.22358 9.98677 8.33369 9.75011 7.49882C9.25045 5.829 8.99582 4.07527 8.99582 2.28948C8.99582 1.02719 8.06443 0 6.91987 0H2.07595C0.93139 0 0 1.02719 0 2.28948C0 17.0169 10.8655 29 24.2194 29C25.364 29 26.2954 27.9728 26.2954 26.7105V21.3837C26.2954 20.1214 25.364 19.0942 24.2194 19.0942ZM24.9115 26.7105C24.9115 27.1318 24.6001 27.4737 24.2194 27.4737C11.6281 27.4737 1.38395 16.1759 1.38395 2.28948C1.38395 1.86821 1.69534 1.52629 2.07595 1.52629H6.91987C7.30048 1.52629 7.61188 1.86821 7.61188 2.28948C7.61188 4.23861 7.88869 6.15261 8.43116 7.96737C8.51141 8.25277 8.44641 8.5474 8.19314 8.83737L5.6743 12.5158C5.51516 12.7493 5.49025 13.0622 5.61066 13.3217C7.66306 17.7678 10.1556 20.5183 14.2162 22.8123C14.4501 22.9466 14.7366 22.9192 14.9483 22.7421L18.3557 19.894C18.5411 19.6926 18.8137 19.6224 19.0601 19.7124C20.7154 20.3153 22.4509 20.6205 24.2196 20.6205C24.6002 20.6205 24.9116 20.9624 24.9116 21.3837V26.7105H24.9115Z" fill="white"/>
</svg>
