<svg width="23" height="25" viewBox="0 0 23 25" fill="none" xmlns="http://www.w3.org/2000/svg">
<path d="M20.7798 16.4605C19.3882 16.4605 18.025 16.2197 16.7319 15.7461C16.1014 15.5053 15.3866 15.6908 14.971 16.1592L12.4098 18.3027C9.47206 16.5658 7.59118 14.4829 6.04282 11.2487L7.92486 8.47766C8.39865 7.95136 8.56847 7.18422 8.36542 6.4645C7.93672 5.025 7.71825 3.51316 7.71825 1.97369C7.71825 0.885506 6.91914 0 5.93712 0H1.78113C0.799116 0 0 0.885506 0 1.97369C0 14.6697 9.32244 25 20.7798 25C21.7619 25 22.561 24.1145 22.561 23.0263V18.4342C22.561 17.346 21.7619 16.4605 20.7798 16.4605ZM21.3736 23.0263C21.3736 23.3895 21.1064 23.6842 20.7798 23.6842C9.97667 23.6842 1.1874 13.9448 1.1874 1.97369C1.1874 1.61053 1.45457 1.31577 1.78113 1.31577H5.93712C6.26368 1.31577 6.53085 1.61053 6.53085 1.97369C6.53085 3.65397 6.76835 5.30397 7.23379 6.86843C7.30264 7.11446 7.24687 7.36845 7.02957 7.61843L4.86844 10.7895C4.73191 10.9908 4.71054 11.2605 4.81384 11.4842C6.57477 15.3171 8.71335 17.6882 12.1972 19.6658C12.3979 19.7816 12.6437 19.7579 12.8254 19.6053L15.7488 17.15C15.908 16.9763 16.1418 16.9158 16.3532 16.9934C17.7734 17.5132 19.2624 17.7763 20.78 17.7763C21.1065 17.7763 21.3737 18.0711 21.3737 18.4342V23.0263H21.3736Z" fill="#579FFF"/>
</svg>
