<svg width="23" height="29" viewBox="0 0 23 29" fill="none" xmlns="http://www.w3.org/2000/svg">
<path d="M19.0566 16.3408C18.0744 18.2451 16.7434 20.1422 15.3825 21.8456C14.0915 23.4515 12.7111 24.9898 11.2473 26.4538C9.78341 24.9898 8.403 23.4515 7.11203 21.8456C5.75111 20.1422 4.42018 18.2451 3.43792 16.3408C2.44441 14.4169 1.87455 12.6148 1.87455 11.0692C1.87455 8.69139 2.86203 6.41101 4.61976 4.72966C6.37748 3.04832 8.76147 2.10375 11.2473 2.10375C13.7331 2.10375 16.1171 3.04832 17.8748 4.72966C19.6325 6.41101 20.62 8.69139 20.62 11.0692C20.62 12.6148 20.0483 14.4169 19.0566 16.3408ZM11.2473 29C11.2473 29 22.4946 18.8045 22.4946 11.0692C22.4946 8.21584 21.3096 5.47937 19.2003 3.46176C17.091 1.44415 14.2302 0.310669 11.2473 0.310669C8.26431 0.310669 5.40352 1.44415 3.29425 3.46176C1.18498 5.47937 4.44496e-08 8.21584 0 11.0692C0 18.8045 11.2473 29 11.2473 29Z" fill="#579FFF"/>
<path d="M11.2477 14.6561C10.2533 14.6561 9.29974 14.2782 8.59665 13.6057C7.89356 12.9332 7.49857 12.021 7.49857 11.0699C7.49857 10.1188 7.89356 9.20663 8.59665 8.53409C9.29974 7.86155 10.2533 7.48373 11.2477 7.48373C12.242 7.48373 13.1956 7.86155 13.8987 8.53409C14.6018 9.20663 14.9968 10.1188 14.9968 11.0699C14.9968 12.021 14.6018 12.9332 13.8987 13.6057C13.1956 14.2782 12.242 14.6561 11.2477 14.6561ZM11.2477 16.4491C12.7391 16.4491 14.1695 15.8824 15.2242 14.8736C16.2788 13.8648 16.8713 12.4966 16.8713 11.0699C16.8713 9.64323 16.2788 8.275 15.2242 7.26619C14.1695 6.25738 12.7391 5.69064 11.2477 5.69064C9.75618 5.69064 8.32579 6.25738 7.27115 7.26619C6.21651 8.275 5.62402 9.64323 5.62402 11.0699C5.62402 12.4966 6.21651 13.8648 7.27115 14.8736C8.32579 15.8824 9.75618 16.4491 11.2477 16.4491Z" fill="#579FFF"/>
</svg>
