<svg width="39" height="39" viewBox="0 0 39 39" fill="none" xmlns="http://www.w3.org/2000/svg">
<g clip-path="url(#clip0_116_1062)">
<path d="M39 19.4953C39.0016 30.259 30.2609 38.9984 19.4866 39.0016C8.71389 39.0047 -0.00629275 30.2732 3.40733e-06 19.489C0.00629957 8.68276 8.695 -0.00314735 19.4929 8.5553e-07C30.2845 0.00314906 38.9984 8.71109 39 19.4953ZM19.2049 31.7198C21.8823 31.6537 24.6148 31.8048 27.3348 31.5325C28.7971 31.3861 29.847 30.2322 29.9508 28.7589C30.1397 26.0861 30.1649 23.4164 29.9619 20.742C29.8312 19.0199 28.8348 17.896 27.105 17.7748C25.6411 17.6709 24.171 17.6567 22.7024 17.6504C19.0317 17.6315 15.3579 17.5261 11.692 17.8078C10.1652 17.9259 9.12157 19.1018 9.01453 20.616C8.82565 23.2889 8.81778 25.9601 9.00981 28.633C9.12944 30.3062 10.2454 31.4254 11.9218 31.5608C14.3316 31.756 16.7462 31.6615 19.2049 31.7198ZM15.2084 10.7858C15.1564 10.7826 15.1029 10.7779 15.051 10.7747C14.7787 9.73898 14.5142 8.70165 14.2309 7.66746C14.0231 6.9056 13.3888 7.2881 12.989 7.31958C12.5483 7.35264 12.8457 7.76191 12.915 7.98858C13.713 10.6378 14.7551 13.2414 14.3836 16.1031C14.3741 16.1786 14.3915 16.2605 14.4025 16.3376C14.4198 16.4541 14.5001 16.5013 14.6055 16.5423C15.3343 16.8335 15.9151 16.4872 15.86 15.719C15.7042 13.5877 16.071 11.5539 16.8359 9.57055C17.0705 8.96138 17.2247 8.32229 17.4136 7.6958C17.4545 7.55885 17.5742 7.41718 17.368 7.29755C16.8989 7.02365 16.0552 7.3857 15.9214 7.92561C15.6837 8.87952 15.4476 9.83343 15.21 10.7873L15.2084 10.7858ZM21.27 13.1233C21.2558 13.1233 21.2417 13.1233 21.2275 13.1233C21.2275 12.4701 21.27 11.8137 21.2181 11.1635C21.1362 10.1435 20.4011 9.51546 19.378 9.51231C18.347 9.50916 17.56 10.101 17.5254 11.0313C17.4734 12.415 17.4703 13.8033 17.5285 15.1854C17.5663 16.0716 18.3155 16.6871 19.2159 16.7233C20.2642 16.7658 21.0245 16.2526 21.1567 15.3113C21.2574 14.5904 21.237 13.8537 21.2716 13.1249L21.27 13.1233ZM26.0063 13.1737C26.0063 12.256 25.9921 11.3398 26.0126 10.4221C26.0236 9.95936 26.022 9.63981 25.3783 9.64769C24.7801 9.65556 24.7014 9.90112 24.7109 10.4001C24.736 11.7617 24.714 13.1249 24.7203 14.4881C24.7235 14.9996 24.437 15.3255 23.9821 15.3302C23.4438 15.3365 23.6389 14.8312 23.6342 14.54C23.6122 13.0997 23.6138 11.6578 23.6295 10.2159C23.6342 9.81297 23.5036 9.6162 23.0896 9.67287C22.7905 9.7138 22.3325 9.50287 22.3341 10.0711C22.3404 12.0088 22.3435 13.9481 22.3907 15.8859C22.4049 16.4667 22.8267 16.6761 23.3808 16.621C23.735 16.5863 24.0183 16.4053 24.2906 16.1944C24.4606 16.0622 24.6164 15.8024 24.7423 16.2857C24.8856 16.8366 25.3987 16.5061 25.7371 16.536C26.1007 16.5674 25.9969 16.2133 25.9984 16.0039C26.0094 15.061 26.0031 14.1166 26.0031 13.1737H26.0063Z" fill="#FF0000"/>
<path d="M21.2242 22.7222C21.539 22.7773 21.6602 22.5569 21.8459 22.4782C22.6093 22.1555 23.2657 22.4499 23.5018 23.2527C23.5742 23.5014 23.6261 23.7658 23.6293 24.0224C23.6419 25.3053 23.6592 26.5898 23.6293 27.8727C23.5994 29.1902 22.8423 29.6656 21.6555 29.1351C21.4477 29.0422 21.3658 29.0406 21.1439 29.1792C20.4308 29.6246 19.9083 29.3051 19.9083 28.485C19.9067 25.8924 19.9224 23.2983 19.8957 20.7058C19.8894 20.1548 20.0594 20.0053 20.6024 19.9943C21.1817 19.9817 21.2446 20.2461 21.2305 20.7026C21.2084 21.3779 21.2242 22.0563 21.2242 22.7222ZM22.2583 25.8783C22.2583 25.8783 22.2504 25.8783 22.2473 25.8783C22.2473 25.2518 22.2552 24.6269 22.2441 24.0004C22.2378 23.6667 22.0836 23.4541 21.7121 23.4778C21.4005 23.4982 21.232 23.6698 21.232 23.9799C21.2289 25.2313 21.2257 26.4843 21.2336 27.7357C21.2352 28.093 21.4729 28.2347 21.7987 28.2504C22.2079 28.2709 22.2552 27.986 22.2567 27.679C22.2599 27.0793 22.2567 26.4796 22.2567 25.8798L22.2583 25.8783Z" fill="#FF0000"/>
<path d="M24.5938 25.8292C24.5938 25.2531 24.5687 24.6754 24.5986 24.1009C24.6568 23.0179 25.4816 22.2545 26.552 22.2545C27.6569 22.2545 28.3023 22.903 28.37 24.082C28.4786 25.9867 28.4786 26.0071 26.585 26.0008C26.0404 25.9992 25.8106 26.1456 25.8861 26.7013C25.9318 27.0366 25.9255 27.3782 25.9648 27.715C26.0026 28.033 26.1474 28.2502 26.5205 28.2408C26.9124 28.2313 26.9392 27.9448 27.0352 27.6646C27.1328 27.3813 26.84 26.9469 27.3642 26.8209C28.1449 26.632 28.414 26.8493 28.3668 27.6521C28.3007 28.7933 27.6302 29.4544 26.5236 29.4733C25.4533 29.4906 24.6804 28.8074 24.6049 27.7134C24.5608 27.0885 24.597 26.4573 24.597 25.8292C24.597 25.8292 24.5938 25.8292 24.5923 25.8292H24.5938ZM27.0604 24.3952C26.9974 24.0127 27.0966 23.487 26.4701 23.498C25.8452 23.5106 25.9759 24.0552 25.9019 24.433C25.8137 24.8801 26.0829 24.9446 26.4512 24.943C26.8369 24.943 27.1485 24.9131 27.0604 24.3937V24.3952Z" fill="#FF0000"/>
<path d="M17.3367 28.688C17.1667 28.7919 17.0974 28.825 17.0376 28.8722C16.5686 29.2437 16.0491 29.5633 15.4573 29.2594C14.8969 28.973 14.9898 28.3717 14.9866 27.8522C14.9788 26.3049 14.9898 24.7575 14.9772 23.2086C14.9725 22.7332 14.9394 22.3727 15.6399 22.3838C16.3025 22.3932 16.2616 22.7316 16.2569 23.1755C16.2459 24.5403 16.2412 25.9035 16.2616 27.2682C16.2663 27.583 16.0617 28.1151 16.6772 28.0757C17.1557 28.0442 17.3682 27.6995 17.3603 27.1942C17.3414 25.831 17.3682 24.4663 17.3461 23.1016C17.3383 22.634 17.4075 22.3932 17.9726 22.3916C18.5471 22.3916 18.6715 22.5994 18.6636 23.1236C18.6384 24.959 18.6589 26.796 18.6479 28.633C18.6479 28.9131 18.7848 29.335 18.2543 29.3004C17.8671 29.2752 17.28 29.5507 17.3351 28.6896L17.3367 28.688Z" fill="#FF0000"/>
<path d="M12.022 25.3259C12.022 24.2241 11.9952 23.1222 12.033 22.0219C12.0519 21.4772 11.8819 21.227 11.3294 21.3246C10.6164 21.4521 10.4905 21.0853 10.5471 20.4793C10.577 20.1613 10.6431 20.0055 10.9957 20.0102C12.1763 20.0243 13.3568 20.0354 14.5357 20.007C15.1197 19.9929 14.9686 20.3801 14.9906 20.6933C15.0174 21.0633 15.0048 21.4143 14.4822 21.3167C13.5835 21.1483 13.4638 21.6158 13.4811 22.3745C13.5236 24.3657 13.4906 26.3601 13.4985 28.3529C13.5 28.8881 13.5866 29.3399 12.7398 29.3367C11.8457 29.3336 12.0267 28.8078 12.0236 28.312C12.0189 27.3156 12.0236 26.3192 12.022 25.3228V25.3259Z" fill="#FF0000"/>
<path d="M19.8832 13.106C19.8832 13.7073 19.8848 14.3086 19.8832 14.9099C19.8816 15.2845 19.7116 15.5018 19.3134 15.4939C18.9372 15.4876 18.8128 15.2326 18.8097 14.9225C18.7971 13.7199 18.7971 12.5188 18.8065 11.3162C18.8097 10.9526 18.9844 10.7212 19.3858 10.737C19.8076 10.7527 19.8911 11.0345 19.8895 11.3808C19.8895 11.9553 19.8895 12.5314 19.8895 13.106C19.8879 13.106 19.8863 13.106 19.8832 13.106Z" fill="#FF0000"/>
</g>
<defs>
<clipPath id="clip0_116_1062">
<rect width="39" height="39" fill="white"/>
</clipPath>
</defs>
</svg>
